<svg xmlns="http://www.w3.org/2000/svg" width="115" height="37" fill="none" viewBox="0 0 115 37">
    <g filter="url(#filter0_d)" opacity="1">
        <path fill="url(#paint0_linear)" d="M28.285 18.293l-7.671-7.671c-.228-.231-.065-.622.26-.622h7.19c.264 0 .519.105.706.293l8 8c.391.39.391 1.024 0 1.414l-5.603 5.604-2.134 2.36c-.19.21-.46.329-.742.329h-7.418c-.324 0-.487-.39-.26-.621l7.672-7.672c.39-.39.39-1.023 0-1.414z"/>
        <animate id="animation1" attributeType="xml" attributeName="opacity" begins="0s" values="1;0.2;0.4;0.6;0.8" dur=".7s" repeatCount="indefinite"/>
    </g>
    <g filter="url(#filter1_d)" opacity=".8">
        <path fill="url(#paint1_linear)" d="M42.52 18.293l-7.671-7.671c-.228-.231-.065-.622.26-.622h7.19c.264 0 .519.105.706.293l8 8c.39.39.39 1.024 0 1.414l-5.603 5.604-2.135 2.36c-.19.21-.459.329-.741.329h-7.418c-.324 0-.487-.39-.26-.621l7.672-7.672c.39-.39.39-1.023 0-1.414z"/>
        <animate id="animation2" attributeType="xml" attributeName="opacity" begins="0s" values="0.8;1;0.2;0.4;0.6;" dur=".7s" repeatCount="indefinite"/>
    </g>
    <g filter="url(#filter2_d)" opacity=".6">
        <path fill="url(#paint2_linear)" d="M56.755 18.293l-7.672-7.671c-.227-.231-.064-.622.26-.622h7.19c.265 0 .52.105.707.293l8 8c.39.39.39 1.024 0 1.414l-5.603 5.604-2.135 2.36c-.19.21-.459.329-.741.329h-7.418c-.324 0-.487-.39-.26-.621l7.672-7.672c.39-.39.39-1.023 0-1.414z"/>
        <animate id="animation3" attributeType="xml" attributeName="opacity" begins="0s" values="0.6;0.8;1;0.2;0.4" dur=".7s" repeatCount="indefinite"/>
    </g>
    <g filter="url(#filter3_d)" opacity=".4">
        <path fill="url(#paint3_linear)" d="M70.99 18.293l-7.672-7.671c-.227-.231-.064-.622.26-.622h7.19c.265 0 .52.105.707.293l8 8c.39.39.39 1.024 0 1.414l-5.603 5.604-2.135 2.36c-.19.21-.459.329-.741.329h-7.418c-.324 0-.487-.39-.26-.621l7.672-7.672c.39-.39.39-1.023 0-1.414z"/>
        <animate id="animation4" attributeType="xml" attributeName="opacity" begins="0s" values="0.4;0.6;0.8;1;0.2;" dur=".7s" repeatCount="indefinite"/>
    </g>
    <g filter="url(#filter4_d)" opacity=".2">
        <path fill="url(#paint4_linear)" d="M85.225 18.293l-7.672-7.671c-.228-.231-.064-.622.26-.622h7.19c.265 0 .52.105.707.293l8 8c.39.39.39 1.024 0 1.414l-5.603 5.604-2.135 2.36c-.19.21-.459.329-.742.329h-7.417c-.324 0-.487-.39-.26-.621l7.672-7.672c.39-.39.39-1.023 0-1.414z"/>
        <animate id="animation5" attributeType="xml" attributeName="opacity" begins="0s" values="0.2;0.4;0.6;0.8;1" dur=".7s" repeatCount="indefinite"/>
    </g>
    <defs>
        <linearGradient id="paint0_linear" x1="11.261" x2="29.253" y1="19" y2="36.47" gradientUnits="userSpaceOnUse">
            <stop stop-color="#F48836"/>
            <stop offset="1" stop-color="#F4364C"/>
        </linearGradient>
        <linearGradient id="paint1_linear" x1="25.496" x2="43.488" y1="19" y2="36.47" gradientUnits="userSpaceOnUse">
            <stop stop-color="#F48836"/>
            <stop offset="1" stop-color="#F4364C"/>
        </linearGradient>
        <linearGradient id="paint2_linear" x1="39.731" x2="57.723" y1="19" y2="36.47" gradientUnits="userSpaceOnUse">
            <stop stop-color="#F48836"/>
            <stop offset="1" stop-color="#F4364C"/>
        </linearGradient>
        <linearGradient id="paint3_linear" x1="53.966" x2="71.958" y1="19" y2="36.47" gradientUnits="userSpaceOnUse">
            <stop stop-color="#F48836"/>
            <stop offset="1" stop-color="#F4364C"/>
        </linearGradient>
        <linearGradient id="paint4_linear" x1="68.201" x2="86.193" y1="19" y2="36.47" gradientUnits="userSpaceOnUse">
            <stop stop-color="#F48836"/>
            <stop offset="1" stop-color="#F4364C"/>
        </linearGradient>
        <filter id="filter0_d" width="56.556" height="58" x=".508" y="0" color-interpolation-filters="sRGB" filterUnits="userSpaceOnUse">
            <feFlood flood-opacity="0" result="BackgroundImageFix"/>
            <feColorMatrix in="SourceAlpha" values="0 0 0 0 0 0 0 0 0 0 0 0 0 0 0 0 0 0 127 0"/>
            <feOffset dy="10"/>
            <feGaussianBlur stdDeviation="10"/>
            <feColorMatrix values="0 0 0 0 0 0 0 0 0 0 0 0 0 0 0 0 0 0 0.1 0"/>
            <feBlend in2="BackgroundImageFix" result="effect1_dropShadow"/>
            <feBlend in="SourceGraphic" in2="effect1_dropShadow" result="shape"/>
        </filter>
        <filter id="filter1_d" width="56.556" height="58" x="14.742" y="0" color-interpolation-filters="sRGB" filterUnits="userSpaceOnUse">
            <feFlood flood-opacity="0" result="BackgroundImageFix"/>
            <feColorMatrix in="SourceAlpha" values="0 0 0 0 0 0 0 0 0 0 0 0 0 0 0 0 0 0 127 0"/>
            <feOffset dy="10"/>
            <feGaussianBlur stdDeviation="10"/>
            <feColorMatrix values="0 0 0 0 0 0 0 0 0 0 0 0 0 0 0 0 0 0 0.1 0"/>
            <feBlend in2="BackgroundImageFix" result="effect1_dropShadow"/>
            <feBlend in="SourceGraphic" in2="effect1_dropShadow" result="shape"/>
        </filter>
        <filter id="filter2_d" width="56.556" height="58" x="28.977" y="0" color-interpolation-filters="sRGB" filterUnits="userSpaceOnUse">
            <feFlood flood-opacity="0" result="BackgroundImageFix"/>
            <feColorMatrix in="SourceAlpha" values="0 0 0 0 0 0 0 0 0 0 0 0 0 0 0 0 0 0 127 0"/>
            <feOffset dy="10"/>
            <feGaussianBlur stdDeviation="10"/>
            <feColorMatrix values="0 0 0 0 0 0 0 0 0 0 0 0 0 0 0 0 0 0 0.1 0"/>
            <feBlend in2="BackgroundImageFix" result="effect1_dropShadow"/>
            <feBlend in="SourceGraphic" in2="effect1_dropShadow" result="shape"/>
        </filter>
        <filter id="filter3_d" width="56.556" height="58" x="43.212" y="0" color-interpolation-filters="sRGB" filterUnits="userSpaceOnUse">
            <feFlood flood-opacity="0" result="BackgroundImageFix"/>
            <feColorMatrix in="SourceAlpha" values="0 0 0 0 0 0 0 0 0 0 0 0 0 0 0 0 0 0 127 0"/>
            <feOffset dy="10"/>
            <feGaussianBlur stdDeviation="10"/>
            <feColorMatrix values="0 0 0 0 0 0 0 0 0 0 0 0 0 0 0 0 0 0 0.1 0"/>
            <feBlend in2="BackgroundImageFix" result="effect1_dropShadow"/>
            <feBlend in="SourceGraphic" in2="effect1_dropShadow" result="shape"/>
        </filter>
        <filter id="filter4_d" width="56.556" height="58" x="57.447" y="0" color-interpolation-filters="sRGB" filterUnits="userSpaceOnUse">
            <feFlood flood-opacity="0" result="BackgroundImageFix"/>
            <feColorMatrix in="SourceAlpha" values="0 0 0 0 0 0 0 0 0 0 0 0 0 0 0 0 0 0 127 0"/>
            <feOffset dy="10"/>
            <feGaussianBlur stdDeviation="10"/>
            <feColorMatrix values="0 0 0 0 0 0 0 0 0 0 0 0 0 0 0 0 0 0 0.1 0"/>
            <feBlend in2="BackgroundImageFix" result="effect1_dropShadow"/>
            <feBlend in="SourceGraphic" in2="effect1_dropShadow" result="shape"/>
        </filter>
    </defs>
</svg>
