<svg xmlns="http://www.w3.org/2000/svg" width="14" height="12" fill="none" viewBox="0 0 14 12">
    <path fill="#F45443" d="M13.804 9.872L8.31.722C8.043.274 7.542 0 7 0S5.958.275 5.69.721L.196 9.872c-.264.441-.261.982.009 1.42.27.438.765.708 1.301.708h10.987c.537 0 1.032-.27 1.302-.708.27-.438.273-.979.009-1.42zm-6.053.446c-.185.155-.403.234-.65.234-.249 0-.47-.078-.656-.23-.19-.157-.287-.376-.287-.652 0-.242.091-.45.27-.62.18-.17.403-.256.662-.256.26 0 .484.086.667.255.184.17.277.38.277.621 0 .272-.095.49-.283.648zm.243-5.892l-.239 2.592c-.027.322-.085.565-.176.742-.101.196-.278.3-.511.3-.238 0-.413-.102-.506-.294-.084-.17-.14-.419-.176-.758l-.178-2.523c-.034-.498-.05-.846-.05-1.063 0-.314.09-.564.268-.744.18-.182.419-.274.709-.274.358 0 .602.123.727.365.115.223.171.532.171.943.001.233-.012.473-.039.714z"/>
</svg>
