<svg xmlns="http://www.w3.org/2000/svg" width="82" height="68" fill="none" viewBox="0 0 82 68">
    <path fill="#FFC107" d="M75 29.103V65.31c0 1.429-1.158 2.586-2.586 2.586H2.586C1.158 67.896 0 66.74 0 65.31V13.586C0 12.158 1.158 11 2.586 11h69.828C73.842 11 75 12.158 75 13.586v15.517z"/>
    <path fill="#FFD550" d="M74.353 11.892l-34.357 29.34c-1.442 1.216-3.55 1.216-4.992 0L.646 11.893C1.132 11.326 1.84 11 2.586 11h69.828c.745 0 1.454.326 1.94.892z"/>
    <path fill="#FFA000" d="M74.082 67.276c-.464.4-1.056.62-1.668.62H2.586c-.612 0-1.204-.22-1.668-.62L29.56 36.591l5.444 4.642c1.442 1.216 3.55 1.216 4.992 0l5.43-4.642 28.656 30.685z"/>
    <circle cx="71" cy="11" r="11" fill="#41AF60"/>
    <path stroke="#fff" stroke-linecap="round" stroke-linejoin="round" stroke-width="3" d="M65.923 10.839l3.49 3.546 6.664-6.77"/>
</svg>
