<svg width="384" height="4" viewBox="0 0 384 4" fill="none" xmlns="http://www.w3.org/2000/svg">
<path fill-rule="evenodd" clip-rule="evenodd" d="M4 2C4 3.10457 3.10457 4 2 4C0.895431 4 0 3.10457 0 2C0 0.895431 0.895431 0 2 0C3.10457 0 4 0.895431 4 2ZM23 2C23 3.10457 22.1046 4 21 4C19.8954 4 19 3.10457 19 2C19 0.895431 19.8954 0 21 0C22.1046 0 23 0.895431 23 2ZM40 4C41.1046 4 42 3.10457 42 2C42 0.895431 41.1046 0 40 0C38.8954 0 38 0.895431 38 2C38 3.10457 38.8954 4 40 4ZM61 2C61 3.10457 60.1046 4 59 4C57.8954 4 57 3.10457 57 2C57 0.895431 57.8954 0 59 0C60.1046 0 61 0.895431 61 2ZM78 4C79.1046 4 80 3.10457 80 2C80 0.895431 79.1046 0 78 0C76.8954 0 76 0.895431 76 2C76 3.10457 76.8954 4 78 4ZM99 2C99 3.10457 98.1046 4 97 4C95.8954 4 95 3.10457 95 2C95 0.895431 95.8954 0 97 0C98.1046 0 99 0.895431 99 2ZM116 4C117.105 4 118 3.10457 118 2C118 0.895431 117.105 0 116 0C114.895 0 114 0.895431 114 2C114 3.10457 114.895 4 116 4ZM137 2C137 3.10457 136.105 4 135 4C133.895 4 133 3.10457 133 2C133 0.895431 133.895 0 135 0C136.105 0 137 0.895431 137 2ZM154 4C155.105 4 156 3.10457 156 2C156 0.895431 155.105 0 154 0C152.895 0 152 0.895431 152 2C152 3.10457 152.895 4 154 4ZM175 2C175 3.10457 174.105 4 173 4C171.895 4 171 3.10457 171 2C171 0.895431 171.895 0 173 0C174.105 0 175 0.895431 175 2ZM192 4C193.105 4 194 3.10457 194 2C194 0.895431 193.105 0 192 0C190.895 0 190 0.895431 190 2C190 3.10457 190.895 4 192 4ZM213 2C213 3.10457 212.105 4 211 4C209.895 4 209 3.10457 209 2C209 0.895431 209.895 0 211 0C212.105 0 213 0.895431 213 2ZM230 4C231.105 4 232 3.10457 232 2C232 0.895431 231.105 0 230 0C228.895 0 228 0.895431 228 2C228 3.10457 228.895 4 230 4ZM251 2C251 3.10457 250.105 4 249 4C247.895 4 247 3.10457 247 2C247 0.895431 247.895 0 249 0C250.105 0 251 0.895431 251 2ZM268 4C269.105 4 270 3.10457 270 2C270 0.895431 269.105 0 268 0C266.895 0 266 0.895431 266 2C266 3.10457 266.895 4 268 4ZM289 2C289 3.10457 288.105 4 287 4C285.895 4 285 3.10457 285 2C285 0.895431 285.895 0 287 0C288.105 0 289 0.895431 289 2ZM306 4C307.105 4 308 3.10457 308 2C308 0.895431 307.105 0 306 0C304.895 0 304 0.895431 304 2C304 3.10457 304.895 4 306 4ZM327 2C327 3.10457 326.105 4 325 4C323.895 4 323 3.10457 323 2C323 0.895431 323.895 0 325 0C326.105 0 327 0.895431 327 2ZM344 4C345.105 4 346 3.10457 346 2C346 0.895431 345.105 0 344 0C342.895 0 342 0.895431 342 2C342 3.10457 342.895 4 344 4ZM365 2C365 3.10457 364.105 4 363 4C361.895 4 361 3.10457 361 2C361 0.895431 361.895 0 363 0C364.105 0 365 0.895431 365 2ZM382 4C383.105 4 384 3.10457 384 2C384 0.895431 383.105 0 382 0C380.895 0 380 0.895431 380 2C380 3.10457 380.895 4 382 4Z" fill="url(#paint0_linear)"/>
<defs>
<linearGradient id="paint0_linear" x1="-1.6111e-07" y1="1.99998" x2="270" y2="-0.000278828" gradientUnits="userSpaceOnUse">
<stop stop-color="#F57F39"/>
<stop offset="1" stop-color="#F54748"/>
</linearGradient>
</defs>
</svg>
