<svg width="75" height="75" viewBox="0 0 75 75" fill="none" xmlns="http://www.w3.org/2000/svg">
<path d="M74.1335 28.4482L74.4568 28.0344L75 28.4482V72.4137C74.9958 73.8403 73.8403 74.9956 72.4138 74.9999H2.58618C1.15971 74.9956 0.00424804 73.8401 0 72.4137V28.4482L0.543163 28.0344L0.866453 28.4482H74.1335Z" fill="#FFC107"/>
<path d="M74.4576 28.0345L74.1343 28.4483L38.794 55.6033H36.2078L0.867236 28.4483L0.543945 28.0345L12.9318 18.4008L29.9749 5.17239L35.9361 0.543053C36.8535 -0.181018 38.148 -0.181018 39.0655 0.543053L45.0266 5.17239L62.0698 18.4008L74.4576 28.0345Z" fill="#FFD550"/>
<path d="M62.0685 7.75756V37.7187L38.7927 55.6023H36.2065L12.9307 37.7188V7.75756C12.9349 6.33095 14.0904 5.17563 15.5168 5.17139H59.4823C60.9089 5.17563 62.0642 6.3311 62.0685 7.75756Z" fill="#DAE3E8"/>
<path d="M74.4951 73.9391C74.0124 74.6073 73.2374 75.0019 72.4132 74.9995H2.58574C1.76147 75.002 0.986571 74.6073 0.503906 73.9391L30.1288 50.9348L35.9349 46.422C36.8523 45.6979 38.1468 45.6979 39.0642 46.422L44.8703 50.9348L74.4951 73.9391Z" fill="#FFA000"/>
<path d="M37.4996 9.05103C28.9297 9.05103 21.9824 15.9983 21.9824 24.5682C21.9824 33.1381 28.9297 40.0854 37.4996 40.0854C38.2137 40.0854 38.7928 39.5065 38.7928 38.7923C38.7928 38.078 38.2137 37.4993 37.4996 37.4993C30.3581 37.4993 24.5686 31.7099 24.5686 24.5682C24.5686 17.4265 30.3581 11.6372 37.4996 11.6372C44.6412 11.6372 50.4307 17.4265 50.4307 24.5682V29.7406C50.4307 31.169 49.2727 32.3268 47.8445 32.3268C46.4163 32.3268 45.2583 31.169 45.2583 29.7406V24.5682C45.2583 23.8541 44.6794 23.2751 43.9652 23.2751C43.2509 23.2751 42.672 23.854 42.672 24.5682C42.672 27.4248 40.3562 29.7406 37.4996 29.7406C34.6431 29.7406 32.3273 27.4248 32.3273 24.5682C32.3273 21.7116 34.6431 19.3959 37.4996 19.3959C38.2137 19.3959 38.7928 18.817 38.7928 18.1027C38.7928 17.3885 38.2139 16.8096 37.4996 16.8096C34.0272 16.8018 30.9725 19.1023 30.0207 22.4417C29.069 25.7813 30.4523 29.3464 33.4072 31.1703C36.362 32.9941 40.169 32.6325 42.7277 30.2849C43.0092 33.0195 45.3861 35.0528 48.1313 34.9075C50.8766 34.7622 53.0255 32.4895 53.017 29.7404V24.5681C53.0076 16.0021 46.0657 9.06025 37.4996 9.05103Z" fill="#ED6E6E"/>
</svg>
