<svg width="58" height="55" viewBox="0 0 58 55" fill="none" xmlns="http://www.w3.org/2000/svg">
<path fill-rule="evenodd" clip-rule="evenodd" d="M35.1101 15.9428C35.1101 15.9428 35.1985 13.302 36.4351 11.3074C37.6718 9.31276 39.9214 8.1825 39.9214 8.1825L46.5598 12.2762C46.5598 12.2762 44.1475 13.9452 43.2326 15.9428C42.3177 17.9404 42.1864 20.3795 42.1864 20.3795L35.1101 15.9428Z" fill="#F06072" fill-opacity="0.3"/>
<path fill-rule="evenodd" clip-rule="evenodd" d="M52.8981 20.301L44.8656 15.6641C45.6367 14.5351 46.6578 13.5718 47.8769 12.8685C48.1198 12.7284 48.2695 12.4694 48.2695 12.189C48.2695 11.9086 48.12 11.6495 47.8771 11.5093L40.3422 7.15906C40.102 7.02043 39.8066 7.01875 39.5652 7.15466L39.555 7.16042C38.095 8.0034 36.8768 9.16475 35.9681 10.5272L35.3164 10.1507C35.0735 10.0103 34.7744 10.0102 34.5314 10.1505L24.4876 15.9505C24.4445 15.9754 24.4039 16.0043 24.3662 16.037L4.27329 33.4404L4.27433 33.4415C4.10431 33.5888 4.00241 33.8031 4.0023 34.0329L4 36.9318C3.99979 37.2124 4.14941 37.4718 4.39235 37.612L21.9761 47.7615C22.0975 47.8315 22.233 47.8665 22.3685 47.8665C22.5041 47.8665 22.6397 47.8315 22.7612 47.7613L52.8982 30.3613C53.1409 30.2211 53.2905 29.9622 53.2905 29.6818V20.9806C53.2904 20.7003 53.1409 20.4412 52.8981 20.301ZM34.5342 17.2158L42.0685 21.5688C42.1899 21.6389 42.3254 21.674 42.461 21.674C42.5965 21.674 42.732 21.639 42.8534 21.5689C43.0962 21.4287 43.2458 21.1696 43.2457 20.8891C43.2456 20.4204 43.2826 19.9564 43.3522 19.5002L45.9158 20.9805L42.4621 22.9744L31.4725 16.6299L34.2497 15.0258C34.1792 15.5227 34.142 16.0271 34.142 16.5363C34.142 16.8166 34.2916 17.0757 34.5342 17.2158ZM45.9955 12.235L39.9604 8.75064C37.4553 10.3617 35.8671 13.11 35.7222 16.0897L41.7565 19.5761C42.1144 16.6627 43.6513 14.0013 45.9955 12.235ZM34.9239 11.7363L35.1948 11.8928C35.0288 12.2417 34.8808 12.5994 34.7525 12.9651C34.6769 12.9823 34.6029 13.0096 34.5338 13.0494L29.5107 15.9506C29.268 16.0908 29.1185 16.3499 29.1185 16.6302C29.1185 16.9106 29.2681 17.1695 29.5108 17.3097L42.0695 24.5603C42.1909 24.6304 42.3264 24.6654 42.4619 24.6654C42.5974 24.6654 42.7329 24.6304 42.8542 24.5603L47.8773 21.6602C48.12 21.52 48.2696 21.2611 48.2696 20.9807C48.2696 20.7004 48.12 20.4413 47.8773 20.3011L43.7398 17.912C43.8421 17.6116 43.9599 17.3173 44.0921 17.0298L50.9373 20.9813L42.4617 25.8766L26.4498 16.6299L34.9239 11.7363ZM41.1147 26.9109L24.9719 17.5887L6.13386 33.9049L22.275 43.224L41.1147 26.9109ZM5.56972 36.4795L5.57055 35.392L21.5819 44.6362L21.5827 45.7223L5.56972 36.4795ZM23.1513 44.5412L23.1522 45.7234L51.7211 29.2287V22.3409L42.9189 27.4249L23.1513 44.5412Z" fill="#F06072"/>
<path fill-rule="evenodd" clip-rule="evenodd" d="M10.0741 33.5L19.4954 25.2606L31.4725 32.3439L22.1018 40.5571L10.0741 33.5Z" fill="#F06072" fill-opacity="0.3"/>
<path fill-rule="evenodd" clip-rule="evenodd" d="M33.542 31.2396L20.9572 23.9738C20.7374 23.8469 20.5925 23.6215 20.5683 23.3689C20.5442 23.1162 20.6438 22.8674 20.8357 22.7013L24.6839 19.3682C24.9367 19.1491 25.3005 19.1144 25.5901 19.2817L38.1745 26.549C38.3943 26.6759 38.5392 26.9014 38.5632 27.1541C38.5872 27.4068 38.4876 27.6556 38.2956 27.8217L34.448 31.1533C34.3019 31.2798 34.1187 31.3448 33.9342 31.3448C33.7995 31.3448 33.6642 31.3102 33.542 31.2396ZM36.4352 27.3568L25.2893 20.9201L22.6965 23.1658L33.8431 29.6013L36.4352 27.3568Z" fill="#F06072"/>
<path fill-rule="evenodd" clip-rule="evenodd" d="M9.07385 34.2666C8.85403 34.1397 8.70912 33.9142 8.68506 33.6615C8.661 33.4089 8.7606 33.1601 8.95259 32.9938L18.8281 24.4401C19.081 24.2211 19.4446 24.1864 19.7343 24.3536L32.3179 31.6202C32.5377 31.7472 32.6826 31.9727 32.7065 32.2253C32.7306 32.478 32.631 32.7268 32.439 32.893L22.5626 41.4448C22.4164 41.5713 22.2332 41.6363 22.0487 41.6363C21.914 41.6363 21.7787 41.6017 21.6565 41.5312L9.07385 34.2666ZM30.5783 32.4281L19.4332 25.9922L10.8131 33.4586L21.9574 39.8928L30.5783 32.4281Z" fill="#F06072"/>
</svg>
