<svg xmlns="http://www.w3.org/2000/svg" width="375" height="1809" fill="none" viewBox="0 0 375 1809">
    <path fill-rule="evenodd" clip-rule="evenodd" d="M375 0L375 1809H0L0 0L375 0Z" fill="url(#paint0_radial)"/>
    <defs>
    <radialGradient id="paint0_radial" cx="0" cy="0" r="1" gradientUnits="userSpaceOnUse" gradientTransform="translate(1930 58.476) rotate(113.61) scale(4940.29 3628.55)">
    <stop stop-color="#181D1F"/>
    <stop offset="1" stop-color="#0C0F0F"/>
    </radialGradient>
    </defs>
    <path fill="#DEF7FF" d="M54.02 988.583h-1.51l.456-.788c.06-.103.025-.234-.078-.294-.104-.059-.235-.024-.294.079l-.578 1.003h-1.149l1.17-2.027c.06-.102.025-.233-.079-.293-.102-.059-.233-.024-.293.079l-1.294 2.241h-2.143l-.646-1.121 1.071-1.855h2.589c.117 0 .214-.096.214-.214s-.097-.215-.215-.215h-2.34l.573-.994 1.157.001c.118 0 .215-.096.215-.214s-.096-.215-.215-.215h-.91l.756-1.308c.06-.102.024-.234-.079-.293-.102-.06-.234-.025-.293.079l-.756 1.308-.455-.788c-.059-.102-.19-.138-.292-.079-.103.059-.138.19-.08.293l.58 1.002-.574.994-1.17-2.027c-.059-.102-.19-.138-.292-.078-.103.059-.138.19-.08.293l1.295 2.24-1.071 1.856h-1.294l-1.072-1.855 1.294-2.241c.06-.103.024-.234-.078-.293-.103-.06-.233-.024-.293.078l-1.17 2.027-.574-.994.58-1.003c.058-.102.023-.233-.08-.292-.102-.06-.233-.024-.292.078l-.455.789-.753-1.309c-.06-.103-.191-.137-.293-.078-.102.059-.138.19-.078.293l.755 1.307h-.91c-.118 0-.214.097-.214.215s.096.214.214.214h1.157l.574.994h-2.34c-.118 0-.214.096-.214.214s.096.214.214.214h2.588l1.071 1.856-.647 1.121h-2.143l-1.295-2.241c-.059-.103-.19-.138-.293-.079-.102.06-.137.191-.078.293l1.171 2.027h-1.147l-.579-1.002c-.06-.103-.19-.138-.293-.079-.102.059-.137.19-.078.293l.455.788h-1.51c-.117 0-.213.096-.213.214s.096.214.214.214h1.51l-.456.789c-.059.102-.024.233.079.293.034.019.07.028.107.028.074 0 .146-.038.186-.107l.578-1.003h1.15l-1.172 2.027c-.059.102-.024.234.079.293.034.019.07.028.107.028.074 0 .146-.038.186-.107l1.294-2.241h2.143l.646 1.12-1.07 1.856H41.89c-.118 0-.214.096-.214.214s.096.214.214.214h2.34l-.574.994h-1.158c-.118 0-.214.096-.214.214s.096.215.214.215h.91l-.755 1.307c-.059.102-.024.234.079.293.034.02.07.029.107.029.074 0 .146-.039.186-.107l.755-1.308.455.788c.04.069.112.107.186.107.036 0 .073-.009.107-.028.103-.06.138-.19.079-.293l-.58-1.003.574-.994 1.17 2.027c.04.069.112.107.186.107.036 0 .073-.009.107-.028.102-.06.138-.19.078-.293l-1.294-2.241 1.072-1.855h1.294l1.071 1.855-1.294 2.241c-.06.102-.024.234.078.293.033.019.07.028.107.028.075 0 .147-.038.186-.107l1.17-2.026.574.993-.578 1.002c-.06.102-.024.234.079.294.034.019.07.028.107.028.074 0 .146-.039.186-.107l.455-.788.756 1.308c.04.069.112.107.186.107.036 0 .073-.009.108-.028.101-.06.136-.19.078-.293l-.756-1.309h.91c.118 0 .215-.096.215-.214s-.096-.215-.215-.215H49.48l-.574-.994 2.34.001c.118 0 .215-.097.215-.214 0-.118-.096-.215-.214-.215h-2.588l-1.072-1.855.647-1.12h2.142l1.295 2.241c.04.069.111.107.186.107.036 0 .073-.009.107-.028.102-.059.137-.19.078-.293l-1.173-2.027h1.149l.58 1.003c.04.069.112.107.185.107.037 0 .074-.009.108-.028.102-.06.138-.19.079-.293l-.455-.789h1.51c.117 0 .213-.096.213-.214-.003-.118-.1-.214-.217-.214zm-6.285.428l-.399.692-.124.214h-1.294l-.123-.214-.399-.692-.124-.214.124-.214.4-.692.123-.214h1.294l.124.214.398.692.124.214-.124.214zM166.837 1214.32h-1.887l.569-.98c.074-.13.031-.29-.098-.37-.13-.07-.293-.03-.367.1l-.723 1.25h-1.436l1.462-2.53c.075-.13.031-.29-.098-.37-.128-.07-.292-.03-.366.1l-1.618 2.8h-2.678l-.808-1.4 1.339-2.32h3.235c.147 0 .268-.12.268-.26 0-.15-.121-.27-.268-.27h-2.926l.717-1.24h1.446c.148 0 .268-.12.268-.27 0-.15-.12-.27-.268-.27h-1.137l.944-1.64c.074-.12.03-.29-.098-.36-.128-.08-.292-.03-.367.1l-.944 1.63-.569-.98c-.074-.13-.238-.18-.366-.1-.128.07-.172.24-.098.36l.723 1.26-.717 1.24-1.462-2.53c-.074-.13-.238-.18-.366-.1-.128.07-.172.24-.098.36l1.618 2.81-1.34 2.32h-1.617l-1.339-2.32 1.617-2.81c.074-.12.03-.29-.098-.36-.129-.08-.291-.03-.366.1l-1.462 2.53-.718-1.24.724-1.26c.074-.12.03-.29-.098-.36-.128-.08-.292-.03-.366.1l-.569.98-.941-1.63c-.075-.13-.239-.18-.366-.1-.128.07-.172.24-.098.36l.944 1.64h-1.137c-.148 0-.268.12-.268.27 0 .15.12.27.268.27h1.446l.717 1.24h-2.924c-.148 0-.268.12-.268.27 0 .14.12.26.268.26h3.234l1.339 2.32-.809 1.4h-2.678l-1.619-2.8c-.074-.13-.238-.17-.366-.1-.128.08-.172.24-.098.37l1.464 2.53h-1.434l-.724-1.25c-.074-.13-.238-.17-.365-.1-.128.08-.172.24-.098.37l.568.98H148.2c-.148 0-.268.12-.268.27 0 .15.12.27.268.27h1.887l-.569.98c-.074.13-.03.3.098.37.042.03.088.04.134.04.093 0 .183-.05.233-.14l.723-1.25h1.435l-1.463 2.53c-.074.13-.03.29.098.37.042.02.088.03.134.03.092 0 .182-.04.232-.13l1.619-2.8h2.678l.808 1.4-1.339 2.32h-3.234c-.148 0-.268.12-.268.27 0 .14.12.26.268.26h2.924l-.717 1.25h-1.447c-.148 0-.268.12-.268.26 0 .15.12.27.268.27h1.138l-.944 1.64c-.074.12-.03.29.098.36.042.03.088.04.134.04.092 0 .182-.05.232-.14l.944-1.63.569.99c.05.08.14.13.233.13.045 0 .091-.01.133-.04.128-.07.172-.23.098-.36l-.724-1.26.718-1.24 1.462 2.53c.05.09.14.14.232.14.046 0 .092-.01.134-.04.128-.07.172-.23.098-.36l-1.617-2.8 1.339-2.32h1.618l1.339 2.32-1.618 2.8c-.074.13-.03.29.098.36.041.03.087.04.134.04.093 0 .183-.05.232-.13l1.462-2.54.718 1.24-.723 1.26c-.074.12-.03.29.099.36.043.03.089.04.134.04.093 0 .183-.05.233-.14l.569-.98.944 1.63c.05.09.14.14.233.14.045 0 .091-.01.134-.04.127-.07.171-.23.098-.36l-.944-1.64h1.137c.148 0 .268-.12.268-.27 0-.14-.12-.26-.268-.26h-1.447l-.717-1.25h2.926c.147 0 .267-.12.267-.26 0-.15-.12-.27-.267-.27h-3.236l-1.339-2.32.809-1.4h2.678l1.618 2.8c.049.09.139.13.232.13.046 0 .092-.01.134-.03.128-.08.172-.24.098-.37l-1.467-2.53h1.437l.724 1.25c.05.09.14.14.233.14.046 0 .092-.01.133-.04.129-.07.173-.24.1-.37l-.569-.98h1.886c.147 0 .268-.12.268-.27-.004-.15-.125-.27-.272-.27zm-7.856.54l-.5.86-.154.27H156.709l-.155-.27-.498-.86-.155-.27.155-.27.5-.86.154-.27h1.618l.154.27.499.86.154.27-.154.27zM368.905 150.071h-1.887l.569-.985c.074-.128.031-.292-.098-.367-.13-.074-.293-.03-.367.099l-.723 1.253h-1.435l1.461-2.533c.075-.128.032-.292-.098-.366-.128-.074-.292-.031-.366.098l-1.618 2.801h-2.678l-.808-1.4 1.339-2.32h3.235c.147 0 .268-.12.268-.268 0-.147-.121-.268-.268-.268h-2.926l.718-1.242 1.445.001c.148 0 .268-.12.268-.268 0-.148-.12-.268-.268-.268l-1.137-.001.944-1.635c.074-.128.031-.291-.098-.365-.128-.075-.292-.031-.366.098l-.945 1.635-.569-.986c-.074-.127-.238-.172-.366-.098-.128.074-.172.238-.098.366l.723 1.253-.717 1.243-1.462-2.534c-.074-.128-.238-.172-.366-.098-.128.074-.172.238-.098.366l1.618 2.801-1.34 2.32h-1.617l-1.339-2.32 1.617-2.801c.074-.128.03-.292-.098-.366-.128-.074-.291-.03-.366.098l-1.462 2.534-.717-1.243.723-1.253c.074-.128.03-.292-.098-.366-.128-.075-.292-.03-.366.098l-.569.986-.941-1.636c-.075-.128-.239-.172-.366-.098-.128.074-.172.237-.098.366l.944 1.635h-1.137c-.148 0-.268.12-.268.268 0 .148.12.268.268.268h1.446l.718 1.242h-2.925c-.148 0-.268.12-.268.268 0 .148.12.268.268.268h3.234l1.339 2.32-.809 1.4h-2.678l-1.619-2.801c-.074-.128-.238-.172-.366-.098-.128.074-.172.238-.098.366l1.464 2.533h-1.434l-.723-1.252c-.075-.129-.239-.172-.366-.099-.128.074-.172.238-.098.366l.569.985h-1.887c-.148 0-.268.12-.268.268 0 .147.12.268.268.268h1.887l-.569.985c-.074.128-.03.292.098.367.043.024.089.035.134.035.093 0 .183-.048.233-.134l.723-1.253h1.435l-1.463 2.533c-.074.127-.03.292.098.366.042.024.088.036.134.036.093 0 .183-.048.232-.134l1.619-2.801h2.678l.808 1.399-1.339 2.32h-3.234c-.148 0-.268.121-.268.268 0 .147.12.268.268.268h2.924l-.717 1.242h-1.447c-.148 0-.268.12-.268.268 0 .147.12.268.268.268h1.138l-.944 1.634c-.074.128-.03.292.098.366.042.025.088.036.134.036.093 0 .183-.048.232-.134l.944-1.635.569.986c.05.086.14.134.233.134.045 0 .091-.012.134-.036.128-.074.172-.238.098-.366l-.725-1.254.718-1.242 1.462 2.533c.05.087.14.134.233.134.045 0 .091-.011.133-.035.129-.075.172-.237.099-.367l-1.618-2.801 1.339-2.318h1.618l1.339 2.319-1.618 2.801c-.074.128-.03.292.098.366.041.025.088.036.134.036.093 0 .183-.048.232-.134l1.463-2.533.717 1.242-.723 1.252c-.074.128-.03.292.099.367.043.024.089.035.134.035.093 0 .183-.049.233-.134l.569-.984.944 1.634c.05.087.14.134.233.134.045 0 .091-.011.134-.035.127-.074.171-.237.099-.366l-.945-1.636h1.137c.148 0 .268-.12.268-.268 0-.148-.12-.268-.268-.268h-1.447l-.717-1.242h2.926c.147 0 .268-.12.268-.268 0-.147-.121-.268-.268-.268h-3.235l-1.34-2.319.809-1.4h2.678l1.618 2.802c.049.086.139.134.232.134.046 0 .092-.012.134-.036.128-.074.172-.237.098-.366l-1.467-2.533h1.437l.724 1.253c.051.086.141.134.233.134.046 0 .092-.011.134-.035.128-.075.172-.238.099-.367l-.569-.985h1.886c.147 0 .268-.121.268-.268-.003-.148-.124-.268-.272-.268zm-7.856.536l-.5.864-.154.268H358.777l-.154-.268-.499-.864-.154-.268.154-.268.5-.865.154-.267h1.618l.155.267.498.865.155.268-.155.268zM192.696 287.713h-.868l.262-.454c.034-.058.014-.134-.045-.168-.06-.034-.135-.014-.169.045l-.333.577h-.66l.673-1.166c.034-.058.014-.134-.046-.168-.059-.034-.134-.014-.168.045l-.744 1.289h-1.232l-.372-.645.616-1.067h1.488c.068 0 .123-.055.123-.123s-.055-.123-.123-.123h-1.346l.33-.571h.665c.068 0 .124-.055.124-.123s-.056-.124-.124-.124h-.523l.434-.752c.035-.059.014-.134-.045-.168-.059-.035-.134-.014-.168.045l-.435.752-.261-.453c-.034-.059-.11-.079-.169-.045-.059.034-.079.109-.045.168l.333.576-.33.572-.673-1.165c-.034-.06-.109-.08-.168-.046-.059.034-.079.11-.045.169l.744 1.288-.616 1.067h-.744l-.616-1.067.744-1.288c.034-.059.014-.135-.045-.169s-.134-.014-.168.046l-.673 1.165-.33-.572.333-.576c.034-.059.014-.135-.045-.169s-.135-.013-.169.046l-.261.453-.434-.752c-.034-.059-.109-.079-.168-.045-.059.034-.079.109-.045.168l.434.752h-.523c-.068 0-.123.055-.123.123s.055.123.123.123h.666l.33.572h-1.346c-.068 0-.123.055-.123.123s.055.123.123.123h1.488l.616 1.067-.372.645h-1.232l-.745-1.289c-.034-.059-.109-.079-.168-.045-.059.034-.079.109-.045.168l.673 1.166h-.66l-.332-.577c-.034-.059-.11-.079-.169-.045-.058.034-.079.11-.045.169l.262.453h-.868c-.068 0-.123.055-.123.123s.055.123.123.123h.868l-.261.453c-.034.059-.014.135.045.169.019.011.04.016.061.016.043 0 .084-.022.107-.061l.333-.577h.66l-.673 1.165c-.034.059-.014.135.045.169.02.011.041.016.062.016.042 0 .084-.022.107-.062l.744-1.288h1.232l.372.644-.616 1.067h-1.488c-.068 0-.123.055-.123.123s.055.123.123.123h1.345l-.33.572h-.665c-.068 0-.123.055-.123.123s.055.123.123.123h.523l-.434.752c-.034.059-.014.134.045.168.02.012.041.017.062.017.042 0 .084-.022.107-.062l.434-.752.262.453c.022.04.064.062.107.062.02 0 .042-.005.061-.016.059-.034.079-.11.045-.169l-.333-.576.33-.572.673 1.165c.023.04.064.062.107.062.021 0 .042-.005.061-.016.059-.034.079-.109.045-.169l-.744-1.288.616-1.067h.744l.616 1.067-.744 1.289c-.034.058-.014.134.045.168.019.011.041.016.062.016.043 0 .084-.022.107-.061l.672-1.166.331.572-.333.576c-.034.059-.014.134.045.169.02.011.041.016.062.016.043 0 .084-.023.107-.062l.262-.453.434.752c.023.04.064.062.107.062.021 0 .042-.005.062-.016.058-.035.079-.109.045-.169l-.434-.752h.523c.068 0 .123-.056.123-.124 0-.067-.055-.123-.123-.123h-.666l-.33-.571h1.346c.068 0 .123-.055.123-.123s-.055-.123-.123-.123l-1.488-.001-.616-1.066.372-.644h1.232l.744 1.288c.023.04.064.062.107.062.021 0 .042-.005.062-.016.058-.034.078-.11.045-.169l-.675-1.165h.661l.333.577c.023.039.064.061.107.061.021 0 .042-.005.061-.016.06-.034.08-.109.046-.169l-.262-.453h.868c.068 0 .123-.055.123-.123-.001-.068-.057-.123-.125-.123zm-3.614.246l-.229.398-.072.123h-.744l-.071-.123-.229-.398-.071-.123.071-.123.23-.398.071-.123h.744l.071.123.229.398.071.123-.071.123zM259.451 986.471h-1.133l.342-.591c.044-.076.018-.175-.059-.219-.078-.045-.176-.018-.22.059l-.434.751h-.861l.877-1.519c.044-.077.018-.176-.059-.22-.077-.044-.175-.018-.22.059l-.971 1.68h-1.607l-.484-.84.803-1.391h1.941c.088 0 .161-.072.161-.161 0-.089-.073-.161-.161-.161h-1.756l.431-.745h.867c.089 0 .161-.072.161-.161 0-.088-.072-.16-.161-.16l-.682-.001.566-.981c.045-.076.019-.175-.058-.219-.077-.045-.176-.019-.22.059l-.567.981-.341-.591c-.045-.077-.143-.104-.22-.059-.077.044-.103.142-.059.219l.434.752-.43.745-.877-1.52c-.045-.077-.143-.103-.22-.059-.077.045-.103.143-.059.22l.971 1.681-.804 1.392h-.97l-.804-1.392.971-1.681c.044-.077.018-.175-.059-.22-.077-.044-.175-.018-.22.059l-.877 1.52-.43-.745.434-.752c.044-.077.018-.175-.059-.22-.077-.044-.175-.018-.22.059l-.341.592-.565-.982c-.045-.077-.143-.103-.22-.058-.076.044-.103.142-.058.219l.566.981h-.682c-.089 0-.161.072-.161.161 0 .088.072.16.161.16h.868l.43.746h-1.755c-.088 0-.16.072-.16.161 0 .088.072.16.16.16h1.941l.803 1.392-.485.84h-1.607l-.971-1.68c-.045-.077-.143-.103-.22-.059-.077.044-.103.143-.059.22l.879 1.519h-.861l-.434-.751c-.045-.077-.143-.103-.219-.059-.077.045-.104.143-.059.22l.341.59h-1.132c-.089 0-.161.072-.161.161 0 .089.072.161.161.161h1.132l-.341.591c-.044.077-.018.175.059.22.025.015.053.021.08.021.056 0 .11-.029.14-.08l.434-.752h.861l-.878 1.52c-.044.076-.018.175.059.22.025.014.053.021.08.021.056 0 .11-.029.14-.08l.971-1.681h1.606l.485.839-.803 1.392h-1.94c-.089 0-.161.073-.161.161 0 .089.072.161.161.161h1.754l-.43.745h-.868c-.089 0-.161.072-.161.161 0 .088.072.161.161.161h.682l-.566.98c-.044.077-.018.176.059.22.025.015.053.021.08.021.056 0 .11-.028.14-.08l.566-.981.341.591c.03.052.084.081.14.081.027 0 .055-.007.08-.021.077-.045.103-.143.059-.22l-.435-.752.431-.746.877 1.52c.03.052.084.081.14.081.027 0 .055-.007.08-.022.077-.044.103-.142.059-.219l-.971-1.681.804-1.391h.97l.804 1.391-.971 1.681c-.044.077-.018.175.059.22.025.014.053.021.08.021.056 0 .11-.029.14-.08l.877-1.52.431.745-.434.751c-.044.077-.018.176.059.22.026.015.053.022.08.022.056 0 .11-.03.14-.081l.342-.591.566.981c.03.052.084.081.14.081.027 0 .055-.007.08-.021.077-.045.103-.143.06-.22l-.567-.982h.682c.089 0 .161-.072.161-.161 0-.088-.072-.16-.161-.16h-.868l-.43-.746 1.755.001c.088 0 .161-.073.161-.161 0-.089-.073-.161-.161-.161h-1.941l-.804-1.392.486-.839h1.606l.971 1.681c.03.051.084.08.14.08.027 0 .055-.007.08-.021.077-.045.103-.143.059-.22l-.88-1.52h.862l.434.752c.03.052.084.08.14.08.027 0 .055-.006.08-.021.077-.045.103-.142.059-.22l-.341-.591h1.132c.088 0 .161-.072.161-.161-.002-.089-.075-.161-.163-.161zm-4.714.322l-.3.519-.093.16h-.97l-.093-.16-.299-.519-.093-.161.093-.161.3-.518.092-.161H254.345l.093.161.299.518.093.161-.093.161zM48.343 1194.84h-1.132l.341-.59c.045-.08.019-.17-.059-.22-.078-.04-.175-.02-.22.06l-.434.75h-.86l.876-1.52c.045-.07.019-.17-.058-.22-.078-.04-.176-.02-.22.06l-.971 1.68h-1.607l-.485-.84.804-1.39h1.94c.089 0 .161-.07.161-.16s-.072-.16-.16-.16h-1.756l.43-.75h.868c.089 0 .16-.07.16-.16 0-.08-.071-.16-.16-.16h-.682l.566-.98c.045-.08.018-.17-.059-.22-.077-.04-.175-.02-.22.06l-.566.98-.342-.59c-.044-.08-.142-.1-.22-.06-.076.05-.102.14-.058.22l.434.75-.43.75-.878-1.52c-.044-.08-.142-.1-.22-.06-.076.04-.102.14-.058.22l.97 1.68-.803 1.39h-.97l-.804-1.39.97-1.68c.045-.08.018-.18-.058-.22-.078-.04-.175-.02-.22.06l-.877 1.52-.43-.75.433-.75c.045-.08.018-.17-.059-.22-.076-.04-.175-.02-.219.06l-.341.59-.565-.98c-.045-.08-.143-.1-.22-.06-.077.05-.103.14-.059.22l.567.98H39.7c-.088 0-.16.07-.16.16s.072.16.16.16h.868l.43.75h-1.754c-.089 0-.16.07-.16.16s.071.16.16.16h1.94l.804 1.39-.486.84h-1.606l-.972-1.68c-.044-.07-.143-.1-.22-.06-.076.05-.102.15-.058.22l.878 1.52h-.86l-.434-.75c-.045-.08-.143-.1-.22-.06-.077.05-.103.14-.059.22l.342.59H37.16c-.089 0-.161.07-.161.16s.072.16.16.16h1.133l-.341.6c-.045.07-.018.17.059.22.025.01.053.02.08.02.056 0 .11-.03.14-.08l.433-.76h.862l-.878 1.52c-.045.08-.018.18.058.22.026.02.053.03.08.03.056 0 .11-.03.14-.09l.971-1.68h1.607l.485.84-.803 1.4h-1.94c-.09 0-.162.07-.162.16 0 .08.072.16.161.16H41l-.43.74H39.7c-.089 0-.16.07-.16.16s.072.16.16.16h.683l-.566.98c-.045.08-.018.18.058.22.026.02.053.03.08.03.056 0 .11-.03.14-.08l.567-.99.34.6c.03.05.085.08.14.08.028 0 .055-.01.08-.03.078-.04.104-.14.06-.22l-.435-.75.43-.74.878 1.52c.03.05.084.08.14.08.027 0 .054-.01.08-.02.077-.05.103-.15.059-.22l-.971-1.68.803-1.4h.971l.804 1.4-.971 1.68c-.045.07-.018.17.058.22.026.01.053.02.08.02.057 0 .11-.03.14-.08l.878-1.52.43.74-.433.75c-.045.08-.018.18.059.22.025.02.053.03.08.03.056 0 .11-.03.14-.08l.341-.6.567.99c.03.05.084.08.14.08.027 0 .054-.01.08-.03.076-.04.102-.14.06-.22l-.568-.98h.683c.088 0 .16-.07.16-.16s-.072-.16-.16-.16h-.869l-.43-.74h1.756c.088 0 .16-.08.16-.16 0-.09-.072-.16-.16-.16l-1.941-.01-.804-1.39.485-.84h1.607l.97 1.68c.03.06.084.09.14.09.028 0 .055-.01.08-.03.077-.04.104-.14.06-.22l-.88-1.52h.861l.435.76c.03.05.084.08.14.08.027 0 .055-.01.08-.02.077-.05.103-.15.059-.22l-.341-.6h1.132c.088 0 .16-.07.16-.16-.002-.09-.075-.16-.163-.16zm-4.714.32l-.3.52-.092.16H42.266l-.093-.16-.298-.52-.093-.16.093-.16.3-.52.092-.16h.97l.093.16.3.52.092.16-.093.16zM335.343 298.843h-1.132l.341-.592c.045-.076.019-.175-.059-.219-.077-.045-.176-.018-.22.059l-.433.752h-.862l.877-1.52c.045-.077.019-.176-.059-.22-.077-.044-.175-.018-.219.059l-.971 1.681h-1.607l-.485-.841.804-1.391h1.941c.088 0 .16-.072.16-.161 0-.088-.072-.161-.16-.161h-1.756l.431-.745h.867c.089 0 .161-.072.161-.161 0-.088-.072-.16-.161-.16l-.682-.001.566-.981c.045-.076.018-.175-.059-.219-.077-.045-.175-.019-.22.059l-.566.981-.342-.591c-.044-.077-.142-.104-.219-.059-.077.044-.103.143-.059.219l.434.752-.43.746-.878-1.52c-.044-.078-.142-.104-.219-.06-.077.045-.103.143-.059.22l.97 1.681-.803 1.392h-.971l-.803-1.392.97-1.681c.045-.077.018-.175-.059-.22-.077-.044-.174-.018-.219.06l-.878 1.52-.43-.746.434-.752c.045-.076.018-.175-.058-.219-.077-.045-.176-.018-.22.058l-.341.592-.565-.982c-.045-.077-.143-.103-.22-.058-.077.044-.103.142-.059.219l.567.981h-.682c-.089 0-.161.072-.161.161 0 .089.072.161.161.161h.867l.431.745h-1.755c-.089 0-.161.072-.161.161 0 .088.072.16.161.16h1.941l.803 1.392-.486.841h-1.606l-.972-1.681c-.044-.077-.143-.103-.219-.059-.077.044-.103.143-.059.22l.878 1.52h-.86l-.434-.752c-.045-.077-.143-.103-.22-.059-.077.045-.103.143-.059.22l.342.591h-1.132c-.089 0-.161.072-.161.16 0 .089.072.161.161.161h1.132l-.341.591c-.045.077-.018.176.059.22.025.015.053.021.08.021.055 0 .109-.028.139-.08l.434-.752h.862l-.878 1.52c-.045.076-.018.175.058.22.026.014.053.021.081.021.055 0 .109-.029.139-.08l.971-1.681h1.607l.485.84-.804 1.392h-1.94c-.089 0-.161.072-.161.16 0 .089.072.161.161.161H328l-.431.745h-.868c-.089 0-.161.072-.161.161 0 .088.072.161.161.161h.683l-.566.98c-.045.077-.018.176.058.22.026.015.053.021.081.021.055 0 .109-.028.139-.08l.567-.981.341.592c.03.051.084.08.139.08.028 0 .055-.007.081-.021.077-.045.103-.143.059-.22l-.435-.752.43-.746.878 1.52c.03.052.084.081.139.081.028 0 .055-.007.081-.021.077-.045.103-.143.059-.22l-.971-1.681.803-1.391h.971l.804 1.391-.971 1.681c-.045.077-.018.175.058.22.025.014.053.021.081.021.056 0 .11-.029.139-.08l.878-1.52.43.745-.433.752c-.045.076-.018.175.059.219.025.015.053.022.08.022.056 0 .11-.03.14-.081l.341-.591.567.981c.03.052.084.081.14.081.027 0 .054-.007.08-.021.076-.045.103-.143.059-.22l-.567-.982h.683c.088 0 .16-.072.16-.161 0-.088-.072-.16-.16-.16h-.869l-.43-.746 1.756.001c.088 0 .16-.073.16-.161 0-.088-.072-.161-.16-.161h-1.941l-.804-1.391.485-.84h1.607l.971 1.681c.029.051.083.08.139.08.028 0 .055-.007.081-.021.076-.045.102-.143.058-.22l-.88-1.52h.862l.435.752c.03.052.084.08.139.08.028 0 .055-.006.081-.021.077-.044.103-.142.059-.22l-.341-.591h1.132c.088 0 .16-.072.16-.161-.002-.088-.074-.16-.163-.16zm-4.714.321l-.299.519-.093.16H329.266l-.092-.16-.299-.519-.093-.161.093-.16.299-.519.093-.161h.97l.093.161.299.519.093.16-.093.161zM19.58 159.422l-3.871 1.038-.061-.035v-3.488l.06-.036 3.873 1.036c.022.006.043.009.065.009.11 0 .212-.073.243-.186.035-.134-.045-.27-.178-.307l-3.388-.907 3.229-1.865c.12-.069.16-.221.092-.342-.07-.12-.223-.161-.343-.091l-3.228 1.864.908-3.387c.035-.134-.044-.271-.177-.308-.135-.032-.271.044-.308.178l-1.036 3.872-.061.035-3.022-1.743v-.072l2.834-2.834c.098-.098.098-.257 0-.355-.098-.097-.257-.097-.354 0l-2.48 2.479v-3.726c0-.138-.112-.251-.25-.251-.139 0-.251.113-.251.251v3.727l-2.48-2.479c-.097-.098-.256-.098-.354 0-.097.098-.097.257 0 .354l2.834 2.834v.072l-3.022 1.744-.06-.035-1.037-3.871c-.037-.134-.172-.21-.308-.178-.133.036-.213.174-.177.307l.908 3.387-3.228-1.864c-.12-.069-.274-.029-.343.092-.07.12-.028.273.092.342l3.229 1.865-3.388.907c-.135.036-.214.173-.178.307.031.112.133.186.243.186.021 0 .042-.004.064-.009l3.872-1.036.062.035v3.487l-.062.036-3.871-1.037c-.135-.031-.271.044-.308.177-.035.134.044.271.178.308l3.388.907-3.228 1.865c-.12.071-.16.222-.092.343.046.081.13.126.217.126.043 0 .086-.011.126-.034l3.227-1.864-.908 3.386c-.035.135.044.272.178.308.022.006.043.009.065.009.111 0 .212-.073.242-.185l1.036-3.872.063-.036 3.02 1.744v.072l-2.834 2.835c-.097.097-.097.257 0 .354.098.097.258.097.355 0l2.478-2.483v3.729c0 .138.112.251.251.251s.25-.113.25-.251v-3.729l2.48 2.48c.049.05.113.074.177.074.064 0 .129-.025.177-.074.098-.098.098-.257 0-.354l-2.834-2.836v-.073l3.02-1.743.062.035 1.036 3.872c.031.112.132.186.242.186.022 0 .044-.003.066-.009.134-.036.212-.173.177-.308l-.908-3.386 3.228 1.864c.04.023.083.033.126.033.087 0 .171-.045.217-.125.07-.12.029-.274-.092-.342l-3.229-1.866 3.389-.908c.134-.036.213-.173.178-.307-.036-.132-.17-.207-.307-.175zm-4.434.712l-2.519-1.454 2.52-1.454v2.908zm-.25-3.343l-2.519 1.455v-2.909l2.52 1.454zm-3.02-1.454v2.909l-2.52-1.455 2.52-1.454zm-2.77 1.889l2.519 1.454-2.519 1.454v-2.908zm.251 3.342l2.518-1.454v2.909l-2.518-1.455zm3.02 1.454v-2.908l2.519 1.453-2.519 1.455zM12.325 88.756h-1.026l-.397.689H8.485l1.672-1.673c.078-.078.078-.205 0-.282-.077-.078-.204-.078-.282 0L7.92 89.445H6.715l-.602-1.044.604-1.043 2.67-.716c.105-.028.168-.138.14-.244-.028-.106-.138-.169-.244-.141l-2.284.612 1.207-2.091H9l.515-.89L9.003 83H7.977l-.513.889.398.688-1.207 2.092-.613-2.285c-.028-.107-.138-.17-.244-.142-.107.029-.17.138-.141.245l.715 2.67-.602 1.044H4.565l-.602-1.043.715-2.67c.028-.106-.034-.216-.141-.244-.106-.028-.216.034-.244.14L3.68 86.67l-1.207-2.091.398-.69L2.357 83H1.332l-.513.889.513.888h.795l1.208 2.092-2.285-.612c-.106-.028-.216.035-.244.141-.028.107.035.216.141.245l2.67.715.603 1.043-.603 1.044H2.412L.457 87.49c-.078-.078-.205-.078-.282 0-.078.077-.078.204 0 .282l1.673 1.673H-.568l-.398-.689h-1.026l-.512.889.513.888h1.025l.399-.69h2.414L.175 91.515c-.078.077-.078.205 0 .282.04.04.09.059.141.059.051 0 .103-.02.142-.059l1.954-1.954h1.206l.602 1.044-.602 1.041-2.671.716c-.107.028-.17.139-.142.244.029.108.139.171.245.142l2.286-.612-1.21 2.093-.794-.001-.513.89.513.887h1.026l.512-.888-.398-.69 1.207-2.09.613 2.282c.024.09.104.148.192.148.017 0 .034-.001.052-.006.106-.028.17-.138.141-.245l-.716-2.669.603-1.043h1.204l.603 1.042-.716 2.67c-.028.107.035.215.142.245.017.004.035.006.052.006.088 0 .168-.058.192-.149l.612-2.284 1.208 2.094-.398.688.512.889h1.026l.513-.889-.513-.888h-.795l-1.21-2.093 2.286.613c.108.03.216-.034.244-.14.029-.108-.035-.217-.14-.245l-2.671-.716-.603-1.043.603-1.043H7.92l1.954 1.955c.04.04.09.058.14.058.052 0 .103-.02.142-.058.078-.078.078-.205 0-.283l-1.67-1.67h2.415l.398.688h1.026l.513-.888-.513-.89zm-6.556 1.93H4.564l-.115-.199-.372-.643-.115-.2.115-.2.372-.644.116-.2h.974l.002-.004.229.005.11.201.06-.098-.056.096.371.644.116.2-.116.2-.372.644-.114.199zm.004-2.285h.112v.002l-.112-.002zm.226.202l-.056-.099L6 88.6v.003zm-.343-.202l-.057.096.055-.096h.002zM47.94 1102.64l-.48-.83c-.037-.06-.104-.1-.176-.1h-.96c-.072 0-.139.04-.175.1l-.42.73h-2.05l1.707-1.7c.079-.08.079-.21 0-.29-.08-.08-.209-.08-.288 0l-1.994 1.99h-1.227l-.614-1.06.614-1.07 2.722-.73c.108-.02.172-.14.144-.24-.029-.11-.14-.18-.25-.15l-2.328.63 1.023-1.78H44.03c.073 0 .139-.03.176-.1l.48-.83c.037-.06.037-.14 0-.2l-.48-.83c-.037-.07-.104-.1-.176-.1h-.96c-.072 0-.139.04-.175.1l-.48.83c-.037.06-.037.14 0 .2l.42.73-1.024 1.77-.624-2.33c-.027-.11-.14-.17-.249-.14-.108.03-.173.14-.144.25l.73 2.72-.614 1.06h-1.228l-.614-1.06.73-2.72c.028-.11-.036-.22-.145-.25-.108-.03-.22.04-.249.14l-.624 2.33-1.024-1.77.421-.73c.036-.06.036-.14 0-.2l-.48-.83c-.036-.06-.103-.1-.175-.1h-.96c-.073 0-.14.03-.177.1l-.479.83c-.036.06-.036.14 0 .2l.48.83c.037.06.104.1.177.1h.841l1.025 1.78-2.33-.63c-.107-.03-.22.04-.249.15-.029.11.036.22.144.25l2.723.73.613 1.06-.614 1.06h-1.228l-1.993-1.99c-.08-.08-.209-.08-.288 0-.08.08-.08.21 0 .29l1.705 1.7h-2.047l-.421-.73c-.037-.06-.104-.1-.176-.1h-.959c-.073 0-.14.04-.176.1l-.48.83c-.036.07-.036.14 0 .21l.48.83c.036.06.103.1.176.1h.96c.072 0 .14-.04.176-.1l.42-.73h2.047l-1.705 1.7c-.08.08-.08.21 0 .29.04.04.092.06.145.06.052 0 .104-.02.144-.06l1.992-1.99h1.228l.615 1.06-.614 1.06-2.723.73c-.108.03-.173.15-.144.25.03.11.14.18.25.15l2.33-.63-1.025 1.78h-.843c-.072 0-.139.04-.175.1l-.48.83c-.036.06-.036.14 0 .2l.48.83c.037.07.104.1.176.1l.509.01h.001l.45-.01c.072 0 .14-.03.176-.1l.48-.83c.035-.06.035-.14 0-.2l-.422-.73 1.024-1.77.625 2.33c.024.09.106.15.196.15.018 0 .035-.01.053-.01.109-.03.173-.14.144-.25l-.73-2.72.614-1.06h1.228l.614 1.06-.73 2.72c-.028.11.036.22.145.25.017 0 .035.01.052.01.09 0 .173-.06.196-.15l.625-2.33 1.025 1.77-.422.73c-.036.06-.036.14 0 .2l.48.83c.037.07.104.1.176.1l.449.01h.002l.509-.01c.073 0 .14-.03.176-.1l.48-.83c.036-.06.036-.14 0-.2l-.48-.83c-.037-.06-.104-.1-.176-.1H43.19l-1.025-1.78 2.33.63c.11.03.22-.04.249-.15.03-.1-.036-.22-.144-.25l-2.722-.73-.614-1.06.614-1.06h1.229l1.992 1.99c.04.04.091.06.144.06.052 0 .105-.02.143-.06.08-.08.08-.21 0-.29l-1.704-1.7h2.048l.421.73c.037.06.104.1.176.1h.96c.072 0 .14-.04.175-.1l.48-.83c.034-.07.034-.14-.002-.21zm-5.113-5.53l.362-.63h.724l.113.2.25.43-.364.63h-.723l-.118-.21-.244-.42zm-6.147-.63h.724l.362.63-.244.42-.118.21h-.725l-.36-.63.249-.43.112-.2zm-2.167 6.26l-.117.21-.245.42h-.725l-.248-.43-.113-.2.113-.19.25-.43h.723l.245.42.117.2zm3.254 5.64l-.362.63h-.724l-.113-.2-.249-.43.362-.62h.724l.117.2.245.42zm6.146.63h-.724l-.362-.63.245-.42.117-.2.236-.01h.488l.363.63-.25.43-.113.2zm-3.002-5.2h-1.228l-.117-.2-.38-.66-.117-.21.117-.2.38-.66.117-.2h1.228l.118.2.38.66.117.2-.118.21-.38.65-.117.21zm5.17-1.07l.117-.2.245-.42h.724l.25.43.112.19-.112.2-.25.43h-.724l-.244-.42-.118-.21zM358.769 81.045l-2.484.667-.039-.023v-2.238l.039-.023 2.485.665c.013.004.027.006.041.006.071 0 .136-.047.156-.12.022-.086-.029-.173-.114-.197l-2.174-.581 2.072-1.197c.076-.045.103-.142.059-.22-.045-.077-.143-.103-.22-.058l-2.071 1.196.582-2.173c.023-.087-.028-.174-.114-.198-.086-.02-.174.028-.197.114l-.665 2.485-.039.022-1.939-1.118v-.047l1.818-1.818c.063-.063.063-.165 0-.228-.062-.062-.164-.062-.227 0l-1.591 1.591v-2.391c0-.089-.072-.161-.161-.161-.088 0-.161.072-.161.16v2.392l-1.59-1.59c-.063-.063-.165-.063-.228 0-.062.063-.062.165 0 .227l1.818 1.819v.046l-1.938 1.118-.04-.022-.665-2.484c-.023-.085-.11-.135-.197-.114-.086.023-.137.112-.114.197l.583 2.174-2.071-1.196c-.077-.045-.176-.02-.221.058-.044.077-.017.176.06.22l2.071 1.197-2.173.582c-.087.023-.138.11-.114.197.019.072.085.119.155.119.014 0 .027-.002.041-.006l2.485-.665.04.023v2.238l-.04.022-2.484-.665c-.087-.02-.174.028-.197.114-.023.086.028.174.114.197l2.174.582-2.072 1.197c-.077.045-.103.142-.059.22.03.052.084.08.14.08.027 0 .055-.006.08-.021l2.071-1.196-.583 2.173c-.022.087.028.174.114.197.015.004.028.006.042.006.071 0 .136-.047.155-.119l.665-2.484.041-.023 1.937 1.119v.046l-1.818 1.82c-.062.061-.062.164 0 .227.063.061.165.061.228 0l1.59-1.594v2.393c0 .088.072.16.161.16.089 0 .161-.071.161-.16v-2.393l1.59 1.592c.032.031.073.047.114.047.041 0 .083-.016.114-.047.063-.063.063-.165 0-.228l-1.818-1.82v-.046l1.937-1.119.04.023.665 2.484c.02.072.084.12.155.12.014 0 .028-.002.042-.006.086-.024.137-.111.114-.198l-.583-2.173 2.072 1.196c.025.015.053.022.08.022.056 0 .11-.03.14-.08.045-.078.018-.176-.059-.22l-2.072-1.197 2.174-.583c.086-.023.137-.111.114-.197-.022-.085-.109-.133-.197-.113zm-2.845.457l-1.617-.932 1.617-.933v1.865zm-.16-2.145l-1.617.934v-1.866l1.617.932zm-1.939-.932v1.866l-1.616-.933 1.616-.933zm-1.777 1.212l1.616.933-1.616.933v-1.866zm.161 2.144l1.616-.933v1.867l-1.616-.934zm1.938.933v-1.866l1.616.933-1.616.933zM323.594 927.736h-1.51l.455-.789c.06-.102.025-.233-.078-.293-.104-.059-.235-.024-.293.079l-.579 1.003h-1.148l1.169-2.027c.06-.102.025-.234-.078-.293-.103-.059-.234-.024-.293.079l-1.295 2.241h-2.142l-.647-1.121 1.072-1.855h2.588c.117 0 .214-.096.214-.215 0-.117-.097-.214-.214-.214h-2.341l.574-.994 1.156.001c.119 0 .215-.096.215-.215 0-.117-.096-.214-.215-.214h-.909l.755-1.308c.059-.103.024-.234-.079-.293-.102-.06-.233-.025-.293.079l-.755 1.307-.455-.788c-.06-.102-.191-.137-.293-.078-.103.059-.138.19-.079.293l.578 1.002-.573.994-1.169-2.027c-.06-.103-.191-.138-.293-.079-.103.06-.138.191-.079.293l1.294 2.241-1.071 1.856h-1.294l-1.071-1.856 1.293-2.241c.06-.102.024-.233-.078-.293-.103-.059-.233-.024-.293.079l-1.17 2.027-.573-.994.579-1.003c.059-.102.024-.233-.079-.292-.102-.06-.233-.024-.293.078l-.455.788-.753-1.308c-.06-.103-.191-.137-.293-.078-.102.059-.137.19-.078.292l.755 1.308h-.91c-.118 0-.214.097-.214.215s.096.214.214.214h1.158l.573.994h-2.34c-.118 0-.214.096-.214.214s.096.214.214.214h2.588l1.071 1.856-.647 1.121h-2.142l-1.296-2.241c-.059-.103-.19-.138-.292-.079-.103.059-.138.191-.079.293l1.172 2.027h-1.148l-.579-1.002c-.059-.103-.19-.138-.292-.079-.103.059-.138.19-.079.293l.455.788h-1.509c-.118 0-.214.096-.214.214s.096.214.214.214h1.51l-.455.789c-.059.102-.024.233.078.293.034.019.071.028.107.028.074 0 .146-.038.186-.107l.579-1.003h1.148l-1.17 2.027c-.06.102-.024.233.078.293.034.019.071.028.107.028.074 0 .146-.038.186-.107l1.295-2.241h2.142l.647 1.12-1.072 1.856h-2.587c-.118 0-.214.096-.214.214s.096.214.214.214h2.34l-.574.994h-1.158c-.118 0-.214.096-.214.214s.096.215.214.215h.911l-.756 1.307c-.059.102-.024.234.079.293.034.019.071.028.107.028.074 0 .146-.038.186-.107l.755-1.308.455.789c.04.069.112.107.186.107.037 0 .074-.009.107-.028.103-.06.138-.191.079-.293l-.58-1.003.574-.994 1.17 2.027c.04.069.112.107.186.107.037 0 .073-.009.107-.029.103-.059.138-.189.079-.293l-1.294-2.241 1.071-1.854h1.294l1.072 1.855-1.295 2.241c-.059.102-.024.233.078.293.034.019.071.028.107.028.075 0 .147-.038.186-.107l1.17-2.027.575.994-.579 1.002c-.059.102-.024.234.079.293.034.02.071.029.107.029.075 0 .147-.039.187-.108l.455-.787.755 1.308c.04.069.112.107.187.107.036 0 .072-.009.107-.028.101-.06.136-.19.079-.294l-.756-1.308h.909c.119 0 .215-.096.215-.215 0-.117-.096-.214-.215-.214h-1.157l-.573-.994 2.34.001c.118 0 .214-.097.214-.215 0-.117-.096-.214-.214-.214h-2.588l-1.072-1.855.648-1.12h2.141l1.295 2.241c.04.069.112.107.186.107.037 0 .073-.009.107-.028.102-.06.137-.19.079-.293l-1.174-2.027h1.149l.58 1.003c.04.069.112.107.186.107.037 0 .073-.009.107-.028.103-.06.138-.19.079-.293l-.455-.789h1.509c.118 0 .215-.096.215-.214-.003-.118-.1-.214-.218-.214zm-6.285.428l-.4.692-.124.214H315.492l-.124-.214-.399-.692-.124-.214.124-.214.4-.692.123-.214h1.294l.124.214.399.692.124.214-.124.214zM276.938 1200h-1.51l.455-.78c.06-.11.025-.24-.078-.3-.104-.06-.235-.02-.294.08l-.578 1h-1.149l1.17-2.02c.059-.1.025-.24-.079-.3-.102-.05-.233-.02-.293.08l-1.294 2.24h-2.143l-.646-1.12 1.071-1.85h2.588c.118 0 .215-.1.215-.22 0-.11-.097-.21-.215-.21h-2.341l.575-.99h1.156c.118 0 .214-.1.214-.22s-.096-.21-.214-.21h-.91l.755-1.31c.06-.1.025-.23-.078-.29-.102-.06-.234-.03-.293.07l-.756 1.31-.455-.79c-.059-.1-.19-.13-.292-.07-.103.06-.138.19-.079.29l.578 1-.573.99-1.17-2.02c-.059-.1-.19-.14-.292-.08-.103.06-.138.19-.079.29l1.294 2.24-1.071 1.86h-1.294l-1.072-1.86 1.294-2.24c.059-.1.024-.23-.078-.29-.103-.06-.233-.02-.293.08l-1.17 2.02-.574-.99.579-1c.059-.1.024-.24-.078-.29-.103-.06-.234-.03-.293.07l-.455.79-.753-1.31c-.06-.1-.191-.13-.293-.07-.103.05-.138.19-.079.29l.756 1.31h-.91c-.118 0-.214.09-.214.21s.096.21.214.21h1.157l.574 1h-2.34c-.118 0-.214.09-.214.21s.096.22.214.22h2.588l1.071 1.85-.647 1.12h-2.143l-1.295-2.24c-.059-.1-.19-.13-.292-.08-.103.06-.138.19-.079.3l1.171 2.02h-1.147l-.579-1c-.059-.1-.191-.14-.293-.08-.102.06-.137.19-.078.3l.455.78h-1.509c-.119 0-.215.1-.215.22s.096.21.215.21h1.51l-.456.79c-.059.1-.024.23.079.29.034.02.071.03.107.03.074 0 .146-.04.186-.1l.579-1.01h1.148l-1.171 2.03c-.059.1-.024.23.079.29.034.02.07.03.107.03.074 0 .146-.04.186-.11l1.294-2.24h2.143l.647 1.12-1.072 1.86h-2.587c-.118 0-.214.09-.214.21s.096.22.214.22h2.339l-.573.99h-1.158c-.118 0-.214.1-.214.21 0 .12.096.22.214.22h.91l-.755 1.31c-.059.1-.024.23.079.29.033.02.07.03.107.03.074 0 .146-.04.186-.11l.755-1.31.455.79c.04.07.112.11.186.11.036 0 .073-.01.107-.03.103-.06.138-.19.079-.29l-.58-1.01.574-.99 1.17 2.03c.04.07.112.1.186.1.036 0 .073-.01.107-.02.102-.06.138-.19.079-.3l-1.295-2.24 1.072-1.85h1.294l1.071 1.85-1.294 2.24c-.06.11-.024.24.078.3.033.02.07.02.107.02.075 0 .147-.03.186-.1l1.17-2.03.574.99-.578 1.01c-.059.1-.024.23.079.29.034.02.071.03.107.03.074 0 .146-.04.186-.11l.455-.79.756 1.31c.04.07.112.11.186.11.036 0 .073-.01.107-.03.102-.06.137-.19.079-.29l-.756-1.31h.91c.118 0 .214-.1.214-.22 0-.11-.096-.21-.214-.21h-1.157l-.574-.99h2.341c.117 0 .214-.1.214-.22s-.097-.21-.214-.21h-2.588l-1.072-1.86.647-1.12h2.142l1.295 2.24c.039.07.111.11.186.11.036 0 .073-.01.107-.03.102-.06.137-.19.078-.29l-1.173-2.03h1.149l.579 1.01c.041.06.113.1.186.1.037 0 .074-.01.108-.03.102-.06.138-.19.079-.29l-.455-.79h1.509c.117 0 .214-.09.214-.21-.003-.12-.1-.22-.217-.22zm-6.286.43l-.399.69-.124.22h-1.294l-.123-.22-.399-.69-.124-.21.124-.22.399-.69.124-.21h1.294l.124.21.398.69.124.22-.124.21zM288.784 527.186h-.869l.262-.453c.034-.059.014-.134-.045-.169-.06-.034-.135-.013-.168.046l-.333.576h-.661l.673-1.165c.034-.059.014-.134-.045-.168s-.134-.014-.169.045l-.744 1.288h-1.232l-.372-.644.616-1.067h1.489c.067 0 .123-.055.123-.123s-.056-.123-.123-.123h-1.347l.331-.572h.665c.068 0 .123-.055.123-.123 0-.067-.055-.123-.123-.123h-.523l.434-.752c.034-.059.014-.135-.045-.169s-.135-.014-.169.046l-.434.752-.262-.454c-.034-.058-.109-.079-.168-.045-.059.034-.079.11-.046.169l.333.576-.33.571-.672-1.165c-.034-.059-.11-.079-.168-.045-.059.034-.08.109-.046.168l.744 1.289-.616 1.067h-.744l-.616-1.067.744-1.289c.034-.059.014-.134-.045-.168s-.134-.014-.168.045l-.673 1.165-.33-.571.333-.577c.034-.058.014-.134-.045-.168s-.134-.014-.168.045l-.262.454-.433-.753c-.034-.059-.11-.079-.168-.045-.059.034-.08.109-.046.169l.435.752h-.523c-.068 0-.123.055-.123.123s.055.123.123.123h.665l.33.571h-1.345c-.068 0-.124.056-.124.124s.056.123.124.123h1.487l.616 1.067-.372.644h-1.232l-.744-1.288c-.034-.059-.11-.079-.169-.045-.059.034-.079.109-.045.168l.674 1.165h-.66l-.333-.576c-.034-.059-.109-.079-.168-.045-.059.034-.079.109-.045.168l.261.453h-.867c-.068 0-.124.055-.124.123s.056.124.124.124h.868l-.262.453c-.034.059-.014.134.045.169.02.011.041.016.062.016.042 0 .084-.022.107-.062l.332-.576h.661l-.673 1.165c-.034.059-.014.134.045.168.019.012.04.017.061.017.043 0 .084-.022.107-.062l.745-1.288h1.231l.372.643-.616 1.067h-1.487c-.068 0-.124.056-.124.124 0 .067.056.123.124.123h1.345l-.33.571h-.666c-.068 0-.123.055-.123.123s.055.124.123.124h.524l-.435.752c-.034.058-.013.134.046.168.019.011.04.016.061.016.043 0 .084-.022.107-.061l.434-.752.262.453c.023.04.064.062.107.062.021 0 .042-.006.062-.017.058-.034.079-.109.045-.168l-.334-.577.33-.571.673 1.165c.023.04.064.062.107.062.021 0 .042-.005.062-.017.059-.034.079-.109.045-.168l-.744-1.289.616-1.066h.744l.616 1.067-.745 1.288c-.034.059-.013.134.046.169.019.011.04.016.061.016.043 0 .084-.022.107-.062l.673-1.165.33.571-.333.577c-.034.058-.013.134.046.168.019.011.041.016.061.016.043 0 .085-.022.107-.061l.262-.453.435.752c.022.04.064.062.107.062.02 0 .042-.006.061-.017.059-.034.079-.109.046-.168l-.435-.753h.523c.068 0 .123-.055.123-.123s-.055-.123-.123-.123h-.665l-.33-.572 1.346.001c.067 0 .123-.056.123-.124 0-.067-.056-.123-.123-.123H285.7l-.616-1.067.373-.644h1.231l.744 1.289c.023.04.065.062.107.062.021 0 .043-.005.062-.017.059-.034.079-.109.045-.168l-.675-1.165h.661l.333.576c.023.04.065.062.107.062.021 0 .043-.005.062-.016.059-.035.079-.11.045-.169l-.261-.453h.868c.067 0 .123-.056.123-.124-.002-.068-.058-.123-.125-.123zm-3.614.247l-.23.397-.071.124h-.744l-.071-.124-.229-.397-.072-.124.072-.123.229-.398.071-.123h.744l.072.123.229.398.071.123-.071.124zM372.913 1133.13h-1.026l-.397.68h-2.417l1.672-1.67c.078-.08.078-.2 0-.28-.077-.08-.204-.08-.282 0l-1.955 1.96h-1.205l-.602-1.05.604-1.04 2.669-.72c.106-.03.169-.14.141-.24-.028-.11-.138-.17-.244-.14l-2.284.61 1.207-2.09h.795l.514-.89-.513-.89h-1.025l-.513.89.398.69-1.208 2.09-.613-2.29c-.027-.1-.137-.17-.243-.14-.107.03-.17.14-.142.25l.716 2.67-.602 1.04h-1.205l-.602-1.04.715-2.67c.028-.11-.035-.22-.141-.25-.107-.02-.216.04-.244.15l-.613 2.28-1.207-2.09.397-.69-.513-.89h-1.025l-.513.89.513.89h.795l1.207 2.09-2.284-.61c-.107-.03-.216.03-.244.14-.028.1.035.21.141.24l2.67.72.602 1.04-.602 1.05H363l-1.955-1.96c-.078-.08-.205-.08-.282 0-.078.08-.078.2 0 .28l1.673 1.67h-2.416l-.398-.68h-1.026l-.513.88.513.89h1.026l.398-.69h2.415l-1.672 1.68c-.078.07-.078.2 0 .28.039.04.09.06.141.06.051 0 .103-.02.142-.06l1.954-1.96h1.206l.601 1.05-.601 1.04-2.671.71c-.107.03-.17.14-.142.25.029.11.139.17.245.14l2.286-.61-1.21 2.09h-.794l-.513.89.513.89h1.025l.513-.89-.398-.69 1.207-2.09.613 2.28c.024.09.104.15.192.15.017 0 .034 0 .052-.01.106-.03.17-.14.141-.24l-.716-2.67.603-1.04h1.204l.603 1.04-.716 2.67c-.028.1.035.21.142.24.017.01.035.01.052.01.088 0 .168-.06.192-.15l.612-2.28 1.208 2.09-.399.69.513.89h1.026l.513-.89-.513-.89h-.795l-1.209-2.09 2.285.61c.107.03.216-.03.244-.14.029-.11-.035-.22-.141-.25l-2.67-.71-.603-1.04.603-1.05h1.205l1.954 1.96c.039.04.09.06.141.06.051 0 .102-.02.141-.06.078-.08.078-.21 0-.28l-1.67-1.68h2.415l.398.69h1.026l.512-.88-.512-.89zm-6.556 1.93h-1.205l-.115-.2-.372-.65-.115-.2.115-.2.372-.64.116-.2h1.204l.112.2.059-.1-.056.1.371.64.116.2-.116.2-.372.65-.114.2zm.004-2.29h.113-.113zm.226.2l-.056-.1.056.1zm-.343-.2l-.057.1.055-.1h.002zM166.971 527.966l-3.422.915-2.723-1.572 2.723-1.573 3.422.917c.019.005.038.007.057.007.098 0 .187-.065.213-.164.032-.118-.038-.24-.156-.271l-2.993-.802 2.853-1.648c.105-.061.141-.196.08-.302-.062-.106-.197-.142-.302-.081l-2.852 1.647.802-2.992c.031-.119-.039-.24-.156-.272-.118-.031-.239.039-.272.157l-.916 3.42-2.724 1.573v-3.145l2.504-2.504c.087-.086.087-.227 0-.313-.086-.087-.227-.087-.313 0l-2.191 2.191v-3.294c0-.122-.1-.221-.222-.221s-.221.099-.221.221v3.294l-2.191-2.191c-.087-.087-.227-.087-.313 0-.087.086-.087.227 0 .313l2.504 2.504v3.146l-2.724-1.573-.917-3.42c-.032-.119-.153-.188-.271-.157-.118.031-.188.153-.157.271l.802 2.993-2.852-1.648c-.106-.061-.241-.025-.302.081-.062.106-.025.242.08.303l2.853 1.647-2.993.802c-.118.031-.188.153-.156.271.026.099.115.164.213.164.019 0 .038-.002.057-.007l3.422-.917 2.723 1.573-2.723 1.572-3.421-.916c-.117-.03-.24.039-.271.157-.032.118.038.239.156.271l2.994.801-2.853 1.648c-.106.061-.142.196-.081.303.042.071.116.111.193.111.037 0 .075-.009.11-.03l2.853-1.647-.803 2.992c-.031.119.039.24.157.271.02.006.039.008.058.008.098 0 .187-.065.214-.164l.916-3.42 2.724-1.573v3.145l-2.504 2.505c-.087.086-.087.226 0 .313.086.086.227.086.313 0l2.191-2.191v3.294c0 .122.099.222.221.222s.222-.1.222-.222v-3.294l2.19 2.191c.044.044.1.064.157.064.057 0 .114-.022.156-.064.087-.087.087-.227 0-.313l-2.504-2.505v-3.145l2.723 1.573.916 3.421c.026.098.116.163.214.163.019 0 .038-.001.057-.007.119-.032.188-.153.157-.272l-.803-2.991 2.853 1.646c.035.021.073.03.111.03.076 0 .15-.04.192-.111.061-.106.025-.241-.081-.303l-2.853-1.647 2.993-.802c.119-.031.189-.153.157-.271-.031-.119-.151-.188-.27-.156zM27.454 292.327l-3.422.916-2.723-1.573 2.723-1.572 3.422.916c.019.006.038.008.058.008.097 0 .187-.065.213-.165.031-.118-.039-.239-.157-.271l-2.993-.802 2.853-1.647c.105-.062.141-.197.08-.303-.062-.106-.197-.142-.302-.081l-2.852 1.648.802-2.993c.031-.118-.038-.24-.156-.271-.118-.031-.24.038-.271.157l-.917 3.42-2.724 1.572v-3.144l2.504-2.505c.087-.086.087-.226 0-.313-.086-.086-.226-.086-.313 0l-2.19 2.191v-3.293c0-.122-.1-.222-.223-.222-.122 0-.221.1-.221.222v3.293l-2.19-2.191c-.087-.086-.228-.086-.314 0-.086.087-.086.227 0 .313l2.504 2.505v3.145l-2.724-1.573-.916-3.42c-.033-.118-.153-.188-.272-.157-.118.031-.188.153-.157.271l.802 2.993-2.852-1.648c-.105-.06-.241-.025-.302.082-.062.106-.025.241.08.302l2.853 1.648-2.993.801c-.118.032-.188.153-.156.271.026.099.115.165.213.165.02 0 .038-.002.058-.008l3.42-.916 2.724 1.572-2.723 1.573-3.421-.916c-.117-.031-.24.038-.27.156-.033.118.037.239.156.271l2.993.802-2.853 1.647c-.105.062-.142.197-.08.303.04.071.115.111.192.111.037 0 .075-.009.11-.029l2.853-1.648-.802 2.993c-.032.118.038.239.157.271.019.005.038.008.057.008.098 0 .187-.065.214-.165l.916-3.42 2.724-1.573v3.145l-2.504 2.505c-.087.086-.087.227 0 .314.087.085.227.085.313 0l2.19-2.192v3.294c0 .122.1.222.222.222s.222-.1.222-.222v-3.294l2.19 2.192c.044.043.1.064.157.064.058 0 .114-.022.157-.064.086-.087.086-.228 0-.314l-2.505-2.505v-3.144l2.723 1.572.916 3.421c.027.099.116.164.214.164.019 0 .038-.002.058-.008.118-.031.188-.153.156-.271l-.803-2.992 2.853 1.647c.035.02.073.03.11.03.077 0 .151-.041.193-.111.061-.107.025-.241-.08-.303l-2.854-1.648 2.994-.802c.118-.031.188-.153.156-.271-.03-.119-.151-.188-.27-.156zM87.77 1803.05l-2.485.66-.04-.02v-2.24l.04-.02 2.484.66c.014.01.028.01.042.01.071 0 .136-.05.156-.12.022-.09-.028-.17-.114-.2l-2.174-.58 2.072-1.2c.076-.04.103-.14.059-.22-.045-.07-.143-.1-.22-.05l-2.071 1.19.582-2.17c.023-.09-.028-.18-.114-.2-.086-.02-.173.03-.197.12l-.665 2.48-.04.02-1.938-1.12v-.04l1.819-1.82c.062-.06.062-.17 0-.23-.063-.06-.165-.06-.228 0l-1.59 1.59v-2.39c0-.09-.073-.16-.162-.16-.088 0-.16.07-.16.16v2.39l-1.591-1.59c-.063-.06-.165-.06-.228 0-.062.06-.062.17 0 .23l1.818 1.82v.04l-1.938 1.12-.04-.02-.665-2.48c-.023-.09-.11-.14-.197-.12-.086.03-.137.11-.114.2l.583 2.17-2.071-1.19c-.077-.05-.176-.02-.22.06-.045.07-.018.17.059.22l2.071 1.19-2.173.58c-.087.03-.138.11-.114.2.02.07.085.12.155.12.014 0 .027 0 .041-.01l2.485-.66.04.02v2.24l-.04.02-2.484-.66c-.087-.02-.174.03-.197.11-.023.09.028.17.114.2l2.174.58-2.072 1.2c-.077.04-.103.14-.059.22.03.05.084.08.14.08.027 0 .055-.01.08-.02l2.07-1.2-.582 2.17c-.022.09.028.18.114.2.015 0 .028.01.042.01.072 0 .136-.05.156-.12l.664-2.49.04-.02 1.938 1.12v.05l-1.818 1.81c-.062.07-.062.17 0 .23.063.06.165.06.228 0l1.59-1.59v2.39c0 .09.072.16.16.16.09 0 .162-.07.162-.16v-2.39l1.59 1.59c.032.03.073.05.114.05.041 0 .083-.02.114-.05.063-.06.063-.17 0-.23l-1.819-1.82v-.04l1.938-1.12.04.02.665 2.48c.02.08.084.12.155.12h.042c.086-.03.137-.11.114-.2l-.583-2.17 2.072 1.19c.025.02.053.02.08.02.056 0 .11-.02.14-.08.044-.07.018-.17-.06-.22l-2.071-1.19 2.174-.58c.087-.03.137-.12.114-.2-.022-.09-.109-.13-.197-.11zm-2.846.45l-1.617-.93 1.617-.93v1.86zm-.16-2.14l-1.617.93v-1.87l1.617.94zm-1.939-.94v1.87l-1.616-.93 1.616-.94zm-1.777 1.22l1.617.93-1.617.93v-1.86zm.161 2.14l1.616-.93v1.86l-1.616-.93zm1.938.93v-1.86l1.616.93-1.616.93zM226.343 1772.84h-1.132l.341-.59c.045-.08.019-.17-.059-.22-.077-.04-.176-.02-.22.06l-.433.75h-.862l.877-1.52c.045-.07.019-.17-.059-.22-.077-.04-.175-.02-.219.06l-.971 1.68h-1.607l-.485-.84.804-1.39h1.941c.088 0 .16-.07.16-.16s-.072-.16-.16-.16h-1.756l.431-.75h.867c.089 0 .161-.07.161-.16 0-.08-.072-.16-.161-.16h-.682l.566-.98c.045-.08.018-.17-.059-.22-.077-.04-.175-.02-.22.06l-.566.98-.342-.59c-.044-.08-.142-.1-.219-.06-.077.05-.103.14-.059.22l.434.75-.43.75-.878-1.52c-.044-.08-.142-.1-.219-.06-.077.04-.103.14-.059.22l.97 1.68-.803 1.39h-.971l-.803-1.39.97-1.68c.045-.08.018-.18-.059-.22-.077-.04-.174-.02-.219.06l-.878 1.52-.43-.75.434-.75c.045-.08.018-.17-.058-.22-.077-.04-.176-.02-.22.06l-.341.59-.565-.98c-.045-.08-.143-.1-.22-.06-.077.05-.103.14-.059.22l.567.98h-.682c-.089 0-.161.07-.161.16s.072.16.161.16h.867l.431.75h-1.755c-.089 0-.161.07-.161.16s.072.16.161.16h1.941l.803 1.39-.486.84h-1.606l-.972-1.68c-.044-.07-.143-.1-.219-.06-.077.05-.103.15-.059.22l.878 1.52h-.86l-.434-.75c-.045-.08-.143-.1-.22-.06-.077.05-.103.14-.059.22l.342.59h-1.132c-.089 0-.161.07-.161.16s.072.16.161.16h1.132l-.341.6c-.045.07-.018.17.059.22.025.01.053.02.08.02.055 0 .109-.03.139-.08l.434-.76h.862l-.878 1.52c-.045.08-.018.18.058.22.026.02.053.03.081.03.055 0 .109-.03.139-.09l.971-1.68h1.607l.485.84-.804 1.4h-1.94c-.089 0-.161.07-.161.16 0 .08.072.16.161.16H219l-.431.74h-.868c-.089 0-.161.07-.161.16s.072.16.161.16h.683l-.566.98c-.045.08-.018.18.058.22.026.02.053.03.081.03.055 0 .109-.03.139-.08l.567-.99.341.6c.03.05.084.08.139.08.028 0 .055-.01.081-.03.077-.04.103-.14.059-.22l-.435-.75.43-.74.878 1.52c.03.05.084.08.139.08.028 0 .055-.01.081-.02.077-.05.103-.15.059-.22l-.971-1.68.803-1.4h.971l.804 1.4-.971 1.68c-.045.07-.018.17.058.22.025.01.053.02.081.02.056 0 .11-.03.139-.08l.878-1.52.43.74-.433.75c-.045.08-.018.18.059.22.025.02.053.03.08.03.056 0 .11-.03.14-.08l.341-.6.567.99c.03.05.084.08.14.08.027 0 .054-.01.08-.03.076-.04.103-.14.059-.22l-.567-.98h.683c.088 0 .16-.07.16-.16s-.072-.16-.16-.16h-.869l-.43-.74h1.756c.088 0 .16-.08.16-.16 0-.09-.072-.16-.16-.16l-1.941-.01-.804-1.39.485-.84h1.607l.971 1.68c.029.06.083.09.139.09.028 0 .055-.01.081-.03.076-.04.102-.14.058-.22l-.88-1.52h.862l.435.76c.03.05.084.08.139.08.028 0 .055-.01.081-.02.077-.05.103-.15.059-.22l-.341-.6h1.132c.088 0 .16-.07.16-.16-.002-.09-.074-.16-.163-.16zm-4.714.32l-.299.52-.093.16H220.266l-.092-.16-.299-.52-.093-.16.093-.16.299-.52.093-.16h.97l.093.16.299.52.093.16-.093.16zM330.216 1780.89l-1.505-.87.907-.52c.117-.07.158-.22.091-.34-.069-.12-.22-.16-.337-.09l-1.153.67-1.143-.66 2.331-1.35c.117-.07.158-.21.09-.33-.068-.12-.219-.16-.337-.09l-2.577 1.48-1.783-1.03 2.144-.94-2.145-.95 1.783-1.03 2.578 1.49c.039.02.081.03.123.03.086 0 .168-.04.214-.12.069-.12.028-.27-.09-.34l-2.332-1.34 1.143-.66 1.155.66c.038.03.081.04.123.04.085 0 .168-.05.214-.13.068-.11.028-.27-.091-.33l-.907-.53 1.504-.87c.118-.06.158-.21.091-.33-.069-.12-.22-.16-.337-.09l-1.504.87v-1.05c0-.14-.111-.25-.247-.25s-.246.11-.246.25l.001 1.33-1.144.66.001-2.69c0-.14-.111-.25-.247-.25-.135 0-.246.11-.246.25l-.001 2.97-1.783 1.03.254-2.33-1.891 1.39v-2.06l2.576-1.49c.118-.07.158-.22.091-.34-.069-.11-.219-.15-.337-.09l-2.33 1.35v-1.32l1.152-.67c.118-.07.158-.22.091-.33-.069-.12-.219-.16-.337-.09l-.906.52v-1.73c0-.14-.111-.25-.247-.25s-.246.11-.246.25v1.73l-.906-.52c-.119-.07-.269-.03-.337.09s-.028.27.09.34l1.153.66v1.32l-2.331-1.34c-.118-.07-.268-.03-.336.09s-.028.27.09.34l2.577 1.48v2.07l-1.891-1.39.253 2.33-1.784-1.03v-2.98c0-.13-.11-.24-.246-.24s-.247.11-.247.24v2.7l-1.142-.66-.001-1.34c0-.13-.11-.24-.246-.24s-.246.11-.246.24v1.05l-1.504-.87c-.118-.07-.269-.03-.337.09s-.028.27.09.34l1.504.87-.906.52c-.118.07-.158.22-.09.34.046.08.128.12.214.12.042 0 .084-.01.123-.03l1.152-.67 1.143.66-2.33 1.35c-.118.07-.158.22-.09.34.045.07.128.12.214.12.041 0 .084-.01.123-.03l2.577-1.49 1.785 1.03-2.145.94 2.144.95-1.784 1.03-2.578-1.49c-.119-.07-.268-.03-.336.09s-.028.27.09.34l2.331 1.35-1.144.66-1.152-.67c-.117-.07-.268-.03-.336.09s-.028.27.09.34l.906.52-1.503.87c-.118.07-.159.22-.09.33.045.08.128.13.213.13.042 0 .085-.01.124-.03l1.503-.87.001 1.04c0 .14.11.25.246.25s.246-.11.246-.25v-1.33l1.144-.66-.001 2.69c0 .14.11.25.246.25s.247-.11.247-.25l.001-2.97 1.783-1.03-.253 2.33 1.891-1.39v2.06l-2.577 1.49c-.117.07-.158.22-.09.34.068.12.219.16.337.09l2.33-1.35v1.32l-1.153.67c-.118.07-.158.22-.09.34.068.11.219.16.337.09l.906-.52v1.73c0 .13.11.24.246.24s.247-.11.247-.24v-1.74l.907.52c.039.02.081.03.123.03.086 0 .168-.04.214-.12.069-.12.028-.27-.09-.34l-1.154-.66v-1.32l2.33 1.34c.039.03.082.04.124.04.085 0 .168-.05.214-.13.068-.12.028-.27-.091-.34l-2.576-1.48v-2.06l1.891 1.38-.253-2.33 1.783 1.03v2.98c0 .13.111.24.247.24.135 0 .246-.11.246-.24v-2.69l1.142.66.001 1.33c0 .13.111.24.246.24.136 0 .247-.11.247-.24l-.001-1.05 1.505.87c.039.02.081.03.123.03.086 0 .168-.04.214-.12.065-.12.024-.27-.095-.34zm-6.019-1.43l-1.281-.94-.246-.17-.247.18-1.28.93.171-1.58.033-.3-.279-.12-1.452-.64 1.452-.64.279-.12-.033-.31-.171-1.58 1.28.94.246.18.247-.18 1.281-.94-.172 1.58-.033.31.278.12 1.452.64-1.451.64-.279.12.033.3.172 1.58zM215.696 3.713h-.868l.262-.454c.034-.058.014-.134-.045-.168-.06-.034-.135-.014-.169.045l-.333.577h-.66l.673-1.166c.034-.058.014-.134-.046-.168-.059-.034-.134-.014-.168.045l-.744 1.289h-1.232l-.372-.645.616-1.067h1.488c.068 0 .123-.055.123-.123s-.055-.123-.123-.123h-1.346l.33-.571h.665c.068 0 .124-.055.124-.123s-.056-.124-.124-.124h-.523l.434-.752c.035-.059.014-.134-.045-.168-.059-.035-.134-.014-.168.045l-.435.752-.261-.453c-.034-.059-.11-.08-.169-.045-.059.034-.079.11-.045.168l.333.576-.33.572-.673-1.165c-.034-.06-.109-.08-.168-.046-.059.034-.079.11-.045.169l.744 1.288-.616 1.067h-.744l-.616-1.067.744-1.288c.034-.06.014-.135-.045-.169s-.134-.014-.168.046l-.673 1.165-.33-.572.333-.576c.034-.059.014-.135-.045-.169s-.135-.013-.169.046l-.261.453-.434-.752c-.034-.06-.109-.08-.168-.045-.059.034-.079.109-.045.168l.434.752h-.523c-.068 0-.123.055-.123.123s.055.123.123.123h.666l.33.572h-1.346c-.068 0-.123.055-.123.123s.055.123.123.123h1.488l.616 1.067-.372.645h-1.232l-.745-1.289c-.034-.059-.109-.08-.168-.045-.059.034-.079.11-.045.168l.673 1.166h-.66l-.332-.577c-.034-.059-.11-.079-.169-.045-.058.034-.079.11-.045.169l.262.453h-.868c-.068 0-.123.055-.123.123s.055.123.123.123h.868l-.261.453c-.034.06-.014.135.045.169.019.011.04.016.061.016.043 0 .084-.022.107-.061l.333-.577h.66l-.673 1.165c-.034.059-.014.135.045.169.02.01.041.016.062.016.042 0 .084-.022.107-.062l.744-1.288h1.232l.372.644-.616 1.067h-1.488c-.068 0-.123.055-.123.123s.055.123.123.123h1.345l-.33.572h-.665c-.068 0-.123.055-.123.123s.055.123.123.123h.523l-.434.752c-.034.059-.014.134.045.168.02.012.041.017.062.017.042 0 .084-.022.107-.062l.434-.752.262.453c.022.04.064.062.107.062.02 0 .042-.005.061-.016.059-.034.079-.11.045-.169l-.333-.576.33-.572.673 1.165c.023.04.064.062.107.062.021 0 .042-.005.061-.016.059-.034.079-.11.045-.169l-.744-1.288.616-1.067h.744l.616 1.067-.744 1.289c-.034.058-.014.134.045.168.019.011.041.016.062.016.043 0 .084-.022.107-.061l.672-1.166.331.572-.333.576c-.034.059-.014.134.045.169.02.01.041.016.062.016.043 0 .084-.023.107-.062l.262-.453.434.752c.023.04.064.062.107.062.021 0 .042-.005.062-.016.058-.035.079-.11.045-.169l-.434-.752h.523c.068 0 .123-.056.123-.124 0-.067-.055-.123-.123-.123h-.666l-.33-.571h1.346c.068 0 .123-.055.123-.123s-.055-.123-.123-.123h-1.488l-.616-1.067.372-.644h1.232l.744 1.288c.023.04.064.062.107.062.021 0 .042-.005.062-.016.058-.034.078-.11.045-.169l-.675-1.165h.661l.333.577c.023.04.064.061.107.061.021 0 .042-.005.061-.016.06-.034.08-.11.046-.169l-.262-.453h.868c.068 0 .123-.055.123-.123-.001-.068-.057-.123-.125-.123zm-3.614.246l-.229.398-.072.123h-.744l-.071-.123-.229-.398-.071-.123.071-.123.23-.398.071-.123h.744l.071.123.229.398.071.123-.071.123zM42.454 1774.73l-1.37-.79.826-.48c.106-.06.143-.2.082-.3-.063-.11-.2-.15-.306-.09l-1.049.61-1.04-.6 2.12-1.22c.108-.07.144-.2.083-.31-.063-.11-.2-.15-.307-.08l-2.345 1.35-1.623-.94 1.952-.86-1.952-.86 1.622-.93 2.346 1.35c.035.02.074.03.112.03.078 0 .153-.04.195-.11.062-.11.025-.25-.083-.31l-2.121-1.22 1.04-.6 1.05.6c.036.02.074.03.112.03.078 0 .153-.04.195-.11.062-.11.026-.24-.082-.31l-.825-.47 1.368-.79c.107-.07.143-.2.082-.31-.062-.11-.2-.14-.306-.08l-1.368.79v-.95c0-.13-.102-.23-.225-.23-.124 0-.224.1-.224.23v1.21l-1.04.6v-2.45c0-.12-.1-.22-.223-.22-.124 0-.225.1-.225.22v2.71l-1.623.93.231-2.12-1.72 1.26v-1.87l2.344-1.36c.107-.06.143-.19.082-.3-.063-.11-.2-.15-.306-.08l-2.12 1.22v-1.2l1.048-.61c.107-.06.144-.2.082-.3-.062-.11-.2-.15-.306-.09l-.825.48v-1.58c0-.12-.1-.22-.224-.22s-.224.1-.224.22v1.58l-.825-.47c-.107-.07-.244-.03-.306.08s-.025.24.082.31l1.049.6v1.2l-2.12-1.22c-.108-.06-.245-.03-.307.08s-.025.25.082.31l2.345 1.35v1.88l-1.72-1.26.23 2.12-1.624-.94v-2.71c0-.12-.1-.22-.224-.22s-.224.1-.224.22v2.45l-1.04-.6v-1.21c0-.12-.1-.22-.224-.22s-.224.1-.224.22v.95l-1.369-.79c-.107-.06-.244-.02-.306.09-.062.1-.025.24.082.3l1.368.79-.824.48c-.107.06-.144.2-.082.3.041.08.117.12.194.12.039 0 .077-.01.113-.03l1.048-.61 1.04.6-2.12 1.23c-.107.06-.144.19-.082.3.041.07.117.11.194.11.038 0 .077 0 .112-.03l2.345-1.35 1.624.94-1.951.86 1.95.86-1.623.94-2.345-1.36c-.108-.06-.244-.02-.306.09-.062.1-.026.24.082.3l2.121 1.23-1.04.6-1.049-.61c-.107-.06-.244-.03-.306.08s-.025.25.082.31l.824.48-1.368.79c-.107.06-.144.19-.082.3.042.07.117.11.195.11.038 0 .076-.01.112-.02l1.368-.8v.96c0 .12.1.22.225.22.123 0 .224-.1.224-.22v-1.22l1.04-.6v2.45c0 .13.1.23.224.23s.224-.1.224-.23v-2.71l1.624-.93-.23 2.12 1.72-1.26v1.87l-2.345 1.36c-.107.06-.144.2-.082.3.062.11.2.15.307.09l2.12-1.23v1.2l-1.05.61c-.106.06-.143.2-.081.31.062.1.199.14.306.08l.825-.48v1.58c0 .12.1.22.224.22.123 0 .224-.1.224-.22v-1.58l.825.47c.036.02.074.03.112.03.079 0 .154-.04.196-.11.062-.11.025-.24-.083-.31l-1.05-.6v-1.2l2.12 1.22c.036.02.075.03.113.03.078 0 .153-.04.195-.11.062-.11.026-.25-.083-.31l-2.344-1.35v-1.88l1.72 1.26-.23-2.12 1.623.94v2.71c0 .12.1.22.225.22.123 0 .224-.1.224-.22v-2.45l1.04.6v1.21c0 .12.1.22.224.22.123 0 .224-.1.224-.22v-.95l1.368.79c.036.02.074.03.113.03.078 0 .153-.04.195-.11.058-.11.022-.25-.087-.31zm-5.477-1.3l-1.166-.85-.224-.17-.224.17-1.165.85.156-1.44.03-.27-.254-.11-1.32-.59 1.32-.58.254-.11-.03-.28-.156-1.43 1.165.85.224.16.224-.16 1.166-.85-.156 1.43-.03.28.253.11 1.32.58-1.32.59-.253.11.03.27.156 1.44z"/>
</svg>
