<svg width="375" height="1809" viewBox="0 0 375 1809" fill="none" xmlns="http://www.w3.org/2000/svg">
<path d="M54.0207 988.583H52.5108L52.966 987.795C53.0255 987.692 52.9908 987.561 52.8875 987.501C52.7838 987.442 52.6531 987.477 52.5944 987.58L52.0159 988.583H50.8673L52.0369 986.556C52.0964 986.454 52.0617 986.323 51.9584 986.263C51.8556 986.204 51.7249 986.239 51.6653 986.342L50.3711 988.583H48.2283L47.582 987.462L48.6534 985.607H51.2415C51.3589 985.607 51.4557 985.511 51.4557 985.393C51.4557 985.275 51.3589 985.178 51.2415 985.178H48.9003L49.4745 984.184L50.6312 984.185C50.7495 984.185 50.8455 984.089 50.8455 983.971C50.8455 983.853 50.7495 983.756 50.6312 983.756L49.7214 983.756L50.4765 982.448C50.5361 982.346 50.5009 982.214 50.3981 982.155C50.2956 982.095 50.1645 982.13 50.1049 982.234L49.3494 983.542L48.8943 982.754C48.8351 982.652 48.704 982.616 48.6016 982.675C48.4991 982.734 48.464 982.865 48.5227 982.968L49.1013 983.97L48.5279 984.964L47.3583 982.937C47.2992 982.835 47.168 982.799 47.0656 982.859C46.9632 982.918 46.9281 983.049 46.9868 983.152L48.281 985.392L47.2096 987.248H45.9158L44.8444 985.393L46.1382 983.152C46.1974 983.049 46.1622 982.918 46.0598 982.859C45.9569 982.799 45.8267 982.835 45.7671 982.937L44.5971 984.964L44.0233 983.97L44.6023 982.967C44.6614 982.865 44.6263 982.734 44.5239 982.675C44.4214 982.615 44.2903 982.651 44.2311 982.753L43.776 983.542L43.0226 982.233C42.9631 982.13 42.8319 982.096 42.7299 982.155C42.6275 982.214 42.5924 982.345 42.6515 982.448L43.4066 983.755H42.4972C42.3789 983.755 42.2829 983.852 42.2829 983.97C42.2829 984.088 42.3789 984.184 42.4972 984.184H43.6543L44.2281 985.178H41.8882C41.77 985.178 41.674 985.274 41.674 985.392C41.674 985.51 41.77 985.606 41.8882 985.606H44.4759L45.5472 987.462L44.8997 988.583H42.7573L41.4622 986.342C41.4031 986.239 41.2715 986.204 41.1695 986.263C41.0671 986.323 41.032 986.454 41.0911 986.556L42.2624 988.583H41.1147L40.5361 987.581C40.4766 987.478 40.3454 987.443 40.2434 987.502C40.141 987.561 40.1059 987.692 40.165 987.795L40.6201 988.583H39.1108C38.9925 988.583 38.8965 988.679 38.8965 988.797C38.8965 988.915 38.9925 989.011 39.1108 989.011H40.6206L40.1654 989.8C40.1063 989.902 40.1414 990.033 40.2439 990.093C40.2777 990.112 40.3146 990.121 40.351 990.121C40.4251 990.121 40.4971 990.083 40.537 990.014L41.1155 989.011H42.2641L41.0933 991.038C41.0341 991.14 41.0693 991.272 41.1717 991.331C41.2055 991.35 41.2424 991.359 41.2788 991.359C41.353 991.359 41.425 991.321 41.4648 991.252L42.7595 989.011H44.9018L45.5485 990.131L44.4771 991.987H41.8899C41.7717 991.987 41.6757 992.083 41.6757 992.201C41.6757 992.319 41.7717 992.415 41.8899 992.415H44.2294L43.6556 993.409H42.4981C42.3798 993.409 42.2838 993.505 42.2838 993.623C42.2838 993.741 42.3798 993.838 42.4981 993.838H43.4083L42.6532 995.145C42.5941 995.247 42.6292 995.379 42.7316 995.438C42.7655 995.458 42.8023 995.467 42.8388 995.467C42.9129 995.467 42.9849 995.428 43.0248 995.36L43.7799 994.052L44.235 994.84C44.2749 994.909 44.3469 994.947 44.421 994.947C44.4574 994.947 44.4943 994.938 44.5281 994.919C44.6306 994.859 44.6657 994.729 44.6066 994.626L44.0272 993.623L44.601 992.629L45.7709 994.656C45.8108 994.725 45.8828 994.763 45.9569 994.763C45.9934 994.763 46.0302 994.754 46.0641 994.735C46.1665 994.675 46.2016 994.545 46.1425 994.442L44.8483 992.201L45.9197 990.346H47.2139L48.2853 992.201L46.9906 994.442C46.9315 994.544 46.9666 994.676 47.069 994.735C47.1025 994.754 47.1393 994.763 47.1762 994.763C47.2508 994.763 47.3228 994.725 47.3622 994.656L48.5321 992.63L49.1064 993.623L48.5279 994.625C48.4687 994.727 48.5039 994.859 48.6067 994.919C48.641 994.938 48.6778 994.947 48.7138 994.947C48.7884 994.947 48.8604 994.908 48.9003 994.84L49.3554 994.052L50.1109 995.36C50.1508 995.429 50.2228 995.467 50.2974 995.467C50.3334 995.467 50.3702 995.458 50.4045 995.439C50.5061 995.379 50.5412 995.249 50.4834 995.146L49.7274 993.837H50.6372C50.7555 993.837 50.8515 993.741 50.8515 993.623C50.8515 993.505 50.7555 993.408 50.6372 993.408H49.4797L48.9063 992.414L51.2466 992.415C51.3645 992.415 51.4609 992.318 51.4609 992.201C51.4609 992.083 51.3645 991.986 51.2466 991.986L48.6586 991.986L47.5872 990.131L48.2343 989.011H50.3762L51.6709 991.252C51.7103 991.321 51.7823 991.359 51.8569 991.359C51.8933 991.359 51.9302 991.35 51.964 991.331C52.066 991.272 52.1011 991.141 52.0424 991.038L50.8686 989.011H52.018L52.5974 990.014C52.6377 990.083 52.7097 990.121 52.7834 990.121C52.8203 990.121 52.8571 990.112 52.8905 990.093C52.9934 990.033 53.0285 989.903 52.9698 989.8L52.5147 989.011H54.0241C54.1415 989.011 54.2384 988.915 54.2384 988.797C54.2354 988.679 54.1385 988.583 54.0207 988.583ZM47.7354 989.011L47.336 989.703L47.2122 989.917H46.9653H46.1656H45.9184L45.7945 989.703L45.396 989.011L45.2721 988.797L45.396 988.583L45.7954 987.891L45.9192 987.677H46.1665H46.9653H47.213L47.3369 987.891L47.7354 988.583L47.8593 988.797L47.7354 989.011Z" fill="#B0CDD7"/>
<path d="M166.837 1214.32H164.95L165.519 1213.34C165.593 1213.21 165.55 1213.05 165.421 1212.97C165.291 1212.9 165.128 1212.94 165.054 1213.07L164.331 1214.32H162.895L164.357 1211.79C164.432 1211.66 164.388 1211.5 164.259 1211.42C164.131 1211.35 163.967 1211.39 163.893 1211.52L162.275 1214.32H159.597L158.789 1212.92L160.128 1210.6H163.363C163.51 1210.6 163.631 1210.48 163.631 1210.34C163.631 1210.19 163.51 1210.07 163.363 1210.07H160.437L161.154 1208.83L162.6 1208.83C162.748 1208.83 162.868 1208.71 162.868 1208.56C162.868 1208.41 162.748 1208.29 162.6 1208.29L161.463 1208.29L162.407 1206.65C162.481 1206.53 162.437 1206.36 162.309 1206.29C162.181 1206.21 162.017 1206.26 161.942 1206.39L160.998 1208.02L160.429 1207.04C160.355 1206.91 160.191 1206.86 160.063 1206.94C159.935 1207.01 159.891 1207.18 159.965 1207.3L160.688 1208.56L159.971 1209.8L158.509 1207.27C158.435 1207.14 158.271 1207.09 158.143 1207.17C158.015 1207.24 157.971 1207.41 158.045 1207.53L159.663 1210.34L158.323 1212.66H156.706L155.367 1210.34L156.984 1207.53C157.058 1207.41 157.014 1207.24 156.886 1207.17C156.757 1207.09 156.595 1207.14 156.52 1207.27L155.058 1209.8L154.34 1208.56L155.064 1207.3C155.138 1207.18 155.094 1207.01 154.966 1206.94C154.838 1206.86 154.674 1206.91 154.6 1207.04L154.031 1208.02L153.09 1206.39C153.015 1206.26 152.851 1206.21 152.724 1206.29C152.596 1206.36 152.552 1206.53 152.626 1206.65L153.57 1208.29H152.433C152.285 1208.29 152.165 1208.41 152.165 1208.56C152.165 1208.71 152.285 1208.83 152.433 1208.83H153.879L154.596 1210.07H151.672C151.524 1210.07 151.404 1210.19 151.404 1210.34C151.404 1210.48 151.524 1210.6 151.672 1210.6H154.906L156.245 1212.92L155.436 1214.32H152.758L151.139 1211.52C151.065 1211.39 150.901 1211.35 150.773 1211.42C150.645 1211.5 150.601 1211.66 150.675 1211.79L152.139 1214.32H150.705L149.981 1213.07C149.907 1212.94 149.743 1212.9 149.616 1212.97C149.488 1213.05 149.444 1213.21 149.518 1213.34L150.086 1214.32H148.2C148.052 1214.32 147.932 1214.44 147.932 1214.59C147.932 1214.74 148.052 1214.86 148.2 1214.86H150.087L149.518 1215.84C149.444 1215.97 149.488 1216.14 149.616 1216.21C149.658 1216.24 149.704 1216.25 149.75 1216.25C149.843 1216.25 149.933 1216.2 149.983 1216.11L150.706 1214.86H152.141L150.678 1217.39C150.604 1217.52 150.648 1217.68 150.776 1217.76C150.818 1217.78 150.864 1217.79 150.91 1217.79C151.002 1217.79 151.092 1217.75 151.142 1217.66L152.761 1214.86H155.439L156.247 1216.26L154.908 1218.58H151.674C151.526 1218.58 151.406 1218.7 151.406 1218.85C151.406 1218.99 151.526 1219.11 151.674 1219.11H154.598L153.881 1220.36H152.434C152.286 1220.36 152.166 1220.48 152.166 1220.62C152.166 1220.77 152.286 1220.89 152.434 1220.89H153.572L152.628 1222.53C152.554 1222.65 152.598 1222.82 152.726 1222.89C152.768 1222.92 152.814 1222.93 152.86 1222.93C152.952 1222.93 153.042 1222.88 153.092 1222.79L154.036 1221.16L154.605 1222.15C154.655 1222.23 154.745 1222.28 154.838 1222.28C154.883 1222.28 154.929 1222.27 154.971 1222.24C155.099 1222.17 155.143 1222.01 155.069 1221.88L154.345 1220.62L155.063 1219.38L156.525 1221.91C156.575 1222 156.665 1222.05 156.757 1222.05C156.803 1222.05 156.849 1222.04 156.891 1222.01C157.019 1221.94 157.063 1221.78 156.989 1221.65L155.372 1218.85L156.711 1216.53H158.329L159.668 1218.85L158.05 1221.65C157.976 1221.78 158.02 1221.94 158.148 1222.01C158.189 1222.04 158.235 1222.05 158.282 1222.05C158.375 1222.05 158.465 1222 158.514 1221.92L159.976 1219.38L160.694 1220.62L159.971 1221.88C159.897 1222 159.941 1222.17 160.07 1222.24C160.113 1222.27 160.159 1222.28 160.204 1222.28C160.297 1222.28 160.387 1222.23 160.437 1222.14L161.006 1221.16L161.95 1222.79C162 1222.88 162.09 1222.93 162.183 1222.93C162.228 1222.93 162.274 1222.92 162.317 1222.89C162.444 1222.82 162.488 1222.66 162.415 1222.53L161.471 1220.89H162.608C162.756 1220.89 162.876 1220.77 162.876 1220.62C162.876 1220.48 162.756 1220.36 162.608 1220.36H161.161L160.444 1219.11L163.37 1219.11C163.517 1219.11 163.637 1218.99 163.637 1218.85C163.637 1218.7 163.517 1218.58 163.37 1218.58L160.134 1218.58L158.795 1216.26L159.604 1214.86H162.282L163.9 1217.66C163.949 1217.75 164.039 1217.79 164.132 1217.79C164.178 1217.79 164.224 1217.78 164.266 1217.76C164.394 1217.68 164.438 1217.52 164.364 1217.39L162.897 1214.86H164.334L165.058 1216.11C165.108 1216.2 165.198 1216.25 165.291 1216.25C165.337 1216.25 165.383 1216.24 165.424 1216.21C165.553 1216.14 165.597 1215.97 165.524 1215.84L164.955 1214.86H166.841C166.988 1214.86 167.109 1214.74 167.109 1214.59C167.105 1214.44 166.984 1214.32 166.837 1214.32ZM158.981 1214.86L158.481 1215.72L158.327 1215.99H158.018H157.018H156.709L156.554 1215.72L156.056 1214.86L155.901 1214.59L156.056 1214.32L156.556 1213.46L156.71 1213.19H157.019H158.018H158.328L158.482 1213.46L158.981 1214.32L159.135 1214.59L158.981 1214.86Z" fill="#B0CDD7"/>
<path d="M368.905 150.071H367.018L367.587 149.086C367.661 148.958 367.618 148.794 367.489 148.719C367.359 148.645 367.196 148.689 367.122 148.818L366.399 150.071H364.964L366.425 147.538C366.5 147.41 366.457 147.246 366.327 147.172C366.199 147.098 366.035 147.141 365.961 147.27L364.343 150.071H361.665L360.857 148.671L362.196 146.351H365.431C365.578 146.351 365.699 146.231 365.699 146.083C365.699 145.936 365.578 145.815 365.431 145.815H362.505L363.223 144.573L364.668 144.574C364.816 144.574 364.936 144.454 364.936 144.306C364.936 144.158 364.816 144.038 364.668 144.038L363.531 144.037L364.475 142.402C364.549 142.274 364.506 142.111 364.377 142.037C364.249 141.962 364.085 142.006 364.011 142.135L363.066 143.77L362.497 142.784C362.423 142.657 362.259 142.612 362.131 142.686C362.003 142.76 361.959 142.924 362.033 143.052L362.756 144.305L362.039 145.548L360.577 143.014C360.503 142.886 360.339 142.842 360.211 142.916C360.083 142.99 360.039 143.154 360.113 143.282L361.731 146.083L360.391 148.403H358.774L357.435 146.083L359.052 143.282C359.126 143.154 359.082 142.99 358.954 142.916C358.826 142.842 358.663 142.886 358.588 143.014L357.126 145.548L356.409 144.305L357.132 143.052C357.206 142.924 357.162 142.76 357.034 142.686C356.906 142.611 356.742 142.656 356.668 142.784L356.099 143.77L355.158 142.134C355.083 142.006 354.919 141.962 354.792 142.036C354.664 142.11 354.62 142.273 354.694 142.402L355.638 144.037H354.501C354.353 144.037 354.233 144.157 354.233 144.305C354.233 144.453 354.353 144.573 354.501 144.573H355.947L356.665 145.815H353.74C353.592 145.815 353.472 145.935 353.472 146.083C353.472 146.231 353.592 146.351 353.74 146.351H356.974L358.313 148.671L357.504 150.071H354.826L353.207 147.27C353.133 147.142 352.969 147.098 352.841 147.172C352.713 147.246 352.669 147.41 352.743 147.538L354.207 150.071H352.773L352.05 148.819C351.975 148.69 351.811 148.647 351.684 148.72C351.556 148.794 351.512 148.958 351.586 149.086L352.155 150.071H350.268C350.12 150.071 350 150.191 350 150.339C350 150.486 350.12 150.607 350.268 150.607H352.155L351.586 151.592C351.512 151.72 351.556 151.884 351.684 151.959C351.727 151.983 351.773 151.994 351.818 151.994C351.911 151.994 352.001 151.946 352.051 151.86L352.774 150.607H354.209L352.746 153.14C352.672 153.267 352.716 153.432 352.844 153.506C352.886 153.53 352.932 153.542 352.978 153.542C353.071 153.542 353.161 153.494 353.21 153.408L354.829 150.607H357.507L358.315 152.006L356.976 154.326H353.742C353.594 154.326 353.474 154.447 353.474 154.594C353.474 154.741 353.594 154.862 353.742 154.862H356.666L355.949 156.104H354.502C354.354 156.104 354.234 156.224 354.234 156.372C354.234 156.519 354.354 156.64 354.502 156.64H355.64L354.696 158.274C354.622 158.402 354.666 158.566 354.794 158.64C354.836 158.665 354.882 158.676 354.928 158.676C355.021 158.676 355.111 158.628 355.16 158.542L356.104 156.907L356.673 157.893C356.723 157.979 356.813 158.027 356.906 158.027C356.951 158.027 356.997 158.015 357.04 157.991C357.168 157.917 357.212 157.753 357.138 157.625L356.413 156.371L357.131 155.129L358.593 157.662C358.643 157.749 358.733 157.796 358.826 157.796C358.871 157.796 358.917 157.785 358.959 157.761C359.088 157.686 359.131 157.524 359.058 157.394L357.44 154.593L358.779 152.275H360.397L361.736 154.594L360.118 157.395C360.044 157.523 360.088 157.687 360.216 157.761C360.257 157.786 360.304 157.797 360.35 157.797C360.443 157.797 360.533 157.749 360.582 157.663L362.045 155.13L362.762 156.372L362.039 157.624C361.965 157.752 362.009 157.916 362.138 157.991C362.181 158.015 362.227 158.026 362.272 158.026C362.365 158.026 362.455 157.977 362.505 157.892L363.074 156.908L364.018 158.542C364.068 158.629 364.158 158.676 364.251 158.676C364.296 158.676 364.342 158.665 364.385 158.641C364.512 158.567 364.556 158.404 364.484 158.275L363.539 156.639H364.676C364.824 156.639 364.944 156.519 364.944 156.371C364.944 156.223 364.824 156.103 364.676 156.103H363.229L362.512 154.861L365.438 154.861C365.585 154.861 365.706 154.741 365.706 154.593C365.706 154.446 365.585 154.325 365.438 154.325L362.203 154.325L360.863 152.006L361.672 150.606H364.35L365.968 153.408C366.017 153.494 366.107 153.542 366.2 153.542C366.246 153.542 366.292 153.53 366.334 153.506C366.462 153.432 366.506 153.269 366.432 153.14L364.965 150.607H366.402L367.126 151.86C367.177 151.946 367.267 151.994 367.359 151.994C367.405 151.994 367.451 151.983 367.493 151.959C367.621 151.884 367.665 151.721 367.592 151.592L367.023 150.607H368.909C369.056 150.607 369.177 150.486 369.177 150.339C369.174 150.191 369.053 150.071 368.905 150.071ZM361.049 150.607L360.549 151.471L360.395 151.739H360.086H359.086H358.777L358.623 151.471L358.124 150.607L357.97 150.339L358.124 150.071L358.624 149.206L358.778 148.939H359.088H360.086H360.396L360.551 149.206L361.049 150.071L361.204 150.339L361.049 150.607Z" fill="#B0CDD7"/>
<path d="M192.696 287.713H191.828L192.09 287.259C192.124 287.201 192.104 287.125 192.045 287.091C191.985 287.057 191.91 287.077 191.876 287.136L191.543 287.713H190.883L191.556 286.547C191.59 286.489 191.57 286.413 191.51 286.379C191.451 286.345 191.376 286.365 191.342 286.424L190.598 287.713H189.366L188.994 287.068L189.61 286.001H191.098C191.166 286.001 191.221 285.946 191.221 285.878C191.221 285.81 191.166 285.755 191.098 285.755H189.752L190.082 285.184L190.747 285.184C190.815 285.184 190.871 285.129 190.871 285.061C190.871 284.993 190.815 284.937 190.747 284.937L190.224 284.937L190.658 284.185C190.693 284.126 190.672 284.051 190.613 284.017C190.554 283.982 190.479 284.003 190.445 284.062L190.01 284.814L189.749 284.361C189.715 284.302 189.639 284.282 189.58 284.316C189.521 284.35 189.501 284.425 189.535 284.484L189.868 285.06L189.538 285.632L188.865 284.467C188.831 284.407 188.756 284.387 188.697 284.421C188.638 284.455 188.618 284.531 188.652 284.59L189.396 285.878L188.78 286.945H188.036L187.42 285.878L188.164 284.59C188.198 284.531 188.178 284.455 188.119 284.421C188.06 284.387 187.985 284.407 187.951 284.467L187.278 285.632L186.948 285.06L187.281 284.484C187.315 284.425 187.295 284.349 187.236 284.315C187.177 284.281 187.101 284.302 187.067 284.361L186.806 284.814L186.372 284.062C186.338 284.003 186.263 283.983 186.204 284.017C186.145 284.051 186.125 284.126 186.159 284.185L186.593 284.937H186.07C186.002 284.937 185.947 284.992 185.947 285.06C185.947 285.128 186.002 285.183 186.07 285.183H186.736L187.066 285.755H185.72C185.652 285.755 185.597 285.81 185.597 285.878C185.597 285.946 185.652 286.001 185.72 286.001H187.208L187.824 287.068L187.452 287.713H186.22L185.475 286.424C185.441 286.365 185.366 286.345 185.307 286.379C185.248 286.413 185.228 286.488 185.262 286.547L185.935 287.713H185.275L184.943 287.136C184.909 287.077 184.833 287.057 184.774 287.091C184.716 287.125 184.695 287.201 184.729 287.26L184.991 287.713H184.123C184.055 287.713 184 287.768 184 287.836C184 287.904 184.055 287.959 184.123 287.959H184.991L184.73 288.412C184.696 288.471 184.716 288.547 184.775 288.581C184.794 288.592 184.815 288.597 184.836 288.597C184.879 288.597 184.92 288.575 184.943 288.536L185.276 287.959H185.936L185.263 289.124C185.229 289.183 185.249 289.259 185.308 289.293C185.328 289.304 185.349 289.309 185.37 289.309C185.412 289.309 185.454 289.287 185.477 289.247L186.221 287.959H187.453L187.825 288.603L187.209 289.67H185.721C185.653 289.67 185.598 289.725 185.598 289.793C185.598 289.861 185.653 289.916 185.721 289.916H187.066L186.736 290.488H186.071C186.003 290.488 185.948 290.543 185.948 290.611C185.948 290.679 186.003 290.734 186.071 290.734H186.594L186.16 291.486C186.126 291.545 186.146 291.62 186.205 291.654C186.225 291.666 186.246 291.671 186.267 291.671C186.309 291.671 186.351 291.649 186.374 291.609L186.808 290.857L187.07 291.31C187.092 291.35 187.134 291.372 187.177 291.372C187.197 291.372 187.219 291.367 187.238 291.356C187.297 291.322 187.317 291.246 187.283 291.187L186.95 290.611L187.28 290.039L187.953 291.204C187.976 291.244 188.017 291.266 188.06 291.266C188.081 291.266 188.102 291.261 188.121 291.25C188.18 291.216 188.2 291.141 188.166 291.081L187.422 289.793L188.038 288.726H188.782L189.398 289.793L188.654 291.082C188.62 291.14 188.64 291.216 188.699 291.25C188.718 291.261 188.74 291.266 188.761 291.266C188.804 291.266 188.845 291.244 188.868 291.205L189.54 290.039L189.871 290.611L189.538 291.187C189.504 291.246 189.524 291.321 189.583 291.356C189.603 291.367 189.624 291.372 189.645 291.372C189.688 291.372 189.729 291.349 189.752 291.31L190.014 290.857L190.448 291.609C190.471 291.649 190.512 291.671 190.555 291.671C190.576 291.671 190.597 291.666 190.617 291.655C190.675 291.62 190.696 291.546 190.662 291.486L190.228 290.734H190.751C190.819 290.734 190.874 290.678 190.874 290.61C190.874 290.543 190.819 290.487 190.751 290.487H190.085L189.755 289.916L191.101 289.916C191.169 289.916 191.224 289.861 191.224 289.793C191.224 289.725 191.169 289.67 191.101 289.67L189.613 289.669L188.997 288.603L189.369 287.959H190.601L191.345 289.247C191.368 289.287 191.409 289.309 191.452 289.309C191.473 289.309 191.494 289.304 191.514 289.293C191.572 289.259 191.592 289.183 191.559 289.124L190.884 287.959H191.545L191.878 288.536C191.901 288.575 191.942 288.597 191.985 288.597C192.006 288.597 192.027 288.592 192.046 288.581C192.106 288.547 192.126 288.472 192.092 288.412L191.83 287.959H192.698C192.766 287.959 192.821 287.904 192.821 287.836C192.82 287.768 192.764 287.713 192.696 287.713ZM189.082 287.959L188.853 288.357L188.781 288.48H188.639H188.18H188.037L187.966 288.357L187.737 287.959L187.666 287.836L187.737 287.713L187.967 287.315L188.038 287.192H188.18H188.639H188.782L188.853 287.315L189.082 287.713L189.153 287.836L189.082 287.959Z" fill="#B0CDD7"/>
<path d="M259.451 986.471H258.318L258.66 985.88C258.704 985.804 258.678 985.705 258.601 985.661C258.523 985.616 258.425 985.643 258.381 985.72L257.947 986.471H257.086L257.963 984.952C258.007 984.875 257.981 984.776 257.904 984.732C257.827 984.688 257.729 984.714 257.684 984.791L256.713 986.471H255.106L254.622 985.631L255.425 984.24H257.366C257.454 984.24 257.527 984.168 257.527 984.079C257.527 983.99 257.454 983.918 257.366 983.918H255.61L256.041 983.173L256.908 983.173C256.997 983.173 257.069 983.101 257.069 983.012C257.069 982.924 256.997 982.852 256.908 982.852L256.226 982.851L256.792 981.87C256.837 981.794 256.811 981.695 256.734 981.651C256.657 981.606 256.558 981.632 256.514 981.71L255.947 982.691L255.606 982.1C255.561 982.023 255.463 981.996 255.386 982.041C255.309 982.085 255.283 982.183 255.327 982.26L255.761 983.012L255.331 983.757L254.454 982.237C254.409 982.16 254.311 982.134 254.234 982.178C254.157 982.223 254.131 982.321 254.175 982.398L255.146 984.079L254.342 985.471H253.372L252.568 984.079L253.539 982.398C253.583 982.321 253.557 982.223 253.48 982.178C253.403 982.134 253.305 982.16 253.26 982.237L252.383 983.757L251.953 983.012L252.387 982.26C252.431 982.183 252.405 982.085 252.328 982.04C252.251 981.996 252.153 982.022 252.108 982.099L251.767 982.691L251.202 981.709C251.157 981.632 251.059 981.606 250.982 981.651C250.906 981.695 250.879 981.793 250.924 981.87L251.49 982.851H250.808C250.719 982.851 250.647 982.923 250.647 983.012C250.647 983.1 250.719 983.172 250.808 983.172H251.676L252.106 983.918H250.351C250.263 983.918 250.191 983.99 250.191 984.079C250.191 984.167 250.263 984.239 250.351 984.239H252.292L253.095 985.631L252.61 986.471H251.003L250.032 984.791C249.987 984.714 249.889 984.688 249.812 984.732C249.735 984.776 249.709 984.875 249.753 984.952L250.632 986.471H249.771L249.337 985.72C249.292 985.643 249.194 985.617 249.118 985.661C249.041 985.706 249.014 985.804 249.059 985.881L249.4 986.471H248.268C248.179 986.471 248.107 986.543 248.107 986.632C248.107 986.721 248.179 986.793 248.268 986.793H249.4L249.059 987.384C249.015 987.461 249.041 987.559 249.118 987.604C249.143 987.619 249.171 987.625 249.198 987.625C249.254 987.625 249.308 987.596 249.338 987.545L249.772 986.793H250.633L249.755 988.313C249.711 988.389 249.737 988.488 249.814 988.533C249.839 988.547 249.867 988.554 249.894 988.554C249.95 988.554 250.004 988.525 250.034 988.474L251.005 986.793H252.611L253.096 987.632L252.293 989.024H250.353C250.264 989.024 250.192 989.097 250.192 989.185C250.192 989.274 250.264 989.346 250.353 989.346H252.107L251.677 990.091H250.809C250.72 990.091 250.648 990.163 250.648 990.252C250.648 990.34 250.72 990.413 250.809 990.413H251.491L250.925 991.393C250.881 991.47 250.907 991.569 250.984 991.613C251.009 991.628 251.037 991.634 251.064 991.634C251.12 991.634 251.174 991.606 251.204 991.554L251.77 990.573L252.111 991.164C252.141 991.216 252.195 991.245 252.251 991.245C252.278 991.245 252.306 991.238 252.331 991.224C252.408 991.179 252.434 991.081 252.39 991.004L251.955 990.252L252.386 989.506L253.263 991.026C253.293 991.078 253.347 991.107 253.403 991.107C253.43 991.107 253.458 991.1 253.483 991.085C253.56 991.041 253.586 990.943 253.542 990.866L252.571 989.185L253.375 987.794H254.345L255.149 989.185L254.178 990.866C254.134 990.943 254.16 991.041 254.237 991.086C254.262 991.1 254.29 991.107 254.317 991.107C254.373 991.107 254.427 991.078 254.457 991.027L255.334 989.507L255.765 990.252L255.331 991.003C255.287 991.08 255.313 991.179 255.39 991.223C255.416 991.238 255.443 991.245 255.47 991.245C255.526 991.245 255.58 991.215 255.61 991.164L255.952 990.573L256.518 991.554C256.548 991.606 256.602 991.635 256.658 991.635C256.685 991.635 256.713 991.628 256.738 991.614C256.815 991.569 256.841 991.471 256.798 991.394L256.231 990.412H256.913C257.002 990.412 257.074 990.34 257.074 990.251C257.074 990.163 257.002 990.091 256.913 990.091H256.045L255.615 989.345L257.37 989.346C257.458 989.346 257.531 989.273 257.531 989.185C257.531 989.096 257.458 989.024 257.37 989.024L255.429 989.024L254.625 987.632L255.111 986.793H256.717L257.688 988.474C257.718 988.525 257.772 988.554 257.828 988.554C257.855 988.554 257.883 988.547 257.908 988.533C257.985 988.488 258.011 988.39 257.967 988.313L257.087 986.793H257.949L258.383 987.545C258.413 987.597 258.467 987.625 258.523 987.625C258.55 987.625 258.578 987.619 258.603 987.604C258.68 987.559 258.706 987.462 258.662 987.384L258.321 986.793H259.453C259.541 986.793 259.614 986.721 259.614 986.632C259.612 986.543 259.539 986.471 259.451 986.471ZM254.737 986.793L254.437 987.312L254.344 987.472H254.159H253.559H253.374L253.281 987.312L252.982 986.793L252.889 986.632L252.982 986.471L253.282 985.953L253.374 985.792H253.56H254.159H254.345L254.438 985.953L254.737 986.471L254.83 986.632L254.737 986.793Z" fill="#B0CDD7"/>
<path d="M48.3431 1194.84H47.2108L47.5521 1194.25C47.5968 1194.17 47.5708 1194.08 47.4933 1194.03C47.4155 1193.99 47.3175 1194.01 47.2734 1194.09L46.8395 1194.84H45.9781L46.8553 1193.32C46.9 1193.25 46.8739 1193.15 46.7965 1193.1C46.7193 1193.06 46.6213 1193.08 46.5766 1193.16L45.6059 1194.84H43.9989L43.5142 1194L44.3177 1192.61H46.2587C46.3468 1192.61 46.4194 1192.54 46.4194 1192.45C46.4194 1192.36 46.3468 1192.29 46.2587 1192.29H44.5028L44.9335 1191.54L45.801 1191.54C45.8897 1191.54 45.9617 1191.47 45.9617 1191.38C45.9617 1191.3 45.8897 1191.22 45.801 1191.22L45.1187 1191.22L45.685 1190.24C45.7297 1190.16 45.7033 1190.07 45.6262 1190.02C45.5494 1189.98 45.451 1190 45.4063 1190.08L44.8397 1191.06L44.4983 1190.47C44.454 1190.39 44.3556 1190.37 44.2788 1190.41C44.202 1190.46 44.1756 1190.55 44.2197 1190.63L44.6536 1191.38L44.2235 1192.13L43.3464 1190.61C43.302 1190.53 43.2037 1190.51 43.1268 1190.55C43.05 1190.59 43.0237 1190.69 43.0677 1190.77L44.0384 1192.45L43.2348 1193.84H42.2645L41.4609 1192.45L42.4313 1190.77C42.4757 1190.69 42.4493 1190.59 42.3725 1190.55C42.2953 1190.51 42.1976 1190.53 42.153 1190.61L41.2755 1192.13L40.8451 1191.38L41.2793 1190.63C41.3237 1190.55 41.2973 1190.46 41.2205 1190.41C41.1437 1190.37 41.0454 1190.39 41.001 1190.47L40.6597 1191.06L40.0946 1190.08C40.0499 1190 39.9516 1189.98 39.8751 1190.02C39.7983 1190.07 39.7719 1190.16 39.8163 1190.24L40.3826 1191.22H39.7005C39.6118 1191.22 39.5398 1191.29 39.5398 1191.38C39.5398 1191.47 39.6118 1191.54 39.7005 1191.54H40.5684L40.9987 1192.29H39.2438C39.1551 1192.29 39.0831 1192.36 39.0831 1192.45C39.0831 1192.54 39.1551 1192.61 39.2438 1192.61H41.1845L41.9881 1194L41.5024 1194.84H39.8956L38.9243 1193.16C38.88 1193.09 38.7813 1193.06 38.7048 1193.1C38.628 1193.15 38.6016 1193.25 38.646 1193.32L39.5244 1194.84H38.6637L38.2297 1194.09C38.1851 1194.01 38.0867 1193.99 38.0102 1194.03C37.9334 1194.08 37.907 1194.17 37.9514 1194.25L38.2927 1194.84H37.1607C37.072 1194.84 37 1194.91 37 1195C37 1195.09 37.072 1195.16 37.1607 1195.16H38.2931L37.9517 1195.76C37.9074 1195.83 37.9337 1195.93 38.0105 1195.98C38.0359 1195.99 38.0636 1196 38.0909 1196C38.1465 1196 38.2005 1195.97 38.2304 1195.92L38.6643 1195.16H39.5257L38.6476 1196.68C38.6032 1196.76 38.6296 1196.86 38.7064 1196.9C38.7318 1196.92 38.7594 1196.93 38.7868 1196.93C38.8424 1196.93 38.8964 1196.9 38.9263 1196.84L39.8973 1195.16H41.504L41.989 1196L41.1855 1197.4H39.2451C39.1564 1197.4 39.0844 1197.47 39.0844 1197.56C39.0844 1197.64 39.1564 1197.72 39.2451 1197.72H40.9997L40.5693 1198.46H39.7012C39.6125 1198.46 39.5405 1198.53 39.5405 1198.62C39.5405 1198.71 39.6125 1198.78 39.7012 1198.78H40.3839L39.8175 1199.76C39.7732 1199.84 39.7995 1199.94 39.8764 1199.98C39.9018 1200 39.9294 1200.01 39.9567 1200.01C40.0123 1200.01 40.0663 1199.98 40.0962 1199.93L40.6625 1198.94L41.0039 1199.54C41.0338 1199.59 41.0878 1199.62 41.1434 1199.62C41.1707 1199.62 41.1983 1199.61 41.2237 1199.59C41.3006 1199.55 41.3269 1199.45 41.2826 1199.37L40.848 1198.62L41.2784 1197.88L42.1558 1199.4C42.1857 1199.45 42.2397 1199.48 42.2953 1199.48C42.3227 1199.48 42.3503 1199.47 42.3757 1199.46C42.4525 1199.41 42.4789 1199.31 42.4345 1199.24L41.4638 1197.56L42.2674 1196.16H43.2381L44.0416 1197.56L43.0706 1199.24C43.0262 1199.31 43.0526 1199.41 43.1294 1199.46C43.1545 1199.47 43.1821 1199.48 43.2098 1199.48C43.2657 1199.48 43.3197 1199.45 43.3493 1199.4L44.2267 1197.88L44.6574 1198.62L44.2235 1199.37C44.1792 1199.45 44.2055 1199.55 44.2827 1199.59C44.3084 1199.61 44.336 1199.62 44.363 1199.62C44.4189 1199.62 44.4729 1199.59 44.5028 1199.54L44.8442 1198.94L45.4108 1199.93C45.4407 1199.98 45.4947 1200.01 45.5507 1200.01C45.5777 1200.01 45.6053 1200 45.631 1199.98C45.7072 1199.94 45.7335 1199.84 45.6902 1199.76L45.1232 1198.78H45.8055C45.8942 1198.78 45.9662 1198.71 45.9662 1198.62C45.9662 1198.53 45.8942 1198.46 45.8055 1198.46H44.9374L44.5073 1197.72L46.2626 1197.72C46.351 1197.72 46.4233 1197.64 46.4233 1197.56C46.4233 1197.47 46.351 1197.4 46.2626 1197.4L44.3216 1197.39L43.518 1196L44.0034 1195.16H45.6098L46.5808 1196.84C46.6104 1196.9 46.6644 1196.93 46.7203 1196.93C46.7476 1196.93 46.7753 1196.92 46.8006 1196.9C46.8771 1196.86 46.9035 1196.76 46.8595 1196.68L45.9791 1195.16H46.8411L47.2757 1195.92C47.3059 1195.97 47.3599 1196 47.4152 1196C47.4428 1196 47.4705 1195.99 47.4955 1195.98C47.5727 1195.93 47.599 1195.83 47.555 1195.76L47.2137 1195.16H48.3457C48.4338 1195.16 48.5064 1195.09 48.5064 1195C48.5042 1194.91 48.4315 1194.84 48.3431 1194.84ZM43.6292 1195.16L43.3297 1195.68L43.2368 1195.84H43.0516H42.4519H42.2664L42.1735 1195.68L41.8746 1195.16L41.7817 1195L41.8746 1194.84L42.1742 1194.32L42.2671 1194.16H42.4525H43.0516H43.2374L43.3303 1194.32L43.6292 1194.84L43.7221 1195L43.6292 1195.16Z" fill="#B0CDD7"/>
<path d="M335.343 298.843H334.211L334.552 298.251C334.597 298.175 334.571 298.076 334.493 298.032C334.416 297.987 334.317 298.014 334.273 298.091L333.84 298.843H332.978L333.855 297.323C333.9 297.246 333.874 297.147 333.796 297.103C333.719 297.059 333.621 297.085 333.577 297.162L332.606 298.843H330.999L330.514 298.002L331.318 296.611H333.259C333.347 296.611 333.419 296.539 333.419 296.45C333.419 296.362 333.347 296.289 333.259 296.289H331.503L331.934 295.544L332.801 295.544C332.89 295.544 332.962 295.472 332.962 295.383C332.962 295.295 332.89 295.223 332.801 295.223L332.119 295.222L332.685 294.241C332.73 294.165 332.703 294.066 332.626 294.022C332.549 293.977 332.451 294.003 332.406 294.081L331.84 295.062L331.498 294.471C331.454 294.394 331.356 294.367 331.279 294.412C331.202 294.456 331.176 294.555 331.22 294.631L331.654 295.383L331.224 296.129L330.346 294.609C330.302 294.531 330.204 294.505 330.127 294.549C330.05 294.594 330.024 294.692 330.068 294.769L331.038 296.45L330.235 297.842H329.264L328.461 296.45L329.431 294.769C329.476 294.692 329.449 294.594 329.372 294.549C329.295 294.505 329.198 294.531 329.153 294.609L328.275 296.129L327.845 295.383L328.279 294.631C328.324 294.555 328.297 294.456 328.221 294.412C328.144 294.367 328.045 294.394 328.001 294.47L327.66 295.062L327.095 294.08C327.05 294.003 326.952 293.977 326.875 294.022C326.798 294.066 326.772 294.164 326.816 294.241L327.383 295.222H326.701C326.612 295.222 326.54 295.294 326.54 295.383C326.54 295.472 326.612 295.544 326.701 295.544H327.568L327.999 296.289H326.244C326.155 296.289 326.083 296.361 326.083 296.45C326.083 296.538 326.155 296.61 326.244 296.61H328.185L328.988 298.002L328.502 298.843H326.896L325.924 297.162C325.88 297.085 325.781 297.059 325.705 297.103C325.628 297.147 325.602 297.246 325.646 297.323L326.524 298.843H325.664L325.23 298.091C325.185 298.014 325.087 297.988 325.01 298.032C324.933 298.077 324.907 298.175 324.951 298.252L325.293 298.843H324.161C324.072 298.843 324 298.915 324 299.003C324 299.092 324.072 299.164 324.161 299.164H325.293L324.952 299.755C324.907 299.832 324.934 299.931 325.011 299.975C325.036 299.99 325.064 299.996 325.091 299.996C325.146 299.996 325.2 299.968 325.23 299.916L325.664 299.164H326.526L325.648 300.684C325.603 300.76 325.63 300.859 325.706 300.904C325.732 300.918 325.759 300.925 325.787 300.925C325.842 300.925 325.896 300.896 325.926 300.845L326.897 299.164H328.504L328.989 300.004L328.185 301.396H326.245C326.156 301.396 326.084 301.468 326.084 301.556C326.084 301.645 326.156 301.717 326.245 301.717H328L327.569 302.462H326.701C326.612 302.462 326.54 302.534 326.54 302.623C326.54 302.711 326.612 302.784 326.701 302.784H327.384L326.818 303.764C326.773 303.841 326.8 303.94 326.876 303.984C326.902 303.999 326.929 304.005 326.957 304.005C327.012 304.005 327.066 303.977 327.096 303.925L327.663 302.944L328.004 303.536C328.034 303.587 328.088 303.616 328.143 303.616C328.171 303.616 328.198 303.609 328.224 303.595C328.301 303.55 328.327 303.452 328.283 303.375L327.848 302.623L328.278 301.877L329.156 303.397C329.186 303.449 329.24 303.478 329.295 303.478C329.323 303.478 329.35 303.471 329.376 303.457C329.453 303.412 329.479 303.314 329.435 303.237L328.464 301.556L329.267 300.165H330.238L331.042 301.556L330.071 303.237C330.026 303.314 330.053 303.412 330.129 303.457C330.154 303.471 330.182 303.478 330.21 303.478C330.266 303.478 330.32 303.449 330.349 303.398L331.227 301.878L331.657 302.623L331.224 303.375C331.179 303.451 331.206 303.55 331.283 303.594C331.308 303.609 331.336 303.616 331.363 303.616C331.419 303.616 331.473 303.586 331.503 303.535L331.844 302.944L332.411 303.925C332.441 303.977 332.495 304.006 332.551 304.006C332.578 304.006 332.605 303.999 332.631 303.985C332.707 303.94 332.734 303.842 332.69 303.765L332.123 302.783H332.806C332.894 302.783 332.966 302.711 332.966 302.622C332.966 302.534 332.894 302.462 332.806 302.462H331.937L331.507 301.716L333.263 301.717C333.351 301.717 333.423 301.644 333.423 301.556C333.423 301.468 333.351 301.395 333.263 301.395L331.322 301.395L330.518 300.004L331.003 299.164H332.61L333.581 300.845C333.61 300.896 333.664 300.925 333.72 300.925C333.748 300.925 333.775 300.918 333.801 300.904C333.877 300.859 333.903 300.761 333.859 300.684L332.979 299.164H333.841L334.276 299.916C334.306 299.968 334.36 299.996 334.415 299.996C334.443 299.996 334.47 299.99 334.496 299.975C334.573 299.931 334.599 299.833 334.555 299.755L334.214 299.164H335.346C335.434 299.164 335.506 299.092 335.506 299.003C335.504 298.915 335.432 298.843 335.343 298.843ZM330.629 299.164L330.33 299.683L330.237 299.843H330.052H329.452H329.266L329.174 299.683L328.875 299.164L328.782 299.003L328.875 298.843L329.174 298.324L329.267 298.163H329.453H330.052H330.237L330.33 298.324L330.629 298.843L330.722 299.003L330.629 299.164Z" fill="#B0CDD7"/>
<path d="M19.5806 159.422L15.7087 160.46L15.6476 160.425V156.937L15.7087 156.901L19.5811 157.937C19.6027 157.943 19.6244 157.946 19.6461 157.946C19.7567 157.946 19.8578 157.873 19.8886 157.76C19.9238 157.626 19.8443 157.49 19.7105 157.453L16.3233 156.546L19.5517 154.681C19.6711 154.612 19.7125 154.46 19.6437 154.339C19.5743 154.219 19.4213 154.178 19.301 154.248L16.073 156.112L16.9812 152.725C17.0163 152.591 16.9374 152.454 16.8036 152.417C16.6689 152.385 16.5327 152.461 16.4961 152.595L15.4604 156.467L15.3988 156.502L12.3773 154.759V154.687L15.2111 151.853C15.3088 151.755 15.3088 151.596 15.2111 151.498C15.1134 151.401 14.9545 151.401 14.8568 151.498L12.3778 153.977V150.251C12.3773 150.113 12.2647 150 12.1265 150C11.9884 150 11.8758 150.113 11.8758 150.251V153.978L9.39672 151.499C9.2995 151.401 9.14019 151.401 9.04249 151.499C8.94479 151.597 8.94479 151.756 9.04249 151.853L11.8758 154.687V154.759L8.85431 156.503L8.79319 156.468L7.75651 152.597C7.72042 152.463 7.58518 152.387 7.44946 152.419C7.31566 152.455 7.23625 152.593 7.27186 152.726L8.17956 156.113L4.95209 154.249C4.83274 154.18 4.67825 154.22 4.60894 154.341C4.53964 154.461 4.58103 154.614 4.70135 154.683L7.92977 156.548L4.54204 157.455C4.40729 157.491 4.32836 157.628 4.36445 157.762C4.39525 157.874 4.4968 157.948 4.60654 157.948C4.62819 157.948 4.64937 157.944 4.67103 157.939L8.54341 156.903L8.60501 156.938V160.425L8.54341 160.461L4.67151 159.424C4.53675 159.393 4.40055 159.468 4.36445 159.601C4.32932 159.735 4.40825 159.872 4.54204 159.909L7.93026 160.816L4.70183 162.681C4.58199 162.752 4.54108 162.903 4.6099 163.024C4.65611 163.105 4.74081 163.15 4.82744 163.15C4.8698 163.15 4.91311 163.139 4.95258 163.116L8.18004 161.252L7.27235 164.638C7.23673 164.773 7.31566 164.91 7.44994 164.946C7.47208 164.952 7.49325 164.955 7.51491 164.955C7.62609 164.955 7.72716 164.882 7.75699 164.77L8.79319 160.898L8.85624 160.862L11.8758 162.606V162.678L9.04249 165.513C8.94479 165.61 8.94479 165.77 9.04249 165.867C9.14019 165.964 9.2995 165.964 9.39672 165.867L11.8753 163.384V167.113C11.8753 167.251 11.9874 167.364 12.1261 167.364C12.2647 167.364 12.3768 167.251 12.3768 167.113V163.384L14.8554 165.864C14.9045 165.914 14.9685 165.938 15.0325 165.938C15.097 165.938 15.1615 165.913 15.2101 165.864C15.3078 165.766 15.3078 165.607 15.2101 165.51L12.3763 162.674V162.601L15.3959 160.858L15.458 160.893L16.4942 164.765C16.525 164.877 16.626 164.951 16.7362 164.951C16.7579 164.951 16.7796 164.948 16.8017 164.942C16.9355 164.906 17.0144 164.769 16.9793 164.634L16.0706 161.248L19.2995 163.112C19.339 163.135 19.3823 163.145 19.4247 163.145C19.5118 163.145 19.596 163.1 19.6422 163.02C19.712 162.9 19.6706 162.746 19.5503 162.678L16.3214 160.812L19.7096 159.904C19.8443 159.868 19.9233 159.731 19.8877 159.597C19.8525 159.465 19.7178 159.39 19.5806 159.422ZM15.1461 160.134L12.6271 158.68L15.1461 157.226V160.134ZM14.8968 156.791L12.3773 158.246V155.337L14.8968 156.791ZM11.8758 155.337V158.246L9.35629 156.791L11.8758 155.337ZM9.10602 157.226L11.625 158.68L9.10602 160.134V157.226ZM9.35725 160.568L11.8753 159.114V162.023L9.35725 160.568ZM12.3773 162.022V159.114L14.8958 160.567L12.3773 162.022Z" fill="#B0CDD7"/>
<path d="M12.3249 88.7558H11.2989L10.9016 89.4446H8.48462L10.1569 87.7716C10.235 87.6938 10.235 87.5674 10.1569 87.4896C10.0799 87.4119 9.95307 87.4119 9.87492 87.4896L7.91993 89.445H6.71544L6.1132 88.4014L6.71697 87.3575L9.38607 86.6422C9.49181 86.6138 9.55502 86.5039 9.52744 86.3982C9.49909 86.2916 9.38914 86.2292 9.28302 86.2568L6.99932 86.8686L8.20572 84.778H9.00105L9.51556 83.8888L9.00258 83.0004L7.97663 83L7.46365 83.8888L7.86208 84.5772L6.65453 86.6694L6.04156 84.3838C6.01397 84.2769 5.9044 84.2148 5.7979 84.2424C5.69101 84.2708 5.6278 84.3803 5.65653 84.4868L6.37218 87.1579L5.76993 88.2011H4.56506L3.96282 87.1579L4.67808 84.488C4.70643 84.3815 4.6436 84.2723 4.53671 84.2436C4.43059 84.216 4.32103 84.2784 4.29268 84.3849L3.68047 86.6694L2.47292 84.5776L2.87059 83.8888L2.35722 83L1.33165 83.0004L0.818669 83.8888L1.33165 84.7772L2.12698 84.7776L3.33453 86.869L1.05007 86.2568C0.943562 86.2288 0.834376 86.2916 0.806026 86.3985C0.777677 86.5047 0.840889 86.6142 0.947009 86.6426L3.61688 87.3578L4.2195 88.4014L3.61688 89.445H2.41201L0.457017 87.4896C0.378863 87.4119 0.252438 87.4119 0.174667 87.4896C0.0968969 87.5674 0.0968969 87.6938 0.174667 87.7716L1.84769 89.4446H-0.568176L-0.966223 88.7562L-1.9918 88.7558L-2.50439 89.6446L-1.99142 90.5326H-0.96584L-0.567409 89.8434H1.84731L0.17505 91.5149C0.0972798 91.5923 0.0972798 91.7199 0.17505 91.7973C0.214127 91.8371 0.26508 91.8555 0.316417 91.8555C0.36737 91.8555 0.418706 91.836 0.457783 91.7973L2.41201 89.843H3.61764L4.2195 90.8866L3.61803 91.9283L0.946627 92.6443C0.840123 92.6723 0.777293 92.783 0.80526 92.8884C0.833993 92.9956 0.943945 93.0592 1.04968 93.0297L3.33568 92.4175L2.12659 94.5112L1.33203 94.51L0.818669 95.3996L1.33241 96.2869H2.35761L2.8702 95.3988L2.47216 94.7089L3.67932 92.6183L4.29191 94.9012C4.31605 94.9908 4.3965 95.0495 4.48423 95.0495C4.50109 95.0495 4.51833 95.0479 4.53595 95.0433C4.64245 95.0146 4.70566 94.9046 4.67732 94.7985L3.96129 92.129L4.56392 91.0858H5.76802L6.37064 92.1279L5.65539 94.7974C5.62704 94.9046 5.69025 95.0131 5.79675 95.0426C5.81399 95.0472 5.832 95.0487 5.84924 95.0487C5.93697 95.0487 6.01742 94.9908 6.04079 94.9004L6.65299 92.616L7.86093 94.7096L7.4625 95.3981L7.97548 96.2869L9.00144 96.2865L9.51441 95.3981L9.00144 94.5097H8.20649L6.99664 92.4175L9.28225 93.0301C9.38952 93.06 9.49794 92.996 9.52629 92.8891C9.55502 92.7822 9.49104 92.6734 9.38531 92.6447L6.71467 91.9291L6.11243 90.8859L6.71467 89.843H7.91993L9.87377 91.7977C9.91323 91.8371 9.96418 91.8555 10.0148 91.8555C10.0657 91.8555 10.1174 91.836 10.1557 91.7977C10.2339 91.7199 10.2339 91.5931 10.1557 91.5153L8.48616 89.8442H10.9013L11.2993 90.5334H12.3249L12.8375 89.6454L12.3249 88.7558ZM5.76917 90.6866H5.53854H4.79455H4.56392L4.44898 90.487L4.07737 89.8438L3.96206 89.6442L4.07737 89.4446L4.44937 88.8002L4.56468 88.6006H4.79531H5.53892L5.54122 88.5964L5.76955 88.6006L5.88065 88.8021L5.94003 88.7037L5.8841 88.7998L6.25533 89.4442L6.37103 89.6438L6.25533 89.8434L5.88295 90.4882L5.76917 90.6866ZM5.77338 88.4006H5.88487L5.88563 88.4026L5.77338 88.4006ZM5.99865 88.6029L5.94348 88.5041L5.99941 88.6002L5.99865 88.6029ZM5.65615 88.4006L5.59869 88.4972L5.65424 88.4006H5.65615Z" fill="#B0CDD7"/>
<path d="M47.9401 1102.64L47.4597 1101.81C47.423 1101.75 47.3558 1101.71 47.2839 1101.71L46.3247 1101.71C46.252 1101.71 46.1852 1101.75 46.1485 1101.81L45.7282 1102.54H43.6792L45.3857 1100.84C45.465 1100.76 45.465 1100.63 45.3857 1100.55C45.306 1100.47 45.1775 1100.47 45.0982 1100.55L43.1039 1102.54H41.8767L41.263 1101.48L41.8774 1100.41L44.599 1099.68C44.7072 1099.66 44.7713 1099.54 44.7428 1099.44C44.7143 1099.33 44.6026 1099.26 44.4936 1099.29L42.1649 1099.92L43.1879 1098.14L43.5175 1098.14L43.5777 1098.14C43.5784 1098.14 43.5796 1098.14 43.5804 1098.14L44.03 1098.14C44.1026 1098.14 44.169 1098.11 44.2057 1098.04L44.6869 1097.21C44.7232 1097.15 44.7232 1097.07 44.6869 1097.01L44.2057 1096.18C44.1694 1096.11 44.1022 1096.08 44.03 1096.08L43.0707 1096.08C42.998 1096.08 42.9312 1096.12 42.8945 1096.18L42.4149 1097.01C42.3782 1097.07 42.3782 1097.15 42.4149 1097.21L42.8359 1097.94L41.8114 1099.71L41.1869 1097.38C41.1595 1097.27 41.0471 1097.21 40.9381 1097.24C40.8295 1097.27 40.7651 1097.38 40.7943 1097.49L41.524 1100.21L40.9096 1101.27H39.682L39.0676 1100.21L39.7972 1097.49C39.8261 1097.38 39.7616 1097.27 39.6531 1097.24C39.5453 1097.21 39.4335 1097.28 39.4043 1097.38L38.7801 1099.71L37.756 1097.94L38.177 1097.21C38.2134 1097.15 38.2134 1097.07 38.177 1097.01L37.6974 1096.18C37.6615 1096.12 37.5939 1096.08 37.5216 1096.08H36.562C36.4893 1096.08 36.4221 1096.11 36.3854 1096.18L35.9062 1097.01C35.8702 1097.07 35.8702 1097.15 35.9062 1097.21L36.3862 1098.04C36.4229 1098.1 36.4901 1098.14 36.5627 1098.14H37.0119C37.0123 1098.14 37.0127 1098.14 37.0135 1098.14L37.4048 1098.14L38.429 1099.92L36.0995 1099.29C35.9917 1099.26 35.8796 1099.33 35.8503 1099.44C35.8214 1099.55 35.8859 1099.66 35.9944 1099.69L38.7168 1100.42L39.3304 1101.48L38.716 1102.54H37.488L35.4945 1100.55C35.4152 1100.47 35.2863 1100.47 35.207 1100.55C35.1273 1100.63 35.1273 1100.76 35.207 1100.84L36.9123 1102.54H34.8645L34.4438 1101.81C34.4071 1101.75 34.3403 1101.71 34.2677 1101.71H33.3092C33.2361 1101.71 33.1689 1101.75 33.133 1101.81L32.653 1102.64C32.6167 1102.71 32.6167 1102.78 32.653 1102.85L33.1326 1103.68C33.1689 1103.74 33.2361 1103.78 33.3092 1103.78L33.8177 1103.78C33.8185 1103.78 33.8189 1103.78 33.8193 1103.78L34.2684 1103.78C34.3411 1103.78 34.4083 1103.74 34.4446 1103.68L34.8645 1102.95H36.9119L35.2074 1104.65C35.1277 1104.73 35.1277 1104.86 35.2074 1104.94C35.2472 1104.98 35.2992 1105 35.3515 1105C35.4035 1105 35.4558 1104.98 35.4957 1104.94L37.4876 1102.95H38.7164L39.3308 1104.01L38.7172 1105.07L35.994 1105.8C35.8855 1105.83 35.821 1105.95 35.8499 1106.05C35.8792 1106.16 35.9905 1106.23 36.0991 1106.2L38.4297 1105.57L37.4048 1107.35L37.0115 1107.35L36.5623 1107.35C36.4901 1107.35 36.4233 1107.39 36.3866 1107.45L35.9073 1108.28C35.8706 1108.34 35.8706 1108.42 35.9069 1108.48L36.387 1109.31C36.4237 1109.38 36.4909 1109.41 36.5635 1109.41L37.0717 1109.42C37.0725 1109.42 37.0728 1109.42 37.0732 1109.42L37.5224 1109.41C37.5954 1109.41 37.6622 1109.38 37.6986 1109.31L38.1782 1108.48C38.2145 1108.42 38.2145 1108.34 38.1782 1108.28L37.7572 1107.55L38.7813 1105.78L39.4058 1108.11C39.4304 1108.2 39.5124 1108.26 39.6019 1108.26C39.6195 1108.26 39.6374 1108.25 39.6546 1108.25C39.7636 1108.22 39.828 1108.11 39.7987 1108L39.0687 1105.28L39.6831 1104.22H40.9115L41.5251 1105.28L40.7955 1108C40.7666 1108.11 40.8311 1108.22 40.9396 1108.25C40.9572 1108.25 40.9748 1108.26 40.9924 1108.26C41.0822 1108.26 41.1646 1108.2 41.1884 1108.11L41.8126 1105.78L42.8379 1107.55L42.4164 1108.28C42.3801 1108.34 42.3801 1108.42 42.4164 1108.48L42.8965 1109.31C42.9328 1109.38 42.9996 1109.41 43.0722 1109.41L43.521 1109.42C43.5218 1109.42 43.5226 1109.42 43.523 1109.42L44.0319 1109.41C44.1046 1109.41 44.1714 1109.38 44.2077 1109.31L44.6877 1108.48C44.724 1108.42 44.724 1108.34 44.6877 1108.28L44.2077 1107.45C44.1714 1107.39 44.1042 1107.35 44.0319 1107.35H43.5218H43.1898L42.1653 1105.57L44.4948 1106.2C44.6049 1106.23 44.7147 1106.16 44.7439 1106.05C44.7732 1105.95 44.7084 1105.83 44.6002 1105.8L41.8778 1105.07L41.2642 1104.01L41.8778 1102.95H43.1066L45.099 1104.94C45.1388 1104.98 45.1904 1105 45.2427 1105C45.2951 1105 45.3478 1104.98 45.3865 1104.94C45.4658 1104.86 45.4658 1104.73 45.3865 1104.65L43.6823 1102.95H45.7302L46.1512 1103.68C46.1876 1103.74 46.2547 1103.78 46.327 1103.78H47.2863C47.3593 1103.78 47.4261 1103.74 47.462 1103.68L47.9421 1102.85C47.9764 1102.78 47.9764 1102.71 47.9401 1102.64ZM42.8266 1097.11L43.1886 1096.48L43.6882 1096.48H43.9132L44.0264 1096.68L44.2756 1097.11L43.9124 1097.74H43.5823L43.5195 1097.74L43.4238 1097.74L43.1886 1097.74L43.0711 1097.53L42.8266 1097.11ZM36.6803 1096.48L36.9057 1096.48L37.0725 1096.48L37.4045 1096.48L37.7665 1097.11L37.5216 1097.53L37.4041 1097.74L37.1693 1097.74L36.6799 1097.74L36.3186 1097.11L36.5678 1096.68L36.6803 1096.48ZM34.5129 1102.74L34.3958 1102.95L34.1513 1103.37L33.4263 1103.37L33.1775 1102.94L33.0654 1102.74L33.1775 1102.55L33.4271 1102.12H34.1509L34.3958 1102.54L34.5129 1102.74ZM37.7665 1108.38L37.4048 1109.01H36.901H36.6807L36.5682 1108.81L36.319 1108.38L36.6815 1107.76H37.1697H37.4052L37.5224 1107.96L37.7665 1108.38ZM43.9128 1109.01H43.6925H43.5199H43.189L42.8266 1108.38L43.0719 1107.96L43.189 1107.76L43.4246 1107.75H43.9132L44.2756 1108.38L44.0268 1108.81L43.9128 1109.01ZM40.9107 1103.81H40.676H39.9179H39.6831L39.5656 1103.61L39.1859 1102.95L39.0687 1102.74L39.1859 1102.54L39.5656 1101.88L39.6827 1101.68H39.9183H40.676H40.9111L41.0287 1101.88L41.4083 1102.54L41.5259 1102.74L41.4083 1102.95L41.0287 1103.6L40.9107 1103.81ZM46.0809 1102.74L46.1985 1102.54L46.443 1102.12L47.1675 1102.12L47.4167 1102.55L47.5288 1102.74L47.4167 1102.94L47.1675 1103.37H46.4434L46.1985 1102.95L46.0809 1102.74Z" fill="#B0CDD7"/>
<path d="M358.769 81.0454L356.285 81.7116L356.246 81.689V79.451L356.285 79.4282L358.77 80.093C358.783 80.0968 358.797 80.0989 358.811 80.0989C358.882 80.0989 358.947 80.052 358.967 79.9794C358.989 79.8932 358.938 79.8058 358.853 79.7824L356.679 79.2006L358.751 78.0039C358.827 77.9594 358.854 77.8618 358.81 77.7843C358.765 77.7074 358.667 77.6812 358.59 77.7256L356.519 78.9217L357.101 76.7485C357.124 76.6624 357.073 76.5747 356.987 76.5512C356.901 76.5305 356.813 76.5793 356.79 76.6652L356.125 79.1496L356.086 79.1721L354.147 78.0536V78.0073L355.965 76.189C356.028 76.1263 356.028 76.0244 355.965 75.9614C355.903 75.8987 355.801 75.8987 355.738 75.9614L354.147 77.5521V75.1609C354.147 75.0723 354.075 75 353.986 75C353.898 75 353.825 75.0723 353.825 75.1609V77.5524L352.235 75.9617C352.172 75.899 352.07 75.899 352.007 75.9617C351.945 76.0247 351.945 76.1266 352.007 76.1893L353.825 78.0076V78.0539L351.887 79.1725L351.847 79.1502L351.182 76.6661C351.159 76.5805 351.072 76.5314 350.985 76.5521C350.899 76.5753 350.848 76.6639 350.871 76.7495L351.454 78.9226L349.383 77.7266C349.306 77.6821 349.207 77.7077 349.162 77.7852C349.118 77.8621 349.145 77.9607 349.222 78.0051L351.293 79.2018L349.12 79.7836C349.033 79.8068 348.982 79.8948 349.006 79.9806C349.025 80.0526 349.091 80.0998 349.161 80.0998C349.175 80.0998 349.188 80.0977 349.202 80.0943L351.687 79.4291L351.727 79.4516V81.6896L351.687 81.7122L349.203 81.047C349.116 81.0269 349.029 81.0751 349.006 81.1606C348.983 81.2468 349.034 81.3345 349.12 81.358L351.294 81.9404L349.222 83.1371C349.145 83.1822 349.119 83.2794 349.163 83.3573C349.193 83.4088 349.247 83.4379 349.303 83.4379C349.33 83.4379 349.358 83.4311 349.383 83.4159L351.454 82.2202L350.871 84.3927C350.849 84.4795 350.899 84.5669 350.985 84.5904C351 84.5941 351.013 84.5959 351.027 84.5959C351.098 84.5959 351.163 84.549 351.182 84.4774L351.847 81.9929L351.888 81.9697L353.825 83.0886V83.1352L352.007 84.9542C351.945 85.0162 351.945 85.1188 352.007 85.1815C352.07 85.2435 352.172 85.2435 352.235 85.1815L353.825 83.5883V85.9807C353.825 86.0693 353.897 86.1416 353.986 86.1416C354.075 86.1416 354.147 86.0696 354.147 85.9807V83.5883L355.737 85.1796C355.769 85.2111 355.81 85.2266 355.851 85.2266C355.892 85.2266 355.934 85.2108 355.965 85.1796C356.028 85.1166 356.028 85.0147 355.965 84.9523L354.147 83.1324V83.0858L356.084 81.9673L356.124 81.9898L356.789 84.474C356.809 84.5459 356.873 84.5935 356.944 84.5935C356.958 84.5935 356.972 84.5916 356.986 84.5876C357.072 84.5644 357.123 84.4767 357.1 84.3903L356.517 82.2171L358.589 83.4132C358.614 83.4283 358.642 83.4348 358.669 83.4348C358.725 83.4348 358.779 83.4058 358.809 83.3545C358.854 83.2773 358.827 83.1788 358.75 83.1349L356.678 81.9379L358.852 81.3552C358.938 81.332 358.989 81.2437 358.966 81.1579C358.944 81.0735 358.857 81.0254 358.769 81.0454ZM355.924 81.5025L354.307 80.5696L355.924 79.6366V81.5025ZM355.764 79.3574L354.147 80.2913V78.4248L355.764 79.3574ZM353.825 78.4248V80.2913L352.209 79.3577L353.825 78.4248ZM352.048 79.6369L353.664 80.5699L352.048 81.5028V79.6369ZM352.209 81.7811L353.825 80.8484V82.7146L352.209 81.7811ZM354.147 82.7143V80.8478L355.763 81.7807L354.147 82.7143Z" fill="#B0CDD7"/>
<path d="M323.594 927.736H322.084L322.539 926.947C322.599 926.845 322.564 926.714 322.461 926.654C322.357 926.595 322.226 926.63 322.168 926.733L321.589 927.736H320.441L321.61 925.709C321.67 925.607 321.635 925.475 321.532 925.416C321.429 925.357 321.298 925.392 321.239 925.495L319.944 927.736H317.802L317.155 926.615L318.227 924.76H320.815C320.932 924.76 321.029 924.664 321.029 924.545C321.029 924.428 320.932 924.331 320.815 924.331H318.474L319.048 923.337L320.204 923.338C320.323 923.338 320.419 923.242 320.419 923.123C320.419 923.006 320.323 922.909 320.204 922.909L319.295 922.909L320.05 921.601C320.109 921.498 320.074 921.367 319.971 921.308C319.869 921.248 319.738 921.283 319.678 921.387L318.923 922.694L318.468 921.906C318.408 921.804 318.277 921.769 318.175 921.828C318.072 921.887 318.037 922.018 318.096 922.121L318.674 923.123L318.101 924.117L316.932 922.09C316.872 921.987 316.741 921.952 316.639 922.011C316.536 922.071 316.501 922.202 316.56 922.304L317.854 924.545L316.783 926.401H315.489L314.418 924.545L315.711 922.304C315.771 922.202 315.735 922.071 315.633 922.011C315.53 921.952 315.4 921.987 315.34 922.09L314.17 924.117L313.597 923.123L314.176 922.12C314.235 922.018 314.2 921.887 314.097 921.828C313.995 921.768 313.864 921.804 313.804 921.906L313.349 922.694L312.596 921.386C312.536 921.283 312.405 921.249 312.303 921.308C312.201 921.367 312.166 921.498 312.225 921.6L312.98 922.908H312.07C311.952 922.908 311.856 923.005 311.856 923.123C311.856 923.241 311.952 923.337 312.07 923.337H313.228L313.801 924.331H311.461C311.343 924.331 311.247 924.427 311.247 924.545C311.247 924.663 311.343 924.759 311.461 924.759H314.049L315.12 926.615L314.473 927.736H312.331L311.035 925.495C310.976 925.392 310.845 925.357 310.743 925.416C310.64 925.475 310.605 925.607 310.664 925.709L311.836 927.736H310.688L310.109 926.734C310.05 926.631 309.919 926.596 309.817 926.655C309.714 926.714 309.679 926.845 309.738 926.948L310.193 927.736H308.684C308.566 927.736 308.47 927.832 308.47 927.95C308.47 928.068 308.566 928.164 308.684 928.164H310.194L309.739 928.953C309.68 929.055 309.715 929.186 309.817 929.246C309.851 929.265 309.888 929.274 309.924 929.274C309.998 929.274 310.07 929.236 310.11 929.167L310.689 928.164H311.837L310.667 930.191C310.607 930.293 310.643 930.424 310.745 930.484C310.779 930.503 310.816 930.512 310.852 930.512C310.926 930.512 310.998 930.474 311.038 930.405L312.333 928.164H314.475L315.122 929.284L314.05 931.14H311.463C311.345 931.14 311.249 931.236 311.249 931.354C311.249 931.472 311.345 931.568 311.463 931.568H313.803L313.229 932.562H312.071C311.953 932.562 311.857 932.658 311.857 932.776C311.857 932.894 311.953 932.991 312.071 932.991H312.982L312.226 934.298C312.167 934.4 312.202 934.532 312.305 934.591C312.339 934.61 312.376 934.619 312.412 934.619C312.486 934.619 312.558 934.581 312.598 934.512L313.353 933.204L313.808 933.993C313.848 934.062 313.92 934.1 313.994 934.1C314.031 934.1 314.068 934.091 314.101 934.072C314.204 934.012 314.239 933.881 314.18 933.779L313.6 932.776L314.174 931.782L315.344 933.809C315.384 933.878 315.456 933.916 315.53 933.916C315.567 933.916 315.603 933.907 315.637 933.887C315.74 933.828 315.775 933.698 315.716 933.594L314.422 931.353L315.493 929.499H316.787L317.859 931.354L316.564 933.595C316.505 933.697 316.54 933.828 316.642 933.888C316.676 933.907 316.713 933.916 316.749 933.916C316.824 933.916 316.896 933.878 316.935 933.809L318.105 931.782L318.68 932.776L318.101 933.778C318.042 933.88 318.077 934.012 318.18 934.071C318.214 934.091 318.251 934.1 318.287 934.1C318.362 934.1 318.434 934.061 318.474 933.992L318.929 933.205L319.684 934.513C319.724 934.582 319.796 934.62 319.871 934.62C319.907 934.62 319.943 934.611 319.978 934.592C320.079 934.532 320.114 934.402 320.057 934.298L319.301 932.99H320.21C320.329 932.99 320.425 932.894 320.425 932.775C320.425 932.658 320.329 932.561 320.21 932.561H319.053L318.48 931.567L320.82 931.568C320.938 931.568 321.034 931.471 321.034 931.353C321.034 931.236 320.938 931.139 320.82 931.139L318.232 931.139L317.16 929.284L317.808 928.164H319.949L321.244 930.405C321.284 930.474 321.356 930.512 321.43 930.512C321.467 930.512 321.503 930.503 321.537 930.484C321.639 930.424 321.674 930.294 321.616 930.191L320.442 928.164H321.591L322.171 929.167C322.211 929.236 322.283 929.274 322.357 929.274C322.394 929.274 322.43 929.265 322.464 929.246C322.567 929.186 322.602 929.056 322.543 928.953L322.088 928.164H323.597C323.715 928.164 323.812 928.068 323.812 927.95C323.809 927.832 323.712 927.736 323.594 927.736ZM317.309 928.164L316.909 928.856L316.785 929.07H316.539H315.739H315.492L315.368 928.856L314.969 928.164L314.845 927.95L314.969 927.736L315.369 927.044L315.492 926.83H315.74H316.539H316.786L316.91 927.044L317.309 927.736L317.433 927.95L317.309 928.164Z" fill="#B0CDD7"/>
<path d="M276.938 1200H275.428L275.883 1199.22C275.943 1199.11 275.908 1198.98 275.805 1198.92C275.701 1198.86 275.57 1198.9 275.511 1199L274.933 1200H273.784L274.954 1197.98C275.013 1197.88 274.979 1197.74 274.875 1197.68C274.773 1197.63 274.642 1197.66 274.582 1197.76L273.288 1200H271.145L270.499 1198.88L271.57 1197.03H274.158C274.276 1197.03 274.373 1196.93 274.373 1196.81C274.373 1196.7 274.276 1196.6 274.158 1196.6H271.817L272.392 1195.61L273.548 1195.61C273.666 1195.61 273.762 1195.51 273.762 1195.39C273.762 1195.27 273.666 1195.18 273.548 1195.18L272.638 1195.18L273.393 1193.87C273.453 1193.77 273.418 1193.64 273.315 1193.58C273.213 1193.52 273.081 1193.55 273.022 1193.65L272.266 1194.96L271.811 1194.17C271.752 1194.07 271.621 1194.04 271.519 1194.1C271.416 1194.16 271.381 1194.29 271.44 1194.39L272.018 1195.39L271.445 1196.38L270.275 1194.36C270.216 1194.26 270.085 1194.22 269.983 1194.28C269.88 1194.34 269.845 1194.47 269.904 1194.57L271.198 1196.81L270.127 1198.67H268.833L267.761 1196.81L269.055 1194.57C269.114 1194.47 269.079 1194.34 268.977 1194.28C268.874 1194.22 268.744 1194.26 268.684 1194.36L267.514 1196.38L266.94 1195.39L267.519 1194.39C267.578 1194.29 267.543 1194.15 267.441 1194.1C267.338 1194.04 267.207 1194.07 267.148 1194.17L266.693 1194.96L265.94 1193.65C265.88 1193.55 265.749 1193.52 265.647 1193.58C265.544 1193.63 265.509 1193.77 265.568 1193.87L266.324 1195.18H265.414C265.296 1195.18 265.2 1195.27 265.2 1195.39C265.2 1195.51 265.296 1195.6 265.414 1195.6H266.571L267.145 1196.6H264.805C264.687 1196.6 264.591 1196.69 264.591 1196.81C264.591 1196.93 264.687 1197.03 264.805 1197.03H267.393L268.464 1198.88L267.817 1200H265.674L264.379 1197.76C264.32 1197.66 264.189 1197.63 264.087 1197.68C263.984 1197.74 263.949 1197.87 264.008 1197.98L265.179 1200H264.032L263.453 1199C263.394 1198.9 263.262 1198.86 263.16 1198.92C263.058 1198.98 263.023 1199.11 263.082 1199.22L263.537 1200H262.028C261.909 1200 261.813 1200.1 261.813 1200.22C261.813 1200.34 261.909 1200.43 262.028 1200.43H263.538L263.082 1201.22C263.023 1201.32 263.058 1201.45 263.161 1201.51C263.195 1201.53 263.232 1201.54 263.268 1201.54C263.342 1201.54 263.414 1201.5 263.454 1201.44L264.033 1200.43H265.181L264.01 1202.46C263.951 1202.56 263.986 1202.69 264.089 1202.75C264.123 1202.77 264.159 1202.78 264.196 1202.78C264.27 1202.78 264.342 1202.74 264.382 1202.67L265.676 1200.43H267.819L268.466 1201.55L267.394 1203.41H264.807C264.689 1203.41 264.593 1203.5 264.593 1203.62C264.593 1203.74 264.689 1203.84 264.807 1203.84H267.146L266.573 1204.83H265.415C265.297 1204.83 265.201 1204.93 265.201 1205.04C265.201 1205.16 265.297 1205.26 265.415 1205.26H266.325L265.57 1206.57C265.511 1206.67 265.546 1206.8 265.649 1206.86C265.682 1206.88 265.719 1206.89 265.756 1206.89C265.83 1206.89 265.902 1206.85 265.942 1206.78L266.697 1205.47L267.152 1206.26C267.192 1206.33 267.264 1206.37 267.338 1206.37C267.374 1206.37 267.411 1206.36 267.445 1206.34C267.548 1206.28 267.583 1206.15 267.524 1206.05L266.944 1205.04L267.518 1204.05L268.688 1206.08C268.728 1206.15 268.8 1206.18 268.874 1206.18C268.91 1206.18 268.947 1206.17 268.981 1206.16C269.083 1206.1 269.119 1205.97 269.06 1205.86L267.765 1203.62L268.837 1201.77H270.131L271.202 1203.62L269.908 1205.86C269.848 1205.97 269.884 1206.1 269.986 1206.16C270.019 1206.18 270.056 1206.18 270.093 1206.18C270.168 1206.18 270.24 1206.15 270.279 1206.08L271.449 1204.05L272.023 1205.04L271.445 1206.05C271.386 1206.15 271.421 1206.28 271.524 1206.34C271.558 1206.36 271.595 1206.37 271.631 1206.37C271.705 1206.37 271.777 1206.33 271.817 1206.26L272.272 1205.47L273.028 1206.78C273.068 1206.85 273.14 1206.89 273.214 1206.89C273.25 1206.89 273.287 1206.88 273.321 1206.86C273.423 1206.8 273.458 1206.67 273.4 1206.57L272.644 1205.26H273.554C273.672 1205.26 273.768 1205.16 273.768 1205.04C273.768 1204.93 273.672 1204.83 273.554 1204.83H272.397L271.823 1203.84L274.164 1203.84C274.281 1203.84 274.378 1203.74 274.378 1203.62C274.378 1203.5 274.281 1203.41 274.164 1203.41L271.576 1203.41L270.504 1201.55L271.151 1200.43H273.293L274.588 1202.67C274.627 1202.74 274.699 1202.78 274.774 1202.78C274.81 1202.78 274.847 1202.77 274.881 1202.75C274.983 1202.69 275.018 1202.56 274.959 1202.46L273.786 1200.43H274.935L275.514 1201.44C275.555 1201.5 275.627 1201.54 275.7 1201.54C275.737 1201.54 275.774 1201.53 275.808 1201.51C275.91 1201.45 275.946 1201.32 275.887 1201.22L275.432 1200.43H276.941C277.058 1200.43 277.155 1200.34 277.155 1200.22C277.152 1200.1 277.055 1200 276.938 1200ZM270.652 1200.43L270.253 1201.12L270.129 1201.34H269.882H269.083H268.835L268.712 1201.12L268.313 1200.43L268.189 1200.22L268.313 1200L268.712 1199.31L268.836 1199.1H269.083H269.882H270.13L270.254 1199.31L270.652 1200L270.776 1200.22L270.652 1200.43Z" fill="#B0CDD7"/>
<path d="M288.784 527.186H287.915L288.177 526.733C288.211 526.674 288.191 526.599 288.132 526.564C288.072 526.53 287.997 526.551 287.964 526.61L287.631 527.186H286.97L287.643 526.021C287.677 525.962 287.657 525.887 287.598 525.853C287.539 525.819 287.464 525.839 287.429 525.898L286.685 527.186H285.453L285.081 526.542L285.697 525.475H287.186C287.253 525.475 287.309 525.42 287.309 525.352C287.309 525.284 287.253 525.229 287.186 525.229H285.839L286.17 524.657L286.835 524.657C286.903 524.657 286.958 524.602 286.958 524.534C286.958 524.467 286.903 524.411 286.835 524.411L286.312 524.411L286.746 523.659C286.78 523.6 286.76 523.524 286.701 523.49C286.642 523.456 286.566 523.476 286.532 523.536L286.098 524.288L285.836 523.834C285.802 523.776 285.727 523.755 285.668 523.789C285.609 523.823 285.589 523.899 285.622 523.958L285.955 524.534L285.625 525.105L284.953 523.94C284.919 523.881 284.843 523.861 284.785 523.895C284.726 523.929 284.705 524.004 284.739 524.063L285.483 525.352L284.867 526.419H284.123L283.507 525.352L284.251 524.063C284.285 524.004 284.265 523.929 284.206 523.895C284.147 523.861 284.072 523.881 284.038 523.94L283.365 525.105L283.035 524.534L283.368 523.957C283.402 523.899 283.382 523.823 283.323 523.789C283.264 523.755 283.189 523.775 283.155 523.834L282.893 524.288L282.46 523.535C282.426 523.476 282.35 523.456 282.292 523.49C282.233 523.524 282.212 523.599 282.246 523.659L282.681 524.411H282.158C282.09 524.411 282.035 524.466 282.035 524.534C282.035 524.602 282.09 524.657 282.158 524.657H282.823L283.153 525.228H281.808C281.74 525.228 281.684 525.284 281.684 525.352C281.684 525.42 281.74 525.475 281.808 525.475H283.295L283.911 526.542L283.539 527.186H282.307L281.563 525.898C281.529 525.839 281.453 525.819 281.394 525.853C281.335 525.887 281.315 525.962 281.349 526.021L282.023 527.186H281.363L281.03 526.61C280.996 526.551 280.921 526.531 280.862 526.565C280.803 526.599 280.783 526.674 280.817 526.733L281.078 527.186H280.211C280.143 527.186 280.087 527.241 280.087 527.309C280.087 527.377 280.143 527.433 280.211 527.433H281.079L280.817 527.886C280.783 527.945 280.803 528.02 280.862 528.055C280.882 528.066 280.903 528.071 280.924 528.071C280.966 528.071 281.008 528.049 281.031 528.009L281.363 527.433H282.024L281.351 528.598C281.317 528.657 281.337 528.732 281.396 528.766C281.415 528.778 281.436 528.783 281.457 528.783C281.5 528.783 281.541 528.761 281.564 528.721L282.309 527.433H283.54L283.912 528.076L283.296 529.143H281.809C281.741 529.143 281.685 529.199 281.685 529.267C281.685 529.334 281.741 529.39 281.809 529.39H283.154L282.824 529.961H282.158C282.09 529.961 282.035 530.016 282.035 530.084C282.035 530.152 282.09 530.208 282.158 530.208H282.682L282.247 530.96C282.213 531.018 282.234 531.094 282.293 531.128C282.312 531.139 282.333 531.144 282.354 531.144C282.397 531.144 282.438 531.122 282.461 531.083L282.895 530.331L283.157 530.784C283.18 530.824 283.221 530.846 283.264 530.846C283.285 530.846 283.306 530.84 283.326 530.829C283.384 530.795 283.405 530.72 283.371 530.661L283.037 530.084L283.367 529.513L284.04 530.678C284.063 530.718 284.104 530.74 284.147 530.74C284.168 530.74 284.189 530.735 284.209 530.723C284.268 530.689 284.288 530.614 284.254 530.555L283.51 529.266L284.126 528.2H284.87L285.486 529.267L284.741 530.555C284.707 530.614 284.728 530.689 284.787 530.724C284.806 530.735 284.827 530.74 284.848 530.74C284.891 530.74 284.932 530.718 284.955 530.678L285.628 529.513L285.958 530.084L285.625 530.661C285.591 530.719 285.612 530.795 285.671 530.829C285.69 530.84 285.712 530.845 285.732 530.845C285.775 530.845 285.817 530.823 285.839 530.784L286.101 530.331L286.536 531.083C286.558 531.123 286.6 531.145 286.643 531.145C286.663 531.145 286.685 531.139 286.704 531.128C286.763 531.094 286.783 531.019 286.75 530.96L286.315 530.207H286.838C286.906 530.207 286.961 530.152 286.961 530.084C286.961 530.016 286.906 529.961 286.838 529.961H286.173L285.843 529.389L287.189 529.39C287.256 529.39 287.312 529.334 287.312 529.266C287.312 529.199 287.256 529.143 287.189 529.143L285.7 529.143L285.084 528.076L285.457 527.432H286.688L287.432 528.721C287.455 528.761 287.497 528.783 287.539 528.783C287.56 528.783 287.582 528.778 287.601 528.766C287.66 528.732 287.68 528.657 287.646 528.598L286.971 527.433H287.632L287.965 528.009C287.988 528.049 288.03 528.071 288.072 528.071C288.093 528.071 288.115 528.066 288.134 528.055C288.193 528.02 288.213 527.945 288.179 527.886L287.918 527.433H288.786C288.853 527.433 288.909 527.377 288.909 527.309C288.907 527.241 288.851 527.186 288.784 527.186ZM285.17 527.433L284.94 527.83L284.869 527.954H284.727H284.267H284.125L284.054 527.83L283.825 527.433L283.753 527.309L283.825 527.186L284.054 526.788L284.125 526.665H284.268H284.727H284.869L284.941 526.788L285.17 527.186L285.241 527.309L285.17 527.433Z" fill="#B0CDD7"/>
<path d="M372.913 1133.13H371.887L371.49 1133.81H369.073L370.745 1132.14C370.823 1132.06 370.823 1131.94 370.745 1131.86C370.668 1131.78 370.541 1131.78 370.463 1131.86L368.508 1133.82H367.303L366.701 1132.77L367.305 1131.73L369.974 1131.01C370.08 1130.98 370.143 1130.87 370.115 1130.77C370.087 1130.66 369.977 1130.6 369.871 1130.63L367.587 1131.24L368.794 1129.15H369.589L370.103 1128.26L369.59 1127.37L368.565 1127.37L368.052 1128.26L368.45 1128.95L367.242 1131.04L366.629 1128.75C366.602 1128.65 366.492 1128.58 366.386 1128.61C366.279 1128.64 366.216 1128.75 366.244 1128.86L366.96 1131.53L366.358 1132.57H365.153L364.551 1131.53L365.266 1128.86C365.294 1128.75 365.231 1128.64 365.125 1128.61C365.018 1128.59 364.909 1128.65 364.881 1128.76L364.268 1131.04L363.061 1128.95L363.458 1128.26L362.945 1127.37L361.92 1127.37L361.407 1128.26L361.92 1129.15L362.715 1129.15L363.922 1131.24L361.638 1130.63C361.531 1130.6 361.422 1130.66 361.394 1130.77C361.366 1130.87 361.429 1130.98 361.535 1131.01L364.205 1131.73L364.807 1132.77L364.205 1133.82H363L361.045 1131.86C360.967 1131.78 360.84 1131.78 360.763 1131.86C360.685 1131.94 360.685 1132.06 360.763 1132.14L362.436 1133.81H360.02L359.622 1133.13L358.596 1133.13L358.083 1134.01L358.596 1134.9H359.622L360.02 1134.21H362.435L360.763 1135.89C360.685 1135.96 360.685 1136.09 360.763 1136.17C360.802 1136.21 360.853 1136.23 360.904 1136.23C360.955 1136.23 361.007 1136.21 361.046 1136.17L363 1134.21H364.206L364.807 1135.26L364.206 1136.3L361.535 1137.01C361.428 1137.04 361.365 1137.15 361.393 1137.26C361.422 1137.37 361.532 1137.43 361.638 1137.4L363.924 1136.79L362.714 1138.88L361.92 1138.88L361.407 1139.77L361.92 1140.66H362.945L363.458 1139.77L363.06 1139.08L364.267 1136.99L364.88 1139.27C364.904 1139.36 364.984 1139.42 365.072 1139.42C365.089 1139.42 365.106 1139.42 365.124 1139.41C365.23 1139.38 365.294 1139.27 365.265 1139.17L364.549 1136.5L365.152 1135.46H366.356L366.959 1136.5L366.243 1139.17C366.215 1139.27 366.278 1139.38 366.385 1139.41C366.402 1139.42 366.42 1139.42 366.437 1139.42C366.525 1139.42 366.605 1139.36 366.629 1139.27L367.241 1136.99L368.449 1139.08L368.05 1139.77L368.563 1140.66L369.589 1140.66L370.102 1139.77L369.589 1138.88H368.794L367.585 1136.79L369.87 1137.4C369.977 1137.43 370.086 1137.37 370.114 1137.26C370.143 1137.15 370.079 1137.04 369.973 1137.01L367.303 1136.3L366.7 1135.26L367.303 1134.21H368.508L370.462 1136.17C370.501 1136.21 370.552 1136.23 370.603 1136.23C370.654 1136.23 370.705 1136.21 370.744 1136.17C370.822 1136.09 370.822 1135.96 370.744 1135.89L369.074 1134.21H371.489L371.887 1134.9H372.913L373.425 1134.02L372.913 1133.13ZM366.357 1135.06H366.126H365.382H365.152L365.037 1134.86L364.665 1134.21L364.55 1134.01L364.665 1133.81L365.037 1133.17L365.153 1132.97H365.383H366.127L366.129 1132.97L366.357 1132.97L366.469 1133.17L366.528 1133.07L366.472 1133.17L366.843 1133.81L366.959 1134.01L366.843 1134.21L366.471 1134.86L366.357 1135.06ZM366.361 1132.77H366.473L366.474 1132.77L366.361 1132.77ZM366.587 1132.97L366.531 1132.87L366.587 1132.97L366.587 1132.97ZM366.244 1132.77L366.187 1132.87L366.242 1132.77H366.244Z" fill="#B0CDD7"/>
<path d="M166.971 527.966L163.549 528.881L160.826 527.309L163.549 525.736L166.971 526.653C166.99 526.658 167.009 526.66 167.028 526.66C167.126 526.66 167.215 526.595 167.241 526.496C167.273 526.378 167.203 526.256 167.085 526.225L164.092 525.423L166.945 523.775C167.05 523.714 167.086 523.579 167.025 523.473C166.963 523.367 166.828 523.331 166.723 523.392L163.871 525.039L164.673 522.047C164.704 521.928 164.634 521.807 164.517 521.775C164.399 521.744 164.278 521.814 164.245 521.932L163.329 525.352L160.605 526.925V523.78L163.109 521.276C163.196 521.19 163.196 521.049 163.109 520.963C163.023 520.876 162.882 520.876 162.796 520.963L160.605 523.154V519.86C160.605 519.738 160.505 519.639 160.383 519.639C160.261 519.639 160.162 519.738 160.162 519.86V523.154L157.971 520.963C157.884 520.876 157.744 520.876 157.658 520.963C157.571 521.049 157.571 521.19 157.658 521.276L160.162 523.78V526.926L157.438 525.353L156.521 521.933C156.489 521.814 156.368 521.745 156.25 521.776C156.132 521.807 156.062 521.929 156.093 522.047L156.895 525.04L154.043 523.392C153.937 523.331 153.802 523.367 153.741 523.473C153.679 523.579 153.716 523.715 153.821 523.776L156.674 525.423L153.681 526.225C153.563 526.256 153.493 526.378 153.525 526.496C153.551 526.595 153.64 526.66 153.738 526.66C153.757 526.66 153.776 526.658 153.795 526.653L157.217 525.736L159.94 527.309L157.217 528.881L153.796 527.965C153.679 527.935 153.556 528.004 153.525 528.122C153.493 528.24 153.563 528.361 153.681 528.393L156.675 529.194L153.822 530.842C153.716 530.903 153.68 531.038 153.741 531.145C153.783 531.216 153.857 531.256 153.934 531.256C153.971 531.256 154.009 531.247 154.044 531.226L156.897 529.579L156.094 532.571C156.063 532.69 156.133 532.811 156.251 532.842C156.271 532.848 156.29 532.85 156.309 532.85C156.407 532.85 156.496 532.785 156.523 532.686L157.439 529.266L160.163 527.693V530.838L157.659 533.343C157.572 533.429 157.572 533.569 157.659 533.656C157.745 533.742 157.886 533.742 157.972 533.656L160.163 531.465V534.759C160.163 534.881 160.262 534.981 160.384 534.981C160.506 534.981 160.606 534.881 160.606 534.759V531.465L162.796 533.656C162.84 533.7 162.896 533.72 162.953 533.72C163.01 533.72 163.067 533.698 163.109 533.656C163.196 533.569 163.196 533.429 163.109 533.343L160.605 530.838V527.693L163.328 529.266L164.244 532.687C164.27 532.785 164.36 532.85 164.458 532.85C164.477 532.85 164.496 532.849 164.515 532.843C164.634 532.811 164.703 532.69 164.672 532.571L163.869 529.58L166.722 531.226C166.757 531.247 166.795 531.256 166.833 531.256C166.909 531.256 166.983 531.216 167.025 531.145C167.086 531.039 167.05 530.904 166.944 530.842L164.091 529.195L167.084 528.393C167.203 528.362 167.273 528.24 167.241 528.122C167.21 528.003 167.09 527.934 166.971 527.966Z" fill="#B0CDD7"/>
<path d="M27.4537 292.327L24.0323 293.243L21.3088 291.67L24.0323 290.098L27.4537 291.014C27.4728 291.02 27.4924 291.022 27.5115 291.022C27.6093 291.022 27.6986 290.957 27.7246 290.857C27.756 290.739 27.6863 290.618 27.5681 290.586L24.575 289.784L27.4277 288.137C27.5332 288.075 27.5693 287.94 27.5085 287.834C27.4464 287.728 27.3112 287.692 27.2057 287.753L24.3542 289.401L25.1563 286.408C25.1874 286.29 25.1176 286.168 24.9998 286.137C24.882 286.106 24.7608 286.175 24.7285 286.294L23.812 289.714L21.0885 291.286V288.142L23.5921 285.637C23.6789 285.551 23.6789 285.411 23.5921 285.324C23.5062 285.238 23.3655 285.238 23.2791 285.324L21.0885 287.515V284.222C21.0881 284.1 20.9886 284 20.8665 284C20.7445 284 20.645 284.1 20.645 284.222V287.515L18.4544 285.324C18.3676 285.238 18.2273 285.238 18.1409 285.324C18.0546 285.411 18.0546 285.551 18.1409 285.637L20.645 288.142V291.287L17.9211 289.714L17.0046 286.294C16.9723 286.176 16.8515 286.106 16.7333 286.137C16.615 286.168 16.5449 286.29 16.5763 286.408L17.378 289.401L14.5261 287.753C14.4206 287.693 14.2849 287.728 14.2237 287.835C14.1625 287.941 14.199 288.076 14.3045 288.137L17.1573 289.785L14.1637 290.586C14.0464 290.618 13.9758 290.739 14.0077 290.857C14.034 290.956 14.1233 291.022 14.2212 291.022C14.2403 291.022 14.2594 291.02 14.2786 291.014L17.6999 290.098L20.4234 291.67L17.7004 293.243L14.279 292.327C14.162 292.296 14.0396 292.365 14.0081 292.483C13.9762 292.601 14.0464 292.722 14.1646 292.754L17.1581 293.556L14.3054 295.203C14.1995 295.265 14.1633 295.4 14.2246 295.506C14.2658 295.577 14.3402 295.617 14.4168 295.617C14.4542 295.617 14.4925 295.608 14.5274 295.588L17.3801 293.94L16.5776 296.933C16.5461 297.051 16.6163 297.172 16.7345 297.204C16.7537 297.209 16.7732 297.212 16.7924 297.212C16.8898 297.212 16.9791 297.147 17.0059 297.047L17.9223 293.627L20.6458 292.054V295.199L18.1422 297.704C18.0555 297.79 18.0555 297.931 18.1422 298.018C18.2285 298.103 18.3689 298.103 18.4552 298.018L20.6458 295.826V299.12C20.6458 299.242 20.7449 299.342 20.8674 299.342C20.9894 299.342 21.089 299.242 21.089 299.12V295.826L23.2791 298.018C23.3229 298.061 23.3795 298.082 23.4361 298.082C23.4935 298.082 23.55 298.06 23.5926 298.018C23.6793 297.931 23.6793 297.79 23.5926 297.704L21.0877 295.199V292.055L23.8107 293.627L24.7272 297.048C24.7536 297.147 24.8433 297.212 24.9407 297.212C24.9598 297.212 24.979 297.21 24.9985 297.204C25.1168 297.173 25.1865 297.051 25.155 296.933L24.3521 293.941L27.2049 295.588C27.2402 295.608 27.278 295.618 27.3159 295.618C27.3924 295.618 27.4664 295.577 27.5081 295.507C27.5693 295.4 27.5332 295.266 27.4273 295.204L24.5745 293.556L27.5676 292.754C27.6863 292.723 27.756 292.601 27.7241 292.483C27.6935 292.364 27.5727 292.295 27.4537 292.327Z" fill="#B0CDD7"/>
<path d="M87.7692 1803.05L85.2848 1803.71L85.2456 1803.69V1801.45L85.2848 1801.43L87.7695 1802.09C87.7834 1802.1 87.7973 1802.1 87.8112 1802.1C87.8823 1802.1 87.9471 1802.05 87.9669 1801.98C87.9894 1801.89 87.9385 1801.81 87.8526 1801.78L85.6792 1801.2L87.7507 1800C87.8273 1799.96 87.8539 1799.86 87.8097 1799.78C87.7652 1799.71 87.667 1799.68 87.5898 1799.73L85.5186 1800.92L86.1013 1798.75C86.1238 1798.66 86.0732 1798.57 85.9874 1798.55C85.9009 1798.53 85.8135 1798.58 85.79 1798.67L85.1254 1801.15L85.0859 1801.17L83.1471 1800.05V1800.01L84.9655 1798.19C85.0282 1798.13 85.0282 1798.02 84.9655 1797.96C84.9028 1797.9 84.8009 1797.9 84.7382 1797.96L83.1474 1799.55V1797.16C83.1471 1797.07 83.0749 1797 82.9862 1797C82.8976 1797 82.8254 1797.07 82.8254 1797.16V1799.55L81.2346 1797.96C81.1722 1797.9 81.07 1797.9 81.0073 1797.96C80.9446 1798.02 80.9446 1798.13 81.0073 1798.19L82.8254 1800.01V1800.05L80.8866 1801.17L80.8474 1801.15L80.1822 1798.67C80.159 1798.58 80.0722 1798.53 79.9851 1798.55C79.8993 1798.58 79.8483 1798.66 79.8712 1798.75L80.4536 1800.92L78.3827 1799.73C78.3061 1799.68 78.207 1799.71 78.1625 1799.79C78.118 1799.86 78.1446 1799.96 78.2218 1800.01L80.2933 1801.2L78.1196 1801.78C78.0331 1801.81 77.9824 1801.89 78.0056 1801.98C78.0254 1802.05 78.0905 1802.1 78.1609 1802.1C78.1748 1802.1 78.1884 1802.1 78.2023 1802.09L80.6871 1801.43L80.7266 1801.45V1803.69L80.6871 1803.71L78.2026 1803.05C78.1162 1803.03 78.0288 1803.08 78.0056 1803.16C77.9831 1803.25 78.0337 1803.33 78.1196 1803.36L80.2936 1803.94L78.2221 1805.14C78.1452 1805.18 78.1189 1805.28 78.1631 1805.36C78.1928 1805.41 78.2471 1805.44 78.3027 1805.44C78.3299 1805.44 78.3577 1805.43 78.383 1805.42L80.4539 1804.22L79.8715 1806.39C79.8486 1806.48 79.8993 1806.57 79.9854 1806.59C79.9997 1806.59 80.0132 1806.6 80.0271 1806.6C80.0985 1806.6 80.1633 1806.55 80.1825 1806.48L80.8474 1803.99L80.8878 1803.97L82.8254 1805.09V1805.14L81.0073 1806.95C80.9446 1807.02 80.9446 1807.12 81.0073 1807.18C81.07 1807.24 81.1722 1807.24 81.2346 1807.18L82.825 1805.59V1807.98C82.825 1808.07 82.897 1808.14 82.9859 1808.14C83.0749 1808.14 83.1468 1808.07 83.1468 1807.98V1805.59L84.7373 1807.18C84.7688 1807.21 84.8098 1807.23 84.8509 1807.23C84.8923 1807.23 84.9337 1807.21 84.9649 1807.18C85.0275 1807.12 85.0275 1807.01 84.9649 1806.95L83.1465 1805.13V1805.09L85.0841 1803.97L85.1239 1803.99L85.7888 1806.47C85.8085 1806.55 85.8734 1806.59 85.9441 1806.59C85.958 1806.59 85.9719 1806.59 85.9861 1806.59C86.072 1806.56 86.1226 1806.48 86.1001 1806.39L85.517 1804.22L87.5889 1805.41C87.6142 1805.43 87.642 1805.43 87.6692 1805.43C87.7251 1805.43 87.7791 1805.41 87.8088 1805.35C87.8535 1805.28 87.827 1805.18 87.7498 1805.13L85.6779 1803.94L87.852 1803.36C87.9385 1803.33 87.9891 1803.24 87.9663 1803.16C87.9437 1803.07 87.8573 1803.03 87.7692 1803.05ZM84.9238 1803.5L83.3074 1802.57L84.9238 1801.64V1803.5ZM84.7638 1801.36L83.1471 1802.29V1800.42L84.7638 1801.36ZM82.8254 1800.42V1802.29L81.2087 1801.36L82.8254 1800.42ZM81.0481 1801.64L82.6645 1802.57L81.0481 1803.5V1801.64ZM81.2093 1803.78L82.825 1802.85V1804.71L81.2093 1803.78ZM83.1471 1804.71V1802.85L84.7632 1803.78L83.1471 1804.71Z" fill="#B0CDD7"/>
<path d="M226.343 1772.84H225.211L225.552 1772.25C225.597 1772.17 225.571 1772.08 225.493 1772.03C225.416 1771.99 225.317 1772.01 225.273 1772.09L224.84 1772.84H223.978L224.855 1771.32C224.9 1771.25 224.874 1771.15 224.796 1771.1C224.719 1771.06 224.621 1771.08 224.577 1771.16L223.606 1772.84H221.999L221.514 1772L222.318 1770.61H224.259C224.347 1770.61 224.419 1770.54 224.419 1770.45C224.419 1770.36 224.347 1770.29 224.259 1770.29H222.503L222.934 1769.54L223.801 1769.54C223.89 1769.54 223.962 1769.47 223.962 1769.38C223.962 1769.3 223.89 1769.22 223.801 1769.22L223.119 1769.22L223.685 1768.24C223.73 1768.16 223.703 1768.07 223.626 1768.02C223.549 1767.98 223.451 1768 223.406 1768.08L222.84 1769.06L222.498 1768.47C222.454 1768.39 222.356 1768.37 222.279 1768.41C222.202 1768.46 222.176 1768.55 222.22 1768.63L222.654 1769.38L222.224 1770.13L221.346 1768.61C221.302 1768.53 221.204 1768.51 221.127 1768.55C221.05 1768.59 221.024 1768.69 221.068 1768.77L222.038 1770.45L221.235 1771.84H220.264L219.461 1770.45L220.431 1768.77C220.476 1768.69 220.449 1768.59 220.372 1768.55C220.295 1768.51 220.198 1768.53 220.153 1768.61L219.275 1770.13L218.845 1769.38L219.279 1768.63C219.324 1768.55 219.297 1768.46 219.221 1768.41C219.144 1768.37 219.045 1768.39 219.001 1768.47L218.66 1769.06L218.095 1768.08C218.05 1768 217.952 1767.98 217.875 1768.02C217.798 1768.07 217.772 1768.16 217.816 1768.24L218.383 1769.22H217.701C217.612 1769.22 217.54 1769.29 217.54 1769.38C217.54 1769.47 217.612 1769.54 217.701 1769.54H218.568L218.999 1770.29H217.244C217.155 1770.29 217.083 1770.36 217.083 1770.45C217.083 1770.54 217.155 1770.61 217.244 1770.61H219.185L219.988 1772L219.502 1772.84H217.896L216.924 1771.16C216.88 1771.09 216.781 1771.06 216.705 1771.1C216.628 1771.15 216.602 1771.25 216.646 1771.32L217.524 1772.84H216.664L216.23 1772.09C216.185 1772.01 216.087 1771.99 216.01 1772.03C215.933 1772.08 215.907 1772.17 215.951 1772.25L216.293 1772.84H215.161C215.072 1772.84 215 1772.91 215 1773C215 1773.09 215.072 1773.16 215.161 1773.16H216.293L215.952 1773.76C215.907 1773.83 215.934 1773.93 216.011 1773.98C216.036 1773.99 216.064 1774 216.091 1774C216.146 1774 216.2 1773.97 216.23 1773.92L216.664 1773.16H217.526L216.648 1774.68C216.603 1774.76 216.63 1774.86 216.706 1774.9C216.732 1774.92 216.759 1774.93 216.787 1774.93C216.842 1774.93 216.896 1774.9 216.926 1774.84L217.897 1773.16H219.504L219.989 1774L219.185 1775.4H217.245C217.156 1775.4 217.084 1775.47 217.084 1775.56C217.084 1775.64 217.156 1775.72 217.245 1775.72H219L218.569 1776.46H217.701C217.612 1776.46 217.54 1776.53 217.54 1776.62C217.54 1776.71 217.612 1776.78 217.701 1776.78H218.384L217.818 1777.76C217.773 1777.84 217.8 1777.94 217.876 1777.98C217.902 1778 217.929 1778.01 217.957 1778.01C218.012 1778.01 218.066 1777.98 218.096 1777.93L218.663 1776.94L219.004 1777.54C219.034 1777.59 219.088 1777.62 219.143 1777.62C219.171 1777.62 219.198 1777.61 219.224 1777.59C219.301 1777.55 219.327 1777.45 219.283 1777.37L218.848 1776.62L219.278 1775.88L220.156 1777.4C220.186 1777.45 220.24 1777.48 220.295 1777.48C220.323 1777.48 220.35 1777.47 220.376 1777.46C220.453 1777.41 220.479 1777.31 220.435 1777.24L219.464 1775.56L220.267 1774.16H221.238L222.042 1775.56L221.071 1777.24C221.026 1777.31 221.053 1777.41 221.129 1777.46C221.154 1777.47 221.182 1777.48 221.21 1777.48C221.266 1777.48 221.32 1777.45 221.349 1777.4L222.227 1775.88L222.657 1776.62L222.224 1777.37C222.179 1777.45 222.206 1777.55 222.283 1777.59C222.308 1777.61 222.336 1777.62 222.363 1777.62C222.419 1777.62 222.473 1777.59 222.503 1777.54L222.844 1776.94L223.411 1777.93C223.441 1777.98 223.495 1778.01 223.551 1778.01C223.578 1778.01 223.605 1778 223.631 1777.98C223.707 1777.94 223.734 1777.84 223.69 1777.76L223.123 1776.78H223.806C223.894 1776.78 223.966 1776.71 223.966 1776.62C223.966 1776.53 223.894 1776.46 223.806 1776.46H222.937L222.507 1775.72L224.263 1775.72C224.351 1775.72 224.423 1775.64 224.423 1775.56C224.423 1775.47 224.351 1775.4 224.263 1775.4L222.322 1775.39L221.518 1774L222.003 1773.16H223.61L224.581 1774.84C224.61 1774.9 224.664 1774.93 224.72 1774.93C224.748 1774.93 224.775 1774.92 224.801 1774.9C224.877 1774.86 224.903 1774.76 224.859 1774.68L223.979 1773.16H224.841L225.276 1773.92C225.306 1773.97 225.36 1774 225.415 1774C225.443 1774 225.47 1773.99 225.496 1773.98C225.573 1773.93 225.599 1773.83 225.555 1773.76L225.214 1773.16H226.346C226.434 1773.16 226.506 1773.09 226.506 1773C226.504 1772.91 226.432 1772.84 226.343 1772.84ZM221.629 1773.16L221.33 1773.68L221.237 1773.84H221.052H220.452H220.266L220.174 1773.68L219.875 1773.16L219.782 1773L219.875 1772.84L220.174 1772.32L220.267 1772.16H220.453H221.052H221.237L221.33 1772.32L221.629 1772.84L221.722 1773L221.629 1773.16Z" fill="#B0CDD7"/>
<path d="M330.216 1780.89L328.711 1780.02L329.618 1779.5C329.735 1779.43 329.776 1779.28 329.709 1779.16C329.64 1779.04 329.489 1779 329.372 1779.07L328.219 1779.74L327.076 1779.08L329.407 1777.73C329.524 1777.66 329.565 1777.52 329.497 1777.4C329.429 1777.28 329.278 1777.24 329.16 1777.31L326.583 1778.79L324.8 1777.76L326.944 1776.82L324.799 1775.87L326.582 1774.84L329.16 1776.33C329.199 1776.35 329.241 1776.36 329.283 1776.36C329.369 1776.36 329.451 1776.32 329.497 1776.24C329.566 1776.12 329.525 1775.97 329.407 1775.9L327.075 1774.56L328.218 1773.9L329.373 1774.56C329.411 1774.59 329.454 1774.6 329.496 1774.6C329.581 1774.6 329.664 1774.55 329.71 1774.47C329.778 1774.36 329.738 1774.2 329.619 1774.14L328.712 1773.61L330.216 1772.74C330.334 1772.68 330.374 1772.53 330.307 1772.41C330.238 1772.29 330.087 1772.25 329.97 1772.32L328.466 1773.19L328.466 1772.14C328.466 1772 328.355 1771.89 328.219 1771.89C328.083 1771.89 327.973 1772 327.973 1772.14L327.974 1773.47L326.83 1774.13L326.831 1771.44C326.831 1771.3 326.72 1771.19 326.584 1771.19C326.449 1771.19 326.338 1771.3 326.338 1771.44L326.337 1774.41L324.554 1775.44L324.808 1773.11L322.917 1774.5V1772.44L325.493 1770.95C325.611 1770.88 325.651 1770.73 325.584 1770.61C325.515 1770.5 325.365 1770.46 325.247 1770.52L322.917 1771.87V1770.55L324.069 1769.88C324.187 1769.81 324.227 1769.66 324.16 1769.55C324.091 1769.43 323.941 1769.39 323.823 1769.46L322.917 1769.98V1768.25C322.917 1768.11 322.806 1768 322.67 1768C322.534 1768 322.424 1768.11 322.424 1768.25V1769.98L321.518 1769.46C321.399 1769.39 321.249 1769.43 321.181 1769.55C321.113 1769.67 321.153 1769.82 321.271 1769.89L322.424 1770.55V1771.87L320.093 1770.53C319.975 1770.46 319.825 1770.5 319.757 1770.62C319.689 1770.74 319.729 1770.89 319.847 1770.96L322.424 1772.44V1774.51L320.533 1773.12L320.786 1775.45L319.002 1774.42V1771.44C319.002 1771.31 318.892 1771.2 318.756 1771.2C318.62 1771.2 318.509 1771.31 318.509 1771.44V1774.14L317.367 1773.48L317.366 1772.14C317.366 1772.01 317.256 1771.9 317.12 1771.9C316.984 1771.9 316.874 1772.01 316.874 1772.14L316.874 1773.19L315.37 1772.32C315.252 1772.25 315.101 1772.29 315.033 1772.41C314.965 1772.53 315.005 1772.68 315.123 1772.75L316.627 1773.62L315.721 1774.14C315.603 1774.21 315.563 1774.36 315.631 1774.48C315.677 1774.56 315.759 1774.6 315.845 1774.6C315.887 1774.6 315.929 1774.59 315.968 1774.57L317.12 1773.9L318.263 1774.56L315.933 1775.91C315.815 1775.98 315.775 1776.13 315.843 1776.25C315.888 1776.32 315.971 1776.37 316.057 1776.37C316.098 1776.37 316.141 1776.36 316.18 1776.34L318.757 1774.85L320.542 1775.88L318.397 1776.82L320.541 1777.77L318.757 1778.8L316.179 1777.31C316.06 1777.24 315.911 1777.28 315.843 1777.4C315.775 1777.52 315.815 1777.67 315.933 1777.74L318.264 1779.09L317.12 1779.75L315.968 1779.08C315.851 1779.01 315.7 1779.05 315.632 1779.17C315.564 1779.29 315.604 1779.44 315.722 1779.51L316.628 1780.03L315.125 1780.9C315.007 1780.97 314.966 1781.12 315.035 1781.23C315.08 1781.31 315.163 1781.36 315.248 1781.36C315.29 1781.36 315.333 1781.35 315.372 1781.33L316.875 1780.46L316.876 1781.5C316.876 1781.64 316.986 1781.75 317.122 1781.75C317.258 1781.75 317.368 1781.64 317.368 1781.5L317.368 1780.17L318.512 1779.51L318.511 1782.2C318.511 1782.34 318.621 1782.45 318.757 1782.45C318.893 1782.45 319.004 1782.34 319.004 1782.2L319.005 1779.23L320.788 1778.2L320.535 1780.53L322.426 1779.14V1781.2L319.849 1782.69C319.732 1782.76 319.691 1782.91 319.759 1783.03C319.827 1783.15 319.978 1783.19 320.096 1783.12L322.426 1781.77V1783.09L321.273 1783.76C321.155 1783.83 321.115 1783.98 321.183 1784.1C321.251 1784.21 321.402 1784.26 321.52 1784.19L322.426 1783.67V1785.4C322.426 1785.53 322.536 1785.64 322.672 1785.64C322.808 1785.64 322.919 1785.53 322.919 1785.4V1783.66L323.826 1784.18C323.865 1784.2 323.907 1784.21 323.949 1784.21C324.035 1784.21 324.117 1784.17 324.163 1784.09C324.232 1783.97 324.191 1783.82 324.073 1783.75L322.919 1783.09V1781.77L325.249 1783.11C325.288 1783.14 325.331 1783.15 325.373 1783.15C325.458 1783.15 325.541 1783.1 325.587 1783.02C325.655 1782.9 325.615 1782.75 325.496 1782.68L322.92 1781.2V1779.14L324.811 1780.52L324.558 1778.19L326.341 1779.22V1782.2C326.341 1782.33 326.452 1782.44 326.588 1782.44C326.723 1782.44 326.834 1782.33 326.834 1782.2V1779.51L327.976 1780.17L327.977 1781.5C327.977 1781.63 328.088 1781.74 328.223 1781.74C328.359 1781.74 328.47 1781.63 328.47 1781.5L328.469 1780.45L329.974 1781.32C330.013 1781.34 330.055 1781.35 330.097 1781.35C330.183 1781.35 330.265 1781.31 330.311 1781.23C330.376 1781.11 330.335 1780.96 330.216 1780.89ZM324.197 1779.46L322.916 1778.52L322.67 1778.35L322.423 1778.53L321.143 1779.46L321.314 1777.88L321.347 1777.58L321.068 1777.46L319.616 1776.82L321.068 1776.18L321.347 1776.06L321.314 1775.75L321.143 1774.17L322.423 1775.11L322.669 1775.29L322.916 1775.11L324.197 1774.17L324.025 1775.75L323.992 1776.06L324.27 1776.18L325.722 1776.82L324.271 1777.46L323.992 1777.58L324.025 1777.88L324.197 1779.46Z" fill="#B0CDD7"/>
<path d="M215.696 3.71255H214.828L215.09 3.25939C215.124 3.2005 215.104 3.1251 215.045 3.09085C214.985 3.0566 214.91 3.07705 214.876 3.13619L214.543 3.71255H213.883L214.556 2.54726C214.59 2.48861 214.57 2.41296 214.51 2.37896C214.451 2.34495 214.376 2.36491 214.342 2.42405L213.598 3.71255H212.366L211.994 3.06842L212.61 2.00145H214.098C214.166 2.00145 214.221 1.94626 214.221 1.87825C214.221 1.81048 214.166 1.75504 214.098 1.75504H212.752L213.082 1.18361L213.747 1.18385C213.815 1.18385 213.871 1.12866 213.871 1.06065C213.871 0.992883 213.815 0.93744 213.747 0.93744L213.224 0.937194L213.658 0.18514C213.693 0.126247 213.672 0.0508442 213.613 0.0168392C213.554 -0.0176587 213.479 0.00254721 213.445 0.0619329L213.01 0.813987L212.749 0.360833C212.715 0.302186 212.639 0.281734 212.58 0.315739C212.521 0.349744 212.501 0.425146 212.535 0.484039L212.868 1.0604L212.538 1.63183L211.865 0.466544C211.831 0.407405 211.756 0.387199 211.697 0.421204C211.638 0.455455 211.618 0.530611 211.652 0.589751L212.396 1.878L211.78 2.94522H211.036L210.42 1.87825L211.164 0.589751C211.198 0.530858 211.178 0.455455 211.119 0.421204C211.06 0.387199 210.985 0.407405 210.951 0.466544L210.278 1.63183L209.948 1.0604L210.281 0.483793C210.315 0.425146 210.295 0.349497 210.236 0.315492C210.177 0.281241 210.101 0.301693 210.067 0.360586L209.806 0.813987L209.372 0.0616865C209.338 0.00254723 209.263 -0.0174123 209.204 0.0165928C209.145 0.0505978 209.125 0.125754 209.159 0.184893L209.593 0.936947H209.07C209.002 0.936947 208.947 0.99239 208.947 1.06015C208.947 1.12816 209.002 1.18336 209.07 1.18336H209.736L210.066 1.75479H208.72C208.652 1.75479 208.597 1.80999 208.597 1.878C208.597 1.94601 208.652 2.00121 208.72 2.00121H210.208L210.824 3.06842L210.452 3.71255H209.22L208.475 2.42405C208.441 2.36516 208.366 2.34495 208.307 2.37896C208.248 2.41296 208.228 2.48837 208.262 2.54726L208.935 3.71255H208.275L207.943 3.13643C207.909 3.0773 207.833 3.05734 207.774 3.09109C207.716 3.12535 207.695 3.2005 207.729 3.25964L207.991 3.71255H207.123C207.055 3.71255 207 3.76775 207 3.83576C207 3.90352 207.055 3.95896 207.123 3.95896H207.991L207.73 4.41236C207.696 4.47126 207.716 4.54666 207.775 4.58091C207.794 4.592 207.815 4.59717 207.836 4.59717C207.879 4.59717 207.92 4.575 207.943 4.53557L208.276 3.95896H208.936L208.263 5.12425C208.229 5.1829 208.249 5.25855 208.308 5.2928C208.328 5.30389 208.349 5.30906 208.37 5.30906C208.412 5.30906 208.454 5.28713 208.477 5.24746L209.221 3.95896H210.453L210.825 4.60259L210.209 5.66981H208.721C208.653 5.66981 208.598 5.72526 208.598 5.79302C208.598 5.86078 208.653 5.91623 208.721 5.91623H210.066L209.736 6.48766H209.071C209.003 6.48766 208.948 6.54286 208.948 6.61087C208.948 6.67863 209.003 6.73407 209.071 6.73407H209.594L209.16 7.48588C209.126 7.54453 209.146 7.62017 209.205 7.65443C209.225 7.66551 209.246 7.67069 209.267 7.67069C209.309 7.67069 209.351 7.64876 209.374 7.60909L209.808 6.85703L210.07 7.31043C210.092 7.35011 210.134 7.37204 210.177 7.37204C210.197 7.37204 210.219 7.36686 210.238 7.35577C210.297 7.32152 210.317 7.24637 210.283 7.18723L209.95 6.61062L210.28 6.03919L210.953 7.20448C210.976 7.24415 211.017 7.26608 211.06 7.26608C211.081 7.26608 211.102 7.2609 211.121 7.24982C211.18 7.21556 211.2 7.14065 211.166 7.08127L210.422 5.79277L211.038 4.72629H211.782L212.398 5.79302L211.654 7.08152C211.62 7.14041 211.64 7.21581 211.699 7.25006C211.718 7.26115 211.74 7.26633 211.761 7.26633C211.804 7.26633 211.845 7.24439 211.868 7.20472L212.54 6.03943L212.871 6.61087L212.538 7.18698C212.504 7.24563 212.524 7.32128 212.583 7.35553C212.603 7.36662 212.624 7.37179 212.645 7.37179C212.688 7.37179 212.729 7.34937 212.752 7.31019L213.014 6.85728L213.448 7.60933C213.471 7.64901 213.512 7.67094 213.555 7.67094C213.576 7.67094 213.597 7.66576 213.617 7.65467C213.675 7.62042 213.696 7.54551 213.662 7.48613L213.228 6.73358H213.751C213.819 6.73358 213.874 6.67838 213.874 6.61037C213.874 6.54261 213.819 6.48717 213.751 6.48717H213.085L212.755 5.91573L214.101 5.91598C214.169 5.91598 214.224 5.86054 214.224 5.79277C214.224 5.72501 214.169 5.66957 214.101 5.66957L212.613 5.66932L211.997 4.60259L212.369 3.95872H213.601L214.345 5.24746C214.368 5.28689 214.409 5.30906 214.452 5.30906C214.473 5.30906 214.494 5.30389 214.514 5.2928C214.572 5.25855 214.592 5.18339 214.559 5.12425L213.884 3.95896H214.545L214.878 4.53557C214.901 4.57524 214.942 4.59717 214.985 4.59717C215.006 4.59717 215.027 4.592 215.046 4.58091C215.106 4.54666 215.126 4.47175 215.092 4.41236L214.83 3.95896H215.698C215.766 3.95896 215.821 3.90352 215.821 3.83576C215.82 3.76775 215.764 3.71255 215.696 3.71255ZM212.082 3.95896L211.853 4.35667L211.781 4.47988H211.639H211.18H211.037L210.966 4.35667L210.737 3.95896L210.666 3.83576L210.737 3.71255L210.967 3.31484L211.038 3.19163H211.18H211.639H211.782L211.853 3.31484L212.082 3.71255L212.153 3.83576L212.082 3.95896Z" fill="#B0CDD7"/>
<path d="M42.454 1774.73L41.0847 1773.94L41.9097 1773.46C42.0164 1773.4 42.0532 1773.26 41.9922 1773.16C41.9294 1773.05 41.7927 1773.01 41.6855 1773.07L40.6372 1773.68L39.5969 1773.08L41.7173 1771.86C41.8245 1771.79 41.8613 1771.66 41.7998 1771.55C41.7375 1771.44 41.6003 1771.4 41.4931 1771.47L39.1481 1772.82L37.5254 1771.88L39.4768 1771.02L37.5245 1770.16L39.1472 1769.23L41.4927 1770.58C41.5281 1770.6 41.5667 1770.61 41.6048 1770.61C41.6828 1770.61 41.7581 1770.57 41.7998 1770.5C41.8622 1770.39 41.8254 1770.25 41.7173 1770.19L39.596 1768.97L40.6363 1768.37L41.6864 1768.97C41.7218 1768.99 41.7604 1769 41.7985 1769C41.8761 1769 41.9514 1768.96 41.9935 1768.89C42.0554 1768.78 42.0186 1768.65 41.911 1768.58L41.0856 1768.11L42.454 1767.32C42.5612 1767.25 42.5975 1767.12 42.5365 1767.01C42.4738 1766.9 42.3366 1766.87 42.2298 1766.93L40.8618 1767.72L40.8614 1766.77C40.8614 1766.64 40.7605 1766.54 40.6372 1766.54C40.5134 1766.54 40.413 1766.64 40.413 1766.77L40.4134 1767.98L39.3732 1768.58L39.3736 1766.13C39.3736 1766.01 39.2732 1765.91 39.1495 1765.91C39.0261 1765.91 38.9253 1766.01 38.9253 1766.13L38.9248 1768.84L37.3021 1769.77L37.533 1767.65L35.8121 1768.91V1767.04L38.1567 1765.68C38.2635 1765.62 38.3002 1765.49 38.2392 1765.38C38.1765 1765.27 38.0397 1765.23 37.9325 1765.3L35.8121 1766.52V1765.32L36.8609 1764.71C36.9681 1764.65 37.0048 1764.51 36.9434 1764.41C36.8806 1764.3 36.7439 1764.26 36.6367 1764.32L35.8121 1764.8V1763.22C35.8121 1763.1 35.7117 1763 35.588 1763C35.4642 1763 35.3638 1763.1 35.3638 1763.22V1764.8L34.5392 1764.33C34.4316 1764.26 34.2948 1764.3 34.2329 1764.41C34.1711 1764.52 34.2078 1764.65 34.315 1764.72L35.3638 1765.32V1766.52L33.2434 1765.3C33.1358 1765.24 32.999 1765.27 32.9371 1765.38C32.8752 1765.49 32.912 1765.63 33.0192 1765.69L35.3638 1767.04V1768.92L33.6433 1767.66L33.8738 1769.78L32.2502 1768.84V1766.13C32.2502 1766.01 32.1498 1765.91 32.026 1765.91C31.9023 1765.91 31.8018 1766.01 31.8018 1766.13V1768.58L30.7625 1767.98L30.762 1766.77C30.762 1766.65 30.6616 1766.55 30.5378 1766.55C30.4141 1766.55 30.3136 1766.65 30.3136 1766.77L30.3141 1767.72L28.9452 1766.93C28.838 1766.87 28.7008 1766.91 28.6389 1767.02C28.5771 1767.12 28.6138 1767.26 28.721 1767.32L30.0894 1768.11L29.2649 1768.59C29.1577 1768.65 29.1209 1768.79 29.1828 1768.89C29.2245 1768.97 29.2998 1769.01 29.3774 1769.01C29.4155 1769.01 29.4541 1769 29.4895 1768.98L30.5383 1768.37L31.5781 1768.97L29.4577 1770.2C29.3505 1770.26 29.3137 1770.39 29.3756 1770.5C29.4173 1770.57 29.4927 1770.61 29.5702 1770.61C29.6083 1770.61 29.6469 1770.61 29.6823 1770.58L32.0274 1769.23L33.6514 1770.17L31.7 1771.03L33.6509 1771.89L32.0274 1772.83L29.6819 1771.47C29.5738 1771.41 29.4375 1771.45 29.3756 1771.56C29.3137 1771.66 29.3505 1771.8 29.4577 1771.86L31.579 1773.09L30.5383 1773.69L29.49 1773.08C29.3828 1773.02 29.2456 1773.05 29.1837 1773.16C29.1218 1773.27 29.1586 1773.41 29.2658 1773.47L30.0899 1773.95L28.7223 1774.74C28.6152 1774.8 28.5784 1774.93 28.6403 1775.04C28.682 1775.11 28.7573 1775.15 28.8349 1775.15C28.873 1775.15 28.9115 1775.14 28.947 1775.13L30.315 1774.33L30.3154 1775.29C30.3154 1775.41 30.4159 1775.51 30.5396 1775.51C30.6634 1775.51 30.7638 1775.41 30.7638 1775.29L30.7634 1774.07L31.8045 1773.47L31.8036 1775.92C31.8036 1776.05 31.904 1776.15 32.0278 1776.15C32.1516 1776.15 32.252 1776.05 32.252 1775.92L32.2529 1773.21L33.8756 1772.28L33.6451 1774.4L35.3656 1773.14V1775.01L33.0214 1776.37C32.9143 1776.43 32.8775 1776.57 32.9394 1776.67C33.0012 1776.78 33.1384 1776.82 33.2456 1776.76L35.3656 1775.53V1776.73L34.3168 1777.34C34.2096 1777.4 34.1729 1777.54 34.2347 1777.65C34.2966 1777.75 34.4338 1777.79 34.541 1777.73L35.3656 1777.25V1778.83C35.3656 1778.95 35.466 1779.05 35.5897 1779.05C35.7135 1779.05 35.8139 1778.95 35.8139 1778.83V1777.25L36.6394 1777.72C36.6748 1777.74 36.7134 1777.75 36.7515 1777.75C36.8295 1777.75 36.9049 1777.71 36.9466 1777.64C37.0089 1777.53 36.9721 1777.4 36.8641 1777.33L35.8144 1776.73V1775.53L37.9348 1776.75C37.9702 1776.77 38.0088 1776.78 38.0469 1776.78C38.1249 1776.78 38.2002 1776.74 38.2419 1776.67C38.3043 1776.56 38.2675 1776.42 38.1594 1776.36L35.8148 1775.01V1773.13L37.5357 1774.39L37.3053 1772.27L38.9284 1773.21V1775.92C38.9284 1776.04 39.0288 1776.14 39.1526 1776.14C39.2759 1776.14 39.3768 1776.04 39.3768 1775.92V1773.47L40.4161 1774.07L40.4166 1775.28C40.4166 1775.4 40.5175 1775.5 40.6408 1775.5C40.7641 1775.5 40.865 1775.4 40.865 1775.28L40.8645 1774.33L42.2334 1775.12C42.2688 1775.14 42.3074 1775.15 42.3455 1775.15C42.4235 1775.15 42.4989 1775.11 42.5406 1775.04C42.5993 1774.93 42.5625 1774.79 42.454 1774.73ZM36.977 1773.43L35.8112 1772.58L35.5875 1772.41L35.3629 1772.58L34.198 1773.43L34.354 1771.99L34.3841 1771.72L34.1298 1771.61L32.8093 1771.02L34.1303 1770.44L34.3841 1770.33L34.354 1770.05L34.198 1768.62L35.3629 1769.47L35.5871 1769.63L35.8112 1769.47L36.977 1768.62L36.8206 1770.05L36.791 1770.33L37.0439 1770.44L38.3648 1771.02L37.0447 1771.61L36.791 1771.72L36.8206 1771.99L36.977 1773.43Z" fill="#B0CDD7"/>
</svg>
