<svg width="82" height="20" viewBox="0 0 82 20" fill="none" xmlns="http://www.w3.org/2000/svg">
<path d="M21.412 7.08789H29.6537V8.62217H26.4086V17.2712H24.6299V8.62217H21.3984L21.412 7.08789ZM29.3007 9.89848H30.8214V11.3241H30.8485C30.9029 11.1205 30.9979 10.9304 31.1337 10.7403C31.2695 10.5502 31.4324 10.3737 31.6361 10.2243C31.8261 10.0614 32.0434 9.93921 32.2878 9.84417C32.5186 9.74913 32.763 9.69481 33.0074 9.69481C33.1975 9.69481 33.3333 9.70839 33.4012 9.70839C33.469 9.72197 33.5505 9.73555 33.6184 9.73555V11.297C33.5098 11.2698 33.3876 11.2563 33.2654 11.2427C33.1432 11.2291 33.0346 11.2155 32.9124 11.2155C32.6408 11.2155 32.3828 11.2698 32.1384 11.3785C31.894 11.4871 31.6904 11.65 31.5003 11.8537C31.3238 12.0709 31.1744 12.3289 31.0658 12.6412C30.9572 12.9535 30.9029 13.3201 30.9029 13.7274V17.2305H29.2735L29.3007 9.89848ZM41.0862 17.2712H39.484V16.2393H39.4568C39.2532 16.6195 38.9545 16.9046 38.5607 17.1354C38.1669 17.3662 37.7596 17.4749 37.3523 17.4749C36.3883 17.4749 35.6822 17.244 35.2477 16.7552C34.8132 16.28 34.596 15.5468 34.596 14.5828V9.89848H36.2253V14.4199C36.2253 15.0716 36.3475 15.5332 36.6055 15.7912C36.8499 16.0628 37.2029 16.1986 37.651 16.1986C37.9904 16.1986 38.2756 16.1442 38.5064 16.0356C38.7372 15.927 38.9273 15.7912 39.0631 15.6147C39.2124 15.4382 39.3075 15.221 39.3754 14.9766C39.4433 14.7322 39.4704 14.4606 39.4704 14.1755V9.89848H41.0997V17.2712H41.0862ZM43.856 14.9087C43.9103 15.3839 44.0868 15.7098 44.3991 15.9134C44.7114 16.1035 45.0916 16.1986 45.5261 16.1986C45.6754 16.1986 45.8519 16.185 46.042 16.1578C46.2321 16.1307 46.4222 16.0899 46.5851 16.022C46.7617 15.9542 46.8974 15.8591 47.0061 15.7233C47.1147 15.5876 47.169 15.4246 47.1554 15.221C47.1418 15.0173 47.0739 14.8408 46.9246 14.705C46.7752 14.5692 46.5987 14.4742 46.3815 14.3791C46.1642 14.2977 45.9063 14.2298 45.6211 14.1755C45.336 14.1212 45.0509 14.0533 44.7521 13.9854C44.4534 13.9175 44.1547 13.836 43.8696 13.741C43.5845 13.6459 43.3401 13.5237 43.1092 13.3472C42.892 13.1843 42.7019 12.9806 42.5797 12.7227C42.4439 12.4647 42.376 12.166 42.376 11.7858C42.376 11.3785 42.4711 11.0526 42.6748 10.781C42.8648 10.5095 43.1228 10.2922 43.4215 10.1293C43.7202 9.96637 44.0597 9.84417 44.4263 9.77628C44.7929 9.70839 45.1459 9.68124 45.4718 9.68124C45.8519 9.68124 46.2185 9.72197 46.558 9.80344C46.8974 9.88491 47.2233 10.0071 47.4949 10.1972C47.78 10.3737 48.0108 10.6181 48.1873 10.9032C48.3774 11.1884 48.486 11.5414 48.5403 11.9487H46.8431C46.7617 11.555 46.5851 11.297 46.3136 11.1612C46.0285 11.0254 45.7162 10.9575 45.3496 10.9575C45.2409 10.9575 45.0916 10.9711 44.9422 10.9847C44.7793 11.0119 44.6435 11.039 44.4942 11.0933C44.3584 11.1476 44.2362 11.2291 44.1412 11.3241C44.0461 11.4192 43.9918 11.555 43.9918 11.7179C43.9918 11.9216 44.0597 12.0709 44.1955 12.1931C44.3312 12.3153 44.5077 12.4104 44.7386 12.5054C44.9558 12.5869 45.2138 12.6548 45.4989 12.7091C45.7841 12.7634 46.0828 12.8313 46.3815 12.8992C46.6802 12.9671 46.9653 13.0485 47.2505 13.1436C47.5356 13.2386 47.7936 13.3608 48.0108 13.5373C48.2281 13.7003 48.4181 13.9039 48.5539 14.1483C48.6897 14.3927 48.7576 14.705 48.7576 15.058C48.7576 15.4925 48.6625 15.8591 48.4589 16.1714C48.2552 16.4701 47.9972 16.7281 47.6849 16.9182C47.3727 17.1083 47.0061 17.244 46.6259 17.3391C46.2321 17.4206 45.8519 17.4749 45.4718 17.4749C45.0101 17.4749 44.5756 17.4205 44.1819 17.3119C43.7881 17.2033 43.4351 17.0404 43.15 16.8367C42.8648 16.6195 42.634 16.3615 42.4711 16.0356C42.3082 15.7233 42.2131 15.3432 42.1995 14.8951H43.8424V14.9087H43.856ZM49.2192 9.89848H50.4548V7.67173H52.0841V9.8849H53.5505V11.0933H52.0841V15.0309C52.0841 15.2074 52.0977 15.3432 52.1113 15.4789C52.1249 15.6011 52.1656 15.7098 52.2063 15.7912C52.2606 15.8727 52.3421 15.9406 52.4372 15.9813C52.5458 16.022 52.6815 16.0492 52.8716 16.0492C52.9803 16.0492 53.1025 16.0492 53.2111 16.0356C53.3197 16.022 53.4419 16.0085 53.5505 15.9813V17.244C53.374 17.2712 53.1975 17.2848 53.021 17.2983C52.8445 17.3255 52.6816 17.3255 52.4915 17.3255C52.057 17.3255 51.7175 17.2848 51.4596 17.2033C51.2016 17.1218 50.9979 16.9996 50.8486 16.8503C50.6992 16.6874 50.6042 16.4973 50.5498 16.2664C50.4955 16.0356 50.4684 15.7505 50.4548 15.4518V11.1069H49.2192V9.87133V9.89848ZM54.6911 9.89848H56.2253V10.9032H56.2525C56.4833 10.4687 56.7956 10.17 57.2029 9.97995C57.6103 9.78986 58.0448 9.69481 58.5336 9.69481C59.1174 9.69481 59.6198 9.78986 60.0543 10.0071C60.4887 10.2108 60.8418 10.4823 61.1269 10.8489C61.412 11.2019 61.6293 11.6229 61.7651 12.0981C61.9008 12.5733 61.9823 13.0892 61.9823 13.6188C61.9823 14.1212 61.9144 14.5964 61.7922 15.058C61.6564 15.5197 61.4663 15.9406 61.2084 16.2936C60.9504 16.6466 60.6245 16.9317 60.2172 17.149C59.8099 17.3662 59.3482 17.4749 58.8051 17.4749C58.5743 17.4749 58.3299 17.4477 58.0991 17.407C57.8682 17.3662 57.6374 17.2984 57.4202 17.2033C57.2029 17.1083 56.9993 16.9861 56.8228 16.8367C56.6327 16.6874 56.4833 16.5108 56.3611 16.3208H56.334V20.0003H54.7046V9.89848H54.6911ZM60.3801 13.5916C60.3801 13.2658 60.3394 12.9399 60.2444 12.6276C60.1629 12.3153 60.0271 12.0438 59.8506 11.7994C59.6741 11.555 59.4568 11.3649 59.2124 11.2155C58.9545 11.0662 58.6558 10.9983 58.3299 10.9983C57.651 10.9983 57.135 11.2291 56.782 11.7043C56.4426 12.1795 56.2661 12.8177 56.2661 13.6052C56.2661 13.9854 56.3068 14.3248 56.4018 14.6371C56.4969 14.9494 56.6191 15.221 56.8092 15.4518C56.9857 15.6826 57.2029 15.8591 57.4609 15.9949C57.7189 16.1307 58.004 16.1986 58.3435 16.1986C58.7236 16.1986 59.0224 16.1171 59.2803 15.9677C59.5383 15.8184 59.742 15.6147 59.9185 15.3839C60.0814 15.1395 60.2036 14.8679 60.2715 14.5556C60.3394 14.2298 60.3801 13.9175 60.3801 13.5916ZM63.245 7.08789H64.8744V8.62217H63.245V7.08789ZM63.245 9.89848H64.8744V17.2712H63.245V9.89848ZM66.3272 7.08789H67.9565V17.2712H66.3272V7.08789ZM72.926 17.4749C72.3421 17.4749 71.8126 17.3798 71.3509 17.1761C70.8893 16.9725 70.5091 16.7145 70.1833 16.3751C69.871 16.0356 69.6266 15.6147 69.4636 15.1395C69.3007 14.6643 69.2057 14.1347 69.2057 13.578C69.2057 13.0214 69.2871 12.5054 69.4636 12.0302C69.6266 11.555 69.871 11.1476 70.1833 10.7946C70.4955 10.4552 70.8893 10.1836 71.3509 9.99353C71.8126 9.80344 72.3421 9.69481 72.926 9.69481C73.5098 9.69481 74.0393 9.78986 74.501 9.99353C74.9626 10.1836 75.3428 10.4552 75.6687 10.7946C75.9809 11.1341 76.2253 11.555 76.3883 12.0302C76.5512 12.5054 76.6463 13.0214 76.6463 13.578C76.6463 14.1483 76.5648 14.6643 76.3883 15.1395C76.2118 15.6147 75.9809 16.022 75.6687 16.3751C75.3564 16.7145 74.9626 16.9861 74.501 17.1761C74.0393 17.3662 73.5234 17.4749 72.926 17.4749ZM72.926 16.185C73.279 16.185 73.6048 16.1035 73.8628 15.9542C74.1344 15.8048 74.338 15.6011 74.5146 15.3567C74.6911 15.1123 74.8133 14.8272 74.8947 14.5285C74.9762 14.2162 75.0169 13.9039 75.0169 13.578C75.0169 13.2658 74.9762 12.9535 74.8947 12.6412C74.8133 12.3289 74.6911 12.0573 74.5146 11.8129C74.338 11.5685 74.1208 11.3785 73.8628 11.2291C73.5913 11.0797 73.279 10.9983 72.926 10.9983C72.5729 10.9983 72.2471 11.0797 71.9891 11.2291C71.7175 11.3785 71.5139 11.5821 71.3374 11.8129C71.1609 12.0573 71.0387 12.3289 70.9572 12.6412C70.8757 12.9535 70.835 13.2658 70.835 13.578C70.835 13.9039 70.8757 14.2162 70.9572 14.5285C71.0387 14.8408 71.1609 15.1123 71.3374 15.3567C71.5139 15.6011 71.7311 15.8048 71.9891 15.9542C72.2607 16.1171 72.5729 16.185 72.926 16.185ZM77.1351 9.89848H78.3706V7.67173H80V9.8849H81.4664V11.0933H80V15.0309C80 15.2074 80.0135 15.3432 80.0271 15.4789C80.0407 15.6011 80.0814 15.7098 80.1222 15.7912C80.1765 15.8727 80.2579 15.9406 80.353 15.9813C80.4616 16.022 80.5974 16.0492 80.7875 16.0492C80.8961 16.0492 81.0183 16.0492 81.1269 16.0356C81.2355 16.022 81.3577 16.0085 81.4664 15.9813V17.244C81.2898 17.2712 81.1133 17.2848 80.9368 17.2983C80.7603 17.3255 80.5974 17.3255 80.4073 17.3255C79.9728 17.3255 79.6334 17.2848 79.3754 17.2033C79.1174 17.1218 78.9137 16.9996 78.7644 16.8503C78.615 16.6874 78.52 16.4973 78.4657 16.2664C78.4114 16.0356 78.3842 15.7505 78.3706 15.4518V11.1069H77.1351V9.87133V9.89848Z" fill="#5B6873"/>
<path d="M19.5112 7.08758H12.057L9.76239 0L7.45418 7.08758L0 7.074L6.02852 11.4596L3.7203 18.5472L9.74882 14.1616L15.7773 18.5472L13.4827 11.4596L19.5112 7.08758Z" fill="#00B67A"/>
<path d="M13.9987 13.0621L13.4828 11.46L9.76245 14.1619L13.9987 13.0621Z" fill="#005128"/>
</svg>
