<svg width="82" height="20" viewBox="0 0 82 20" fill="none" xmlns="http://www.w3.org/2000/svg">
<path d="M21.412 7.08759H29.6537V8.62187H26.4086V17.2709H24.6299V8.62187H21.3984L21.412 7.08759ZM29.3007 9.89818H30.8214V11.3238H30.8485C30.9029 11.1202 30.9979 10.9301 31.1337 10.74C31.2695 10.5499 31.4324 10.3734 31.6361 10.224C31.8261 10.0611 32.0434 9.93891 32.2878 9.84386C32.5186 9.74882 32.763 9.69451 33.0074 9.69451C33.1975 9.69451 33.3333 9.70809 33.4012 9.70809C33.469 9.72167 33.5505 9.73524 33.6184 9.73524V11.2967C33.5098 11.2695 33.3876 11.2559 33.2654 11.2424C33.1432 11.2288 33.0346 11.2152 32.9124 11.2152C32.6408 11.2152 32.3828 11.2695 32.1384 11.3781C31.894 11.4868 31.6904 11.6497 31.5003 11.8534C31.3238 12.0706 31.1744 12.3286 31.0658 12.6409C30.9572 12.9532 30.9029 13.3198 30.9029 13.7271V17.2302H29.2735L29.3007 9.89818ZM41.0862 17.2709H39.484V16.239H39.4568C39.2532 16.6192 38.9545 16.9043 38.5607 17.1351C38.1669 17.3659 37.7596 17.4746 37.3523 17.4746C36.3883 17.4746 35.6822 17.2437 35.2477 16.7549C34.8132 16.2797 34.596 15.5465 34.596 14.5825V9.89818H36.2253V14.4196C36.2253 15.0713 36.3475 15.5329 36.6055 15.7909C36.8499 16.0625 37.2029 16.1982 37.651 16.1982C37.9904 16.1982 38.2756 16.1439 38.5064 16.0353C38.7372 15.9267 38.9273 15.7909 39.0631 15.6144C39.2124 15.4379 39.3075 15.2206 39.3754 14.9762C39.4433 14.7318 39.4704 14.4603 39.4704 14.1752V9.89818H41.0997V17.2709H41.0862ZM43.856 14.9084C43.9103 15.3836 44.0868 15.7095 44.3991 15.9131C44.7114 16.1032 45.0916 16.1982 45.5261 16.1982C45.6754 16.1982 45.8519 16.1847 46.042 16.1575C46.2321 16.1304 46.4222 16.0896 46.5851 16.0217C46.7617 15.9538 46.8974 15.8588 47.0061 15.723C47.1147 15.5872 47.169 15.4243 47.1554 15.2207C47.1418 15.017 47.0739 14.8405 46.9246 14.7047C46.7752 14.5689 46.5987 14.4739 46.3815 14.3788C46.1642 14.2974 45.9063 14.2295 45.6211 14.1752C45.336 14.1209 45.0509 14.053 44.7521 13.9851C44.4534 13.9172 44.1547 13.8357 43.8696 13.7407C43.5845 13.6456 43.3401 13.5234 43.1092 13.3469C42.892 13.184 42.7019 12.9803 42.5797 12.7223C42.4439 12.4644 42.376 12.1657 42.376 11.7855C42.376 11.3781 42.4711 11.0523 42.6748 10.7807C42.8648 10.5092 43.1228 10.2919 43.4215 10.129C43.7202 9.96607 44.0597 9.84386 44.4263 9.77598C44.7929 9.70809 45.1459 9.68093 45.4718 9.68093C45.8519 9.68093 46.2185 9.72167 46.558 9.80313C46.8974 9.8846 47.2233 10.0068 47.4949 10.1969C47.78 10.3734 48.0108 10.6178 48.1873 10.9029C48.3774 11.1881 48.486 11.5411 48.5403 11.9484H46.8431C46.7617 11.5547 46.5851 11.2967 46.3136 11.1609C46.0285 11.0251 45.7162 10.9572 45.3496 10.9572C45.2409 10.9572 45.0916 10.9708 44.9422 10.9844C44.7793 11.0115 44.6435 11.0387 44.4942 11.093C44.3584 11.1473 44.2362 11.2288 44.1412 11.3238C44.0461 11.4189 43.9918 11.5547 43.9918 11.7176C43.9918 11.9213 44.0597 12.0706 44.1955 12.1928C44.3312 12.315 44.5077 12.4101 44.7386 12.5051C44.9558 12.5866 45.2138 12.6545 45.4989 12.7088C45.7841 12.7631 46.0828 12.831 46.3815 12.8989C46.6802 12.9667 46.9653 13.0482 47.2505 13.1433C47.5356 13.2383 47.7936 13.3605 48.0108 13.537C48.2281 13.6999 48.4181 13.9036 48.5539 14.148C48.6897 14.3924 48.7576 14.7047 48.7576 15.0577C48.7576 15.4922 48.6625 15.8588 48.4589 16.1711C48.2552 16.4698 47.9972 16.7278 47.6849 16.9179C47.3727 17.108 47.0061 17.2437 46.6259 17.3388C46.2321 17.4202 45.8519 17.4746 45.4718 17.4746C45.0101 17.4746 44.5756 17.4202 44.1819 17.3116C43.7881 17.203 43.4351 17.0401 43.15 16.8364C42.8648 16.6192 42.634 16.3612 42.4711 16.0353C42.3082 15.723 42.2131 15.3429 42.1995 14.8948H43.8424V14.9084H43.856ZM49.2192 9.89818H50.4548V7.67143H52.0841V9.8846H53.5505V11.093H52.0841V15.0306C52.0841 15.2071 52.0977 15.3428 52.1113 15.4786C52.1249 15.6008 52.1656 15.7094 52.2063 15.7909C52.2606 15.8724 52.3421 15.9403 52.4372 15.981C52.5458 16.0217 52.6815 16.0489 52.8716 16.0489C52.9803 16.0489 53.1025 16.0489 53.2111 16.0353C53.3197 16.0217 53.4419 16.0082 53.5505 15.981V17.2437C53.374 17.2709 53.1975 17.2845 53.021 17.298C52.8445 17.3252 52.6816 17.3252 52.4915 17.3252C52.057 17.3252 51.7175 17.2845 51.4596 17.203C51.2016 17.1215 50.9979 16.9993 50.8486 16.85C50.6992 16.687 50.6042 16.497 50.5498 16.2661C50.4955 16.0353 50.4684 15.7502 50.4548 15.4515V11.1066H49.2192V9.87102V9.89818ZM54.6911 9.89818H56.2253V10.9029H56.2525C56.4833 10.4684 56.7956 10.1697 57.2029 9.97964C57.6103 9.78955 58.0448 9.69451 58.5336 9.69451C59.1174 9.69451 59.6198 9.78956 60.0543 10.0068C60.4887 10.2105 60.8418 10.482 61.1269 10.8486C61.412 11.2016 61.6293 11.6225 61.7651 12.0978C61.9008 12.573 61.9823 13.0889 61.9823 13.6185C61.9823 14.1209 61.9144 14.5961 61.7922 15.0577C61.6564 15.5194 61.4663 15.9403 61.2084 16.2933C60.9504 16.6463 60.6245 16.9314 60.2172 17.1487C59.8099 17.3659 59.3482 17.4746 58.8051 17.4746C58.5743 17.4746 58.3299 17.4474 58.0991 17.4067C57.8682 17.3659 57.6374 17.298 57.4202 17.203C57.2029 17.108 56.9993 16.9858 56.8228 16.8364C56.6327 16.687 56.4833 16.5105 56.3611 16.3204H56.334V20H54.7046V9.89818H54.6911ZM60.3801 13.5913C60.3801 13.2655 60.3394 12.9396 60.2444 12.6273C60.1629 12.315 60.0271 12.0435 59.8506 11.7991C59.6741 11.5547 59.4568 11.3646 59.2124 11.2152C58.9545 11.0659 58.6558 10.998 58.3299 10.998C57.651 10.998 57.135 11.2288 56.782 11.704C56.4426 12.1792 56.2661 12.8174 56.2661 13.6049C56.2661 13.9851 56.3068 14.3245 56.4018 14.6368C56.4969 14.9491 56.6191 15.2206 56.8092 15.4515C56.9857 15.6823 57.2029 15.8588 57.4609 15.9946C57.7189 16.1304 58.004 16.1982 58.3435 16.1982C58.7236 16.1982 59.0224 16.1168 59.2803 15.9674C59.5383 15.8181 59.742 15.6144 59.9185 15.3836C60.0814 15.1392 60.2036 14.8676 60.2715 14.5553C60.3394 14.2295 60.3801 13.9172 60.3801 13.5913ZM63.245 7.08759H64.8744V8.62187H63.245V7.08759ZM63.245 9.89818H64.8744V17.2709H63.245V9.89818ZM66.3272 7.08759H67.9565V17.2709H66.3272V7.08759ZM72.926 17.4746C72.3421 17.4746 71.8126 17.3795 71.3509 17.1758C70.8893 16.9722 70.5091 16.7142 70.1833 16.3748C69.871 16.0353 69.6266 15.6144 69.4636 15.1392C69.3007 14.664 69.2057 14.1344 69.2057 13.5777C69.2057 13.0211 69.2871 12.5051 69.4636 12.0299C69.6266 11.5547 69.871 11.1473 70.1833 10.7943C70.4955 10.4549 70.8893 10.1833 71.3509 9.99322C71.8126 9.80313 72.3421 9.69451 72.926 9.69451C73.5098 9.69451 74.0393 9.78955 74.501 9.99322C74.9626 10.1833 75.3428 10.4549 75.6687 10.7943C75.9809 11.1338 76.2253 11.5547 76.3883 12.0299C76.5512 12.5051 76.6463 13.0211 76.6463 13.5777C76.6463 14.148 76.5648 14.664 76.3883 15.1392C76.2118 15.6144 75.9809 16.0217 75.6687 16.3748C75.3564 16.7142 74.9626 16.9858 74.501 17.1758C74.0393 17.3659 73.5234 17.4746 72.926 17.4746ZM72.926 16.1847C73.279 16.1847 73.6048 16.1032 73.8628 15.9538C74.1344 15.8045 74.338 15.6008 74.5146 15.3564C74.6911 15.112 74.8133 14.8269 74.8947 14.5282C74.9762 14.2159 75.0169 13.9036 75.0169 13.5777C75.0169 13.2655 74.9762 12.9532 74.8947 12.6409C74.8133 12.3286 74.6911 12.057 74.5146 11.8126C74.338 11.5682 74.1208 11.3782 73.8628 11.2288C73.5913 11.0794 73.279 10.998 72.926 10.998C72.5729 10.998 72.2471 11.0794 71.9891 11.2288C71.7175 11.3782 71.5139 11.5818 71.3374 11.8126C71.1609 12.057 71.0387 12.3286 70.9572 12.6409C70.8757 12.9532 70.835 13.2655 70.835 13.5777C70.835 13.9036 70.8757 14.2159 70.9572 14.5282C71.0387 14.8405 71.1609 15.112 71.3374 15.3564C71.5139 15.6008 71.7311 15.8045 71.9891 15.9538C72.2607 16.1168 72.5729 16.1847 72.926 16.1847ZM77.1351 9.89818H78.3706V7.67143H80V9.8846H81.4664V11.093H80V15.0306C80 15.2071 80.0135 15.3428 80.0271 15.4786C80.0407 15.6008 80.0814 15.7094 80.1222 15.7909C80.1765 15.8724 80.2579 15.9403 80.353 15.981C80.4616 16.0217 80.5974 16.0489 80.7875 16.0489C80.8961 16.0489 81.0183 16.0489 81.1269 16.0353C81.2355 16.0217 81.3577 16.0082 81.4664 15.981V17.2437C81.2898 17.2709 81.1133 17.2845 80.9368 17.298C80.7603 17.3252 80.5974 17.3252 80.4073 17.3252C79.9728 17.3252 79.6334 17.2845 79.3754 17.203C79.1174 17.1215 78.9137 16.9993 78.7644 16.85C78.615 16.687 78.52 16.497 78.4657 16.2661C78.4114 16.0353 78.3842 15.7502 78.3706 15.4515V11.1066H77.1351V9.87102V9.89818Z" fill="white"/>
<path d="M19.5112 7.08758H12.057L9.76239 0L7.45418 7.08758L0 7.074L6.02852 11.4596L3.7203 18.5472L9.74882 14.1616L15.7773 18.5472L13.4827 11.4596L19.5112 7.08758Z" fill="#00B67A"/>
<path d="M13.9987 13.0618L13.4828 11.4596L9.76245 14.1616L13.9987 13.0618Z" fill="#005128"/>
</svg>
