<svg width="143" height="29" viewBox="0 0 143 29" fill="none" xmlns="http://www.w3.org/2000/svg">
<g style="mix-blend-mode:lighten">
<circle r="7" transform="matrix(-1 0 0 1 13.1196 11)" fill="#DEF7FF"/>
</g>
<g style="mix-blend-mode:lighten">
<circle r="5.5" transform="matrix(-0.973073 -0.230495 -0.230495 0.973073 6.61963 14.5002)" fill="#DEF7FF"/>
</g>
<g style="mix-blend-mode:lighten">
<circle r="10" transform="matrix(-1 0 0 1 25.1196 12)" fill="#DEF7FF"/>
</g>
<g style="mix-blend-mode:lighten">
<circle r="5" transform="matrix(-1 0 0 1 34.1196 10)" fill="#DEF7FF"/>
</g>
<g style="mix-blend-mode:lighten">
<circle r="11" transform="matrix(-1 0 0 1 44.1196 16)" fill="#DEF7FF"/>
</g>
<g style="mix-blend-mode:lighten">
<circle r="13.5" transform="matrix(-1 0 0 1 65.6196 13.5)" fill="#DEF7FF"/>
</g>
<g style="mix-blend-mode:lighten">
<circle r="11" transform="matrix(-1 0 0 1 82.1196 18)" fill="#DEF7FF"/>
</g>
<g style="mix-blend-mode:lighten">
<circle r="7.5" transform="matrix(-1 0 0 1 93.6196 11.5)" fill="#DEF7FF"/>
</g>
<g style="mix-blend-mode:lighten">
<circle r="8" transform="matrix(-1 0 0 1 106.12 17)" fill="#DEF7FF"/>
</g>
<g style="mix-blend-mode:lighten">
<circle r="7" transform="matrix(-1 0 0 1 116.12 14)" fill="#DEF7FF"/>
</g>
<g style="mix-blend-mode:lighten">
<circle r="5" transform="matrix(-1 0 0 1 123.12 15)" fill="#DEF7FF"/>
</g>
<g style="mix-blend-mode:lighten">
<circle r="5" transform="matrix(-1 0 0 1 131.12 15)" fill="#DEF7FF"/>
</g>
<g style="mix-blend-mode:lighten">
<circle r="5" transform="matrix(-1 0 0 1 137.12 18)" fill="#DEF7FF"/>
</g>
</svg>
