<svg width="121" height="27" viewBox="0 0 121 27" fill="none" xmlns="http://www.w3.org/2000/svg">
<g style="mix-blend-mode:lighten">
<circle r="7" transform="matrix(-1 0 0 1 39.1196 14)" fill="#DEF7FF"/>
</g>
<g style="mix-blend-mode:lighten">
<circle r="5.5" transform="matrix(-0.973073 -0.230495 -0.230495 0.973073 32.6196 17.5)" fill="#DEF7FF"/>
</g>
<g style="mix-blend-mode:lighten">
<circle r="11" transform="matrix(-1 0 0 1 51 11)" fill="#DEF7FF"/>
</g>
<g style="mix-blend-mode:lighten">
<circle r="7.5" transform="matrix(-1 0 0 1 62.6196 13.5)" fill="#DEF7FF"/>
</g>
<g style="mix-blend-mode:lighten">
<circle r="8" transform="matrix(-1 0 0 1 75.1196 19)" fill="#DEF7FF"/>
</g>
<g style="mix-blend-mode:lighten">
<circle r="7" transform="matrix(-1 0 0 1 85.1196 16)" fill="#DEF7FF"/>
</g>
<g style="mix-blend-mode:lighten">
<circle r="5.5" transform="matrix(-1 0 0 1 12.5 16.5)" fill="#DEF7FF"/>
</g>
<g style="mix-blend-mode:lighten">
<circle r="4.5" transform="matrix(-1 0 0 1 4.5 19.5)" fill="#DEF7FF"/>
</g>
<g style="mix-blend-mode:lighten">
<circle r="5" transform="matrix(-1 0 0 1 92.1196 17)" fill="#DEF7FF"/>
</g>
<g style="mix-blend-mode:lighten">
<circle r="5" transform="matrix(-1 0 0 1 100.12 17)" fill="#DEF7FF"/>
</g>
<g style="mix-blend-mode:lighten">
<circle r="7.5" transform="matrix(-1 0 0 1 21.5 14.5)" fill="#DEF7FF"/>
</g>
<g style="mix-blend-mode:lighten">
<circle r="5" transform="matrix(-1 0 0 1 106.12 20)" fill="#DEF7FF"/>
</g>
<g style="mix-blend-mode:lighten">
<circle r="4" transform="matrix(-1 0 0 1 113 18)" fill="#DEF7FF"/>
</g>
<g style="mix-blend-mode:lighten">
<circle r="3" transform="matrix(-1 0 0 1 118 19)" fill="#DEF7FF"/>
</g>
</svg>
