<svg width="85" height="22" viewBox="0 0 85 22" fill="none" xmlns="http://www.w3.org/2000/svg">
<g style="mix-blend-mode:lighten">
<circle r="7" transform="matrix(-1 0 0 1 18.1196 11)" fill="#DEF7FF"/>
</g>
<g style="mix-blend-mode:lighten">
<circle r="5.5" transform="matrix(-0.973073 -0.230495 -0.230495 0.973073 11.6196 14.5)" fill="#DEF7FF"/>
</g>
<g style="mix-blend-mode:lighten">
<circle r="7.5" transform="matrix(-1 0 0 1 26.6196 7.5)" fill="#DEF7FF"/>
</g>
<g style="mix-blend-mode:lighten">
<circle r="8" transform="matrix(-1 0 0 1 39.1196 13)" fill="#DEF7FF"/>
</g>
<g style="mix-blend-mode:lighten">
<circle r="7" transform="matrix(-1 0 0 1 49.1196 10)" fill="#DEF7FF"/>
</g>
<g style="mix-blend-mode:lighten">
<circle r="4.5" transform="matrix(-1 0 0 1 4.5 13.5)" fill="#DEF7FF"/>
</g>
<g style="mix-blend-mode:lighten">
<circle r="5" transform="matrix(-1 0 0 1 56.1196 11)" fill="#DEF7FF"/>
</g>
<g style="mix-blend-mode:lighten">
<circle r="5" transform="matrix(-1 0 0 1 64.1196 11)" fill="#DEF7FF"/>
</g>
<g style="mix-blend-mode:lighten">
<circle r="5" transform="matrix(-1 0 0 1 70.1196 14)" fill="#DEF7FF"/>
</g>
<g style="mix-blend-mode:lighten">
<circle r="4" transform="matrix(-1 0 0 1 77 12)" fill="#DEF7FF"/>
</g>
<g style="mix-blend-mode:lighten">
<circle r="3" transform="matrix(-1 0 0 1 82 13)" fill="#DEF7FF"/>
</g>
</svg>
