<svg width="86" height="27" viewBox="0 0 86 27" fill="none" xmlns="http://www.w3.org/2000/svg">
<g style="mix-blend-mode:lighten">
<circle r="7" transform="matrix(-1 0 0 1 13.1196 14)" fill="#DEF7FF"/>
</g>
<g style="mix-blend-mode:lighten">
<circle r="5.5" transform="matrix(-0.973073 -0.230495 -0.230495 0.973073 6.61963 17.5002)" fill="#DEF7FF"/>
</g>
<g style="mix-blend-mode:lighten">
<circle r="11" transform="matrix(-1 0 0 1 25 11)" fill="#DEF7FF"/>
</g>
<g style="mix-blend-mode:lighten">
<circle r="7.5" transform="matrix(-1 0 0 1 36.6196 13.5)" fill="#DEF7FF"/>
</g>
<g style="mix-blend-mode:lighten">
<circle r="8" transform="matrix(-1 0 0 1 49.1196 19)" fill="#DEF7FF"/>
</g>
<g style="mix-blend-mode:lighten">
<circle r="7" transform="matrix(-1 0 0 1 59.1196 16)" fill="#DEF7FF"/>
</g>
<g style="mix-blend-mode:lighten">
<circle r="5" transform="matrix(-1 0 0 1 66.1196 17)" fill="#DEF7FF"/>
</g>
<g style="mix-blend-mode:lighten">
<circle r="5" transform="matrix(-1 0 0 1 74.1196 17)" fill="#DEF7FF"/>
</g>
<g style="mix-blend-mode:lighten">
<circle r="5" transform="matrix(-1 0 0 1 80.1196 20)" fill="#DEF7FF"/>
</g>
</svg>
