<svg width="108" height="48" viewBox="0 0 108 48" fill="none" xmlns="http://www.w3.org/2000/svg">
<g style="mix-blend-mode:lighten">
<circle r="8.13559" transform="matrix(-1 0 0 1 -3.2374 8.13559)" fill="#DEF7FF"/>
</g>
<g style="mix-blend-mode:lighten">
<rect x="62.6611" y="13.8301" width="6.50847" height="13.0169" rx="3.25424" transform="rotate(-90 62.6611 13.8301)" fill="#DEF7FF"/>
</g>
<g style="mix-blend-mode:lighten">
<circle r="6.50847" transform="matrix(-1 0 0 1 4.89826 11.3898)" fill="#DEF7FF"/>
</g>
<g style="mix-blend-mode:lighten">
<circle r="4.88136" transform="matrix(-1 0 0 1 13.0339 9.7627)" fill="#DEF7FF"/>
</g>
<g style="mix-blend-mode:lighten">
<circle r="8.94915" transform="matrix(-1 0 0 1 22.7965 13.017)" fill="#DEF7FF"/>
</g>
<g style="mix-blend-mode:lighten">
<circle r="10.9831" transform="matrix(-1 0 0 1 40.2879 10.9831)" fill="#DEF7FF"/>
</g>
<g style="mix-blend-mode:lighten">
<circle r="8.94915" transform="matrix(-1 0 0 1 53.712 14.644)" fill="#DEF7FF"/>
</g>
<g style="mix-blend-mode:lighten">
<circle r="6.10169" transform="matrix(-1 0 0 1 63.0677 9.35609)" fill="#DEF7FF"/>
</g>
<g style="mix-blend-mode:lighten">
<circle r="6.50847" transform="matrix(-1 0 0 1 76.4915 15.4577)" fill="#DEF7FF"/>
</g>
<g style="mix-blend-mode:lighten">
<circle r="5.69492" transform="matrix(-1 0 0 1 84.6269 13.0172)" fill="#DEF7FF"/>
</g>
<g style="mix-blend-mode:lighten">
<circle r="4.0678" transform="matrix(-1 0 0 1 91.9493 13.017)" fill="#DEF7FF"/>
</g>
<g style="mix-blend-mode:lighten">
<circle r="4.0678" transform="matrix(-1 0 0 1 98.4576 13.017)" fill="#DEF7FF"/>
</g>
<g style="mix-blend-mode:lighten">
<circle r="4.0678" transform="matrix(-1 0 0 1 103.339 15.4574)" fill="#DEF7FF"/>
</g>
</svg>
