<svg width="165" height="66" viewBox="0 0 165 66" fill="none" xmlns="http://www.w3.org/2000/svg">
<g style="mix-blend-mode:lighten">
<circle r="11.1486" transform="matrix(-1 0 0 1 13.3785 11.3718)" fill="#DEF7FF"/>
</g>
<g style="mix-blend-mode:lighten">
<rect x="3.34448" y="13.6015" width="6.68919" height="52.3986" rx="3.34459" fill="#DEF7FF"/>
</g>
<g style="mix-blend-mode:lighten">
<rect x="103.682" y="19.1758" width="8.91892" height="17.8378" rx="4.45946" transform="rotate(-90 103.682 19.1758)" fill="#DEF7FF"/>
</g>
<g style="mix-blend-mode:lighten">
<rect y="10.257" width="12.2635" height="12.2635" rx="6.13176" fill="#DEF7FF"/>
</g>
<g style="mix-blend-mode:lighten">
<circle r="8.91892" transform="matrix(-1 0 0 1 24.5271 15.8313)" fill="#DEF7FF"/>
</g>
<g style="mix-blend-mode:lighten">
<circle r="6.68919" transform="matrix(-1 0 0 1 35.6756 13.6015)" fill="#DEF7FF"/>
</g>
<g style="mix-blend-mode:lighten">
<circle r="12.2635" transform="matrix(-1 0 0 1 49.0541 18.061)" fill="#DEF7FF"/>
</g>
<g style="mix-blend-mode:lighten">
<circle r="15.0507" transform="matrix(-1 0 0 1 73.0235 15.2738)" fill="#DEF7FF"/>
</g>
<g style="mix-blend-mode:lighten">
<circle r="12.2635" transform="matrix(-1 0 0 1 91.4189 20.2907)" fill="#DEF7FF"/>
</g>
<g style="mix-blend-mode:lighten">
<circle r="8.36149" transform="matrix(-1 0 0 1 104.24 13.0441)" fill="#DEF7FF"/>
</g>
<g style="mix-blend-mode:lighten">
<circle r="8.91892" transform="matrix(-1 0 0 1 122.635 21.4056)" fill="#DEF7FF"/>
</g>
<g style="mix-blend-mode:lighten">
<circle r="7.80405" transform="matrix(-1 0 0 1 133.784 18.061)" fill="#DEF7FF"/>
</g>
<g style="mix-blend-mode:lighten">
<circle r="5.57432" transform="matrix(-1 0 0 1 143.818 18.061)" fill="#DEF7FF"/>
</g>
<g style="mix-blend-mode:lighten">
<circle r="5.57432" transform="matrix(-1 0 0 1 152.736 18.061)" fill="#DEF7FF"/>
</g>
<g style="mix-blend-mode:lighten">
<circle r="5.57432" transform="matrix(-1 0 0 1 159.426 21.4056)" fill="#DEF7FF"/>
</g>
</svg>
