<svg xmlns="http://www.w3.org/2000/svg" width="72" height="13" fill="none" viewBox="0 0 72 13">
    <path fill="url(#paint0_linear)" d="M1 5.75c-.414 0-.75.336-.75.75s.336.75.75.75v-1.5zm70.53 1.28c.293-.293.293-.767 0-1.06l-4.773-4.773c-.293-.293-.767-.293-1.06 0-.293.293-.293.767 0 1.06L69.939 6.5l-4.242 4.243c-.293.293-.293.767 0 1.06.293.293.767.293 1.06 0L71.53 7.03zm-70.023.22c.414 0 .75-.336.75-.75s-.336-.75-.75-.75v1.5zm2.03-1.5c-.415 0-.75.336-.75.75s.335.75.75.75v-1.5zm1.014 1.5c.414 0 .75-.336.75-.75s-.336-.75-.75-.75v1.5zm2.029-1.5c-.415 0-.75.336-.75.75s.335.75.75.75v-1.5zm1.014 1.5c.414 0 .75-.336.75-.75s-.336-.75-.75-.75v1.5zm2.03-1.5c-.415 0-.75.336-.75.75s.335.75.75.75v-1.5zm1.014 1.5c.414 0 .75-.336.75-.75s-.336-.75-.75-.75v1.5zm2.029-1.5c-.415 0-.75.336-.75.75s.335.75.75.75v-1.5zm1.014 1.5c.414 0 .75-.336.75-.75s-.336-.75-.75-.75v1.5zm2.03-1.5c-.415 0-.75.336-.75.75s.335.75.75.75v-1.5zm1.014 1.5c.414 0 .75-.336.75-.75s-.336-.75-.75-.75v1.5zm2.029-1.5c-.415 0-.75.336-.75.75s.335.75.75.75v-1.5zm1.014 1.5c.414 0 .75-.336.75-.75s-.336-.75-.75-.75v1.5zm2.03-1.5c-.415 0-.75.336-.75.75s.335.75.75.75v-1.5zm1.014 1.5c.414 0 .75-.336.75-.75s-.336-.75-.75-.75v1.5zm2.029-1.5c-.415 0-.75.336-.75.75s.335.75.75.75v-1.5zm1.014 1.5c.414 0 .75-.336.75-.75s-.336-.75-.75-.75v1.5zm2.03-1.5c-.415 0-.75.336-.75.75s.335.75.75.75v-1.5zm1.013 1.5c.415 0 .75-.336.75-.75s-.335-.75-.75-.75v1.5zm2.03-1.5c-.415 0-.75.336-.75.75s.335.75.75.75v-1.5zm1.014 1.5c.414 0 .75-.336.75-.75s-.336-.75-.75-.75v1.5zm2.029-1.5c-.414 0-.75.336-.75.75s.336.75.75.75v-1.5zm1.015 1.5c.414 0 .75-.336.75-.75s-.336-.75-.75-.75v1.5zm2.029-1.5c-.415 0-.75.336-.75.75s.335.75.75.75v-1.5zm1.014 1.5c.414 0 .75-.336.75-.75s-.336-.75-.75-.75v1.5zm2.029-1.5c-.414 0-.75.336-.75.75s.336.75.75.75v-1.5zm1.014 1.5c.415 0 .75-.336.75-.75s-.335-.75-.75-.75v1.5zm2.03-1.5c-.415 0-.75.336-.75.75s.335.75.75.75v-1.5zm1.014 1.5c.414 0 .75-.336.75-.75s-.336-.75-.75-.75v1.5zm2.029-1.5c-.414 0-.75.336-.75.75s.336.75.75.75v-1.5zm1.014 1.5c.415 0 .75-.336.75-.75s-.335-.75-.75-.75v1.5zm2.03-1.5c-.415 0-.75.336-.75.75s.335.75.75.75v-1.5zm1.014 1.5c.414 0 .75-.336.75-.75s-.336-.75-.75-.75v1.5zm2.029-1.5c-.414 0-.75.336-.75.75s.336.75.75.75v-1.5zm1.014 1.5c.415 0 .75-.336.75-.75s-.335-.75-.75-.75v1.5zm2.03-1.5c-.415 0-.75.336-.75.75s.335.75.75.75v-1.5zm1.014 1.5c.414 0 .75-.336.75-.75s-.336-.75-.75-.75v1.5zm2.029-1.5c-.414 0-.75.336-.75.75s.336.75.75.75v-1.5zm1.014 1.5c.415 0 .75-.336.75-.75s-.335-.75-.75-.75v1.5zm2.03-1.5c-.415 0-.75.336-.75.75s.335.75.75.75v-1.5zm1.014 1.5c.414 0 .75-.336.75-.75s-.336-.75-.75-.75v1.5zm2.029-1.5c-.414 0-.75.336-.75.75s.336.75.75.75v-1.5zm1.014 1.5c.415 0 .75-.336.75-.75s-.335-.75-.75-.75v1.5zm2.03-1.5c-.415 0-.75.336-.75.75s.335.75.75.75v-1.5zm1.014 1.5c.414 0 .75-.336.75-.75s-.336-.75-.75-.75v1.5zm2.029-1.5c-.414 0-.75.336-.75.75s.336.75.75.75v-1.5zM1 7.25h.507v-1.5H1v1.5zm2.536 0h1.015v-1.5H3.536v1.5zm3.044 0h1.014v-1.5H6.58v1.5zm3.043 0h1.015v-1.5H9.623v1.5zm3.044 0h1.014v-1.5h-1.014v1.5zm3.043 0h1.015v-1.5H15.71v1.5zm3.044 0h1.014v-1.5h-1.014v1.5zm3.043 0h1.015v-1.5h-1.015v1.5zm3.044 0h1.014v-1.5h-1.014v1.5zm3.043 0h1.014v-1.5h-1.014v1.5zm3.043 0h1.015v-1.5h-1.015v1.5zm3.044 0h1.015v-1.5H33.97v1.5zm3.044 0h1.014v-1.5h-1.015v1.5zm3.043 0h1.014v-1.5h-1.014v1.5zm3.043 0h1.015v-1.5H43.1v1.5zm3.044 0h1.014v-1.5h-1.014v1.5zm3.043 0h1.015v-1.5h-1.015v1.5zm3.044 0h1.014v-1.5h-1.014v1.5zm3.043 0h1.015v-1.5h-1.015v1.5zm3.044 0h1.014v-1.5H58.32v1.5zm3.043 0h1.015v-1.5h-1.015v1.5zm3.044 0h1.014v-1.5h-1.014v1.5zm3.043 0h1.015v-1.5h-1.015v1.5zm3.044 0H71v-1.5h-.507v1.5z"/>
    <defs>
        <linearGradient id="paint0_linear" x1="5.5" x2="5.722" y1="7" y2="8.78" gradientUnits="userSpaceOnUse">
            <stop stop-color="#F4364C" stop-opacity=".21"/>
            <stop offset="1" stop-color="#F48836"/>
        </linearGradient>
    </defs>
</svg>
