<svg xmlns="http://www.w3.org/2000/svg" width="25" height="25" fill="none" viewBox="0 0 25 25">
    <path fill="#F7A800" d="M2 18.624v1.751C2 21.823 5.527 23 9.875 23s7.875-1.177 7.875-2.625v-1.751c-1.694 1.193-4.79 1.751-7.875 1.751-3.084 0-6.18-.558-7.875-1.751zM15.125 7.25C19.473 7.25 23 6.073 23 4.625S19.473 2 15.125 2 7.25 3.177 7.25 4.625s3.527 2.625 7.875 2.625zM2 14.321v2.117c0 1.447 3.527 2.625 7.875 2.625s7.875-1.178 7.875-2.625V14.32c-1.694 1.395-4.795 2.117-7.875 2.117S3.695 15.716 2 14.32zm17.063.451c2.35-.455 3.937-1.3 3.937-2.272v-1.751c-.951.672-2.35 1.132-3.937 1.415v2.608zm-9.188-6.21C5.527 8.563 2 10.031 2 11.845s3.527 3.281 7.875 3.281 7.875-1.468 7.875-3.281c0-1.813-3.527-3.281-7.875-3.281zm8.995 2.31c2.46-.443 4.13-1.313 4.13-2.31v-1.75c-1.456 1.029-3.958 1.582-6.591 1.714 1.21.586 2.1 1.374 2.46 2.346z"/>
</svg>
