<svg xmlns="http://www.w3.org/2000/svg" width="88" height="66" fill="none" viewBox="0 0 88 66">
    <path fill="#825FC4" d="M9.266 36.092l8.908-4.654L30.862 55.72c.142.272.152.595 0 .862-.45.799-1.584 2.514-3.458 3.494-1.875.98-3.875.9-4.758.8-.297-.035-.546-.224-.684-.488L9.266 36.092z"/>
    <path fill="#D878E8" d="M13.66 12.77l10.28.889-5.064 24.81-9.687-1.63c-.075-.008-.15-.018-.225-.032-2.995-.567-4.354-6.404-3.036-13.038 1.254-6.304 4.475-11.06 7.362-11.03h.018c.118.003.236.013.353.031z"/>
    <path fill="#9C67FF" d="M18.876 38.464c-2.22-.533-2.928-6.395-1.577-13.188 1.282-6.452 3.964-11.447 6.169-11.664l32.748-6.118-7.484 49.696-29.856-18.722v-.004z"/>
    <ellipse fill="#4A2F7C" rx="16.776" ry="25.805" transform="matrix(.99465 .10329 -.11022 .9939 56.16 33.092)"/>
    <ellipse fill="#AE83FF" rx="14.821" ry="22.798" transform="matrix(.99465 .10329 -.11022 .9939 56.159 33.092)"/>
    <mask id="5974vjybma" width="31" height="46" x="41" y="10" maskUnits="userSpaceOnUse">
        <ellipse fill="#9C67FF" rx="14.731" ry="22.774" transform="matrix(.99714 .10354 -.10994 .99136 56.159 33.092)"/>
    </mask>
    <g mask="url(#5974vjybma)">
        <ellipse fill="#E78BF5" rx="8.528" ry="8.614" transform="matrix(-.06509 .9955 -1.00053 -.0597 40.942 30.731)"/>
    </g>
</svg>
