<svg width="50" height="50" viewBox="0 0 50 50" fill="none" xmlns="http://www.w3.org/2000/svg">
<path d="M35.2397 40.8517L15.1955 30.6467C14.3296 30.2278 12.9876 30.2278 12.1218 30.6467L0.64938 36.5107C-0.21646 36.9296 -0.21646 37.6531 0.64938 38.072L20.6936 48.277C21.5594 48.6958 22.9015 48.6958 23.7673 48.277L35.2397 42.4129C36.1055 41.956 36.1055 41.2705 35.2397 40.8517Z" fill="#FCD834"/>
<path d="M10.1145 37.1049C10.3742 37.2191 10.3742 37.4476 10.1145 37.5618C9.85473 37.676 9.42181 37.676 9.20535 37.5618L5.74199 35.8102C5.48224 35.696 5.48224 35.4675 5.74199 35.3533C6.00175 35.239 6.39137 35.239 6.65113 35.3533L10.1145 37.1049Z" fill="#B1B1B1"/>
<path d="M17.2144 38.7423C17.4741 38.8565 17.4741 39.085 17.2144 39.1992C16.9546 39.3135 16.5217 39.3135 16.3052 39.1992L7.69011 34.8202C7.43036 34.706 7.43036 34.4775 7.69011 34.3633C7.94987 34.249 8.33949 34.249 8.59925 34.3633L17.2144 38.7423Z" fill="#B1B1B1"/>
<path d="M9.09137 32.2078L32.2526 43.9359L34.4605 42.7936L11.3426 31.0654L9.09137 32.2078Z" fill="#C1A837"/>
<path d="M13.3181 40.7223C13.5778 40.8365 13.5778 41.065 13.3181 41.1792C13.0583 41.2934 12.6687 41.2934 12.4089 41.1792L3.79381 36.8383C3.53406 36.724 3.53406 36.4956 3.79381 36.3813C4.05356 36.2671 4.48648 36.2671 4.70294 36.3813L13.3181 40.7223Z" fill="#B1B1B1"/>
<path d="M35.283 42.4128L23.8106 48.2769C22.9448 48.6957 21.6027 48.6957 20.7369 48.2769L0.64938 38.0719C0.21646 37.8434 0 37.5768 0 37.2722V38.6811C0 38.9477 0.21646 39.2523 0.64938 39.4808L20.6936 49.6858C21.5594 50.1046 22.9015 50.1046 23.7673 49.6858L35.2397 43.8217C35.6726 43.5932 35.8891 43.3267 35.8891 43.0601V41.6512C35.8891 41.9178 35.6726 42.1843 35.283 42.4128Z" fill="#C7AB2B"/>
<path d="M21.1746 0L50 14.6405L35.0049 22.3235L6.1795 7.68305L21.1746 0Z" fill="#7EB148"/>
<path d="M28.0654 11.738C28.7933 12.2929 28.8904 12.8905 28.211 13.232C27.5316 13.5734 26.3184 13.5307 25.2508 13.1466L28.0654 11.738Z" fill="#5E7E3C"/>
<path d="M34.2769 7.98175C37.1886 9.47567 36.8004 12.0794 33.4034 13.8294C30.0065 15.5794 24.8626 15.7928 21.9024 14.2989C18.9907 12.805 19.3789 10.2013 22.7759 8.45127C26.2213 6.70124 31.3653 6.48782 34.2769 7.98175ZM29.2786 13.7867C30.5403 13.1465 30.4432 12.0367 29.133 11.1403L32.0446 9.64641C32.7726 10.2013 32.8696 10.7989 32.1902 11.1403C31.8991 11.3111 31.8991 11.5672 32.1902 11.6952C32.4814 11.866 32.9667 11.866 33.3064 11.6952C34.5681 11.055 34.471 9.94519 33.1608 9.04884L33.3064 8.96347C33.5975 8.79274 33.5975 8.53664 33.3064 8.40859C33.0152 8.23785 32.5299 8.23785 32.1902 8.40859L32.0932 8.53664C30.6373 7.98175 28.7933 7.8537 27.483 8.23785C27.2889 8.28053 27.0948 8.3659 26.9007 8.45127C25.639 9.09152 25.736 10.2013 27.0463 11.0977L24.1346 12.5916C23.4067 12.0367 23.3097 11.4391 23.9891 11.0977C24.2802 10.9269 24.2802 10.7135 23.9891 10.5428C23.6979 10.372 23.2126 10.372 22.8729 10.5428C21.6112 11.183 21.7083 12.2928 23.0185 13.1891L22.8729 13.2745C22.5818 13.4452 22.5818 13.7014 22.8729 13.8294C23.1641 14.0001 23.6494 14.0001 23.9891 13.8294L24.1346 13.744C25.8331 14.3843 28.0168 14.4697 29.2786 13.7867Z" fill="#5E7E3C"/>
<path d="M21.1746 0L50 14.6405L35.0049 22.3235L6.1795 7.68305L21.1746 0ZM38.0137 19.3357L44.1767 16.1771C42.4782 15.2807 42.4297 13.8722 44.1767 13.0185L34.277 7.98183L24.3774 2.98785C22.6789 3.84152 19.9128 3.84152 18.1658 2.98785L12.0028 6.14644C13.7013 7.00011 13.7498 8.45135 12.0028 9.30502L31.7536 19.3357C33.5006 18.4393 36.3152 18.4393 38.0137 19.3357Z" fill="#6D9148"/>
<path d="M28.1623 8.96341C28.1138 8.96341 28.0652 9.00609 28.0167 9.04878C27.3373 9.39025 27.4344 10.0305 28.1623 10.5427L30.9769 9.09146C29.9578 8.79268 28.8417 8.70731 28.1623 8.96341Z" fill="#5E7E3C"/>
<path d="M35.0046 22.2809L34.9561 35.4701L6.13068 20.8297L6.17921 7.68311L35.0046 22.2809Z" fill="#5E7E3C"/>
<path d="M49.9998 14.6404L49.9512 27.7869L34.9562 35.47L35.0047 22.2807L49.9998 14.6404Z" fill="#73A545"/>
</svg>
