<svg xmlns="http://www.w3.org/2000/svg" width="106" height="99" fill="none" viewBox="0 0 106 99">
    <g filter="url(#filter0_d)">
        <path fill="#22272B" fill-rule="evenodd" d="M64.944 8.324c2.626-.703 5.328.867 6.036 3.507L72.901 19c-2.626.704-4.181 3.415-3.474 6.055.707 2.64 3.41 4.21 6.036 3.506l1.922 7.171c.707 2.64-.849 5.351-3.475 6.055L23.98 55.167c-2.627.704-5.33-.866-6.037-3.506l-1.921-7.171c2.626-.704 4.181-3.415 3.474-6.055-.707-2.64-3.41-4.21-6.036-3.506l-1.922-7.17c-.707-2.641.848-5.352 3.475-6.056l49.93-13.379z" clip-rule="evenodd"/>
    </g>
    <path fill="#434B52" fill-rule="evenodd" d="M41.79 31.516c.688-.185 1.187-.544 1.496-1.078.308-.534.375-1.13.198-1.787l-.145-.542c-.184-.687-.543-1.186-1.078-1.497-.536-.31-1.153-.373-1.851-.185-.688.184-1.188.545-1.498 1.082-.311.538-.378 1.138-.2 1.8l.143.534c.188.702.556 1.202 1.103 1.498.548.297 1.158.355 1.832.175zm-.292-1.091c-.315.084-.597.046-.846-.116s-.42-.416-.513-.762l-.149-.557c-.095-.356-.079-.668.05-.936s.35-.445.664-.529c.315-.084.597-.044.847.12.25.164.42.42.514.765l.147.55c.098.366.08.68-.052.945-.132.264-.353.437-.662.52zm5.086-3.798l-3.027 9.987-1.08-.29 3.026-9.988 1.08.29zm2.105 9.652c.698-.187 1.2-.548 1.502-1.084.303-.535.367-1.129.193-1.78l-.144-.535c-.189-.707-.555-1.211-1.098-1.512-.544-.3-1.154-.36-1.833-.178-.673.18-1.171.537-1.494 1.07-.322.532-.394 1.135-.213 1.807l.147.549c.184.687.545 1.183 1.084 1.487.539.305 1.157.364 1.856.176zm-1.138-1.207c.256.166.538.207.848.124.319-.085.542-.257.668-.514s.14-.573.038-.95l-.15-.564c-.095-.35-.267-.606-.518-.764-.252-.159-.53-.197-.834-.116-.309.083-.531.256-.667.518s-.154.579-.054.95l.149.557c.091.34.265.594.52.76z" clip-rule="evenodd"/>
    <g filter="url(#filter1_d)">
        <path fill="#353E42" fill-rule="evenodd" d="M84.987 45.212c2.627.704 4.182 3.414 3.475 6.055l-1.922 7.17c-2.626-.703-5.329.867-6.036 3.507-.708 2.64.848 5.35 3.474 6.055l-1.921 7.17c-.708 2.64-3.41 4.21-6.036 3.507L26.09 65.296c-2.627-.703-4.182-3.414-3.475-6.054l1.922-7.17c2.626.703 5.329-.867 6.036-3.507.707-2.64-.848-5.351-3.474-6.055l1.921-7.17c.707-2.64 3.41-4.21 6.036-3.507l49.931 13.379z" clip-rule="evenodd"/>
    </g>
    <path fill="#FCD834" fill-rule="evenodd" d="M53.34 53.72c.688.184 1.3.122 1.834-.186.534-.309.89-.791 1.066-1.448l.145-.542c.184-.687.122-1.3-.186-1.836-.308-.537-.811-.899-1.51-1.086-.688-.184-1.301-.122-1.839.189-.538.31-.895.796-1.072 1.458l-.144.534c-.188.702-.119 1.319.207 1.85.325.53.825.886 1.498 1.066zm.292-1.091c-.314-.085-.54-.26-.674-.524-.135-.264-.156-.57-.063-.916l.149-.557c.095-.356.266-.618.511-.786.246-.168.526-.21.84-.126.314.085.539.26.673.528.134.267.155.573.062.92l-.147.549c-.098.366-.27.63-.517.792-.247.163-.525.202-.834.12zm6.304-.747l-7.615 7.136-.79-.792 7.614-7.136.79.792zm-3.003 9.412c.698.187 1.312.125 1.843-.187.53-.313.882-.795 1.057-1.447l.143-.534c.19-.707.124-1.327-.196-1.858-.32-.532-.82-.89-1.498-1.071-.673-.18-1.283-.12-1.828.18-.546.3-.909.785-1.089 1.457l-.147.55c-.184.687-.119 1.297.195 1.83.315.533.821.893 1.52 1.08zm-.382-1.614c.139.271.362.448.672.53.32.086.598.05.836-.11s.407-.427.508-.803l.15-.564c.095-.351.073-.658-.065-.921s-.36-.435-.664-.517c-.31-.083-.588-.044-.837.115-.248.159-.422.424-.522.795l-.149.557c-.091.341-.068.647.07.918z" clip-rule="evenodd"/>
    <defs>
        <filter id="filter0_d" width="94.188" height="75.179" x=".368" y=".156" color-interpolation-filters="sRGB" filterUnits="userSpaceOnUse">
            <feFlood flood-opacity="0" result="BackgroundImageFix"/>
            <feColorMatrix in="SourceAlpha" values="0 0 0 0 0 0 0 0 0 0 0 0 0 0 0 0 0 0 127 0"/>
            <feOffset dx="3" dy="6"/>
            <feGaussianBlur stdDeviation="7"/>
            <feColorMatrix values="0 0 0 0 0 0 0 0 0 0 0 0 0 0 0 0 0 0 0.239073 0"/>
            <feBlend in2="BackgroundImageFix" result="effect1_dropShadow"/>
            <feBlend in="SourceGraphic" in2="effect1_dropShadow" result="shape"/>
        </filter>
        <filter id="filter1_d" width="94.188" height="75.179" x="11.445" y="23.665" color-interpolation-filters="sRGB" filterUnits="userSpaceOnUse">
            <feFlood flood-opacity="0" result="BackgroundImageFix"/>
            <feColorMatrix in="SourceAlpha" values="0 0 0 0 0 0 0 0 0 0 0 0 0 0 0 0 0 0 127 0"/>
            <feOffset dx="3" dy="6"/>
            <feGaussianBlur stdDeviation="7"/>
            <feColorMatrix values="0 0 0 0 0 0 0 0 0 0 0 0 0 0 0 0 0 0 0.239073 0"/>
            <feBlend in2="BackgroundImageFix" result="effect1_dropShadow"/>
            <feBlend in="SourceGraphic" in2="effect1_dropShadow" result="shape"/>
        </filter>
    </defs>
</svg>
