<svg xmlns="http://www.w3.org/2000/svg" width="25" height="25" fill="none" viewBox="0 0 25 25">
    <path fill="#A6B0B3" d="M20.817 7.125H4.437c-.38 0-.687-.308-.687-.688 0-.38.308-.687.688-.687h16.5c.38 0 .687-.308.687-.688 0-1.139-.923-2.062-2.062-2.062H3.75C2.231 3 1 4.231 1 5.75V19.5c0 1.519 1.231 2.75 2.75 2.75h17.067c1.204 0 2.183-.925 2.183-2.063v-11c0-1.137-.979-2.062-2.183-2.062zm-1.942 8.938c-.76 0-1.375-.616-1.375-1.375 0-.76.616-1.376 1.375-1.376.76 0 1.375.616 1.375 1.376 0 .759-.616 1.374-1.375 1.374z"/>
</svg>
