<svg xmlns="http://www.w3.org/2000/svg" width="25" height="25" fill="none" viewBox="0 0 25 25">
    <path fill="#A6B0B3" d="M7.2 12.5c2.321 0 4.2-1.901 4.2-4.25S9.521 4 7.2 4 3 5.901 3 8.25s1.879 4.25 4.2 4.25zm2.88 1.214h-.311c-.78.38-1.646.607-2.569.607s-1.785-.227-2.569-.607H4.32c-2.385 0-4.32 1.958-4.32 4.372v1.093C0 20.184.806 21 1.8 21h10.8c.994 0 1.8-.816 1.8-1.821v-1.093c0-2.414-1.935-4.372-4.32-4.372zM18 12.5c1.988 0 3.6-1.632 3.6-3.643S19.987 5.214 18 5.214c-1.988 0-3.6 1.632-3.6 3.643S16.012 12.5 18 12.5zm1.8 1.214h-.143c-.52.182-1.072.304-1.657.304s-1.136-.122-1.657-.304H16.2c-.765 0-1.47.224-2.089.585.915.998 1.489 2.322 1.489 3.787v1.457c0 .083-.019.163-.022.243H22.2c.994 0 1.8-.816 1.8-1.822 0-2.349-1.879-4.25-4.2-4.25z"/>
</svg>
