<svg xmlns="http://www.w3.org/2000/svg" width="50" height="50" fill="none" viewBox="0 0 50 50">
    <path fill="#FFDB4D" d="M7.17 2.498C6.956 5.056 4.29 5.46 4.29 5.46c2.288.108 2.859 3.11 2.859 3.11.048-2.14 2.947-3.141 2.947-3.141-2.171-.13-2.925-2.931-2.925-2.931z"/>
    <path fill="#E5C545" fill-rule="evenodd" d="M7.49 2.411c.008.026.722 2.572 2.625 2.686.158.01.287.13.31.286.021.157-.071.307-.22.359-.028.01-2.682.954-2.725 2.836-.004.17-.135.308-.304.323h-.028c-.158 0-.295-.111-.326-.268-.005-.028-.551-2.748-2.549-2.842-.17-.008-.307-.144-.316-.314-.008-.17.113-.32.282-.345.098-.015 2.41-.402 2.6-2.662.014-.16.14-.288.301-.303.162-.013.309.089.35.244zM5.436 5.422c.858.436 1.379 1.271 1.679 1.964.448-.89 1.314-1.502 1.98-1.865-.915-.407-1.501-1.25-1.844-1.93-.397.965-1.166 1.52-1.815 1.831z" clip-rule="evenodd"/>
    <path fill="#FFDB4D" d="M2.37 6.255C2.218 8.065.332 8.35.332 8.35c1.62.076 2.023 2.2 2.023 2.2.034-1.514 2.084-2.223 2.084-2.223C2.903 8.236 2.37 6.255 2.37 6.255z"/>
    <path fill="#E5C545" fill-rule="evenodd" d="M2.69 6.168c.005.017.493 1.752 1.769 1.828.158.01.287.13.309.286.021.157-.07.307-.22.359-.018.006-1.833.653-1.862 1.916-.004.17-.135.31-.304.323l-.028.002c-.158 0-.296-.112-.326-.27-.003-.018-.376-1.868-1.712-1.93C.146 8.672.01 8.536 0 8.366c-.009-.17.113-.32.282-.345.065-.01 1.63-.275 1.757-1.795.013-.16.14-.288.301-.303.16-.014.308.089.35.244zM1.354 8.33c.466.295.78.752.984 1.169.305-.494.778-.857 1.187-1.1-.506-.281-.86-.742-1.093-1.156-.26.506-.667.857-1.078 1.087z" clip-rule="evenodd"/>
    <path fill="#FFDB4D" d="M2.37.357C2.218 2.167.332 2.452.332 2.452c1.62.076 2.023 2.2 2.023 2.2.034-1.514 2.084-2.222 2.084-2.222C2.903 2.338 2.37.357 2.37.357z"/>
    <path fill="#E5C545" fill-rule="evenodd" d="M2.69.27c.005.017.493 1.752 1.769 1.828.158.01.287.13.309.286.021.157-.07.307-.22.36-.018.005-1.833.652-1.862 1.916-.004.17-.135.309-.304.323h-.028c-.158 0-.296-.111-.326-.269-.003-.018-.376-1.868-1.712-1.93C.146 2.774.01 2.638 0 2.468c-.009-.17.113-.32.282-.345.065-.01 1.63-.275 1.757-1.795.013-.16.14-.288.301-.303.16-.014.308.089.35.244zM1.354 2.434c.466.295.78.75.984 1.168.305-.494.778-.857 1.187-1.1-.506-.281-.86-.741-1.093-1.156-.26.506-.667.857-1.078 1.088z" clip-rule="evenodd"/>
    <path fill="#EB6E7A" d="M45.078 14.612H4.923c-2.536 0-4.591 2.056-4.591 4.59v25.85c0 2.536 2.055 4.591 4.59 4.591h40.156c2.535 0 4.59-2.055 4.59-4.59v-25.85c0-2.535-2.055-4.59-4.59-4.59z"/>
    <path fill="#3A312A" d="M45.077 14.28H4.923C2.208 14.28 0 16.488 0 19.203v17.182c0 .184.149.332.332.332.183 0 .332-.148.332-.332V19.203c0-2.348 1.91-4.259 4.259-4.259h40.154c2.349 0 4.26 1.91 4.26 4.259v25.85c0 2.348-1.911 4.258-4.26 4.258H4.923c-2.349 0-4.26-1.91-4.26-4.258v-5.53c0-.184-.148-.333-.331-.333-.183 0-.332.149-.332.332v5.53c0 2.715 2.208 4.923 4.923 4.923h40.154c2.715 0 4.923-2.208 4.923-4.922v-25.85c0-2.715-2.208-4.923-4.923-4.923z"/>
    <path fill="#D7E057" d="M.332 27.612h49.336v3.54H.332v-3.54z"/>
    <path fill="#3A312A" d="M49.668 27.28H19.583c-.183 0-.332.149-.332.332 0 .184.149.332.332.332h29.753v2.876H.664v-2.876h15.889c.183 0 .331-.148.331-.332 0-.183-.148-.332-.331-.332H.332c-.183 0-.332.149-.332.332v3.54c0 .183.149.332.332.332h49.336c.183 0 .332-.149.332-.332v-3.54c0-.183-.149-.332-.332-.332z"/>
    <path fill="#D7E057" d="M32.927 14.612h3.54v35.031h-3.54v-35.03z"/>
    <path fill="#3A312A" fill-rule="evenodd" d="M32.927 14.28h3.54c.183 0 .331.149.331.332v35.031c0 .184-.148.332-.332.332h-3.54c-.183 0-.331-.148-.331-.332v-35.03c0-.184.148-.333.332-.333zm.331 35.031h2.877V14.944h-2.877v34.367z" clip-rule="evenodd"/>
    <path fill="#D7E057" d="M42.158 25.358l-6.237 2.799 2.8-6.237c.75-1.675-.475-3.567-2.31-3.567h-3.428c-1.835 0-3.06 1.892-2.309 3.567l2.799 6.237-6.237-2.799c-1.675-.751-3.567.474-3.567 2.309v3.428c0 1.835 1.892 3.06 3.567 2.309l6.237-2.799-2.799 6.237c-.751 1.675.474 3.567 2.309 3.567h3.428c1.835 0 3.06-1.892 2.31-3.567l-2.8-6.237 6.237 2.799c1.675.751 3.567-.474 3.567-2.31v-3.427c0-1.835-1.892-3.06-3.567-2.309z"/>
    <path fill="#3A312A" fill-rule="evenodd" d="M42.022 25.055c.89-.399 1.91-.321 2.728.209.818.53 1.307 1.428 1.307 2.403v3.428c0 .975-.489 1.873-1.307 2.403-.819.53-1.838.608-2.728.209l-5.441-2.442 2.441 5.441c.4.89.322 1.91-.208 2.728-.53.818-1.428 1.307-2.403 1.307h-3.428c-.975 0-1.873-.489-2.403-1.307-.53-.819-.608-1.838-.209-2.728l2.442-5.441-5.442 2.442c-.89.399-1.909.32-2.727-.209-.819-.53-1.307-1.428-1.307-2.403v-3.428c0-.975.488-1.873 1.307-2.403.818-.53 1.838-.608 2.727-.209l5.442 2.442-2.442-5.442c-.399-.89-.321-1.909.209-2.727.53-.819 1.428-1.307 2.403-1.307h3.428c.975 0 1.873.488 2.403 1.307.53.818.608 1.838.209 2.727l-2.442 5.442 5.441-2.442zm2.367 7.886c.629-.407 1.004-1.097 1.004-1.846v-3.428c0-.75-.375-1.44-1.004-1.846-.628-.407-1.412-.467-2.095-.16l-6.237 2.798c-.125.056-.273.03-.37-.068-.098-.097-.125-.245-.069-.37l2.799-6.237c.306-.684.246-1.467-.16-2.095-.408-.63-1.097-1.005-1.846-1.005h-3.429c-.749 0-1.438.376-1.845 1.005-.408.628-.468 1.412-.161 2.095l2.799 6.237c.056.125.029.273-.069.37-.097.098-.245.124-.37.068l-6.237-2.798c-.683-.307-1.466-.247-2.095.16-.629.407-1.004 1.097-1.004 1.846v3.428c0 .749.375 1.439 1.004 1.846.628.407 1.411.467 2.095.16l6.237-2.798c.043-.02.09-.03.136-.03.086 0 .17.034.234.098.098.097.125.245.069.37l-2.8 6.237c-.305.683-.246 1.467.162 2.095.406.63 1.096 1.004 1.845 1.004h3.429c.748 0 1.438-.375 1.845-1.004.407-.628.467-1.412.161-2.095l-2.799-6.236c-.056-.126-.029-.274.069-.371.097-.098.245-.125.37-.068l6.237 2.798c.683.307 1.467.247 2.095-.16z" clip-rule="evenodd"/>
    <circle cx="34.7" cy="29.37" r="2.944" fill="#D7E057" transform="rotate(-16.858 34.7 29.37)"/>
    <path fill="#3A312A" fill-rule="evenodd" d="M31.42 29.381c0-1.806 1.47-3.275 3.277-3.275 1.806 0 3.275 1.469 3.275 3.275 0 1.806-1.47 3.276-3.275 3.276-1.807 0-3.276-1.47-3.276-3.276zm.665 0c0 1.44 1.171 2.612 2.612 2.612 1.44 0 2.611-1.172 2.611-2.612 0-1.44-1.171-2.612-2.611-2.612-1.44 0-2.612 1.172-2.612 2.612z" clip-rule="evenodd"/>
    <path fill="#BE4958" d="M45.078 14.944h-3.762c2.348 0 4.26 1.911 4.26 4.259v6.878c.238.356.395.766.453 1.2h3.307v-8.078c0-2.348-1.911-4.259-4.258-4.259zM46.029 31.484c-.058.433-.215.843-.454 1.201v12.367c0 2.348-1.911 4.26-4.259 4.26h3.761c2.348 0 4.26-1.912 4.26-4.26V31.485h-3.308z"/>
    <path fill="#D7E057" d="M46.057 27.944h3.28v2.876h-3.28v-2.876z"/>
</svg>
