<svg xmlns="http://www.w3.org/2000/svg" width="50" height="50" fill="none" viewBox="0 0 50 50">
    <path fill="#EB6E7A" d="M45.608.328H3.411C1.707.328.325 1.71.325 3.414v11.542c0 1.704 1.382 3.086 3.086 3.086h42.197c1.705 0 3.086-1.382 3.086-3.086V3.414c0-1.704-1.382-3.086-3.086-3.086z"/>
    <path fill="#3A312A" d="M45.608.003H10.452c-.18 0-.325.145-.325.325 0 .18.145.325.325.325h35.156c1.523 0 2.76 1.239 2.76 2.761v11.542c0 1.522-1.237 2.76-2.76 2.76H3.411c-1.522 0-2.76-1.238-2.76-2.76V3.414c0-1.522 1.238-2.76 2.76-2.76H7.48c.18 0 .325-.147.325-.326 0-.18-.145-.326-.325-.326H3.41C1.531.002 0 1.532 0 3.414v11.542c0 1.88 1.53 3.411 3.411 3.411h42.197c1.881 0 3.412-1.53 3.412-3.411V3.414c0-1.881-1.53-3.411-3.412-3.411z"/>
    <path fill="#FFDB4D" d="M7.167 24.334c-.211 2.508-2.825 2.904-2.825 2.904 2.244.106 2.803 3.05 2.803 3.05.048-2.1 2.89-3.08 2.89-3.08-2.129-.128-2.868-2.874-2.868-2.874z"/>
    <path fill="#E5C545" fill-rule="evenodd" d="M7.48 24.249c.007.025.707 2.521 2.574 2.633.155.01.281.127.303.28.021.154-.07.302-.216.352-.026.01-2.628.935-2.67 2.78-.004.167-.133.303-.299.317l-.027.002c-.155 0-.29-.11-.32-.265-.004-.027-.54-2.693-2.498-2.785-.167-.008-.301-.141-.31-.309-.009-.167.11-.313.276-.338.096-.015 2.363-.394 2.55-2.61.013-.157.137-.282.294-.296.157-.015.302.086.344.239zM5.467 27.2c.841.427 1.351 1.246 1.645 1.925.44-.872 1.29-1.472 1.942-1.827-.897-.4-1.472-1.226-1.808-1.892-.389.945-1.143 1.49-1.78 1.794z" clip-rule="evenodd"/>
    <path fill="#FFDB4D" d="M2.46 28.017C2.31 29.79.462 30.07.462 30.07c1.587.075 1.983 2.157 1.983 2.157.034-1.485 2.043-2.179 2.043-2.179-1.505-.09-2.028-2.032-2.028-2.032z"/>
    <path fill="#E5C545" fill-rule="evenodd" d="M2.774 27.932c.005.017.483 1.718 1.734 1.793.155.009.282.126.303.28.021.154-.07.301-.216.352-.018.006-1.797.64-1.825 1.878-.004.167-.132.304-.298.317l-.027.001c-.155 0-.29-.11-.32-.264-.003-.018-.37-1.832-1.678-1.893-.167-.008-.301-.141-.31-.308-.009-.167.11-.314.276-.339.064-.01 1.597-.27 1.723-1.76.013-.157.137-.282.295-.296.158-.016.302.087.343.239zm-1.31 2.121c.458.29.765.736.965 1.145.299-.484.763-.84 1.164-1.078-.496-.276-.843-.727-1.072-1.133-.255.496-.654.84-1.056 1.066z" clip-rule="evenodd"/>
    <path fill="#FFDB4D" d="M2.46 22.235C2.31 24.009.462 24.289.462 24.289c1.587.075 1.983 2.157 1.983 2.157.034-1.484 2.043-2.179 2.043-2.179-1.505-.09-2.028-2.032-2.028-2.032z"/>
    <path fill="#E5C545" fill-rule="evenodd" d="M2.774 22.15c.005.017.483 1.718 1.734 1.793.155.009.281.126.303.28.021.154-.07.301-.216.352-.018.006-1.797.64-1.825 1.878-.004.167-.132.304-.298.317l-.027.001c-.155 0-.29-.11-.32-.264-.003-.018-.37-1.832-1.678-1.893-.167-.008-.301-.141-.31-.308-.009-.167.11-.314.276-.339.064-.01 1.597-.27 1.723-1.76.013-.157.137-.282.295-.296.158-.014.302.086.343.239zm-1.31 2.121c.457.29.765.736.965 1.145.298-.484.762-.84 1.164-1.078-.496-.275-.843-.727-1.072-1.133-.255.496-.654.84-1.057 1.066z" clip-rule="evenodd"/>
    <path fill="#F5E1C5" d="M34.63 23.344h-.026c-1.11 0-2.01.9-2.01 2.01v-1.375c0-1.11-.898-2.01-2.008-2.01h-.026c-1.086 0-1.97.862-2.008 1.939l-.001 1.329v-2.632c0-1.11-.9-2.009-2.01-2.009h-.025c-1.11 0-2.01.9-2.01 2.009v2.287l-.001-.002v-8.553c0-1.11-.9-2.009-2.01-2.009h-.025c-1.11 0-2.01.9-2.01 2.01v13.288c0 .775-.627 1.402-1.402 1.402h-4.567c-1.564 0-2.832 1.269-2.832 2.83 0 .783.317 1.49.829 2.002.514.512 1.221.829 2.003.829h3.534c1.456 0 2.752.927 3.221 2.307l.937 2.748c.084-.011.17-.017.257-.017h12.806l.114.002.15-.594c.733-2.878 1.109-5.835 1.127-8.805l.002-.07v-6.907c0-1.11-.9-2.009-2.009-2.009z"/>
    <path fill="#3A312A" fill-rule="evenodd" d="M34.604 23.019h.026c1.287 0 2.334 1.047 2.335 2.335l-.002 6.976c-.02 3.005-.401 5.993-1.137 8.886l-.15.593c-.037.145-.167.246-.316.246l-.114-.002H22.44c-.073 0-.145.005-.214.014-.014.002-.029.003-.043.003-.138 0-.262-.088-.308-.22l-.936-2.75c-.425-1.247-1.596-2.086-2.914-2.086h-3.534c-.842 0-1.635-.328-2.233-.923-.596-.596-.924-1.389-.924-2.232 0-1.74 1.416-3.156 3.157-3.156h4.568c.594 0 1.077-.483 1.077-1.076v-13.29c0-1.287 1.047-2.334 2.334-2.334h.026c1.287 0 2.334 1.047 2.334 2.334v4.655c.426-.445 1.024-.721 1.686-.721h.026c1.208 0 2.204.921 2.323 2.098.425-.447 1.027-.724 1.695-.724h.026c1.21 0 2.208.925 2.323 2.105.426-.45 1.028-.731 1.695-.731zm1.708 9.309l.002-.184v-6.79c0-.93-.755-1.684-1.684-1.684h-.026c-.928 0-1.684.755-1.684 1.683 0 .18-.145.326-.325.326-.18 0-.325-.146-.325-.326V23.98c0-.928-.756-1.683-1.684-1.683h-.026c-.912 0-1.651.713-1.683 1.623v1.336c0 .18-.146.326-.326.326-.18 0-.325-.146-.325-.325v-2.651c0-.929-.756-1.684-1.684-1.684h-.026c-.929 0-1.684.756-1.684 1.684v2.286c0 .132-.079.25-.2.301-.123.05-.263.023-.355-.07-.061-.061-.098-.146-.098-.232v-8.553c0-.929-.755-1.684-1.683-1.684h-.026c-.929 0-1.684.756-1.684 1.684v13.29c0 .952-.775 1.727-1.727 1.727H14.49c-1.382 0-2.506 1.124-2.506 2.505 0 .67.26 1.298.733 1.771.475.473 1.104.734 1.773.734h3.534c1.597 0 3.015 1.015 3.53 2.527l.855 2.511h12.697l.088-.347c.723-2.841 1.098-5.778 1.117-8.727z" clip-rule="evenodd"/>
    <path fill="#714FEB" d="M35.246 41.726H22.44c-1.168 0-2.114.947-2.114 2.114v2.784c0 1.142.926 2.068 2.068 2.068h12.898c1.142 0 2.067-.926 2.067-2.068V43.84c0-1.167-.946-2.114-2.113-2.114z"/>
    <path fill="#3A312A" d="M35.246 41.401H22.44c-1.345 0-2.439 1.094-2.439 2.44v2.783c0 1.32 1.074 2.393 2.393 2.393h2.823c.18 0 .325-.146.325-.325 0-.18-.145-.326-.325-.326h-2.823c-.96 0-1.742-.781-1.742-1.742V43.84c0-.986.802-1.788 1.788-1.788h12.806c.986 0 1.788.802 1.788 1.788v2.784c0 .96-.781 1.742-1.742 1.742h-7.097c-.18 0-.326.146-.326.326 0 .18.146.325.326.325h7.097c1.32 0 2.393-1.073 2.393-2.393V43.84c0-1.345-1.094-2.439-2.439-2.439z"/>
    <circle cx="34.346" cy="45.224" r="1.277" fill="#F7F3F0" transform="rotate(-9.208 34.346 45.224)"/>
    <path fill="#3A312A" fill-rule="evenodd" d="M32.757 45.222c0-.884.718-1.603 1.602-1.603.883 0 1.602.719 1.602 1.603 0 .883-.719 1.602-1.602 1.602-.884 0-1.602-.72-1.602-1.602zm.65 0c0 .524.427.95.952.95.524 0 .951-.426.951-.95 0-.525-.427-.952-.951-.952-.525 0-.952.427-.952.951z" clip-rule="evenodd"/>
    <path fill="#BE4958" d="M45.607.652h-3.904c1.523 0 2.761 1.239 2.761 2.762v11.54c0 1.524-1.238 2.762-2.76 2.762h3.903c1.523 0 2.761-1.238 2.761-2.761V3.414c0-1.523-1.238-2.762-2.76-2.762z"/>
    <path fill="#A53F4C" fill-rule="evenodd" d="M8.862 12.101c-.251.191-.612.127-.783-.138l-.246-.38c-.361-.56-1.18-.559-1.54.003l-.216.337c-.168.261-.52.327-.77.145-.241-.175-.294-.512-.12-.753l.349-.477c.38-.522.13-1.262-.489-1.447l-.373-.11c-.291-.088-.456-.395-.368-.686.092-.302.42-.464.715-.354l.361.134c.604.224 1.244-.234 1.227-.878l-.015-.576c-.008-.3.234-.548.534-.548.302 0 .543.248.535.55l-.019.632c-.018.633.61 1.084 1.204.864l.342-.127c.298-.11.627.053.719.357.088.293-.078.602-.371.689l-.383.113c-.629.187-.883.94-.496 1.469l.314.43c.174.238.125.573-.11.751zm7.902 0c-.251.191-.612.127-.783-.138l-.246-.38c-.361-.56-1.18-.559-1.54.003l-.216.337c-.168.261-.52.327-.77.145-.241-.175-.294-.512-.12-.753l.349-.477c.38-.522.13-1.262-.49-1.447l-.372-.11c-.291-.088-.456-.395-.368-.686.092-.302.42-.464.715-.354l.361.134c.604.224 1.244-.234 1.227-.878l-.015-.576c-.008-.3.234-.548.534-.548.302 0 .543.248.535.55l-.019.632c-.018.633.61 1.084 1.204.864l.342-.127c.298-.11.627.053.719.357.088.293-.078.602-.371.689l-.383.113c-.629.187-.883.94-.496 1.469l.314.43c.174.238.125.573-.11.751zm7.12-.138c.17.266.53.329.782.138.236-.178.285-.513.11-.752l-.313-.429c-.387-.53-.133-1.282.496-1.469l.383-.113c.293-.087.46-.396.37-.688-.091-.305-.42-.468-.718-.358l-.342.127c-.594.22-1.222-.231-1.204-.864l.018-.633c.01-.3-.233-.55-.534-.55-.3 0-.542.248-.534.549l.015.576c.017.644-.623 1.102-1.227.878l-.36-.134c-.297-.11-.624.052-.716.354-.088.291.077.598.368.685l.373.111c.618.185.868.925.489 1.447l-.348.477c-.175.24-.122.578.118.753.25.182.603.116.77-.145l.217-.337c.36-.562 1.179-.563 1.54-.003l.246.38zm8.684.138c-.251.191-.612.127-.783-.138l-.246-.38c-.361-.56-1.181-.559-1.54.003l-.217.337c-.167.261-.52.327-.77.145-.24-.175-.294-.512-.118-.753l.348-.477c.38-.522.13-1.262-.49-1.447l-.372-.11c-.291-.088-.457-.395-.368-.686.092-.302.42-.464.715-.354l.36.134c.605.224 1.245-.234 1.228-.878L30.3 6.92c-.008-.3.233-.548.534-.548.301 0 .543.248.534.55l-.018.632c-.018.633.61 1.084 1.204.864l.341-.127c.298-.11.628.053.72.357.088.293-.078.602-.371.689l-.383.113c-.629.187-.883.94-.496 1.469l.313.43c.175.238.126.573-.11.751z" clip-rule="evenodd"/>
</svg>
