<svg xmlns="http://www.w3.org/2000/svg" width="46" height="46" fill="none" viewBox="0 0 46 46">
    <path fill="#FFDB4D" d="M6.619 2.33c-.195 2.317-2.61 2.683-2.61 2.683C6.084 5.11 6.6 7.829 6.6 7.829c.044-1.938 2.669-2.845 2.669-2.845C7.302 4.866 6.619 2.33 6.619 2.33z"/>
    <path fill="#E5C545" fill-rule="evenodd" d="M6.91 2.252c.006.023.653 2.329 2.376 2.432.143.008.26.117.28.259.02.142-.064.278-.199.325-.024.008-2.428.863-2.467 2.568-.003.154-.122.28-.275.293H6.6c-.143 0-.268-.1-.295-.243-.005-.025-.5-2.488-2.309-2.573-.154-.008-.278-.13-.286-.285-.008-.154.103-.29.255-.313.089-.013 2.183-.364 2.355-2.41.012-.146.127-.26.272-.274.144-.013.28.08.318.22zM5.049 4.978c.777.395 1.248 1.151 1.52 1.779.406-.806 1.19-1.36 1.793-1.688-.829-.37-1.36-1.133-1.67-1.748-.36.873-1.056 1.376-1.643 1.657z" clip-rule="evenodd"/>
    <path fill="#FFDB4D" d="M2.272 5.732C2.134 7.37.427 7.629.427 7.629c1.466.07 1.831 1.993 1.831 1.993.032-1.372 1.888-2.013 1.888-2.013-1.39-.083-1.874-1.877-1.874-1.877z"/>
    <path fill="#E5C545" fill-rule="evenodd" d="M2.562 5.653c.004.016.446 1.587 1.601 1.656.144.008.26.117.28.26.02.141-.063.277-.199.324-.016.006-1.66.592-1.685 1.735-.004.154-.123.28-.276.293l-.025.001c-.143 0-.268-.101-.295-.244C1.96 9.66 1.62 7.986.413 7.929.257 7.922.133 7.8.125 7.645c-.008-.155.103-.29.255-.313.06-.01 1.476-.25 1.592-1.625.012-.146.127-.261.272-.275.145-.013.279.08.317.221zm-1.21 1.96c.422.267.706.68.891 1.057.276-.447.705-.775 1.075-.996-.458-.254-.778-.67-.99-1.046-.235.458-.604.776-.976.985z" clip-rule="evenodd"/>
    <path fill="#FFDB4D" d="M2.272.391C2.134 2.031.427 2.29.427 2.29c1.466.069 1.831 1.992 1.831 1.992C2.29 2.91 4.146 2.27 4.146 2.27 2.756 2.185 2.272.39 2.272.39z"/>
    <path fill="#E5C545" fill-rule="evenodd" d="M2.562.313c.004.016.446 1.586 1.601 1.656.144.008.26.117.28.259.02.142-.063.278-.199.325-.016.005-1.66.591-1.685 1.735-.004.154-.123.28-.276.293h-.025c-.143 0-.268-.101-.295-.244-.003-.016-.341-1.691-1.55-1.748-.155-.007-.279-.13-.287-.285-.008-.154.103-.29.255-.313.06-.01 1.476-.249 1.592-1.625.012-.145.127-.261.272-.274.145-.012.279.08.317.22zm-1.21 1.959c.423.267.706.68.891 1.058.276-.447.705-.776 1.075-.996-.458-.254-.778-.671-.99-1.047-.235.458-.604.776-.976.985z" clip-rule="evenodd"/>
    <path fill="#714FEB" d="M.3 16.828v25.176c0 1.702 1.38 3.082 3.082 3.082h38.513c1.702 0 3.082-1.38 3.082-3.082V16.828H.3z"/>
    <path fill="#3A312A" d="M44.976 16.527H.301c-.167 0-.301.135-.301.301v7.169c0 .166.134.3.3.3.167 0 .301-.134.301-.3v-6.869h44.075v24.876c0 1.534-1.248 2.781-2.781 2.781H3.382c-1.533 0-2.781-1.247-2.781-2.78V26.653c0-.166-.134-.3-.3-.3-.167 0-.301.134-.301.3v15.35c0 1.865 1.517 3.382 3.382 3.382h38.513c1.865 0 3.382-1.517 3.382-3.382V16.828c0-.166-.135-.3-.3-.3z"/>
    <path fill="#5F40CC" d="M41.895 10.884H3.382c-1.701 0-3.081 1.38-3.081 3.082v2.862h44.676v-2.862c0-1.702-1.38-3.082-3.082-3.082z"/>
    <path fill="#3A312A" d="M41.895 10.584h-6.261c-.166 0-.3.135-.3.3 0 .166.134.301.3.301h6.26c1.534 0 2.782 1.248 2.782 2.781v2.562H.6v-2.562c0-1.533 1.248-2.781 2.781-2.781h29.686c.166 0 .3-.135.3-.3 0-.166-.134-.301-.3-.301H3.382C1.517 10.584 0 12.101 0 13.966v2.862c0 .166.134.3.3.3h44.676c.166 0 .3-.134.3-.3v-2.862c0-1.865-1.516-3.382-3.381-3.382z"/>
    <circle cx="4.408" cy="13.89" r="1.352" fill="#EF6D7A"/>
    <path fill="#3A312A" fill-rule="evenodd" d="M2.755 13.89c0-.912.741-1.653 1.653-1.653.911 0 1.652.741 1.652 1.653 0 .911-.741 1.652-1.652 1.652-.912 0-1.653-.741-1.653-1.652zm.6 0c0 .58.473 1.051 1.053 1.051s1.051-.471 1.051-1.051-.471-1.052-1.051-1.052-1.052.472-1.052 1.052z" clip-rule="evenodd"/>
    <circle cx="10.067" cy="13.89" r="1.352" fill="#D6DF58"/>
    <path fill="#3A312A" fill-rule="evenodd" d="M8.414 13.89c0-.912.742-1.653 1.653-1.653s1.653.741 1.653 1.653c0 .911-.742 1.652-1.653 1.652s-1.653-.741-1.653-1.652zm.601 0c0 .58.472 1.051 1.052 1.051.58 0 1.052-.471 1.052-1.051s-.472-1.052-1.052-1.052c-.58 0-1.052.472-1.052 1.052z" clip-rule="evenodd"/>
    <circle cx="15.726" cy="13.89" r="1.352" fill="#8AC5DC"/>
    <path fill="#3A312A" fill-rule="evenodd" d="M14.074 13.89c0-.912.742-1.653 1.653-1.653s1.653.741 1.653 1.653c0 .911-.742 1.652-1.653 1.652s-1.653-.741-1.653-1.652zm.601 0c0 .58.472 1.051 1.052 1.051.58 0 1.052-.471 1.052-1.051s-.472-1.052-1.052-1.052c-.58 0-1.052.472-1.052 1.052z" clip-rule="evenodd"/>
    <path fill="#5F40CC" d="M41.67 17.13v24.874c0 1.534-1.248 2.78-2.78 2.78h3.005c1.532 0 2.78-1.246 2.78-2.78V17.129H41.67z"/>
    <path fill="#583BBC" d="M41.895 11.185H38.89c1.532 0 2.78 1.248 2.78 2.78v2.563h3.005v-2.562c0-1.533-1.248-2.78-2.78-2.78z"/>
    <circle cx="32.8" cy="31.03" r="7.663" fill="#D5DE58" transform="rotate(-9.208 32.8 31.03)"/>
    <path fill="#3A312A" fill-rule="evenodd" d="M24.846 31.026c0-4.392 3.573-7.965 7.964-7.965 4.392 0 7.965 3.573 7.965 7.965 0 4.392-3.573 7.965-7.965 7.965-4.391 0-7.964-3.573-7.964-7.965zm.6 0c0 4.06 3.304 7.364 7.364 7.364 4.06 0 7.364-3.304 7.364-7.364 0-4.06-3.303-7.364-7.364-7.364-4.06 0-7.363 3.304-7.363 7.364z" clip-rule="evenodd"/>
    <path fill="#8AC5DC" d="M23.328 31.028l-6.878-4.746v2.888l-12.248-.002v3.713l12.246.001v2.888l6.88-4.742z"/>
    <path fill="#3A312A" fill-rule="evenodd" d="M16.62 26.035L23.5 30.78c.081.056.13.148.13.247 0 .1-.05.192-.13.248l-6.881 4.742c-.051.035-.111.053-.17.053-.049 0-.097-.011-.14-.034-.1-.053-.161-.155-.161-.266v-2.587L4.201 33.18c-.08 0-.156-.032-.213-.088-.056-.057-.088-.133-.088-.213l.002-3.712c0-.166.134-.3.3-.3l11.947.001v-2.587c0-.111.063-.214.162-.266.098-.052.218-.044.31.019zm.128 6.847v2.315l6.05-4.17-6.048-4.173v2.316c0 .166-.135.3-.3.3l-11.948-.002v3.112l11.946.002c.08 0 .156.031.212.087.057.057.088.134.088.213z" clip-rule="evenodd"/>
</svg>
