<svg width="40" height="40" viewBox="0 0 40 40" fill="none" xmlns="http://www.w3.org/2000/svg">
<g filter="url(#filter0_d)">
<rect x="1" y="1" width="38" height="38" rx="20" stroke="#FCD834" stroke-width="2" stroke-linecap="square"/>
</g>
<path fill-rule="evenodd" clip-rule="evenodd" d="M22.3636 5L14 16.6129H19.0909L16.5455 25L26 13.3871H20.9091L22.3636 5Z" fill="#FCD834"/>
<path d="m19.7188,29.0703c0,0.5573 -0.0964,1.0469 -0.2891,1.4687c-0.1927,0.4193 -0.4687,0.7422 -0.8281,0.9688c-0.3568,0.2239 -0.7682,0.3359 -1.2344,0.3359c-0.4609,0 -0.8724,-0.112 -1.2344,-0.3359c-0.3593,-0.2266 -0.638,-0.5482 -0.8359,-0.9649c-0.1953,-0.4166 -0.2943,-0.8971 -0.2969,-1.4414l0,-0.3203c0,-0.5547 0.0977,-1.0442 0.293,-1.4687c0.1979,-0.4245 0.4752,-0.7487 0.832,-0.9727c0.3594,-0.2265 0.7709,-0.3398 1.2344,-0.3398c0.4635,0 0.8737,0.112 1.2305,0.3359c0.3593,0.2214 0.6367,0.5417 0.832,0.9609c0.1953,0.4167 0.2943,0.9024 0.2969,1.4571l0,0.3164zm-0.9883,-0.2969c0,-0.6302 -0.1198,-1.1133 -0.3594,-1.4492c-0.237,-0.3359 -0.5742,-0.5039 -1.0117,-0.5039c-0.4271,0 -0.7617,0.168 -1.0039,0.5039c-0.2396,0.3333 -0.362,0.806 -0.3672,1.418l0,0.3281c0,0.625 0.1211,1.1081 0.3633,1.4492c0.2448,0.3412 0.5833,0.5117 1.0156,0.5117c0.4375,0 0.7734,-0.1666 1.0078,-0.5c0.237,-0.3333 0.3555,-0.8203 0.3555,-1.4609l0,-0.2969zm6.7701,2.9922l-0.9883,0l-2.5352,-4.0352l0,4.0352l-0.9882,0l0,-5.6875l0.9882,0l2.543,4.0508l0,-4.0508l0.9805,0l0,5.6875z" fill="#FCD834"/>
<defs>
<filter id="filter0_d" x="0" y="0" width="40" height="40" filterUnits="userSpaceOnUse" color-interpolation-filters="sRGB">
<feFlood flood-opacity="0" result="BackgroundImageFix"/>
<feColorMatrix in="SourceAlpha" type="matrix" values="0 0 0 0 0 0 0 0 0 0 0 0 0 0 0 0 0 0 127 0" result="hardAlpha"/>
<feOffset dy="10"/>
<feGaussianBlur stdDeviation="10"/>
<feColorMatrix type="matrix" values="0 0 0 0 0 0 0 0 0 0 0 0 0 0 0 0 0 0 0.1 0"/>
<feBlend mode="normal" in2="BackgroundImageFix" result="effect1_dropShadow"/>
<feBlend mode="normal" in="SourceGraphic" in2="effect1_dropShadow" result="shape"/>
</filter>
</defs>
</svg>
