<svg xmlns="http://www.w3.org/2000/svg" width="100" height="86" fill="none" viewBox="0 0 100 86">
    <path fill="#D0A819" d="M37.368 25.592L0 12.755v49.067l37.368 12.915V25.592z"/>
    <path fill="#FFCE20" d="M37.368 25.592l37.368-12.837v49.067L37.368 74.737V25.592z"/>
    <path fill="#5E4D12" d="M55.12 51.568c.038-1.814.24-3.327.607-4.53.364-1.204 1.009-2.484 1.93-3.836.927-1.363 1.539-2.42 1.841-3.174.301-.766.45-1.52.45-2.262-.005-2.256-.776-3.174-2.312-2.731-.728.213-1.317.703-1.767 1.467-.442.748-.68 1.672-.715 2.768l-4.333 1.372c.087-2.637.742-4.91 1.958-6.797 1.213-1.883 2.834-3.118 4.871-3.688 2.055-.542 3.655-.24 4.81.864 1.163 1.067 1.77 2.808 1.812 5.226.018 1.091-.156 2.177-.524 3.264-.371 1.077-1.033 2.358-1.99 3.85l-1.236 1.896c-.78 1.202-1.233 2.452-1.356 3.745l-.072 1.186-3.974 1.38zm-.56 5.397c.023-.83.282-1.593.776-2.287.504-.712 1.134-1.196 1.89-1.454.758-.26 1.373-.205 1.847.166.486.35.725.93.716 1.743-.01.799-.262 1.548-.757 2.248-.486.696-1.126 1.19-1.919 1.476-.792.28-1.426.241-1.898-.118-.461-.367-.679-.959-.656-1.774z"/>
    <path fill="#FFD646" d="M37.368 0L0 12.796 37.368 25.59l37.369-12.795L37.367 0z"/>
    <path fill="#E0B315" d="M51.407 4.808L14.04 17.603l9.29 3.18L60.695 7.989l-9.289-3.18z"/>
    <path fill="#AE8C14" d="M23.33 20.788v11.904l-5.626-2.474-3.669-1.617V17.608l3.669 1.25 5.626 1.93z"/>
    <path fill="#825FC5" d="M80 52.644l-20-6.87v26.261l20 6.912V52.644z"/>
    <path fill="#9C67FF" d="M80 52.644l20-6.87v26.261l-20 6.912V52.644z"/>
    <path fill="#4A2F7C" d="M89.501 66.547c.02-.97.129-1.78.325-2.424.195-.645.54-1.33 1.034-2.053.495-.73.823-1.295.984-1.699.161-.41.242-.814.241-1.211-.002-1.207-.415-1.699-1.237-1.462-.39.115-.705.377-.946.785-.237.401-.364.896-.383 1.482l-2.319.734c.047-1.41.397-2.627 1.048-3.637.65-1.008 1.517-1.669 2.607-1.974 1.1-.29 1.956-.129 2.574.462.623.571.948 1.503.97 2.797.01.584-.083 1.166-.28 1.747-.199.576-.553 1.262-1.065 2.061l-.662 1.014c-.417.644-.66 1.313-.725 2.005l-.039.635-2.127.738zm-.3 2.889c.013-.444.151-.853.416-1.225.27-.38.607-.64 1.012-.777.405-.14.734-.11.988.088.26.187.388.498.383.933-.005.428-.14.829-.405 1.204-.26.372-.603.636-1.027.79-.424.15-.763.129-1.016-.064-.247-.196-.363-.513-.35-.95z"/>
    <path fill="#AE83FF" d="M80 38.947l-20 6.849 20 6.848 20-6.848-20-6.849z"/>
    <path fill="#E78BF5" d="M87.514 41.52l-20 6.849 4.972 1.702 20-6.848-4.972-1.703z"/>
    <path fill="#C677D3" d="M72.486 50.074v6.37l-3.011-1.323-1.964-.865v-5.884l1.964.67 3.01 1.032z"/>
    <path fill="#2194B6" d="M50.526 65.881L35.789 60.82v19.35l14.737 5.093v-19.38z"/>
    <path fill="#2AB4DD" d="M50.526 65.881l14.737-5.062v19.35l-14.737 5.093v-19.38z"/>
    <path fill="#1B4B59" d="M57.527 76.126c.015-.716.095-1.312.24-1.787.143-.475.397-.98.76-1.513.366-.537.607-.954.727-1.251.118-.303.177-.6.177-.893-.002-.889-.306-1.251-.912-1.077-.287.085-.52.278-.697.579-.174.295-.268.66-.282 1.092l-1.709.54c.035-1.039.293-1.936.773-2.68.478-.742 1.117-1.23 1.92-1.454.811-.214 1.442-.095 1.897.34.46.421.699 1.108.715 2.062.007.43-.061.858-.206 1.287-.147.425-.408.93-.785 1.518l-.488.748c-.307.474-.486.967-.534 1.477l-.029.468-1.567.544zm-.221 2.128c.01-.327.111-.628.306-.902.2-.28.447-.472.746-.573.299-.103.541-.081.728.065.192.138.286.367.282.688-.004.315-.103.61-.298.886-.192.275-.444.47-.757.582-.313.111-.562.095-.749-.046-.181-.145-.267-.378-.258-.7z"/>
    <path fill="#63CBEA" d="M50.526 55.79l-14.737 5.045 14.737 5.047 14.737-5.047-14.737-5.046z"/>
    <path fill="#3D92AB" d="M56.063 57.685l-14.737 5.046 3.664 1.255 14.736-5.047-3.663-1.254z"/>
    <path fill="#2C6A7C" d="M44.99 63.987v4.695l-2.22-.976-1.446-.637v-4.336l1.447.493 2.218.761z"/>
</svg>
