<svg width="16" height="16" viewBox="0 0 16 16" fill="none" xmlns="http://www.w3.org/2000/svg">
<path d="M7.53379 1.20288C7.6988 0.777135 8.3012 0.777136 8.46621 1.20288L10.1582 5.56848C10.2292 5.75152 10.4006 5.87611 10.5966 5.88702L15.2714 6.14717C15.7273 6.17254 15.9135 6.74545 15.5596 7.03395L11.9305 9.99219C11.7783 10.1162 11.7128 10.3178 11.763 10.5076L12.9602 15.034C13.077 15.4754 12.5896 15.8295 12.2059 15.582L8.27096 13.0447C8.10598 12.9383 7.89402 12.9383 7.72904 13.0447L3.79414 15.582C3.4104 15.8295 2.92305 15.4754 3.0398 15.034L4.23697 10.5076C4.28717 10.3178 4.22166 10.1162 4.06951 9.99219L0.440432 7.03395C0.0865152 6.74545 0.272668 6.17254 0.728565 6.14717L5.40336 5.88702C5.59936 5.87611 5.77084 5.75152 5.84179 5.56848L7.53379 1.20288Z" fill="#E7B10A"/>
</svg>
