<svg width="23" height="23" viewBox="0 0 23 23" fill="none" xmlns="http://www.w3.org/2000/svg">
<path d="M4 18.9565H20" stroke="#50C1E3" stroke-linecap="round"/>
<path d="M18 17.5H8V14.5L13 12.5L18 9.5V17.5Z" fill="#50C1E3" fill-opacity="0.3"/>
<path d="M4 4L4 19" stroke="#50C1E3" stroke-linecap="round"/>
<path d="M13 12.5L13 17" stroke="#50C1E3" stroke-linecap="round"/>
<path d="M18 9.77393V17.0087" stroke="#50C1E3" stroke-linecap="round"/>
<path d="M8 14.7129V16.939" stroke="#50C1E3" stroke-linecap="round"/>
<path d="M9 10.5L12.5 8.5M14.2257 7.8516L16.4518 6.0791" stroke="#50C1E3"/>
<path d="M8.11304 12.1131C8.72776 12.1131 9.22609 11.6147 9.22609 11C9.22609 10.3853 8.72776 9.88696 8.11304 9.88696C7.49833 9.88696 7 10.3853 7 11C7 11.6147 7.49833 12.1131 8.11304 12.1131Z" fill="#50C1E3" fill-opacity="0.3" stroke="#50C1E3"/>
<path d="M13.113 9.33033C13.7278 9.33033 14.2261 8.83201 14.2261 8.21729C14.2261 7.60257 13.7278 7.10425 13.113 7.10425C12.4983 7.10425 12 7.60257 12 8.21729C12 8.83201 12.4983 9.33033 13.113 9.33033Z" fill="#50C1E3" fill-opacity="0.3" stroke="#50C1E3"/>
<path d="M17.5652 6.54786C18.1799 6.54786 18.6782 6.04954 18.6782 5.43482C18.6782 4.8201 18.1799 4.32178 17.5652 4.32178C16.9505 4.32178 16.4521 4.8201 16.4521 5.43482C16.4521 6.04954 16.9505 6.54786 17.5652 6.54786Z" fill="#50C1E3" fill-opacity="0.3" stroke="#50C1E3"/>
</svg>
