<svg xmlns="http://www.w3.org/2000/svg" width="102" height="106" fill="none" viewBox="0 0 102 106">
    <path fill="url(#paint0_diamond)" stroke="#46555C" stroke-linejoin="round" stroke-width=".5" d="M100.891 25.474c-.834-5.446-5.942-7.817-6.321-7.983 2.206-2.888 2.812-6.548 1.475-9.554-.22-.496-2.047-4.46-5.894-4.763-2.082-.165-3.66.751-4.26 1.137-.083-.558-.303-1.433-.986-2.15C83.561.748 81.41.968 80.232 1.092c-4.288.462-7.148 3.819-8.23 5.26l-.36.02c-.992-.972-4.604-4.129-10.029-3.936-5.756.207-9.237 4.033-10.105 5.101-5.287.304-10.575.614-15.855.917C24.334 17.381 13.01 26.308 1.69 35.234c1.186 3.481 2.372 6.963 3.55 10.45l1.055.166c-.076.02-.145.048-.22.076-.428.151-4.557 1.682-5.033 5.7-.351 3 1.544 5.563 3.647 6.728 1.22.676 2.406.82 3.122.841.27.869 1.083 3.054 3.233 4.288.462.269.924.448 1.351.579.538 6.955 1.083 13.91 1.62 20.859 13.435 6.624 26.87 13.256 40.305 19.88L88.36 77.69l1.882-30.158c.586-.586 2.97-3.088 2.847-6.693-.042-1.207-.352-2.206-.669-2.944 1.179-.379 3.481-1.289 5.446-3.48.662-.752 3.75-4.185 3.026-8.941z"/>
    <defs>
        <radialGradient id="paint0_diamond" cx="0" cy="0" r="1" gradientTransform="matrix(.49994 78.3699 -75.50046 .48164 44.5 58.61)" gradientUnits="userSpaceOnUse">
            <stop stop-color="#fff" stop-opacity="0"/>
            <stop offset="1" stop-color="#F0F0F0" stop-opacity=".1"/>
        </radialGradient>
    </defs>
</svg>
