<svg width="23" height="23" viewBox="0 0 23 23" fill="none" xmlns="http://www.w3.org/2000/svg">
<path fill-rule="evenodd" clip-rule="evenodd" d="M17.9046 11.5176V17.0965L11.889 19.0004L6.49628 17.0965V11.5176L10.5208 12.9571L11.889 10.7794L13.2816 13.0896L17.9046 11.5176Z" fill="#9C67FF" fill-opacity="0.3" stroke="#9C67FF" stroke-linejoin="round"/>
<path d="M17.9046 11.5175V17.0964L11.889 19.0003L6.49628 17.0964V11.5175" stroke="#9C67FF"/>
<path d="M11.8891 19.0004L11.889 10.7275" stroke="#9C67FF"/>
<path fill-rule="evenodd" clip-rule="evenodd" d="M6.21494 8.46217L11.8889 10.6625L17.7404 8.46217L12.0116 6.26184L6.21494 8.46217Z" stroke="#9C67FF" stroke-linejoin="round"/>
<path d="M5.99888 8.60181L4.4877 10.7568L10.5212 12.9572L11.7543 10.6283" stroke="#9C67FF" stroke-linecap="round"/>
<path d="M12.0114 10.7276L13.2813 13.0897L19.842 10.6625L17.9043 8.60181" stroke="#9C67FF" stroke-linecap="round"/>
<path d="M6.06395 8.46245L4 6.37417L9.91539 4.28589L11.8895 6.26212" stroke="#9C67FF" stroke-linecap="round"/>
<path d="M17.7403 8.46237L19.9375 6.15813L14.203 4L12.0114 6.26204" stroke="#9C67FF" stroke-linecap="round"/>
</svg>
