<svg width="23" height="23" viewBox="0 0 23 23" fill="none" xmlns="http://www.w3.org/2000/svg">
<path fill-rule="evenodd" clip-rule="evenodd" d="M13.785 15.2593V17.522C13.785 17.7229 13.6266 17.8858 13.4313 17.8858H3.35372C3.15837 17.8858 3 17.7229 3 17.522V15.2593C3 13.4404 5.40885 11.9525 8.38365 11.9525C11.3584 11.9525 13.785 13.4331 13.785 15.2593Z" fill="#F5BE12" fill-opacity="0.3" stroke="#F5BE12" stroke-linecap="round"/>
<path d="M8.40125 10.6866C10.0032 10.6866 11.3018 9.36242 11.3018 7.72902C11.3018 6.09562 10.0032 4.77148 8.40125 4.77148C6.79934 4.77148 5.50073 6.09562 5.50073 7.72902C5.50073 9.36242 6.79934 10.6866 8.40125 10.6866Z" fill="#F5BE12" fill-opacity="0.3" stroke="#F5BE12" stroke-linecap="round"/>
<path d="M15.1293 13.8842C15.5059 13.8108 15.8885 13.7743 16.2718 13.775C18.3305 13.775 20 14.8009 20 16.0632V17.6275C20 17.7601 19.8955 17.8676 19.7666 17.8676H15.1222" stroke="#F5BE12" stroke-linecap="round"/>
<path d="M16.2679 11.7492C17.2974 11.7492 18.132 10.8974 18.132 9.84666C18.132 8.7959 17.2974 7.94409 16.2679 7.94409C15.2384 7.94409 14.4038 8.7959 14.4038 9.84666C14.4038 10.8974 15.2384 11.7492 16.2679 11.7492Z" stroke="#F5BE12" stroke-linecap="round"/>
</svg>
