<svg width="14" height="14" viewBox="0 0 14 14" fill="none" xmlns="http://www.w3.org/2000/svg">
    <path d="M11.2439 11.9931C11.0519 11.9931 10.8599 11.9201 10.7139 11.7731C10.4209 11.4801 10.4209 11.0051 10.7139 10.7121C12.7609 8.6651 12.7609 5.3341 10.7139 3.2871C10.4209 2.9941 10.4209 2.5191 10.7139 2.2261C11.0069 1.9331 11.4819 1.9331 11.7749 2.2261C13.0499 3.5011 13.7519 5.1961 13.7519 6.9991C13.7519 8.8021 13.0499 10.4971 11.7749 11.7721C11.6289 11.9181 11.4369 11.9921 11.2449 11.9921L11.2439 11.9931ZM8.57885 10.5781C8.38685 10.5781 8.19485 10.5051 8.04885 10.3581C7.75585 10.0651 7.75585 9.5901 8.04885 9.2971C9.31585 8.0301 9.31585 5.9681 8.04885 4.7011C7.75585 4.4081 7.75585 3.9331 8.04885 3.6401C8.34185 3.3471 8.81685 3.3471 9.10985 3.6401C10.9619 5.4921 10.9619 8.5051 9.10985 10.3581C8.96385 10.5041 8.77185 10.5781 8.57985 10.5781H8.57885Z" fill="#6D7278"/>
    <path d="M6.501 14C6.371 14 6.243 13.949 6.147 13.854L2.293 9.99996H0.5C0.224 9.99996 0 9.77596 0 9.49996V4.49996C0 4.22396 0.224 3.99996 0.5 3.99996H2.293L6.147 0.145957C6.29 0.00295693 6.505 -0.0400431 6.692 0.0379569C6.879 0.115957 7.001 0.297957 7.001 0.499957V13.5C7.001 13.702 6.879 13.885 6.692 13.962C6.63 13.988 6.565 14 6.501 14Z" fill="#6D7278"/>
</svg>
