<svg xmlns="http://www.w3.org/2000/svg" width="375" height="226" fill="none" viewBox="0 0 375 226">
    <path fill="#131719" d="M0 0H375V226H0z"/>
    <mask id="2o17yie5ia" width="375" height="226" x="0" y="0" maskUnits="userSpaceOnUse">
        <path fill="#fff" d="M0 0H375V226H0z"/>
    </mask>
    <g mask="url(#2o17yie5ia)">
        <g fill="#0B0D0E" opacity=".5">
            <path d="M14.636 342.5H1199.636V343.5H14.636z" transform="rotate(-30 14.636 342.5)"/>
            <path d="M18.136 352.866H1203.136V353.866H18.136z" transform="rotate(-30 18.136 352.866)"/>
            <path d="M21.636 363.232H1206.636V364.232H21.636z" transform="rotate(-30 21.636 363.232)"/>
            <path d="M25.136 373.598H1210.136V374.598H25.136z" transform="rotate(-30 25.136 373.598)"/>
            <path d="M28.636 383.964H1213.636V384.964H28.636z" transform="rotate(-30 28.636 383.964)"/>
            <path d="M32.136 394.33H1217.136V395.33H32.136z" transform="rotate(-30 32.136 394.33)"/>
            <path d="M35.636 404.696H1220.636V405.696H35.636z" transform="rotate(-30 35.636 404.696)"/>
            <path d="M39.136 415.062H1224.136V416.062H39.136z" transform="rotate(-30 39.136 415.062)"/>
            <path d="M42.636 425.428H1227.636V426.428H42.636z" transform="rotate(-30 42.636 425.428)"/>
            <path d="M46.136 435.794H1231.136V436.794H46.136z" transform="rotate(-30 46.136 435.794)"/>
            <path d="M49.636 446.16H1234.636V447.16H49.636z" transform="rotate(-30 49.636 446.16)"/>
            <path d="M53.136 456.526H1238.136V457.526H53.136z" transform="rotate(-30 53.136 456.526)"/>
            <path d="M56.636 466.892H1241.636V467.892H56.636z" transform="rotate(-30 56.636 466.892)"/>
            <path d="M60.136 477.258H1245.136V478.258H60.136z" transform="rotate(-30 60.136 477.258)"/>
            <path d="M63.636 487.624H1248.636V488.624H63.636z" transform="rotate(-30 63.636 487.624)"/>
            <path d="M67.136 497.99H1252.136V498.99H67.136z" transform="rotate(-30 67.136 497.99)"/>
            <path d="M70.636 508.356H1255.636V509.356H70.636z" transform="rotate(-30 70.636 508.356)"/>
            <path d="M74.136 518.722H1259.136V519.722H74.136z" transform="rotate(-30 74.136 518.722)"/>
            <path d="M77.636 529.088H1262.636V530.088H77.636z" transform="rotate(-30 77.636 529.088)"/>
            <path d="M81.136 539.454H1266.136V540.454H81.136z" transform="rotate(-30 81.136 539.454)"/>
            <path d="M84.636 549.82H1269.636V550.82H84.636z" transform="rotate(-30 84.636 549.82)"/>
            <path d="M88.136 560.187H1273.136V561.187H88.136z" transform="rotate(-30 88.136 560.187)"/>
            <path d="M91.636 570.552H1276.636V571.552H91.636z" transform="rotate(-30 91.636 570.552)"/>
            <path d="M95.136 580.918H1280.136V581.918H95.136z" transform="rotate(-30 95.136 580.918)"/>
            <path d="M98.636 591.284H1283.636V592.284H98.636z" transform="rotate(-30 98.636 591.284)"/>
            <path d="M102.136 601.65H1287.136V602.65H102.136z" transform="rotate(-30 102.136 601.65)"/>
            <path d="M105.636 612.017H1290.636V613.017H105.636z" transform="rotate(-30 105.636 612.017)"/>
            <path d="M109.136 622.383H1294.136V623.383H109.136z" transform="rotate(-30 109.136 622.383)"/>
            <path d="M112.636 632.749H1297.636V633.749H112.636z" transform="rotate(-30 112.636 632.749)"/>
            <path d="M116.136 643.115H1301.136V644.115H116.136z" transform="rotate(-30 116.136 643.115)"/>
            <path d="M119.636 653.481H1304.636V654.481H119.636z" transform="rotate(-30 119.636 653.481)"/>
            <path d="M123.136 663.847H1308.136V664.847H123.136z" transform="rotate(-30 123.136 663.847)"/>
            <path d="M126.636 674.213H1311.636V675.213H126.636z" transform="rotate(-30 126.636 674.213)"/>
        </g>
        <g fill="#0B0D0E" opacity=".5">
            <path d="M-693.364 343.5H491.63599999999997V344.5H-693.364z" transform="rotate(-30 -693.364 343.5)"/>
            <path d="M-689.864 353.866H495.13599999999997V354.866H-689.864z" transform="rotate(-30 -689.864 353.866)"/>
            <path d="M-686.364 364.232H498.63599999999997V365.232H-686.364z" transform="rotate(-30 -686.364 364.232)"/>
            <path d="M-682.864 374.598H502.13599999999997V375.598H-682.864z" transform="rotate(-30 -682.864 374.598)"/>
            <path d="M-679.364 384.964H505.63599999999997V385.964H-679.364z" transform="rotate(-30 -679.364 384.964)"/>
            <path d="M-675.864 395.33H509.13599999999997V396.33H-675.864z" transform="rotate(-30 -675.864 395.33)"/>
            <path d="M-672.364 405.696H512.636V406.696H-672.364z" transform="rotate(-30 -672.364 405.696)"/>
            <path d="M-668.864 416.062H516.136V417.062H-668.864z" transform="rotate(-30 -668.864 416.062)"/>
            <path d="M-665.364 426.428H519.636V427.428H-665.364z" transform="rotate(-30 -665.364 426.428)"/>
            <path d="M-661.864 436.794H523.136V437.794H-661.864z" transform="rotate(-30 -661.864 436.794)"/>
            <path d="M-658.364 447.16H526.636V448.16H-658.364z" transform="rotate(-30 -658.364 447.16)"/>
            <path d="M-654.864 457.526H530.136V458.526H-654.864z" transform="rotate(-30 -654.864 457.526)"/>
            <path d="M-651.364 467.892H533.636V468.892H-651.364z" transform="rotate(-30 -651.364 467.892)"/>
            <path d="M-647.864 478.258H537.136V479.258H-647.864z" transform="rotate(-30 -647.864 478.258)"/>
            <path d="M-644.364 488.624H540.636V489.624H-644.364z" transform="rotate(-30 -644.364 488.624)"/>
            <path d="M-640.864 498.99H544.136V499.99H-640.864z" transform="rotate(-30 -640.864 498.99)"/>
            <path d="M-637.364 509.356H547.636V510.356H-637.364z" transform="rotate(-30 -637.364 509.356)"/>
            <path d="M-633.864 519.722H551.136V520.722H-633.864z" transform="rotate(-30 -633.864 519.722)"/>
            <path d="M-630.364 530.088H554.636V531.088H-630.364z" transform="rotate(-30 -630.364 530.088)"/>
            <path d="M-626.864 540.454H558.136V541.454H-626.864z" transform="rotate(-30 -626.864 540.454)"/>
            <path d="M-623.364 550.82H561.636V551.82H-623.364z" transform="rotate(-30 -623.364 550.82)"/>
            <path d="M-619.864 561.187H565.136V562.187H-619.864z" transform="rotate(-30 -619.864 561.187)"/>
            <path d="M-616.364 571.552H568.636V572.552H-616.364z" transform="rotate(-30 -616.364 571.552)"/>
            <path d="M-612.864 581.918H572.136V582.918H-612.864z" transform="rotate(-30 -612.864 581.918)"/>
            <path d="M-609.364 592.284H575.636V593.284H-609.364z" transform="rotate(-30 -609.364 592.284)"/>
            <path d="M-605.864 602.65H579.136V603.65H-605.864z" transform="rotate(-30 -605.864 602.65)"/>
            <path d="M-602.364 613.017H582.636V614.017H-602.364z" transform="rotate(-30 -602.364 613.017)"/>
            <path d="M-598.864 623.383H586.136V624.383H-598.864z" transform="rotate(-30 -598.864 623.383)"/>
            <path d="M-595.364 633.749H589.636V634.749H-595.364z" transform="rotate(-30 -595.364 633.749)"/>
            <path d="M-591.864 644.115H593.136V645.115H-591.864z" transform="rotate(-30 -591.864 644.115)"/>
            <path d="M-588.364 654.481H596.636V655.481H-588.364z" transform="rotate(-30 -588.364 654.481)"/>
            <path d="M-584.864 664.847H600.136V665.847H-584.864z" transform="rotate(-30 -584.864 664.847)"/>
            <path d="M-581.364 675.213H603.636V676.213H-581.364z" transform="rotate(-30 -581.364 675.213)"/>
        </g>
        <circle cx="187.5" cy="108.5" r="99.5" fill="url(#paint0_radial)"/>
        <g opacity=".6">
            <path fill="#FCD834" fill-rule="evenodd" d="M3.733 49.178c-.519.157-1.066.16-1.642.005-.569-.153-1.04-.425-1.413-.819-.373-.393-.614-.876-.724-1.45-.109-.573-.077-1.19.097-1.852l.091-.34c.181-.675.463-1.238.844-1.687.382-.448.832-.75 1.35-.906.519-.157 1.064-.158 1.637-.004.572.153 1.044.427 1.415.821.37.395.61.881.715 1.46.106.58.07 1.206-.111 1.88l-.082.306c-.181.676-.46 1.236-.835 1.682-.376.445-.823.746-1.342.904zm-2.288-2.034c.154.456.473.749.957.879.475.127.89.038 1.244-.266.355-.304.63-.813.824-1.526l.09-.335c.192-.72.21-1.302.052-1.745-.157-.443-.475-.729-.953-.857-.475-.127-.89-.04-1.247.26-.357.3-.633.807-.827 1.52l-.09.335c-.188.701-.205 1.28-.05 1.735zM62.02 146.646c-.256.478-.642.867-1.158 1.164-.51.295-1.036.435-1.578.421-.542-.014-1.055-.185-1.537-.514-.483-.328-.897-.787-1.241-1.378l-.176-.304c-.35-.606-.549-1.203-.596-1.79-.048-.587.056-1.119.313-1.596.256-.477.641-.864 1.154-1.16.513-.296 1.04-.436 1.582-.42.541.017 1.054.192 1.539.527.484.335.9.804 1.249 1.407l.159.275c.35.606.55 1.2.599 1.78.05.58-.054 1.11-.31 1.588zm-3.057.18c.431.214.864.195 1.298-.056.426-.246.657-.601.692-1.067.035-.466-.13-1.02-.497-1.662l-.173-.3c-.373-.645-.772-1.069-1.196-1.271-.425-.202-.852-.179-1.28.068-.426.246-.659.601-.699 1.066-.04.464.124 1.018.49 1.659l.174.3c.363.629.76 1.05 1.191 1.263z" clip-rule="evenodd"/>
            <path fill="#4FC1E3" fill-rule="evenodd" d="M21.401 86.353c-.37.396-.843.67-1.419.825-.569.152-1.113.151-1.633-.002-.52-.154-.97-.452-1.352-.895-.381-.442-.662-.992-.842-1.652l-.09-.34c-.182-.675-.22-1.303-.114-1.883.106-.579.345-1.066.716-1.46.371-.394.843-.668 1.415-.822.572-.153 1.118-.152 1.636.004.52.156.97.459 1.35.907.382.45.663 1.01.843 1.683l.082.306c.181.676.22 1.301.118 1.875-.102.573-.339 1.058-.71 1.454zm-2.998-.617c.361.317.784.411 1.268.281.475-.127.79-.41.945-.852.155-.44.138-1.018-.05-1.733l-.09-.335c-.193-.72-.468-1.232-.826-1.537-.358-.305-.776-.394-1.254-.266-.475.127-.792.41-.95.849-.16.438-.145 1.015.043 1.73l.09.334c.188.702.462 1.21.824 1.529zM76.734 212.236c-.542.008-1.069-.141-1.58-.448-.504-.303-.882-.696-1.132-1.176-.25-.481-.35-1.012-.296-1.594.053-.581.254-1.166.603-1.753l.181-.302c.36-.6.786-1.063 1.277-1.389.49-.326 1.006-.493 1.547-.5.542-.007 1.067.142 1.574.448.508.305.886.698 1.134 1.179.248.482.344 1.016.286 1.602-.058.586-.267 1.177-.625 1.775l-.164.272c-.36.599-.782 1.062-1.266 1.386-.484.325-.997.491-1.539.5zm-1.64-2.586c.023.481.25.85.68 1.108.42.254.844.283 1.268.088.425-.195.829-.608 1.212-1.24l.179-.297c.384-.639.561-1.193.532-1.663-.03-.469-.256-.832-.68-1.086-.422-.254-.845-.285-1.271-.095-.426.191-.83.602-1.214 1.234l-.178.297c-.374.622-.55 1.173-.527 1.654z" clip-rule="evenodd"/>
            <path fill="#19BD66" d="M40.214 65.856c.375-.151.556-.578.404-.953l-1.944-4.813 1.469-.594c.304-.122.45-.468.328-.772-.123-.304-.469-.45-.773-.328l-4.269 1.725c-.304.123-.45.469-.328.773.123.303.469.45.773.327l1.442-.582 1.944 4.812c.151.375.578.556.954.405z"/>
            <path fill="#8847FF" d="M108.156 220.878c.377-.145.566-.568.421-.946l-1.86-4.845 1.479-.568c.306-.118.459-.461.341-.767-.117-.306-.46-.458-.766-.341l-4.299 1.65c-.306.117-.458.461-.341.767.117.305.461.458.767.341l1.451-.558 1.86 4.846c.145.378.569.566.947.421zM52.955 112.633c.35.202.798.082 1-.268l2.823-4.888c.202-.35.082-.798-.268-1.001-.35-.202-.798-.082-1 .268l-2.823 4.889c-.202.35-.082.798.268 1zM31.948 207.895c.38-.138.576-.559.438-.939l-1.93-5.304c-.139-.38-.56-.576-.94-.438-.38.139-.575.559-.437.939l1.93 5.304c.139.38.56.576.94.438z"/>
            <path fill="#FCD834" d="M62.732 66.11c.405 0 .733-.329.733-.733v-5.645c0-.404-.328-.732-.733-.732-.404 0-.732.328-.732.732v5.645c0 .404.328.732.732.732zM132.421 216.975c.324-.022.568-.303.546-.628-.023-.324-.304-.568-.628-.545l-2.673.187c-.018.001-.034-.013-.035-.031l-.129-1.839c-.001-.015.011-.029.026-.03l2.205-.154c.316-.022.555-.296.533-.612-.022-.316-.297-.555-.613-.533l-2.205.155c-.016.001-.029-.011-.03-.026l-.114-1.63c-.001-.018.012-.034.03-.035l2.659-.186c.327-.023.573-.306.55-.633-.022-.327-.306-.573-.633-.551l-4.105.288c-.026.001-.046.024-.044.05l.489 6.998c.002.026.025.045.051.044l4.12-.289z"/>
            <path fill="#131719" fill-rule="evenodd" d="M61 170c-2.21 0-4 1.791-4 4s1.79 4 4 4" clip-rule="evenodd"/>
            <path stroke="#F05660" stroke-linecap="round" stroke-width="1.2" d="M61 170c-2.21 0-4 1.791-4 4s1.79 4 4 4"/>
            <circle r="2" fill="#4FC1E3" transform="matrix(-1 0 0 1 1 212)"/>
            <circle r="2" fill="#F05660" transform="matrix(-1 0 0 1 124 185)"/>
            <circle r="2" fill="#4FC1E3" transform="matrix(-1 0 0 1 52 30)"/>
            <rect width="6" height="6" x="20" y="109" stroke="#FCD834" stroke-width="1.2" rx="1"/>
            <rect width="4" height="4" x="96.175" y="151.852" stroke="#8847FF" stroke-width="1.2" rx="1" transform="rotate(-42 96.175 151.852)"/>
            <rect width="4" height="4" x="36.244" y="186.364" fill="#FCD834" rx="1" transform="rotate(-32 36.244 186.364)"/>
            <rect width="4" height="4" x="87.035" y="120.965" fill="#4FC1E3" rx="1" transform="rotate(1 87.035 120.965)"/>
            <path stroke="#8847FF" stroke-linecap="round" stroke-width="1.2" d="M19.519 138.39l-.527 1.138c-.416.901.136 1.951 1.114 2.119l.33.057c1.004.173 1.44 1.371.782 2.148v0c-.658.777-.222 1.976.782 2.148v0c1.004.172 1.44 1.371.782 2.148v0c-.658.777-.222 1.975.782 2.148l.33.056c.979.168 1.53 1.219 1.114 2.12l-.526 1.138"/>
            <path stroke="#F05660" stroke-linecap="round" stroke-width="1.2" d="M60.207 87.765l.329 1.21c.26.959 1.358 1.409 2.215.909l.29-.17c.88-.513 1.984.125 1.98 1.143v0C65.016 91.876 66.12 92.513 67 92v0c.88-.513 1.984.124 1.98 1.143v0c-.005 1.019 1.1 1.656 1.979 1.143l.29-.17c.857-.5 1.955-.05 2.215.908l.329 1.21M37.047 31.245l-.136-1.247c-.107-.986-1.12-1.603-2.046-1.243l-.312.122c-.95.37-1.94-.433-1.777-1.438v0C32.94 26.433 31.95 25.63 31 26v0c-.95.37-1.94-.433-1.776-1.438v0c.163-1.006-.828-1.808-1.777-1.439l-.313.122c-.924.36-1.939-.257-2.046-1.243l-.135-1.247"/>
            <path stroke="#4FC1E3" stroke-linecap="round" stroke-width="1.2" d="M9.274 183.459l.72-.607c.568-.48.526-1.369-.086-1.793l-.207-.143c-.628-.436-.544-1.388.15-1.708v0c.693-.32.777-1.273.149-1.708v0c-.628-.435-.544-1.388.15-1.708v0c.693-.32.776-1.272.149-1.708l-.207-.143c-.612-.424-.654-1.313-.085-1.793l.718-.607"/>
            <path fill-rule="evenodd" stroke="#FCD834" stroke-width="1.2" d="M99.106 178.789c.368-.737 1.42-.737 1.788 0l2.382 4.764c.333.665-.151 1.447-.894 1.447h-4.764c-.743 0-1.227-.782-.894-1.447l2.382-4.764z" clip-rule="evenodd"/>
            <path fill="#F05660" fill-rule="evenodd" d="M47.495 221.959c-.354-.744.294-1.573 1.101-1.409l3.03.612c.728.148 1.047 1.01.589 1.596l-1.702 2.178c-.457.586-1.371.485-1.69-.186l-1.328-2.791z" clip-rule="evenodd"/>
            <path fill="#8847FF" fill-rule="evenodd" d="M7.495 21.96c-.354-.745.294-1.574 1.101-1.41l3.03.612c.728.148 1.047 1.01.589 1.596l-1.702 2.178c-.457.586-1.372.485-1.69-.186l-1.328-2.79z" clip-rule="evenodd"/>
        </g>
        <g opacity=".6">
            <path fill="#4FC1E3" d="M357.463 53.49c.299.128.644-.012.771-.311.127-.3-.012-.645-.311-.772l-2.294-.973c-.015-.007-.022-.025-.016-.04l2.02-4.759c.158-.372-.016-.802-.388-.96-.372-.158-.802.016-.96.388l-2.474 5.828c-.01.023.001.05.024.06l3.628 1.54z"/>
            <path fill="#FCD834" d="M329.394 76.493c.297.132.645-.001.777-.298s-.001-.645-.298-.777l-2.276-1.013c-.016-.007-.023-.025-.016-.04l2.103-4.723c.164-.37-.002-.803-.371-.967-.37-.165-.803.002-.967.371l-2.576 5.784c-.01.023 0 .05.023.06l3.601 1.603z"/>
            <path fill="#4FC1E3" fill-rule="evenodd" d="M265.945 220.236c-.542.008-1.069-.141-1.579-.448-.506-.303-.883-.696-1.134-1.176-.25-.481-.349-1.012-.295-1.594.053-.581.254-1.166.603-1.753l.181-.302c.361-.6.786-1.063 1.277-1.389.49-.326 1.006-.493 1.547-.5.542-.007 1.067.142 1.574.448.508.305.886.698 1.134 1.179.248.482.344 1.016.286 1.602-.058.586-.267 1.177-.625 1.775l-.164.272c-.36.599-.782 1.062-1.266 1.386-.484.325-.997.491-1.539.5zm-1.639-2.586c.022.481.248.85.678 1.108.422.254.845.283 1.269.088.425-.195.829-.608 1.212-1.24l.179-.297c.384-.639.561-1.193.532-1.663-.03-.469-.256-.832-.68-1.086-.422-.254-.845-.285-1.271-.095-.426.191-.83.602-1.214 1.234l-.178.297c-.374.622-.55 1.173-.527 1.654z" clip-rule="evenodd"/>
            <path fill="#19BD66" d="M354.213 187.856c.376-.152.557-.578.405-.953l-1.944-4.813 1.469-.593c.304-.123.45-.469.328-.773-.123-.304-.469-.45-.773-.328l-4.269 1.725c-.304.123-.45.469-.328.773.123.303.469.45.773.327l1.442-.582 1.944 4.812c.152.375.578.557.953.405z"/>
            <path fill="#FCD834" d="M305.55 122.845c.375.152.802-.029.954-.405l1.944-4.812 1.469.594c.304.122.65-.024.773-.328.122-.304-.024-.65-.328-.773l-4.269-1.724c-.304-.123-.65.024-.773.327-.122.304.024.65.328.773l1.442.582-1.944 4.813c-.152.375.029.802.404.953z"/>
            <path fill="#8847FF" d="M255.156 193.878c.377-.145.566-.568.421-.946l-1.86-4.845 1.479-.568c.306-.118.459-.461.341-.767-.117-.306-.46-.458-.766-.341l-4.299 1.65c-.306.117-.458.461-.341.767.117.305.461.458.767.341l1.451-.558 1.86 4.846c.145.378.569.566.947.421z"/>
            <path fill="#F05660" d="M358.646 128.528c.299.127.644-.013.771-.312s-.012-.644-.312-.771l-2.481-1.054c-.009-.003-.012-.013-.009-.021l.732-1.725c.003-.007.012-.011.019-.008l2.048.87c.291.124.628-.013.752-.304.124-.292-.012-.629-.304-.752l-2.048-.87c-.007-.003-.01-.011-.007-.018l.65-1.532c.003-.008.013-.012.021-.008l2.468 1.047c.302.128.65-.012.778-.314s-.012-.65-.314-.778l-3.81-1.617c-.012-.005-.026 0-.031.012l-2.759 6.501c-.005.012 0 .026.012.031l3.824 1.623z"/>
            <path fill="#131719" fill-rule="evenodd" d="M283.398 190.571c-.231-2.197-2.199-3.791-4.396-3.56-2.197.231-3.791 2.199-3.56 4.396" clip-rule="evenodd"/>
            <path stroke="#F05660" stroke-linecap="round" stroke-width="1.2" d="M283.398 190.571c-.231-2.197-2.199-3.791-4.396-3.56-2.197.231-3.791 2.199-3.56 4.396"/>
            <circle r="2" fill="#8847FF" transform="matrix(-1 0 0 1 358 95)"/>
            <rect width="6" height="6" x="359" y="20" stroke="#F05660" stroke-width="1.2" rx="1"/>
            <rect width="6" height="6" x="333" y="208" stroke="#8847FF" stroke-width="1.2" rx="1"/>
            <rect width="4" height="4" x="296.386" y="162.852" stroke="#19BD66" stroke-width="1.2" rx="1" transform="rotate(-42 296.386 162.852)"/>
            <rect width="6" height="6" x="349.789" y="155.483" stroke="#4FC1E3" stroke-width="1.2" rx="1" transform="rotate(-38 349.789 155.483)"/>
            <rect width="4" height="4" x="336.244" y="44.364" fill="#19BD66" rx="1" transform="rotate(-32 336.244 44.364)"/>
            <rect width="4" height="4" x="285.035" y="134.965" fill="#4FC1E3" rx="1" transform="rotate(1 285.035 134.965)"/>
            <path stroke="#FCD834" stroke-linecap="round" stroke-width="1.2" d="M363.402 212.448l-.171 1.242c-.135.984.7 1.827 1.685 1.701l.333-.042c1.01-.129 1.778.89 1.375 1.825v0c-.402.936.366 1.955 1.376 1.826v0c1.01-.129 1.778.89 1.376 1.825v0c-.403.936.365 1.954 1.375 1.826l.333-.043c.985-.125 1.82.718 1.685 1.702l-.171 1.242M263.172 161.673l1.077.642c.853.508 1.955.069 2.224-.886l.091-.323c.277-.98 1.514-1.289 2.218-.553v0c.705.736 1.942.427 2.218-.553v0c.276-.98 1.514-1.289 2.218-.553v0c.704.736 1.941.427 2.218-.553l.091-.323c.269-.955 1.372-1.394 2.224-.886l1.077.643"/>
            <path stroke="#4FC1E3" stroke-linecap="round" stroke-width="1.2" d="M315.308 97.215l1.119.565c.886.448 1.955-.067 2.157-1.039l.068-.328c.208-.998 1.42-1.391 2.174-.707v0c.754.685 1.967.291 2.174-.706v0c.207-.997 1.42-1.391 2.174-.706v0c.754.685 1.966.29 2.174-.707l.068-.328c.202-.972 1.271-1.487 2.157-1.04l1.119.567"/>
            <path fill-rule="evenodd" stroke="#8847FF" stroke-width="1.2" d="M319.106 140.789c.368-.737 1.42-.737 1.788 0l2.382 4.764c.333.665-.151 1.447-.894 1.447h-4.764c-.743 0-1.227-.782-.894-1.447l2.382-4.764z" clip-rule="evenodd"/>
            <path fill-rule="evenodd" stroke="#4FC1E3" stroke-width="1.2" d="M370.255 1.374c.022-.824.976-1.268 1.621-.756l4.172 3.31c.583.463.475 1.376-.199 1.69l-4.317 2.014c-.674.314-1.443-.19-1.423-.934l.146-5.324z" clip-rule="evenodd"/>
            <path fill="#F05660" fill-rule="evenodd" d="M236.706 213.959c-.354-.744.294-1.573 1.101-1.409l3.029.612c.729.148 1.048 1.01.59 1.596l-1.702 2.178c-.457.586-1.372.485-1.691-.186l-1.327-2.791z" clip-rule="evenodd"/>
            <path fill="#FCD834" d="M310.632 216.975c.324-.022.568-.303.546-.628-.023-.324-.304-.568-.628-.545l-2.674.187c-.018.001-.033-.013-.034-.031l-.129-1.839c-.001-.015.01-.029.026-.03l2.205-.154c.316-.022.555-.296.533-.612-.022-.316-.297-.555-.613-.533l-2.205.155c-.016.001-.029-.011-.03-.026l-.114-1.63c-.001-.018.012-.034.03-.035l2.659-.186c.327-.023.573-.306.55-.633-.022-.327-.306-.573-.633-.551l-4.105.288c-.026.001-.046.024-.044.05l.489 6.998c.002.026.025.045.051.044l4.12-.289z"/>
            <circle r="2" fill="#F05660" transform="matrix(-1 0 0 1 318.211 186)"/>
        </g>
        <path stroke="#212A2D" d="M0 0H374V225H0z"/>
    </g>
    <defs>
        <radialGradient id="paint0_radial" cx="0" cy="0" r="1" gradientTransform="rotate(86.499 33.378 151.04) scale(88.4761)" gradientUnits="userSpaceOnUse">
            <stop stop-color="#131719"/>
            <stop offset="1" stop-color="#131719" stop-opacity=".334"/>
        </radialGradient>
    </defs>
</svg>
