<svg xmlns="http://www.w3.org/2000/svg" width="375" height="226" fill="none" viewBox="0 0 375 226">
    <path fill="#F1F1F2" d="M0 0H375V226H0z"/>
    <mask id="opchj5126a" width="375" height="226" x="0" y="0" maskUnits="userSpaceOnUse">
        <path fill="#fff" d="M0 0H375V226H0z"/>
    </mask>
    <g mask="url(#opchj5126a)">
        <g fill="#D1D1D1" opacity=".3">
            <g opacity=".5">
                <path d="M325.13 242.322H1510.13V243.322H325.13z" transform="rotate(-30 325.13 242.322)"/>
                <path d="M328.63 252.688H1513.63V253.688H328.63z" transform="rotate(-30 328.63 252.688)"/>
                <path d="M332.13 263.054H1517.13V264.054H332.13z" transform="rotate(-30 332.13 263.054)"/>
                <path d="M335.63 273.42H1520.63V274.42H335.63z" transform="rotate(-30 335.63 273.42)"/>
                <path d="M339.13 283.786H1524.13V284.786H339.13z" transform="rotate(-30 339.13 283.786)"/>
                <path d="M342.63 294.152H1527.63V295.152H342.63z" transform="rotate(-30 342.63 294.152)"/>
                <path d="M346.13 304.518H1531.13V305.518H346.13z" transform="rotate(-30 346.13 304.518)"/>
                <path d="M349.63 314.884H1534.63V315.884H349.63z" transform="rotate(-30 349.63 314.884)"/>
                <path d="M353.13 325.25H1538.13V326.25H353.13z" transform="rotate(-30 353.13 325.25)"/>
                <path d="M356.63 335.616H1541.63V336.616H356.63z" transform="rotate(-30 356.63 335.616)"/>
                <path d="M360.13 345.982H1545.13V346.982H360.13z" transform="rotate(-30 360.13 345.982)"/>
                <path d="M363.63 356.348H1548.63V357.348H363.63z" transform="rotate(-30 363.63 356.348)"/>
                <path d="M367.13 366.714H1552.13V367.714H367.13z" transform="rotate(-30 367.13 366.714)"/>
                <path d="M370.63 377.081H1555.63V378.081H370.63z" transform="rotate(-30 370.63 377.081)"/>
                <path d="M374.13 387.447H1559.13V388.447H374.13z" transform="rotate(-30 374.13 387.447)"/>
            </g>
            <g opacity=".5">
                <path d="M-381.87 242.322H803.13V243.322H-381.87z" transform="rotate(-30 -381.87 242.322)"/>
                <path d="M-378.37 252.688H806.63V253.688H-378.37z" transform="rotate(-30 -378.37 252.688)"/>
                <path d="M-374.87 263.054H810.13V264.054H-374.87z" transform="rotate(-30 -374.87 263.054)"/>
                <path d="M-371.37 273.42H813.63V274.42H-371.37z" transform="rotate(-30 -371.37 273.42)"/>
                <path d="M-367.87 283.786H817.13V284.786H-367.87z" transform="rotate(-30 -367.87 283.786)"/>
                <path d="M-364.37 294.152H820.63V295.152H-364.37z" transform="rotate(-30 -364.37 294.152)"/>
                <path d="M-360.87 304.518H824.13V305.518H-360.87z" transform="rotate(-30 -360.87 304.518)"/>
                <path d="M-357.37 314.884H827.63V315.884H-357.37z" transform="rotate(-30 -357.37 314.884)"/>
                <path d="M-353.87 325.25H831.13V326.25H-353.87z" transform="rotate(-30 -353.87 325.25)"/>
                <path d="M-350.37 335.616H834.63V336.616H-350.37z" transform="rotate(-30 -350.37 335.616)"/>
                <path d="M-346.87 345.982H838.13V346.982H-346.87z" transform="rotate(-30 -346.87 345.982)"/>
                <path d="M-343.37 356.348H841.63V357.348H-343.37z" transform="rotate(-30 -343.37 356.348)"/>
                <path d="M-339.87 366.714H845.13V367.714H-339.87z" transform="rotate(-30 -339.87 366.714)"/>
                <path d="M-336.37 377.081H848.63V378.081H-336.37z" transform="rotate(-30 -336.37 377.081)"/>
                <path d="M-332.87 387.447H852.13V388.447H-332.87z" transform="rotate(-30 -332.87 387.447)"/>
                <path d="M-329.37 397.812H855.63V398.812H-329.37z" transform="rotate(-30 -329.37 397.812)"/>
                <path d="M-325.87 408.178H859.13V409.178H-325.87z" transform="rotate(-30 -325.87 408.178)"/>
                <path d="M-322.37 418.545H862.63V419.545H-322.37z" transform="rotate(-30 -322.37 418.545)"/>
                <path d="M-318.87 428.911H866.13V429.911H-318.87z" transform="rotate(-30 -318.87 428.911)"/>
                <path d="M-315.37 439.277H869.63V440.277H-315.37z" transform="rotate(-30 -315.37 439.277)"/>
                <path d="M-311.87 449.643H873.13V450.643H-311.87z" transform="rotate(-30 -311.87 449.643)"/>
                <path d="M-308.37 460.009H876.63V461.009H-308.37z" transform="rotate(-30 -308.37 460.009)"/>
                <path d="M-304.87 470.375H880.13V471.375H-304.87z" transform="rotate(-30 -304.87 470.375)"/>
                <path d="M-301.37 480.741H883.63V481.741H-301.37z" transform="rotate(-30 -301.37 480.741)"/>
                <path d="M-297.87 491.107H887.13V492.107H-297.87z" transform="rotate(-30 -297.87 491.107)"/>
                <path d="M-294.37 501.473H890.63V502.473H-294.37z" transform="rotate(-30 -294.37 501.473)"/>
                <path d="M-290.87 511.839H894.13V512.8389999999999H-290.87z" transform="rotate(-30 -290.87 511.839)"/>
                <path d="M-287.37 522.205H897.63V523.205H-287.37z" transform="rotate(-30 -287.37 522.205)"/>
                <path d="M-283.87 532.571H901.13V533.571H-283.87z" transform="rotate(-30 -283.87 532.571)"/>
                <path d="M-280.37 542.937H904.63V543.937H-280.37z" transform="rotate(-30 -280.37 542.937)"/>
                <path d="M-276.87 553.303H908.13V554.303H-276.87z" transform="rotate(-30 -276.87 553.303)"/>
                <path d="M-273.37 563.669H911.63V564.669H-273.37z" transform="rotate(-30 -273.37 563.669)"/>
                <path d="M-269.87 574.035H915.13V575.035H-269.87z" transform="rotate(-30 -269.87 574.035)"/>
            </g>
            <g opacity=".5">
                <path d="M-1023.37 440.277H161.63V441.277H-1023.37z" transform="rotate(-30 -1023.37 440.277)"/>
                <path d="M-1019.87 450.643H165.13V451.643H-1019.87z" transform="rotate(-30 -1019.87 450.643)"/>
                <path d="M-1016.37 461.009H168.63V462.009H-1016.37z" transform="rotate(-30 -1016.37 461.009)"/>
                <path d="M-1012.87 471.375H172.13V472.375H-1012.87z" transform="rotate(-30 -1012.87 471.375)"/>
                <path d="M-1009.37 481.741H175.63V482.741H-1009.37z" transform="rotate(-30 -1009.37 481.741)"/>
                <path d="M-1005.87 492.107H179.13V493.107H-1005.87z" transform="rotate(-30 -1005.87 492.107)"/>
                <path d="M-1002.37 502.473H182.63V503.473H-1002.37z" transform="rotate(-30 -1002.37 502.473)"/>
                <path d="M-998.87 512.839H186.13V513.839H-998.87z" transform="rotate(-30 -998.87 512.839)"/>
                <path d="M-995.37 523.205H189.63V524.205H-995.37z" transform="rotate(-30 -995.37 523.205)"/>
                <path d="M-991.87 533.571H193.13V534.571H-991.87z" transform="rotate(-30 -991.87 533.571)"/>
                <path d="M-988.37 543.937H196.63V544.937H-988.37z" transform="rotate(-30 -988.37 543.937)"/>
                <path d="M-984.87 554.303H200.13V555.303H-984.87z" transform="rotate(-30 -984.87 554.303)"/>
                <path d="M-981.37 564.669H203.63V565.669H-981.37z" transform="rotate(-30 -981.37 564.669)"/>
                <path d="M-977.87 575.035H207.13V576.035H-977.87z" transform="rotate(-30 -977.87 575.035)"/>
            </g>
        </g>
        <g opacity=".5">
            <path fill="#FCD834" d="M21 92h1.588c0 1.911 1.33 3.421 2.912 3.421 1.526 0 2.817-1.404 2.907-3.218l.005-.203H30c0 2.74-1.99 5-4.5 5-2.439 0-4.386-2.133-4.495-4.766L21 92zM59 151v-1.412c1.529 0 2.737-1.181 2.737-2.588 0-1.357-1.123-2.504-2.575-2.584l-.162-.004V143c2.192 0 4 1.768 4 4 0 2.168-1.706 3.899-3.813 3.996L59 151z"/>
            <path fill="#4FC1E3" d="M29 188h-1.412c0-1.529-1.181-2.737-2.588-2.737-1.357 0-2.504 1.123-2.584 2.574l-.004.163H21c0-2.192 1.768-4 4-4 2.168 0 3.899 1.706 3.996 3.813L29 188z"/>
            <path fill="#8847FF" fill-rule="evenodd" d="M130 208h9v9h-9v-9zm7.412 7.412v-5.824h-5.824v5.824h5.824z" clip-rule="evenodd"/>
            <path fill="#FCD834" fill-rule="evenodd" d="M92.822 204.676l6.036 6.036-6.144 6.143-6.036-6.036 6.144-6.143zm-.089 10.03l3.976-3.975-3.906-3.906-3.975 3.975 3.905 3.906z" clip-rule="evenodd"/>
            <path fill="#F06072" fill-rule="evenodd" d="M11 114v9H2v-9h9zm-7.412 7.412h5.824v-5.824H3.588v5.824z" clip-rule="evenodd"/>
            <path fill="#8847FF" fill-rule="evenodd" d="M39 202v9h-9v-9h9zm-7.412 7.412h5.824v-5.824h-5.824v5.824z" clip-rule="evenodd"/>
            <path fill="#19BD66" d="M27.5 156.5h7v2h-7v-2z"/>
            <path fill="#4FC1E3" d="M114.5 193.5h7v2h-7v-2z"/>
            <path fill="#4FC1E3" fill-rule="evenodd" d="M85 130v2h-2v-2h2zm0 5v-2h-2v2h2zm0 3v-2h-2v2h2z" clip-rule="evenodd"/>
            <path fill="#4FC1E3" d="M78.427 172.5l.073 1.677-2.541.161.133 3.074-1.386.088-.206-4.751 3.927-.249z"/>
            <path fill="#F06072" d="M63.07 203l1.402.024-.044 2.544 2.572.044-.025 1.388-3.975-.069.07-3.931z"/>
            <path fill="#4FC1E3" fill-rule="evenodd" d="M-1 69c0-2.761 2.239-5 5-5s5 2.239 5 5-2.239 5-5 5-5-2.239-5-5zm8.421 0c0-1.89-1.532-3.421-3.421-3.421C2.11 65.579.579 67.11.579 69c0 1.89 1.532 3.421 3.421 3.421 1.89 0 3.421-1.532 3.421-3.421z" clip-rule="evenodd"/>
            <path fill="#F06072" fill-rule="evenodd" d="M109 165c0-2.761 2.239-5 5-5s5 2.239 5 5-2.239 5-5 5-5-2.239-5-5zm8.421 0c0-1.889-1.532-3.421-3.421-3.421-1.889 0-3.421 1.532-3.421 3.421 0 1.889 1.532 3.421 3.421 3.421 1.889 0 3.421-1.532 3.421-3.421z" clip-rule="evenodd"/>
            <path fill="#19BD66" fill-rule="evenodd" d="M35 131c0-2.761 2.239-5 5-5s5 2.239 5 5-2.239 5-5 5-5-2.239-5-5zm8.421 0c0-1.889-1.532-3.421-3.421-3.421-1.89 0-3.421 1.532-3.421 3.421 0 1.889 1.532 3.421 3.421 3.421 1.89 0 3.421-1.532 3.421-3.421z" clip-rule="evenodd"/>
        </g>
        <g opacity=".5">
            <path fill="#4FC1E3" d="M334 115h-1.588c0-1.911-1.329-3.421-2.912-3.421-1.526 0-2.817 1.404-2.907 3.218l-.005.203H325c0-2.74 1.989-5 4.5-5 2.439 0 4.386 2.133 4.495 4.766L334 115z"/>
            <path fill="#F06072" fill-rule="evenodd" d="M359.369 178.771l-6.036-6.037 6.144-6.143 6.036 6.036-6.144 6.144zm.089-10.031l-3.976 3.975 3.906 3.906 3.975-3.975-3.905-3.906z" clip-rule="evenodd"/>
            <path fill="#8847FF" fill-rule="evenodd" d="M239 211h-9v-9h9v9zm-7.412-7.412v5.824h5.824v-5.824h-5.824z" clip-rule="evenodd"/>
            <path fill="#FCD834" fill-rule="evenodd" d="M264.214 167.434l-6.036-6.036 6.144-6.144 6.036 6.036-6.144 6.144zm.089-10.03l-3.975 3.975 3.905 3.906 3.976-3.976-3.906-3.905z" clip-rule="evenodd"/>
            <path fill="#F06072" fill-rule="evenodd" d="M358 95v-9h9v9h-9zm7.412-7.412h-5.824v5.824h5.824v-5.824z" clip-rule="evenodd"/>
            <path fill="#4FC1E3" fill-rule="evenodd" d="M367 53c0 2.761-2.239 5-5 5s-5-2.239-5-5 2.239-5 5-5 5 2.239 5 5zm-8.421 0c0 1.89 1.532 3.421 3.421 3.421 1.889 0 3.421-1.532 3.421-3.421 0-1.89-1.532-3.421-3.421-3.421-1.889 0-3.421 1.532-3.421 3.421z" clip-rule="evenodd"/>
            <path fill="#FCD834" d="M339 86v7h-2v-7h2z"/>
            <path fill="#4FC1E3" d="M267.5 216.5h-7v-2h7v2z"/>
            <path fill="#FCD834" fill-rule="evenodd" d="M295 206v-2h2v2h-2zm0-5v2h2v-2h-2zm0-3v2h2v-2h-2z" clip-rule="evenodd"/>
            <path fill="#4FC1E3" d="M304.573 180.5l-.073-1.677 2.541-.161-.133-3.074 1.386-.088.206 4.751-3.927.249z"/>
            <path fill="#F06072" d="M318.931 145l-1.404-.024.045-2.544-2.572-.044.024-1.388 3.976.069-.069 3.931z"/>
            <path fill="#8847FF" fill-rule="evenodd" d="M357 140c0 2.761-2.239 5-5 5s-5-2.239-5-5 2.239-5 5-5 5 2.239 5 5zm-8.421 0c0 1.889 1.532 3.421 3.421 3.421 1.889 0 3.421-1.532 3.421-3.421 0-1.889-1.532-3.421-3.421-3.421-1.889 0-3.421 1.532-3.421 3.421z" clip-rule="evenodd"/>
            <path fill="#F06072" fill-rule="evenodd" d="M271 190c0 2.761-2.239 5-5 5s-5-2.239-5-5 2.239-5 5-5 5 2.239 5 5zm-8.421 0c0 1.889 1.532 3.421 3.421 3.421 1.889 0 3.421-1.532 3.421-3.421 0-1.889-1.532-3.421-3.421-3.421-1.889 0-3.421 1.532-3.421 3.421z" clip-rule="evenodd"/>
            <path fill="#19BD66" fill-rule="evenodd" d="M299 133c0 2.761-2.239 5-5 5s-5-2.239-5-5 2.239-5 5-5 5 2.239 5 5zm-8.421 0c0 1.889 1.532 3.421 3.421 3.421 1.889 0 3.421-1.532 3.421-3.421 0-1.889-1.532-3.421-3.421-3.421-1.889 0-3.421 1.532-3.421 3.421zM345 204c0 2.761-2.239 5-5 5s-5-2.239-5-5 2.239-5 5-5 5 2.239 5 5zm-8.421 0c0 1.889 1.532 3.421 3.421 3.421 1.889 0 3.421-1.532 3.421-3.421 0-1.889-1.532-3.421-3.421-3.421-1.889 0-3.421 1.532-3.421 3.421z" clip-rule="evenodd"/>
        </g>
        <circle cx="187.5" cy="112.5" r="99.5" fill="url(#paint0_radial)"/>
        <path stroke="#E2E2E2" d="M0.5 0.5H374.5V225.5H0.5z"/>
    </g>
    <defs>
        <radialGradient id="paint0_radial" cx="0" cy="0" r="1" gradientTransform="rotate(86.499 31.252 153.04) scale(88.4761)" gradientUnits="userSpaceOnUse">
            <stop stop-color="#F1F1F2"/>
            <stop offset="1" stop-color="#F1F1F2" stop-opacity=".01"/>
        </radialGradient>
    </defs>
</svg>
