<svg xmlns="http://www.w3.org/2000/svg" width="375" height="226" fill="none" viewBox="0 0 375 226">
    <path fill="#131719" d="M0 0H375V226H0z"/>
    <mask id="mjpk1p2coa" width="375" height="226" x="0" y="0" maskUnits="userSpaceOnUse">
        <path fill="#fff" d="M0 0H375V226H0z"/>
    </mask>
    <g mask="url(#mjpk1p2coa)">
        <g fill="#0B0D0E" opacity=".5">
            <path d="M14.636 342.5H1199.636V343.5H14.636z" transform="rotate(-30 14.636 342.5)"/>
            <path d="M18.136 352.866H1203.136V353.866H18.136z" transform="rotate(-30 18.136 352.866)"/>
            <path d="M21.636 363.232H1206.636V364.232H21.636z" transform="rotate(-30 21.636 363.232)"/>
            <path d="M25.136 373.598H1210.136V374.598H25.136z" transform="rotate(-30 25.136 373.598)"/>
            <path d="M28.636 383.964H1213.636V384.964H28.636z" transform="rotate(-30 28.636 383.964)"/>
            <path d="M32.136 394.33H1217.136V395.33H32.136z" transform="rotate(-30 32.136 394.33)"/>
            <path d="M35.636 404.696H1220.636V405.696H35.636z" transform="rotate(-30 35.636 404.696)"/>
            <path d="M39.136 415.062H1224.136V416.062H39.136z" transform="rotate(-30 39.136 415.062)"/>
            <path d="M42.636 425.428H1227.636V426.428H42.636z" transform="rotate(-30 42.636 425.428)"/>
            <path d="M46.136 435.794H1231.136V436.794H46.136z" transform="rotate(-30 46.136 435.794)"/>
            <path d="M49.636 446.16H1234.636V447.16H49.636z" transform="rotate(-30 49.636 446.16)"/>
            <path d="M53.136 456.526H1238.136V457.526H53.136z" transform="rotate(-30 53.136 456.526)"/>
            <path d="M56.636 466.892H1241.636V467.892H56.636z" transform="rotate(-30 56.636 466.892)"/>
            <path d="M60.136 477.258H1245.136V478.258H60.136z" transform="rotate(-30 60.136 477.258)"/>
            <path d="M63.636 487.624H1248.636V488.624H63.636z" transform="rotate(-30 63.636 487.624)"/>
            <path d="M67.136 497.99H1252.136V498.99H67.136z" transform="rotate(-30 67.136 497.99)"/>
            <path d="M70.636 508.356H1255.636V509.356H70.636z" transform="rotate(-30 70.636 508.356)"/>
            <path d="M74.136 518.722H1259.136V519.722H74.136z" transform="rotate(-30 74.136 518.722)"/>
            <path d="M77.636 529.088H1262.636V530.088H77.636z" transform="rotate(-30 77.636 529.088)"/>
            <path d="M81.136 539.454H1266.136V540.454H81.136z" transform="rotate(-30 81.136 539.454)"/>
            <path d="M84.636 549.82H1269.636V550.82H84.636z" transform="rotate(-30 84.636 549.82)"/>
            <path d="M88.136 560.187H1273.136V561.187H88.136z" transform="rotate(-30 88.136 560.187)"/>
            <path d="M91.636 570.552H1276.636V571.552H91.636z" transform="rotate(-30 91.636 570.552)"/>
            <path d="M95.136 580.918H1280.136V581.918H95.136z" transform="rotate(-30 95.136 580.918)"/>
            <path d="M98.636 591.284H1283.636V592.284H98.636z" transform="rotate(-30 98.636 591.284)"/>
            <path d="M102.136 601.65H1287.136V602.65H102.136z" transform="rotate(-30 102.136 601.65)"/>
            <path d="M105.636 612.017H1290.636V613.017H105.636z" transform="rotate(-30 105.636 612.017)"/>
            <path d="M109.136 622.383H1294.136V623.383H109.136z" transform="rotate(-30 109.136 622.383)"/>
            <path d="M112.636 632.749H1297.636V633.749H112.636z" transform="rotate(-30 112.636 632.749)"/>
            <path d="M116.136 643.115H1301.136V644.115H116.136z" transform="rotate(-30 116.136 643.115)"/>
            <path d="M119.636 653.481H1304.636V654.481H119.636z" transform="rotate(-30 119.636 653.481)"/>
            <path d="M123.136 663.847H1308.136V664.847H123.136z" transform="rotate(-30 123.136 663.847)"/>
            <path d="M126.636 674.213H1311.636V675.213H126.636z" transform="rotate(-30 126.636 674.213)"/>
        </g>
        <g fill="#0B0D0E" opacity=".5">
            <path d="M-693.364 343.5H491.63599999999997V344.5H-693.364z" transform="rotate(-30 -693.364 343.5)"/>
            <path d="M-689.864 353.866H495.13599999999997V354.866H-689.864z" transform="rotate(-30 -689.864 353.866)"/>
            <path d="M-686.364 364.232H498.63599999999997V365.232H-686.364z" transform="rotate(-30 -686.364 364.232)"/>
            <path d="M-682.864 374.598H502.13599999999997V375.598H-682.864z" transform="rotate(-30 -682.864 374.598)"/>
            <path d="M-679.364 384.964H505.63599999999997V385.964H-679.364z" transform="rotate(-30 -679.364 384.964)"/>
            <path d="M-675.864 395.33H509.13599999999997V396.33H-675.864z" transform="rotate(-30 -675.864 395.33)"/>
            <path d="M-672.364 405.696H512.636V406.696H-672.364z" transform="rotate(-30 -672.364 405.696)"/>
            <path d="M-668.864 416.062H516.136V417.062H-668.864z" transform="rotate(-30 -668.864 416.062)"/>
            <path d="M-665.364 426.428H519.636V427.428H-665.364z" transform="rotate(-30 -665.364 426.428)"/>
            <path d="M-661.864 436.794H523.136V437.794H-661.864z" transform="rotate(-30 -661.864 436.794)"/>
            <path d="M-658.364 447.16H526.636V448.16H-658.364z" transform="rotate(-30 -658.364 447.16)"/>
            <path d="M-654.864 457.526H530.136V458.526H-654.864z" transform="rotate(-30 -654.864 457.526)"/>
            <path d="M-651.364 467.892H533.636V468.892H-651.364z" transform="rotate(-30 -651.364 467.892)"/>
            <path d="M-647.864 478.258H537.136V479.258H-647.864z" transform="rotate(-30 -647.864 478.258)"/>
            <path d="M-644.364 488.624H540.636V489.624H-644.364z" transform="rotate(-30 -644.364 488.624)"/>
            <path d="M-640.864 498.99H544.136V499.99H-640.864z" transform="rotate(-30 -640.864 498.99)"/>
            <path d="M-637.364 509.356H547.636V510.356H-637.364z" transform="rotate(-30 -637.364 509.356)"/>
            <path d="M-633.864 519.722H551.136V520.722H-633.864z" transform="rotate(-30 -633.864 519.722)"/>
            <path d="M-630.364 530.088H554.636V531.088H-630.364z" transform="rotate(-30 -630.364 530.088)"/>
            <path d="M-626.864 540.454H558.136V541.454H-626.864z" transform="rotate(-30 -626.864 540.454)"/>
            <path d="M-623.364 550.82H561.636V551.82H-623.364z" transform="rotate(-30 -623.364 550.82)"/>
            <path d="M-619.864 561.187H565.136V562.187H-619.864z" transform="rotate(-30 -619.864 561.187)"/>
            <path d="M-616.364 571.552H568.636V572.552H-616.364z" transform="rotate(-30 -616.364 571.552)"/>
            <path d="M-612.864 581.918H572.136V582.918H-612.864z" transform="rotate(-30 -612.864 581.918)"/>
            <path d="M-609.364 592.284H575.636V593.284H-609.364z" transform="rotate(-30 -609.364 592.284)"/>
            <path d="M-605.864 602.65H579.136V603.65H-605.864z" transform="rotate(-30 -605.864 602.65)"/>
            <path d="M-602.364 613.017H582.636V614.017H-602.364z" transform="rotate(-30 -602.364 613.017)"/>
            <path d="M-598.864 623.383H586.136V624.383H-598.864z" transform="rotate(-30 -598.864 623.383)"/>
            <path d="M-595.364 633.749H589.636V634.749H-595.364z" transform="rotate(-30 -595.364 633.749)"/>
            <path d="M-591.864 644.115H593.136V645.115H-591.864z" transform="rotate(-30 -591.864 644.115)"/>
            <path d="M-588.364 654.481H596.636V655.481H-588.364z" transform="rotate(-30 -588.364 654.481)"/>
            <path d="M-584.864 664.847H600.136V665.847H-584.864z" transform="rotate(-30 -584.864 664.847)"/>
            <path d="M-581.364 675.213H603.636V676.213H-581.364z" transform="rotate(-30 -581.364 675.213)"/>
        </g>
        <g opacity=".5">
            <path fill="#4FC1E3" fill-rule="evenodd" d="M28.746 106.894L14.31 120.041l-4.363-7.871 18.799-5.276zM-2.73 208.901l-10.54 16.435-6.253-6.474 16.794-9.961z" clip-rule="evenodd"/>
            <path fill="#F06072" fill-rule="evenodd" d="M6.182 175.212l-19.248-3.282 3.517-8.284 15.73 11.566zM93.897 216.112l-4.947 18.889-7.946-4.226 12.893-14.663z" clip-rule="evenodd"/>
            <path fill="#4FC1E3" fill-rule="evenodd" d="M127.492 224.796l9.828-4.518-1.877 11.852-7.951-7.334z" clip-rule="evenodd"/>
            <path fill="#8847FF" fill-rule="evenodd" d="M59.001 203.681l4.963-9.611 5.818 10.496-10.78-.885z" clip-rule="evenodd"/>
            <circle cx="50.937" cy="169" r="5" fill="#19BD66"/>
            <circle cx="29.937" cy="46" r="5" fill="#8847FF"/>
            <path fill="#FCD834" d="M8.964 14.157H23.964V17.157H8.964z" transform="rotate(33 8.964 14.157)"/>
            <path fill="#4FC1E3" d="M80.489 162.332H95.489V165.332H80.489z" transform="rotate(-61 80.489 162.332)"/>
            <path fill="#F06072" d="M51.793 126.288H66.793V129.288H51.793z" transform="rotate(-41 51.793 126.288)"/>
            <path fill="#FCD834" d="M11.619 196.407H14.619V199.407H11.619z" transform="rotate(-14 11.619 196.407)"/>
            <path stroke="#8847FF" d="M13.906 149.487l4.171-5.725 4.873 2.96 4.92-5.954"/>
            <path stroke="#FCD834" d="M104.316 183.172l6.84 1.842-1.017 5.61 7.322 2.46M47.895 72.958l1.824 6.844-5.367 1.924 1.53 7.571"/>
            <path stroke="#19BD66" d="M23.77 223.633l3.113-6.362 5.313 2.069 3.812-6.718"/>
        </g>
        <g opacity=".5">
            <path fill="#4FC1E3" fill-rule="evenodd" d="M339.371 145.637l17.501-8.659 2.024 8.77-19.525-.111zM369.794 41.1l10.541-16.436 6.252 6.474-16.793 9.961z" clip-rule="evenodd"/>
            <path fill="#F06072" fill-rule="evenodd" d="M360.883 74.788l19.248 3.282-3.517 8.284-15.731-11.566zM293.571 230.534l13.728-13.884 4.77 7.632-18.498 6.252z" clip-rule="evenodd"/>
            <path fill="#4FC1E3" fill-rule="evenodd" d="M263.814 230.081L253 229.834l6.883-9.83 3.931 10.077z" clip-rule="evenodd"/>
            <path fill="#8847FF" fill-rule="evenodd" d="M311.063 151.319l-4.962 9.611-5.818-10.496 10.78.885z" clip-rule="evenodd"/>
            <circle cx="352.128" cy="23" r="5" fill="#FCD834" transform="rotate(-180 352.128 23)"/>
            <circle cx="336.128" cy="80" r="5" fill="#19BD66" transform="rotate(-180 336.128 80)"/>
            <circle cx="337.128" cy="204" r="5" fill="#8847FF" transform="rotate(-180 337.128 204)"/>
            <path fill="#19BD66" d="M385.128 168H400.128V171H385.128z" transform="rotate(-180 385.128 168)"/>
            <path fill="#FCD834" d="M358.101 235.843H373.101V238.843H358.101z" transform="rotate(-147 358.101 235.843)"/>
            <path fill="#FCD834" d="M310.688 122.102H325.688V125.102H310.688z" transform="rotate(64 310.688 122.102)"/>
            <path fill="#F06072" d="M297.167 181.213H312.167V184.213H297.167z" transform="rotate(159 297.167 181.213)"/>
            <path fill="#8847FF" d="M372.407 192.656H375.407V195.656H372.407z" transform="rotate(168 372.407 192.656)"/>
            <path fill="#FCD834" d="M355.446 53.593H358.446V56.593H355.446z" transform="rotate(166 355.446 53.593)"/>
            <path stroke="#8847FF" d="M343.062 100.768l-4.171 5.725-4.874-2.96-4.92 5.954"/>
            <path stroke="#FCD834" d="M283.21 198.843l-6.076 3.64-3.33-4.629-6.855 3.559M327.507 188.348l-2.985-6.423 4.952-2.827-2.823-7.19"/>
            <path stroke="#8847FF" d="M334.626 33.3l.485 7.066-5.636.865.058 7.724"/>
        </g>
        <circle cx="187.5" cy="108.5" r="99.5" fill="url(#paint0_radial)"/>
        <path stroke="#212A2D" d="M0 0H374V225H0z"/>
    </g>
    <defs>
        <radialGradient id="paint0_radial" cx="0" cy="0" r="1" gradientTransform="rotate(86.499 33.378 151.04) scale(88.4761)" gradientUnits="userSpaceOnUse">
            <stop stop-color="#131719"/>
            <stop offset="1" stop-color="#131719" stop-opacity=".334"/>
        </radialGradient>
    </defs>
</svg>
