<svg xmlns="http://www.w3.org/2000/svg" width="375" height="226" fill="none" viewBox="0 0 375 226">
    <path fill="#F1F1F2" d="M0 0H375V226H0z"/>
    <mask id="66pkt8xfpa" width="375" height="226" x="0" y="0" maskUnits="userSpaceOnUse">
        <path fill="#fff" d="M0 0H375V226H0z"/>
    </mask>
    <g mask="url(#66pkt8xfpa)">
        <g fill="#D1D1D1" opacity=".3">
            <g opacity=".5">
                <path d="M325.13 242.322H1510.13V243.322H325.13z" transform="rotate(-30 325.13 242.322)"/>
                <path d="M328.63 252.688H1513.63V253.688H328.63z" transform="rotate(-30 328.63 252.688)"/>
                <path d="M332.13 263.054H1517.13V264.054H332.13z" transform="rotate(-30 332.13 263.054)"/>
                <path d="M335.63 273.42H1520.63V274.42H335.63z" transform="rotate(-30 335.63 273.42)"/>
                <path d="M339.13 283.786H1524.13V284.786H339.13z" transform="rotate(-30 339.13 283.786)"/>
                <path d="M342.63 294.152H1527.63V295.152H342.63z" transform="rotate(-30 342.63 294.152)"/>
                <path d="M346.13 304.518H1531.13V305.518H346.13z" transform="rotate(-30 346.13 304.518)"/>
                <path d="M349.63 314.884H1534.63V315.884H349.63z" transform="rotate(-30 349.63 314.884)"/>
                <path d="M353.13 325.25H1538.13V326.25H353.13z" transform="rotate(-30 353.13 325.25)"/>
                <path d="M356.63 335.616H1541.63V336.616H356.63z" transform="rotate(-30 356.63 335.616)"/>
                <path d="M360.13 345.982H1545.13V346.982H360.13z" transform="rotate(-30 360.13 345.982)"/>
                <path d="M363.63 356.348H1548.63V357.348H363.63z" transform="rotate(-30 363.63 356.348)"/>
                <path d="M367.13 366.714H1552.13V367.714H367.13z" transform="rotate(-30 367.13 366.714)"/>
                <path d="M370.63 377.081H1555.63V378.081H370.63z" transform="rotate(-30 370.63 377.081)"/>
                <path d="M374.13 387.447H1559.13V388.447H374.13z" transform="rotate(-30 374.13 387.447)"/>
            </g>
            <g opacity=".5">
                <path d="M-381.87 242.322H803.13V243.322H-381.87z" transform="rotate(-30 -381.87 242.322)"/>
                <path d="M-378.37 252.688H806.63V253.688H-378.37z" transform="rotate(-30 -378.37 252.688)"/>
                <path d="M-374.87 263.054H810.13V264.054H-374.87z" transform="rotate(-30 -374.87 263.054)"/>
                <path d="M-371.37 273.42H813.63V274.42H-371.37z" transform="rotate(-30 -371.37 273.42)"/>
                <path d="M-367.87 283.786H817.13V284.786H-367.87z" transform="rotate(-30 -367.87 283.786)"/>
                <path d="M-364.37 294.152H820.63V295.152H-364.37z" transform="rotate(-30 -364.37 294.152)"/>
                <path d="M-360.87 304.518H824.13V305.518H-360.87z" transform="rotate(-30 -360.87 304.518)"/>
                <path d="M-357.37 314.884H827.63V315.884H-357.37z" transform="rotate(-30 -357.37 314.884)"/>
                <path d="M-353.87 325.25H831.13V326.25H-353.87z" transform="rotate(-30 -353.87 325.25)"/>
                <path d="M-350.37 335.616H834.63V336.616H-350.37z" transform="rotate(-30 -350.37 335.616)"/>
                <path d="M-346.87 345.982H838.13V346.982H-346.87z" transform="rotate(-30 -346.87 345.982)"/>
                <path d="M-343.37 356.348H841.63V357.348H-343.37z" transform="rotate(-30 -343.37 356.348)"/>
                <path d="M-339.87 366.714H845.13V367.714H-339.87z" transform="rotate(-30 -339.87 366.714)"/>
                <path d="M-336.37 377.081H848.63V378.081H-336.37z" transform="rotate(-30 -336.37 377.081)"/>
                <path d="M-332.87 387.447H852.13V388.447H-332.87z" transform="rotate(-30 -332.87 387.447)"/>
                <path d="M-329.37 397.812H855.63V398.812H-329.37z" transform="rotate(-30 -329.37 397.812)"/>
                <path d="M-325.87 408.178H859.13V409.178H-325.87z" transform="rotate(-30 -325.87 408.178)"/>
                <path d="M-322.37 418.545H862.63V419.545H-322.37z" transform="rotate(-30 -322.37 418.545)"/>
                <path d="M-318.87 428.911H866.13V429.911H-318.87z" transform="rotate(-30 -318.87 428.911)"/>
                <path d="M-315.37 439.277H869.63V440.277H-315.37z" transform="rotate(-30 -315.37 439.277)"/>
                <path d="M-311.87 449.643H873.13V450.643H-311.87z" transform="rotate(-30 -311.87 449.643)"/>
                <path d="M-308.37 460.009H876.63V461.009H-308.37z" transform="rotate(-30 -308.37 460.009)"/>
                <path d="M-304.87 470.375H880.13V471.375H-304.87z" transform="rotate(-30 -304.87 470.375)"/>
                <path d="M-301.37 480.741H883.63V481.741H-301.37z" transform="rotate(-30 -301.37 480.741)"/>
                <path d="M-297.87 491.107H887.13V492.107H-297.87z" transform="rotate(-30 -297.87 491.107)"/>
                <path d="M-294.37 501.473H890.63V502.473H-294.37z" transform="rotate(-30 -294.37 501.473)"/>
                <path d="M-290.87 511.839H894.13V512.8389999999999H-290.87z" transform="rotate(-30 -290.87 511.839)"/>
                <path d="M-287.37 522.205H897.63V523.205H-287.37z" transform="rotate(-30 -287.37 522.205)"/>
                <path d="M-283.87 532.571H901.13V533.571H-283.87z" transform="rotate(-30 -283.87 532.571)"/>
                <path d="M-280.37 542.937H904.63V543.937H-280.37z" transform="rotate(-30 -280.37 542.937)"/>
                <path d="M-276.87 553.303H908.13V554.303H-276.87z" transform="rotate(-30 -276.87 553.303)"/>
                <path d="M-273.37 563.669H911.63V564.669H-273.37z" transform="rotate(-30 -273.37 563.669)"/>
                <path d="M-269.87 574.035H915.13V575.035H-269.87z" transform="rotate(-30 -269.87 574.035)"/>
            </g>
            <g opacity=".5">
                <path d="M-1023.37 440.277H161.63V441.277H-1023.37z" transform="rotate(-30 -1023.37 440.277)"/>
                <path d="M-1019.87 450.643H165.13V451.643H-1019.87z" transform="rotate(-30 -1019.87 450.643)"/>
                <path d="M-1016.37 461.009H168.63V462.009H-1016.37z" transform="rotate(-30 -1016.37 461.009)"/>
                <path d="M-1012.87 471.375H172.13V472.375H-1012.87z" transform="rotate(-30 -1012.87 471.375)"/>
                <path d="M-1009.37 481.741H175.63V482.741H-1009.37z" transform="rotate(-30 -1009.37 481.741)"/>
                <path d="M-1005.87 492.107H179.13V493.107H-1005.87z" transform="rotate(-30 -1005.87 492.107)"/>
                <path d="M-1002.37 502.473H182.63V503.473H-1002.37z" transform="rotate(-30 -1002.37 502.473)"/>
                <path d="M-998.87 512.839H186.13V513.839H-998.87z" transform="rotate(-30 -998.87 512.839)"/>
                <path d="M-995.37 523.205H189.63V524.205H-995.37z" transform="rotate(-30 -995.37 523.205)"/>
                <path d="M-991.87 533.571H193.13V534.571H-991.87z" transform="rotate(-30 -991.87 533.571)"/>
                <path d="M-988.37 543.937H196.63V544.937H-988.37z" transform="rotate(-30 -988.37 543.937)"/>
                <path d="M-984.87 554.303H200.13V555.303H-984.87z" transform="rotate(-30 -984.87 554.303)"/>
                <path d="M-981.37 564.669H203.63V565.669H-981.37z" transform="rotate(-30 -981.37 564.669)"/>
                <path d="M-977.87 575.035H207.13V576.035H-977.87z" transform="rotate(-30 -977.87 575.035)"/>
            </g>
        </g>
        <g opacity=".6">
            <path fill="#FCD834" fill-rule="evenodd" d="M55.02 146.646c-.256.478-.642.867-1.158 1.164-.51.295-1.036.435-1.578.421-.542-.014-1.054-.185-1.537-.514-.483-.328-.897-.787-1.241-1.378l-.176-.304c-.35-.606-.549-1.203-.596-1.79-.048-.587.056-1.119.313-1.596.257-.477.641-.864 1.154-1.16.513-.296 1.04-.436 1.582-.42.541.017 1.054.192 1.539.527.484.335.9.804 1.25 1.407l.158.275c.35.606.55 1.2.599 1.78.05.58-.054 1.11-.31 1.588zm-3.057.18c.432.214.864.195 1.299-.056.425-.246.656-.601.691-1.067.036-.466-.13-1.02-.497-1.662l-.173-.3c-.373-.645-.771-1.069-1.196-1.271-.425-.202-.852-.179-1.28.068-.426.246-.659.601-.699 1.066-.04.464.124 1.018.49 1.659l.174.3c.363.629.76 1.05 1.191 1.263z" clip-rule="evenodd"/>
            <path fill="#4FC1E3" fill-rule="evenodd" d="M14.401 86.353c-.37.396-.844.67-1.42.825-.568.152-1.113.151-1.632-.002-.52-.154-.97-.452-1.352-.895-.381-.442-.662-.992-.842-1.652l-.091-.34c-.181-.675-.219-1.303-.113-1.883.106-.579.345-1.066.716-1.46.37-.394.843-.668 1.415-.822.572-.153 1.118-.152 1.636.004.519.156.969.459 1.35.907.382.45.663 1.01.843 1.683l.082.306c.181.676.22 1.301.118 1.875-.102.573-.339 1.058-.71 1.454zm-2.998-.617c.361.317.784.411 1.268.281.475-.127.79-.41.945-.852.154-.44.138-1.018-.05-1.733l-.09-.335c-.193-.72-.469-1.232-.827-1.537-.358-.305-.776-.394-1.254-.266-.474.127-.791.41-.95.849-.159.438-.144 1.015.044 1.73l.09.334c.187.702.462 1.21.823 1.529zM69.734 212.236c-.542.008-1.069-.141-1.58-.448-.504-.303-.882-.696-1.132-1.176-.25-.481-.35-1.012-.296-1.594.053-.581.254-1.166.603-1.753l.181-.302c.36-.6.786-1.063 1.277-1.389.49-.326 1.006-.493 1.547-.5.542-.007 1.067.142 1.574.448.508.305.886.698 1.134 1.179.248.482.344 1.016.286 1.602-.058.586-.267 1.177-.625 1.775l-.164.272c-.36.599-.782 1.062-1.266 1.386-.484.325-.997.491-1.539.5zm-1.64-2.586c.023.481.25.85.68 1.108.42.254.844.283 1.268.088.425-.195.829-.608 1.212-1.24l.179-.297c.384-.639.561-1.193.532-1.663-.03-.469-.256-.832-.68-1.086-.422-.254-.845-.285-1.271-.095-.426.191-.83.602-1.214 1.234l-.178.297c-.374.622-.55 1.173-.527 1.654z" clip-rule="evenodd"/>
            <path fill="#19BD66" d="M33.214 65.856c.375-.151.556-.578.404-.953l-1.944-4.813 1.47-.594c.303-.122.45-.468.327-.772s-.468-.45-.772-.328l-4.27 1.725c-.303.123-.45.469-.327.773.122.303.468.45.772.327l1.442-.582 1.944 4.812c.152.375.579.556.954.405z"/>
            <path fill="#8847FF" d="M101.156 220.878c.377-.145.566-.568.421-.946l-1.86-4.845 1.479-.568c.306-.118.459-.461.341-.767-.117-.306-.46-.458-.766-.341l-4.299 1.65c-.306.117-.458.461-.34.767.117.305.46.458.765.341l1.452-.558 1.86 4.846c.145.378.569.566.947.421zM45.955 112.633c.35.202.798.082 1-.268l2.823-4.888c.202-.35.082-.798-.268-1.001-.35-.202-.798-.082-1 .268l-2.823 4.889c-.202.35-.082.798.268 1zM24.948 207.895c.38-.138.576-.559.438-.939l-1.93-5.304c-.139-.38-.559-.576-.94-.438-.38.139-.575.559-.437.939l1.93 5.304c.139.38.56.576.94.438z"/>
            <path fill="#FCD834" d="M55.732 66.11c.405 0 .733-.329.733-.733v-5.645c0-.404-.328-.732-.733-.732-.404 0-.732.328-.732.732v5.645c0 .404.328.732.732.732zM125.421 216.975c.324-.022.568-.303.546-.628-.023-.324-.304-.568-.628-.545l-2.673.187c-.018.001-.034-.013-.035-.031l-.129-1.839c-.001-.015.011-.029.026-.03l2.205-.154c.316-.022.555-.296.533-.612-.022-.316-.297-.555-.613-.533l-2.205.155c-.016.001-.029-.011-.03-.026l-.114-1.63c-.001-.018.012-.034.03-.035l2.659-.186c.327-.023.573-.306.55-.633-.022-.327-.306-.573-.633-.551l-4.105.288c-.026.001-.046.024-.044.05l.489 6.998c.002.026.025.045.051.044l4.12-.289z"/>
            <path stroke="#F05660" stroke-linecap="round" stroke-width="1.2" d="M54 170c-2.21 0-4 1.791-4 4s1.79 4 4 4"/>
            <circle r="2" fill="#F05660" transform="matrix(-1 0 0 1 117 185)"/>
            <circle r="2" fill="#4FC1E3" transform="matrix(-1 0 0 1 45 30)"/>
            <rect width="6" height="6" x="13" y="109" stroke="#FCD834" stroke-width="1.2" rx="1"/>
            <rect width="4" height="4" x="89.175" y="151.852" stroke="#8847FF" stroke-width="1.2" rx="1" transform="rotate(-42 89.175 151.852)"/>
            <rect width="4" height="4" x="29.244" y="186.364" fill="#FCD834" rx="1" transform="rotate(-32 29.244 186.364)"/>
            <rect width="4" height="4" x="80.035" y="120.965" fill="#4FC1E3" rx="1" transform="rotate(1 80.035 120.965)"/>
            <path stroke="#8847FF" stroke-linecap="round" stroke-width="1.2" d="M12.518 138.39l-.526 1.138c-.417.901.135 1.951 1.113 2.119l.331.057c1.004.173 1.44 1.371.782 2.148v0c-.658.777-.222 1.976.782 2.148v0c1.004.172 1.44 1.371.782 2.148v0c-.659.777-.222 1.975.781 2.148l.331.056c.978.168 1.53 1.219 1.114 2.12l-.527 1.138"/>
            <path stroke="#F05660" stroke-linecap="round" stroke-width="1.2" d="M53.207 87.765l.329 1.21c.26.959 1.358 1.409 2.215.909l.29-.17c.88-.513 1.984.125 1.98 1.143v0C58.015 91.876 59.12 92.513 60 92v0c.88-.513 1.984.124 1.98 1.143v0c-.005 1.019 1.1 1.656 1.979 1.143l.29-.17c.857-.5 1.955-.05 2.215.908l.329 1.21M30.047 31.245l-.136-1.247c-.107-.986-1.12-1.603-2.046-1.243l-.312.122c-.95.37-1.94-.433-1.777-1.438v0C25.94 26.433 24.95 25.63 24 26v0c-.95.37-1.94-.433-1.776-1.438v0c.163-1.006-.828-1.808-1.777-1.439l-.313.122c-.924.36-1.939-.257-2.046-1.243l-.135-1.247"/>
            <path stroke="#4FC1E3" stroke-linecap="round" stroke-width="1.2" d="M2.275 183.459l.718-.607c.569-.48.527-1.369-.085-1.793l-.207-.143c-.627-.436-.544-1.388.15-1.708v0c.693-.32.777-1.273.15-1.708v0c-.629-.435-.545-1.388.149-1.708v0c.693-.32.777-1.272.149-1.708l-.207-.143c-.611-.424-.654-1.313-.085-1.793l.719-.607"/>
            <path fill-rule="evenodd" stroke="#FCD834" stroke-width="1.2" d="M92.106 178.789c.368-.737 1.42-.737 1.788 0l2.382 4.764c.333.665-.15 1.447-.894 1.447h-4.764c-.743 0-1.227-.782-.894-1.447l2.382-4.764z" clip-rule="evenodd"/>
            <path fill="#F05660" fill-rule="evenodd" d="M40.495 221.959c-.354-.744.294-1.573 1.101-1.409l3.03.612c.728.148 1.047 1.01.589 1.596l-1.702 2.178c-.457.586-1.371.485-1.69-.186l-1.328-2.791z" clip-rule="evenodd"/>
            <path fill="#8847FF" fill-rule="evenodd" d="M.495 21.96c-.354-.745.294-1.574 1.101-1.41l3.03.612c.728.148 1.047 1.01.589 1.596l-1.702 2.178c-.457.586-1.372.485-1.69-.186L.494 21.96z" clip-rule="evenodd"/>
        </g>
        <g opacity=".6">
            <path fill="#4FC1E3" d="M350.463 53.49c.299.128.644-.012.771-.311.127-.3-.012-.645-.311-.772l-2.294-.973c-.015-.007-.022-.025-.016-.04l2.02-4.759c.158-.372-.016-.802-.388-.96-.372-.158-.802.016-.96.388l-2.474 5.828c-.01.023.001.05.024.06l3.628 1.54z"/>
            <path fill="#FCD834" d="M322.394 76.493c.297.132.645-.001.777-.298s-.001-.645-.298-.777l-2.276-1.013c-.016-.007-.023-.025-.016-.04l2.103-4.723c.164-.37-.002-.803-.371-.967-.37-.165-.803.002-.967.371l-2.576 5.784c-.01.023 0 .05.023.06l3.601 1.603z"/>
            <path fill="#4FC1E3" fill-rule="evenodd" d="M258.945 220.236c-.542.008-1.069-.141-1.579-.448-.506-.303-.883-.696-1.134-1.176-.25-.481-.349-1.012-.295-1.594.053-.581.254-1.166.603-1.753l.181-.302c.361-.6.786-1.063 1.277-1.389.49-.326 1.006-.493 1.547-.5.542-.007 1.067.142 1.574.448.508.305.886.698 1.134 1.179.248.482.344 1.016.286 1.602-.058.586-.267 1.177-.625 1.775l-.164.272c-.36.599-.782 1.062-1.266 1.386-.484.325-.997.491-1.539.5zm-1.639-2.586c.022.481.248.85.678 1.108.422.254.845.283 1.269.088.425-.195.829-.608 1.212-1.24l.179-.297c.384-.639.561-1.193.532-1.663-.03-.469-.256-.832-.68-1.086-.422-.254-.845-.285-1.271-.095-.426.191-.83.602-1.214 1.234l-.178.297c-.374.622-.55 1.173-.527 1.654z" clip-rule="evenodd"/>
            <path fill="#19BD66" d="M347.214 187.856c.375-.152.556-.578.404-.953l-1.944-4.813 1.469-.593c.304-.123.451-.469.328-.773-.123-.304-.469-.45-.772-.328l-4.27 1.725c-.303.123-.45.469-.327.773.122.303.468.45.772.327l1.442-.582 1.944 4.812c.152.375.579.557.954.405z"/>
            <path fill="#FCD834" d="M298.55 122.845c.375.152.802-.029.954-.405l1.944-4.812 1.469.594c.304.122.65-.024.773-.328.122-.304-.024-.65-.328-.773l-4.269-1.724c-.304-.123-.65.024-.773.327-.122.304.024.65.328.773l1.442.582-1.944 4.813c-.152.375.029.802.404.953z"/>
            <path fill="#8847FF" d="M248.156 193.878c.377-.145.566-.568.421-.946l-1.86-4.845 1.479-.568c.306-.118.459-.461.341-.767-.117-.306-.46-.458-.766-.341l-4.299 1.65c-.306.117-.458.461-.341.767.117.305.461.458.767.341l1.451-.558 1.86 4.846c.145.378.569.566.947.421z"/>
            <path fill="#F05660" d="M351.645 128.528c.3.127.645-.013.772-.312s-.013-.644-.312-.771l-2.481-1.054c-.009-.003-.013-.013-.009-.021l.732-1.725c.003-.007.011-.011.018-.008l2.048.87c.292.124.629-.013.753-.304.123-.292-.013-.629-.304-.752l-2.048-.87c-.007-.003-.011-.011-.008-.018l.651-1.532c.003-.008.013-.012.021-.008l2.468 1.047c.302.128.65-.012.778-.314s-.013-.65-.314-.778l-3.81-1.617c-.012-.005-.026 0-.031.012l-2.759 6.501c-.006.012 0 .026.012.031l3.823 1.623z"/>
            <circle cx="372" cy="64" r="3" stroke="#F05660" stroke-width="1.2"/>
            <path stroke="#F05660" stroke-linecap="round" stroke-width="1.2" d="M276.398 190.571c-.231-2.197-2.199-3.791-4.396-3.56-2.197.231-3.791 2.199-3.56 4.396"/>
            <circle r="2" fill="#8847FF" transform="matrix(-1 0 0 1 351 95)"/>
            <circle r="2" fill="#8847FF" transform="matrix(-1 0 0 1 373 188)"/>
            <rect width="6" height="6" x="352" y="20" stroke="#F05660" stroke-width="1.2" rx="1"/>
            <rect width="6" height="6" x="326" y="208" stroke="#8847FF" stroke-width="1.2" rx="1"/>
            <rect width="4" height="4" x="289.386" y="162.852" stroke="#19BD66" stroke-width="1.2" rx="1" transform="rotate(-42 289.386 162.852)"/>
            <rect width="6" height="6" x="342.789" y="155.483" stroke="#4FC1E3" stroke-width="1.2" rx="1" transform="rotate(-38 342.789 155.483)"/>
            <rect width="4" height="4" x="329.244" y="44.364" fill="#19BD66" rx="1" transform="rotate(-32 329.244 44.364)"/>
            <rect width="4" height="4" x="278.035" y="134.965" fill="#4FC1E3" rx="1" transform="rotate(1 278.035 134.965)"/>
            <path stroke="#FCD834" stroke-linecap="round" stroke-width="1.2" d="M356.402 212.448l-.171 1.242c-.135.984.7 1.827 1.685 1.701l.333-.042c1.01-.129 1.778.89 1.375 1.825v0c-.402.936.366 1.955 1.376 1.826v0c1.01-.129 1.778.89 1.376 1.825v0c-.403.936.365 1.954 1.375 1.826l.333-.043c.985-.125 1.82.718 1.685 1.702l-.171 1.242M256.172 161.673l1.077.642c.853.508 1.955.069 2.224-.886l.091-.323c.277-.98 1.514-1.289 2.218-.553v0c.705.736 1.942.427 2.218-.553v0c.276-.98 1.514-1.289 2.218-.553v0c.704.736 1.941.427 2.218-.553l.091-.323c.269-.955 1.372-1.394 2.224-.886l1.077.643"/>
            <path stroke="#4FC1E3" stroke-linecap="round" stroke-width="1.2" d="M308.308 97.215l1.119.565c.886.448 1.955-.067 2.157-1.039l.068-.328c.208-.998 1.42-1.391 2.174-.707v0c.754.685 1.967.291 2.174-.706v0c.207-.997 1.42-1.391 2.174-.706v0c.754.685 1.966.29 2.174-.707l.068-.328c.202-.972 1.271-1.487 2.157-1.04l1.119.567"/>
            <path fill-rule="evenodd" stroke="#8847FF" stroke-width="1.2" d="M312.106 140.789c.368-.737 1.42-.737 1.788 0l2.382 4.764c.333.665-.151 1.447-.894 1.447h-4.764c-.743 0-1.227-.782-.894-1.447l2.382-4.764z" clip-rule="evenodd"/>
            <path fill-rule="evenodd" stroke="#4FC1E3" stroke-width="1.2" d="M363.255 1.374c.022-.824.975-1.268 1.621-.756l4.172 3.31c.582.463.475 1.376-.199 1.69l-4.318 2.014c-.673.314-1.442-.19-1.422-.934l.146-5.324z" clip-rule="evenodd"/>
            <path fill="#F05660" fill-rule="evenodd" d="M229.706 213.959c-.354-.744.294-1.573 1.101-1.409l3.029.612c.729.148 1.048 1.01.59 1.596l-1.702 2.178c-.457.586-1.372.485-1.691-.186l-1.327-2.791z" clip-rule="evenodd"/>
            <path fill="#FCD834" d="M303.632 216.975c.324-.022.568-.303.546-.628-.023-.324-.304-.568-.628-.545l-2.674.187c-.018.001-.033-.013-.034-.031l-.129-1.839c-.001-.015.01-.029.026-.03l2.205-.154c.316-.022.555-.296.533-.612-.022-.316-.297-.555-.613-.533l-2.205.155c-.016.001-.029-.011-.03-.026l-.114-1.63c-.001-.018.012-.034.03-.035l2.659-.186c.327-.023.573-.306.55-.633-.022-.327-.306-.573-.633-.551l-4.105.288c-.026.001-.046.024-.044.05l.489 6.998c.002.026.025.045.051.044l4.12-.289z"/>
            <circle r="2" fill="#F05660" transform="matrix(-1 0 0 1 311.211 186)"/>
        </g>
        <circle cx="187.5" cy="112.5" r="99.5" fill="url(#paint0_radial)"/>
        <path stroke="#E2E2E2" d="M0.5 0.5H374.5V225.5H0.5z"/>
    </g>
    <defs>
        <radialGradient id="paint0_radial" cx="0" cy="0" r="1" gradientTransform="rotate(86.499 31.252 153.04) scale(88.4761)" gradientUnits="userSpaceOnUse">
            <stop stop-color="#F1F1F2"/>
            <stop offset="1" stop-color="#F1F1F2" stop-opacity=".01"/>
        </radialGradient>
    </defs>
</svg>
