<svg xmlns="http://www.w3.org/2000/svg" width="375" height="226" fill="none" viewBox="0 0 375 226">
    <path fill="#131719" d="M0 0H375V226H0z"/>
    <mask id="hqyqr701za" width="375" height="226" x="0" y="0" maskUnits="userSpaceOnUse">
        <path fill="#fff" d="M0 0H375V226H0z"/>
    </mask>
    <g mask="url(#hqyqr701za)">
        <g fill="#0B0D0E" opacity=".5">
            <path d="M14.636 342.5H1199.636V343.5H14.636z" transform="rotate(-30 14.636 342.5)"/>
            <path d="M18.136 352.866H1203.136V353.866H18.136z" transform="rotate(-30 18.136 352.866)"/>
            <path d="M21.636 363.232H1206.636V364.232H21.636z" transform="rotate(-30 21.636 363.232)"/>
            <path d="M25.136 373.598H1210.136V374.598H25.136z" transform="rotate(-30 25.136 373.598)"/>
            <path d="M28.636 383.964H1213.636V384.964H28.636z" transform="rotate(-30 28.636 383.964)"/>
            <path d="M32.136 394.33H1217.136V395.33H32.136z" transform="rotate(-30 32.136 394.33)"/>
            <path d="M35.636 404.696H1220.636V405.696H35.636z" transform="rotate(-30 35.636 404.696)"/>
            <path d="M39.136 415.062H1224.136V416.062H39.136z" transform="rotate(-30 39.136 415.062)"/>
            <path d="M42.636 425.428H1227.636V426.428H42.636z" transform="rotate(-30 42.636 425.428)"/>
            <path d="M46.136 435.794H1231.136V436.794H46.136z" transform="rotate(-30 46.136 435.794)"/>
            <path d="M49.636 446.16H1234.636V447.16H49.636z" transform="rotate(-30 49.636 446.16)"/>
            <path d="M53.136 456.526H1238.136V457.526H53.136z" transform="rotate(-30 53.136 456.526)"/>
            <path d="M56.636 466.892H1241.636V467.892H56.636z" transform="rotate(-30 56.636 466.892)"/>
            <path d="M60.136 477.258H1245.136V478.258H60.136z" transform="rotate(-30 60.136 477.258)"/>
            <path d="M63.636 487.624H1248.636V488.624H63.636z" transform="rotate(-30 63.636 487.624)"/>
            <path d="M67.136 497.99H1252.136V498.99H67.136z" transform="rotate(-30 67.136 497.99)"/>
            <path d="M70.636 508.356H1255.636V509.356H70.636z" transform="rotate(-30 70.636 508.356)"/>
            <path d="M74.136 518.722H1259.136V519.722H74.136z" transform="rotate(-30 74.136 518.722)"/>
            <path d="M77.636 529.088H1262.636V530.088H77.636z" transform="rotate(-30 77.636 529.088)"/>
            <path d="M81.136 539.454H1266.136V540.454H81.136z" transform="rotate(-30 81.136 539.454)"/>
            <path d="M84.636 549.82H1269.636V550.82H84.636z" transform="rotate(-30 84.636 549.82)"/>
            <path d="M88.136 560.187H1273.136V561.187H88.136z" transform="rotate(-30 88.136 560.187)"/>
            <path d="M91.636 570.552H1276.636V571.552H91.636z" transform="rotate(-30 91.636 570.552)"/>
            <path d="M95.136 580.918H1280.136V581.918H95.136z" transform="rotate(-30 95.136 580.918)"/>
            <path d="M98.636 591.284H1283.636V592.284H98.636z" transform="rotate(-30 98.636 591.284)"/>
            <path d="M102.136 601.65H1287.136V602.65H102.136z" transform="rotate(-30 102.136 601.65)"/>
            <path d="M105.636 612.017H1290.636V613.017H105.636z" transform="rotate(-30 105.636 612.017)"/>
            <path d="M109.136 622.383H1294.136V623.383H109.136z" transform="rotate(-30 109.136 622.383)"/>
            <path d="M112.636 632.749H1297.636V633.749H112.636z" transform="rotate(-30 112.636 632.749)"/>
            <path d="M116.136 643.115H1301.136V644.115H116.136z" transform="rotate(-30 116.136 643.115)"/>
            <path d="M119.636 653.481H1304.636V654.481H119.636z" transform="rotate(-30 119.636 653.481)"/>
            <path d="M123.136 663.847H1308.136V664.847H123.136z" transform="rotate(-30 123.136 663.847)"/>
            <path d="M126.636 674.213H1311.636V675.213H126.636z" transform="rotate(-30 126.636 674.213)"/>
        </g>
        <g fill="#0B0D0E" opacity=".5">
            <path d="M-693.364 343.5H491.63599999999997V344.5H-693.364z" transform="rotate(-30 -693.364 343.5)"/>
            <path d="M-689.864 353.866H495.13599999999997V354.866H-689.864z" transform="rotate(-30 -689.864 353.866)"/>
            <path d="M-686.364 364.232H498.63599999999997V365.232H-686.364z" transform="rotate(-30 -686.364 364.232)"/>
            <path d="M-682.864 374.598H502.13599999999997V375.598H-682.864z" transform="rotate(-30 -682.864 374.598)"/>
            <path d="M-679.364 384.964H505.63599999999997V385.964H-679.364z" transform="rotate(-30 -679.364 384.964)"/>
            <path d="M-675.864 395.33H509.13599999999997V396.33H-675.864z" transform="rotate(-30 -675.864 395.33)"/>
            <path d="M-672.364 405.696H512.636V406.696H-672.364z" transform="rotate(-30 -672.364 405.696)"/>
            <path d="M-668.864 416.062H516.136V417.062H-668.864z" transform="rotate(-30 -668.864 416.062)"/>
            <path d="M-665.364 426.428H519.636V427.428H-665.364z" transform="rotate(-30 -665.364 426.428)"/>
            <path d="M-661.864 436.794H523.136V437.794H-661.864z" transform="rotate(-30 -661.864 436.794)"/>
            <path d="M-658.364 447.16H526.636V448.16H-658.364z" transform="rotate(-30 -658.364 447.16)"/>
            <path d="M-654.864 457.526H530.136V458.526H-654.864z" transform="rotate(-30 -654.864 457.526)"/>
            <path d="M-651.364 467.892H533.636V468.892H-651.364z" transform="rotate(-30 -651.364 467.892)"/>
            <path d="M-647.864 478.258H537.136V479.258H-647.864z" transform="rotate(-30 -647.864 478.258)"/>
            <path d="M-644.364 488.624H540.636V489.624H-644.364z" transform="rotate(-30 -644.364 488.624)"/>
            <path d="M-640.864 498.99H544.136V499.99H-640.864z" transform="rotate(-30 -640.864 498.99)"/>
            <path d="M-637.364 509.356H547.636V510.356H-637.364z" transform="rotate(-30 -637.364 509.356)"/>
            <path d="M-633.864 519.722H551.136V520.722H-633.864z" transform="rotate(-30 -633.864 519.722)"/>
            <path d="M-630.364 530.088H554.636V531.088H-630.364z" transform="rotate(-30 -630.364 530.088)"/>
            <path d="M-626.864 540.454H558.136V541.454H-626.864z" transform="rotate(-30 -626.864 540.454)"/>
            <path d="M-623.364 550.82H561.636V551.82H-623.364z" transform="rotate(-30 -623.364 550.82)"/>
            <path d="M-619.864 561.187H565.136V562.187H-619.864z" transform="rotate(-30 -619.864 561.187)"/>
            <path d="M-616.364 571.552H568.636V572.552H-616.364z" transform="rotate(-30 -616.364 571.552)"/>
            <path d="M-612.864 581.918H572.136V582.918H-612.864z" transform="rotate(-30 -612.864 581.918)"/>
            <path d="M-609.364 592.284H575.636V593.284H-609.364z" transform="rotate(-30 -609.364 592.284)"/>
            <path d="M-605.864 602.65H579.136V603.65H-605.864z" transform="rotate(-30 -605.864 602.65)"/>
            <path d="M-602.364 613.017H582.636V614.017H-602.364z" transform="rotate(-30 -602.364 613.017)"/>
            <path d="M-598.864 623.383H586.136V624.383H-598.864z" transform="rotate(-30 -598.864 623.383)"/>
            <path d="M-595.364 633.749H589.636V634.749H-595.364z" transform="rotate(-30 -595.364 633.749)"/>
            <path d="M-591.864 644.115H593.136V645.115H-591.864z" transform="rotate(-30 -591.864 644.115)"/>
            <path d="M-588.364 654.481H596.636V655.481H-588.364z" transform="rotate(-30 -588.364 654.481)"/>
            <path d="M-584.864 664.847H600.136V665.847H-584.864z" transform="rotate(-30 -584.864 664.847)"/>
            <path d="M-581.364 675.213H603.636V676.213H-581.364z" transform="rotate(-30 -581.364 675.213)"/>
        </g>
        <circle cx="187.5" cy="108.5" r="99.5" fill="url(#paint0_radial)"/>
        <g opacity=".5">
            <path fill="#FCD834" d="M17 94h1.588c0 1.911 1.33 3.421 2.912 3.421 1.526 0 2.817-1.404 2.907-3.218l.005-.203H26c0 2.74-1.99 5-4.5 5-2.439 0-4.386-2.133-4.495-4.766L17 94zM55 153v-1.412c1.529 0 2.737-1.181 2.737-2.588 0-1.357-1.123-2.504-2.575-2.584l-.162-.004V145c2.192 0 4 1.768 4 4 0 2.168-1.706 3.899-3.813 3.996L55 153z"/>
            <path fill="#4FC1E3" d="M25 190h-1.412c0-1.529-1.181-2.737-2.588-2.737-1.357 0-2.504 1.123-2.584 2.574l-.004.163H17c0-2.192 1.768-4 4-4 2.168 0 3.899 1.706 3.996 3.813L25 190z"/>
            <path fill="#8847FF" fill-rule="evenodd" d="M126 210h9v9h-9v-9zm7.412 7.412v-5.824h-5.824v5.824h5.824z" clip-rule="evenodd"/>
            <path fill="#FCD834" fill-rule="evenodd" d="M88.822 206.676l6.036 6.036-6.143 6.143-6.037-6.036 6.144-6.143zm-.088 10.03l3.975-3.975-3.906-3.906-3.975 3.975 3.906 3.906z" clip-rule="evenodd"/>
            <path fill="#F06072" fill-rule="evenodd" d="M7 116v9h-9v-9h9zm-7.412 7.412h5.824v-5.824H-.412v5.824z" clip-rule="evenodd"/>
            <path fill="#8847FF" fill-rule="evenodd" d="M35 204v9h-9v-9h9zm-7.412 7.412h5.824v-5.824h-5.824v5.824z" clip-rule="evenodd"/>
            <path fill="#19BD66" d="M23.5 158.5h7v2h-7v-2z"/>
            <path fill="#4FC1E3" d="M110.5 195.5h7v2h-7v-2z"/>
            <path fill="#4FC1E3" fill-rule="evenodd" d="M81 132v2h-2v-2h2zm0 5v-2h-2v2h2zm0 3v-2h-2v2h2z" clip-rule="evenodd"/>
            <path fill="#4FC1E3" d="M74.427 174.5l.073 1.677-2.541.161.133 3.074-1.386.088-.206-4.751 3.927-.249z"/>
            <path fill="#F06072" d="M59.07 205l1.402.024-.044 2.544 2.572.044-.025 1.388-3.975-.069.07-3.931z"/>
            <path fill="#4FC1E3" fill-rule="evenodd" d="M-5 71c0-2.761 2.239-5 5-5s5 2.239 5 5-2.239 5-5 5-5-2.239-5-5zm8.421 0c0-1.89-1.532-3.421-3.421-3.421-1.89 0-3.421 1.532-3.421 3.421 0 1.89 1.532 3.421 3.421 3.421 1.89 0 3.421-1.532 3.421-3.421z" clip-rule="evenodd"/>
            <path fill="#F06072" fill-rule="evenodd" d="M105 167c0-2.761 2.239-5 5-5s5 2.239 5 5-2.239 5-5 5-5-2.239-5-5zm8.421 0c0-1.889-1.532-3.421-3.421-3.421-1.889 0-3.421 1.532-3.421 3.421 0 1.889 1.532 3.421 3.421 3.421 1.889 0 3.421-1.532 3.421-3.421z" clip-rule="evenodd"/>
            <path fill="#19BD66" fill-rule="evenodd" d="M31 133c0-2.761 2.239-5 5-5s5 2.239 5 5-2.239 5-5 5-5-2.239-5-5zm8.421 0c0-1.889-1.532-3.421-3.421-3.421-1.89 0-3.421 1.532-3.421 3.421 0 1.889 1.532 3.421 3.421 3.421 1.89 0 3.421-1.532 3.421-3.421z" clip-rule="evenodd"/>
        </g>
        <g opacity=".5">
            <path fill="#4FC1E3" d="M341 117h-1.588c0-1.911-1.329-3.421-2.912-3.421-1.526 0-2.817 1.404-2.907 3.218l-.005.203H332c0-2.74 1.989-5 4.5-5 2.439 0 4.386 2.133 4.495 4.766L341 117z"/>
            <path fill="#F06072" fill-rule="evenodd" d="M366.369 180.771l-6.036-6.037 6.144-6.143 6.036 6.036-6.144 6.144zm.089-10.031l-3.976 3.975 3.906 3.906 3.975-3.975-3.905-3.906z" clip-rule="evenodd"/>
            <path fill="#8847FF" fill-rule="evenodd" d="M246 213h-9v-9h9v9zm-7.412-7.412v5.824h5.824v-5.824h-5.824z" clip-rule="evenodd"/>
            <path fill="#FCD834" fill-rule="evenodd" d="M271.215 169.434l-6.037-6.036 6.144-6.144 6.036 6.036-6.143 6.144zm.088-10.03l-3.975 3.975 3.906 3.906 3.975-3.976-3.906-3.905z" clip-rule="evenodd"/>
            <path fill="#F06072" fill-rule="evenodd" d="M365 97v-9h9v9h-9zm7.412-7.412h-5.824v5.824h5.824v-5.824z" clip-rule="evenodd"/>
            <path fill="#4FC1E3" fill-rule="evenodd" d="M374 55c0 2.761-2.239 5-5 5s-5-2.239-5-5 2.239-5 5-5 5 2.239 5 5zm-8.421 0c0 1.89 1.532 3.421 3.421 3.421 1.889 0 3.421-1.532 3.421-3.421 0-1.89-1.532-3.421-3.421-3.421-1.889 0-3.421 1.532-3.421 3.421z" clip-rule="evenodd"/>
            <path fill="#FCD834" d="M346 88v7h-2v-7h2z"/>
            <path fill="#4FC1E3" d="M274.5 218.5h-7v-2h7v2z"/>
            <path fill="#FCD834" fill-rule="evenodd" d="M302 208v-2h2v2h-2zm0-5v2h2v-2h-2zm0-3v2h2v-2h-2z" clip-rule="evenodd"/>
            <path fill="#4FC1E3" d="M311.573 182.5l-.073-1.677 2.541-.161-.133-3.074 1.386-.088.206 4.751-3.927.249z"/>
            <path fill="#F06072" d="M325.931 147l-1.404-.024.045-2.544-2.572-.044.024-1.388 3.976.069-.069 3.931z"/>
            <path fill="#8847FF" fill-rule="evenodd" d="M364 142c0 2.761-2.239 5-5 5s-5-2.239-5-5 2.239-5 5-5 5 2.239 5 5zm-8.421 0c0 1.889 1.532 3.421 3.421 3.421 1.889 0 3.421-1.532 3.421-3.421 0-1.889-1.532-3.421-3.421-3.421-1.889 0-3.421 1.532-3.421 3.421z" clip-rule="evenodd"/>
            <path fill="#F06072" fill-rule="evenodd" d="M278 192c0 2.761-2.239 5-5 5s-5-2.239-5-5 2.239-5 5-5 5 2.239 5 5zm-8.421 0c0 1.889 1.532 3.421 3.421 3.421 1.889 0 3.421-1.532 3.421-3.421 0-1.889-1.532-3.421-3.421-3.421-1.889 0-3.421 1.532-3.421 3.421z" clip-rule="evenodd"/>
            <path fill="#19BD66" fill-rule="evenodd" d="M306 135c0 2.761-2.239 5-5 5s-5-2.239-5-5 2.239-5 5-5 5 2.239 5 5zm-8.421 0c0 1.889 1.532 3.421 3.421 3.421 1.889 0 3.421-1.532 3.421-3.421 0-1.889-1.532-3.421-3.421-3.421-1.889 0-3.421 1.532-3.421 3.421zM352 206c0 2.761-2.239 5-5 5s-5-2.239-5-5 2.239-5 5-5 5 2.239 5 5zm-8.421 0c0 1.889 1.532 3.421 3.421 3.421 1.889 0 3.421-1.532 3.421-3.421 0-1.889-1.532-3.421-3.421-3.421-1.889 0-3.421 1.532-3.421 3.421z" clip-rule="evenodd"/>
        </g>
        <path stroke="#212A2D" d="M0 0H374V225H0z"/>
    </g>
    <defs>
        <radialGradient id="paint0_radial" cx="0" cy="0" r="1" gradientTransform="rotate(86.499 33.378 151.04) scale(88.4761)" gradientUnits="userSpaceOnUse">
            <stop stop-color="#131719"/>
            <stop offset="1" stop-color="#131719" stop-opacity=".334"/>
        </radialGradient>
    </defs>
</svg>
