<svg xmlns="http://www.w3.org/2000/svg" width="375" height="226" fill="none" viewBox="0 0 375 226">
    <path fill="#F1F1F2" d="M0 0H375V226H0z"/>
    <mask id="4yz2e1k7sa" width="375" height="226" x="0" y="0" maskUnits="userSpaceOnUse">
        <path fill="#fff" d="M0 0H375V226H0z"/>
    </mask>
    <g mask="url(#4yz2e1k7sa)">
        <g fill="#D1D1D1" opacity=".3">
            <g opacity=".5">
                <path d="M325.13 242.322H1510.13V243.322H325.13z" transform="rotate(-30 325.13 242.322)"/>
                <path d="M328.63 252.688H1513.63V253.688H328.63z" transform="rotate(-30 328.63 252.688)"/>
                <path d="M332.13 263.054H1517.13V264.054H332.13z" transform="rotate(-30 332.13 263.054)"/>
                <path d="M335.63 273.42H1520.63V274.42H335.63z" transform="rotate(-30 335.63 273.42)"/>
                <path d="M339.13 283.786H1524.13V284.786H339.13z" transform="rotate(-30 339.13 283.786)"/>
                <path d="M342.63 294.152H1527.63V295.152H342.63z" transform="rotate(-30 342.63 294.152)"/>
                <path d="M346.13 304.518H1531.13V305.518H346.13z" transform="rotate(-30 346.13 304.518)"/>
                <path d="M349.63 314.884H1534.63V315.884H349.63z" transform="rotate(-30 349.63 314.884)"/>
                <path d="M353.13 325.25H1538.13V326.25H353.13z" transform="rotate(-30 353.13 325.25)"/>
                <path d="M356.63 335.616H1541.63V336.616H356.63z" transform="rotate(-30 356.63 335.616)"/>
                <path d="M360.13 345.982H1545.13V346.982H360.13z" transform="rotate(-30 360.13 345.982)"/>
                <path d="M363.63 356.348H1548.63V357.348H363.63z" transform="rotate(-30 363.63 356.348)"/>
                <path d="M367.13 366.714H1552.13V367.714H367.13z" transform="rotate(-30 367.13 366.714)"/>
                <path d="M370.63 377.081H1555.63V378.081H370.63z" transform="rotate(-30 370.63 377.081)"/>
                <path d="M374.13 387.447H1559.13V388.447H374.13z" transform="rotate(-30 374.13 387.447)"/>
            </g>
            <g opacity=".5">
                <path d="M-381.87 242.322H803.13V243.322H-381.87z" transform="rotate(-30 -381.87 242.322)"/>
                <path d="M-378.37 252.688H806.63V253.688H-378.37z" transform="rotate(-30 -378.37 252.688)"/>
                <path d="M-374.87 263.054H810.13V264.054H-374.87z" transform="rotate(-30 -374.87 263.054)"/>
                <path d="M-371.37 273.42H813.63V274.42H-371.37z" transform="rotate(-30 -371.37 273.42)"/>
                <path d="M-367.87 283.786H817.13V284.786H-367.87z" transform="rotate(-30 -367.87 283.786)"/>
                <path d="M-364.37 294.152H820.63V295.152H-364.37z" transform="rotate(-30 -364.37 294.152)"/>
                <path d="M-360.87 304.518H824.13V305.518H-360.87z" transform="rotate(-30 -360.87 304.518)"/>
                <path d="M-357.37 314.884H827.63V315.884H-357.37z" transform="rotate(-30 -357.37 314.884)"/>
                <path d="M-353.87 325.25H831.13V326.25H-353.87z" transform="rotate(-30 -353.87 325.25)"/>
                <path d="M-350.37 335.616H834.63V336.616H-350.37z" transform="rotate(-30 -350.37 335.616)"/>
                <path d="M-346.87 345.982H838.13V346.982H-346.87z" transform="rotate(-30 -346.87 345.982)"/>
                <path d="M-343.37 356.348H841.63V357.348H-343.37z" transform="rotate(-30 -343.37 356.348)"/>
                <path d="M-339.87 366.714H845.13V367.714H-339.87z" transform="rotate(-30 -339.87 366.714)"/>
                <path d="M-336.37 377.081H848.63V378.081H-336.37z" transform="rotate(-30 -336.37 377.081)"/>
                <path d="M-332.87 387.447H852.13V388.447H-332.87z" transform="rotate(-30 -332.87 387.447)"/>
                <path d="M-329.37 397.812H855.63V398.812H-329.37z" transform="rotate(-30 -329.37 397.812)"/>
                <path d="M-325.87 408.178H859.13V409.178H-325.87z" transform="rotate(-30 -325.87 408.178)"/>
                <path d="M-322.37 418.545H862.63V419.545H-322.37z" transform="rotate(-30 -322.37 418.545)"/>
                <path d="M-318.87 428.911H866.13V429.911H-318.87z" transform="rotate(-30 -318.87 428.911)"/>
                <path d="M-315.37 439.277H869.63V440.277H-315.37z" transform="rotate(-30 -315.37 439.277)"/>
                <path d="M-311.87 449.643H873.13V450.643H-311.87z" transform="rotate(-30 -311.87 449.643)"/>
                <path d="M-308.37 460.009H876.63V461.009H-308.37z" transform="rotate(-30 -308.37 460.009)"/>
                <path d="M-304.87 470.375H880.13V471.375H-304.87z" transform="rotate(-30 -304.87 470.375)"/>
                <path d="M-301.37 480.741H883.63V481.741H-301.37z" transform="rotate(-30 -301.37 480.741)"/>
                <path d="M-297.87 491.107H887.13V492.107H-297.87z" transform="rotate(-30 -297.87 491.107)"/>
                <path d="M-294.37 501.473H890.63V502.473H-294.37z" transform="rotate(-30 -294.37 501.473)"/>
                <path d="M-290.87 511.839H894.13V512.8389999999999H-290.87z" transform="rotate(-30 -290.87 511.839)"/>
                <path d="M-287.37 522.205H897.63V523.205H-287.37z" transform="rotate(-30 -287.37 522.205)"/>
                <path d="M-283.87 532.571H901.13V533.571H-283.87z" transform="rotate(-30 -283.87 532.571)"/>
                <path d="M-280.37 542.937H904.63V543.937H-280.37z" transform="rotate(-30 -280.37 542.937)"/>
                <path d="M-276.87 553.303H908.13V554.303H-276.87z" transform="rotate(-30 -276.87 553.303)"/>
                <path d="M-273.37 563.669H911.63V564.669H-273.37z" transform="rotate(-30 -273.37 563.669)"/>
                <path d="M-269.87 574.035H915.13V575.035H-269.87z" transform="rotate(-30 -269.87 574.035)"/>
            </g>
            <g opacity=".5">
                <path d="M-1023.37 440.277H161.63V441.277H-1023.37z" transform="rotate(-30 -1023.37 440.277)"/>
                <path d="M-1019.87 450.643H165.13V451.643H-1019.87z" transform="rotate(-30 -1019.87 450.643)"/>
                <path d="M-1016.37 461.009H168.63V462.009H-1016.37z" transform="rotate(-30 -1016.37 461.009)"/>
                <path d="M-1012.87 471.375H172.13V472.375H-1012.87z" transform="rotate(-30 -1012.87 471.375)"/>
                <path d="M-1009.37 481.741H175.63V482.741H-1009.37z" transform="rotate(-30 -1009.37 481.741)"/>
                <path d="M-1005.87 492.107H179.13V493.107H-1005.87z" transform="rotate(-30 -1005.87 492.107)"/>
                <path d="M-1002.37 502.473H182.63V503.473H-1002.37z" transform="rotate(-30 -1002.37 502.473)"/>
                <path d="M-998.87 512.839H186.13V513.839H-998.87z" transform="rotate(-30 -998.87 512.839)"/>
                <path d="M-995.37 523.205H189.63V524.205H-995.37z" transform="rotate(-30 -995.37 523.205)"/>
                <path d="M-991.87 533.571H193.13V534.571H-991.87z" transform="rotate(-30 -991.87 533.571)"/>
                <path d="M-988.37 543.937H196.63V544.937H-988.37z" transform="rotate(-30 -988.37 543.937)"/>
                <path d="M-984.87 554.303H200.13V555.303H-984.87z" transform="rotate(-30 -984.87 554.303)"/>
                <path d="M-981.37 564.669H203.63V565.669H-981.37z" transform="rotate(-30 -981.37 564.669)"/>
                <path d="M-977.87 575.035H207.13V576.035H-977.87z" transform="rotate(-30 -977.87 575.035)"/>
            </g>
        </g>
        <g opacity=".6">
            <path stroke="#F06072" d="M22.1 43.219H29.1V50.219H22.1z" transform="rotate(-30 22.1 43.219)"/>
            <path fill-rule="evenodd" stroke="#8847FF" d="M128.665 212.358l7.119-2.591-.287 8.167-7.119 2.591.287-8.167z" clip-rule="evenodd"/>
            <path fill-rule="evenodd" stroke="#4FC1E3" d="M16.706 116.912l-6.252-6.474 9.002-3.634 6.252 6.474-9.002 3.634zM-1.325 12.852l-1.408-8.89 9.458 2.186 1.408 8.89-9.458-2.186z" clip-rule="evenodd"/>
            <path fill-rule="evenodd" stroke="#FDC403" d="M48.642 69.188L57.1 66.11l-.34 9.702L48.3 78.89l.341-9.702z" clip-rule="evenodd"/>
            <path stroke="#FDC403" d="M59.394 210.642H68.394V219.642H59.394z" transform="rotate(22 59.394 210.642)"/>
            <path fill-rule="evenodd" stroke="#19BD66" d="M3.695 72.328l8.007 6.471-9.271 3.746 1.264-10.217z" clip-rule="evenodd"/>
            <path fill-rule="evenodd" stroke="#F06072" d="M62.27 124.67l10.255-.908-4.067 9.136-6.188-8.228z" clip-rule="evenodd"/>
            <circle cx="42.381" cy="152" r="5" stroke="#8847FF"/>
            <circle cx="101.762" cy="183.358" r="6" stroke="#F06072"/>
            <path fill-rule="evenodd" stroke="#FDC403" d="M101.776 146.1l-2.503 2.66-.588-3.605-3.303-1.559 3.246-1.673.462-3.623 2.595 2.57 3.588-.68-1.643 3.262 1.756 3.203-3.61-.555z" clip-rule="evenodd"/>
            <path fill-rule="evenodd" stroke="#4FC1E3" stroke-linejoin="round" d="M42.38 187.5l-2.938 1.545.561-3.272-2.377-2.318 3.285-.478 1.47-2.977 1.47 2.977 3.285.478-2.378 2.318.562 3.272-2.94-1.545z" clip-rule="evenodd"/>
            <path fill-rule="evenodd" stroke="#F06072" d="M5.592 214.691l7.173 2.193 1.687 7.308-5.485 5.115-7.173-2.193-1.687-7.308 5.485-5.115z" clip-rule="evenodd"/>
            <path fill-rule="evenodd" stroke="#FDC403" d="M.644 148.141l5.26 1.608 1.237 5.359-4.023 3.751-5.26-1.608-1.237-5.359 4.023-3.751z" clip-rule="evenodd"/>
        </g>
        <g opacity=".6">
            <path stroke="#F06072" d="M333.281 73.162H340.281V80.162H333.281z" transform="rotate(150 333.281 73.162)"/>
            <path fill-rule="evenodd" stroke="#FDC403" d="M315.499 231.478l-7.318-1.961 4.92-6.525 7.317 1.961-4.919 6.525z" clip-rule="evenodd"/>
            <path fill-rule="evenodd" stroke="#F06072" d="M350.675 118.468l6.252 6.474-9.002 3.635-6.252-6.474 9.002-3.635z" clip-rule="evenodd"/>
            <path fill-rule="evenodd" stroke="#4FC1E3" d="M367.706 219.529l1.408 8.889-9.459-2.186-1.407-8.889 9.458 2.186z" clip-rule="evenodd"/>
            <path fill-rule="evenodd" stroke="#8847FF" d="M368.888 89.312l-4.086-8.019 9.671-.844 4.086 8.02-9.671.843z" clip-rule="evenodd"/>
            <path fill-rule="evenodd" stroke="#19BD66" d="M365 171.381l-5-9h10l-5 9z" clip-rule="evenodd"/>
            <path fill-rule="evenodd" stroke="#FDC403" d="M303.111 152.711l-10.255.907 4.067-9.135 6.188 8.228z" clip-rule="evenodd"/>
            <circle cx="315.619" cy="109.023" r="5" stroke="#4FC1E3" transform="rotate(-180 315.619 109.023)"/>
            <circle cx="281.619" cy="187.023" r="6" stroke="#8AC6DD" transform="rotate(-180 281.619 187.023)"/>
            <path fill-rule="evenodd" stroke="#8847FF" d="M258.5 216.131l3.233-1.7-.618 3.6 2.616 2.549-3.615.525-1.616 3.276-1.616-3.276-3.615-.525 2.616-2.549-.618-3.6 3.233 1.7z" clip-rule="evenodd"/>
            <path fill-rule="evenodd" stroke="#4FC1E3" stroke-linejoin="round" d="M353 48.88l2.939-1.544-.561 3.272 2.377 2.318-3.286.477L353 56.381l-1.469-2.978-3.286-.477 2.377-2.318-.561-3.272L353 48.88z" clip-rule="evenodd"/>
            <path fill-rule="evenodd" stroke="#8847FF" d="M363.737 17.24l-5.26-1.608-1.237-5.36 4.023-3.75 5.259 1.608 1.238 5.359-4.023 3.75z" clip-rule="evenodd"/>
            <path fill-rule="evenodd" stroke="#F06072" d="M333.737 193.24l-5.26-1.608-1.237-5.359 4.023-3.751 5.259 1.608 1.238 5.359-4.023 3.751z" clip-rule="evenodd"/>
        </g>
        <circle cx="187.5" cy="112.5" r="99.5" fill="url(#paint0_radial)"/>
        <path stroke="#E2E2E2" d="M0.5 0.5H374.5V225.5H0.5z"/>
    </g>
    <defs>
        <radialGradient id="paint0_radial" cx="0" cy="0" r="1" gradientTransform="rotate(86.499 31.252 153.04) scale(88.4761)" gradientUnits="userSpaceOnUse">
            <stop stop-color="#F1F1F2"/>
            <stop offset="1" stop-color="#F1F1F2" stop-opacity=".01"/>
        </radialGradient>
    </defs>
</svg>
