<svg xmlns="http://www.w3.org/2000/svg" width="58" height="55" fill="none" viewBox="0 0 58 55">
    <path fill="#9C67FF" stroke="#9C67FF" d="M36.196 45c.306 0 .555-.252.555-.563 0-.31-.249-.562-.555-.562H21.763c-.306 0-.555.252-.555.563 0 .31.249.562.555.562h14.433zM10.882 23.625c.063 0 .127-.01.189-.034.288-.106.438-.427.333-.72l-1.026-2.876c-.475-1.231-.325-2.563.41-3.654.736-1.09 1.905-1.716 3.21-1.716h1.104v8.438c0 7.566 5.932 13.738 13.328 14.034 0 .01-.006.018-.006.028V40.5h-3.33c-.307 0-.555.252-.555.563 0 .31.248.562.555.562h7.771c.306 0 .555-.252.555-.563 0-.31-.248-.562-.555-.562h-3.33v-3.375c0-.01-.006-.018-.006-.028 7.396-.296 13.328-6.468 13.328-14.035v-8.437h1.146c1.316 0 2.53.666 3.251 1.782.72 1.116.836 2.512.313 3.721l-1.245 2.696c-.13.281-.01.616.267.748.077.036.157.053.236.053.208 0 .408-.12.503-.324l1.25-2.709c.68-1.57.531-3.366-.394-4.8-.926-1.435-2.49-2.292-4.181-2.292h-1.146v-2.813c0-.93-.747-1.687-1.665-1.687H16.767c-.918 0-1.665.757-1.665 1.688V13.5h-1.105c-1.65 0-3.194.825-4.125 2.207-.932 1.383-1.13 3.139-.532 4.685l1.02 2.862c.082.23.294.371.522.371zm5.33-12.938c0-.31.25-.562.555-.562h24.425c.305 0 .555.252.555.563v12.374C41.747 30.197 36.019 36 28.979 36c-7.04 0-12.767-5.804-12.767-12.938V10.688z"/>
</svg>
