<svg xmlns="http://www.w3.org/2000/svg" width="58" height="55" fill="none" viewBox="0 0 58 55">
    <path fill="#50C1E3" stroke="#50C1E3" d="M20.14 7c-.338 0-.614.275-.614.614v31.931c0 .339.276.614.615.614.339 0 .614-.275.614-.614V27.264h7.368v5.526c0 .02.01.037.011.057.004.042.013.08.025.123.012.039.027.076.047.111.01.018.01.037.022.054.008.014.024.019.034.031.042.053.092.096.149.133.022.013.039.03.062.042.083.038.17.063.264.063h15.649c.198 0 .382-.094.497-.254.116-.16.148-.364.086-.552l-2.569-7.79 2.57-7.79c.06-.187.029-.393-.087-.553-.115-.16-.3-.254-.497-.254h-6.438v-5.527c0-.339-.275-.614-.614-.614h-16.58V7.614c0-.339-.274-.614-.613-.614zm9.211 20.264h6.443l-6.443 4.368v-4.368zm14.185-9.825l-2.366 7.176c-.041.125-.041.259 0 .384l2.366 7.177H30.738l6.941-4.706c.225-.152.308-.425.24-.672.012-.049.03-.095.03-.148v-9.211h5.587zm-6.816-6.14v14.736H20.755V11.299H36.72zM16.456 42.615c0 .34.275.614.614.614h6.14c.34 0 .615-.275.615-.614 0-.339-.275-.614-.614-.614h-6.14c-.34 0-.615.275-.615.614zM14 46.3c0 .339.275.614.614.614h11.053c.339 0 .614-.275.614-.614 0-.34-.275-.614-.614-.614H14.614c-.339 0-.614.275-.614.614z"/>
</svg>
