<svg xmlns="http://www.w3.org/2000/svg" width="58" height="55" fill="none" viewBox="0 0 58 55">
    <path fill="#F06072" stroke="#F06072" d="M13.924 33.813h1.826v-.005c0 .002.334.002.366 0 2.46-.133 15.168-.383 22.754 6.886.02.02.039.034.058.053.137.132.284.248.417.384.002.002.005.002.007.005 1.198 1.075 2.538 1.69 3.967 1.69 5.12 0 8.982-7.702 8.982-17.914C52.301 14.702 48.44 7 43.32 7c-1.387 0-2.69.576-3.86 1.59-10.269 8.854-23.068 9.375-23.176 9.379h-2.395C9.39 17.969 6 21.196 6 25.477v.24c0 4.388 3.63 8.096 7.924 8.096zm37.159-8.9c0 9.205-3.482 16.695-7.764 16.695-4.36 0-8.042-7.646-8.042-16.695S38.96 8.22 43.319 8.22c4.28 0 7.764 7.489 7.764 16.694zm-34.78-5.726c.117 0 10.642-.424 20.44-7.001-1.667 3.223-2.685 7.702-2.685 12.727 0 4.883.967 9.24 2.55 12.44-7.828-5.088-18.037-4.882-20.333-4.76h-1.294c-.455-1.573-1.884-7.312-.007-13.406h1.328zm-9.084 6.29c0-3.527 2.78-6.186 6.488-6.272-1.708 5.83-.555 11.344.002 13.378-3.54-.123-6.49-3.214-6.49-6.868v-.238z"/>
    <path fill="#F06072" stroke="#F06072" d="M37.078 20.406h-.61c-.336 0-.609.273-.609.61 0 .336.273.609.61.609h.61c1.736 0 3.046 1.258 3.046 2.96 0 1.729-1.367 3.134-3.047 3.134h-.61c-.336 0-.609.273-.609.61 0 .335.273.608.61.608h.61c2.351 0 4.265-1.952 4.265-4.386 0-2.324-1.875-4.145-4.266-4.145zM16.36 35.64c-.337 0-.61.274-.61.61v4.815c0 2.722 2.186 4.935 4.875 4.935s4.875-2.213 4.875-4.935V36.25c0-.336-.273-.61-.61-.61-.336 0-.609.274-.609.61v4.815c0 2.049-1.64 3.716-3.656 3.716s-3.656-1.667-3.656-3.716V36.25c0-.336-.273-.61-.61-.61z"/>
</svg>
