<svg xmlns="http://www.w3.org/2000/svg" width="58" height="55" fill="none" viewBox="0 0 58 55">
    <path stroke="#50C1E3" stroke-linejoin="round" stroke-width="1.6" d="M18.534 43.495c-.144.204-.23.44-.416.623-3.12 3.119-7.802 1.561-7.802 1.561S8.754 41 11.878 37.881c.185-.186.419-.269.624-.416L11.039 36c-1.216.32-2.371.928-3.322 1.878C3.346 42.247 4.04 51.952 4.04 51.952s9.652.751 14.082-3.676c.95-.95 1.558-2.104 1.878-3.32l-1.466-1.462zM6 30.417l7.833-7.834 7.027-1.405C29.769 9.06 46.838 3 53 3c0 6.162-6.06 23.231-18.178 32.14l-1.405 7.027L25.583 50l-1.958-9.792c-3.917 0-3.917 0-5.875-1.958-1.958-1.959-1.958-1.959-1.958-5.875L6 30.417zm28.228-12.8c-2.295 0-4.155 1.86-4.155 4.155 0 2.294 1.86 4.154 4.155 4.154 2.294 0 4.154-1.86 4.154-4.154 0-2.294-1.86-4.154-4.154-4.154z"/>
</svg>
