<?xml version="1.0" encoding="UTF-8"?>
<svg width="22px" height="22px" viewBox="0 0 22 22" version="1.1" xmlns="http://www.w3.org/2000/svg" xmlns:xlink="http://www.w3.org/1999/xlink">
    <title>Alert 1</title>
    <g id="Desktop" stroke="none" stroke-width="1" fill="none" fill-rule="evenodd">
        <g id="Alert-1" transform="translate(1.000000, 1.000000)" fill="#FA4C4C" fill-rule="nonzero">
            <path d="M10,-1 C16.0751322,-1 21,3.92486775 21,10 C21,16.0751322 16.0751322,21 10,21 C3.92486775,21 -1,16.0751322 -1,10 C-1,3.92486775 3.92486775,-1 10,-1 Z M10,1 C5.02943725,1 1,5.02943725 1,10 C1,14.9705627 5.02943725,19 10,19 C14.9705627,19 19,14.9705627 19,10 C19,5.02943725 14.9705627,1 10,1 Z M10.25,13 C10.8022847,13 11.25,13.4477153 11.25,14 C11.25,14.5128358 10.8639598,14.9355072 10.3666211,14.9932723 L10.25,15 L9.75,15 C9.19771525,15 8.75,14.5522847 8.75,14 C8.75,13.4871642 9.13604019,13.0644928 9.63337887,13.0067277 L9.75,13 L10.25,13 Z M10,5 C10.5128358,5 10.9355072,5.38604019 10.9932723,5.88337887 L11,6 L11,10 C11,10.5522847 10.5522847,11 10,11 C9.48716416,11 9.06449284,10.6139598 9.00672773,10.1166211 L9,10 L9,6 C9,5.44771525 9.44771525,5 10,5 Z" id="Combined-Shape"></path>
        </g>
    </g>
</svg>